%TF.GenerationSoftware,KiCad,Pcbnew,9.0.0*%
%TF.CreationDate,2025-10-08T14:33:07-07:00*%
%TF.ProjectId,plusz-end-card-with-turnstile-mezzanine,706c7573-7a2d-4656-9e64-2d636172642d,rev?*%
%TF.SameCoordinates,Original*%
%TF.FileFunction,Soldermask,Top*%
%TF.FilePolarity,Negative*%
%FSLAX46Y46*%
G04 Gerber Fmt 4.6, Leading zero omitted, Abs format (unit mm)*
G04 Created by KiCad (PCBNEW 9.0.0) date 2025-10-08 14:33:07*
%MOMM*%
%LPD*%
G01*
G04 APERTURE LIST*
G04 Aperture macros list*
%AMRoundRect*
0 Rectangle with rounded corners*
0 $1 Rounding radius*
0 $2 $3 $4 $5 $6 $7 $8 $9 X,Y pos of 4 corners*
0 Add a 4 corners polygon primitive as box body*
4,1,4,$2,$3,$4,$5,$6,$7,$8,$9,$2,$3,0*
0 Add four circle primitives for the rounded corners*
1,1,$1+$1,$2,$3*
1,1,$1+$1,$4,$5*
1,1,$1+$1,$6,$7*
1,1,$1+$1,$8,$9*
0 Add four rect primitives between the rounded corners*
20,1,$1+$1,$2,$3,$4,$5,0*
20,1,$1+$1,$4,$5,$6,$7,0*
20,1,$1+$1,$6,$7,$8,$9,0*
20,1,$1+$1,$8,$9,$2,$3,0*%
%AMRotRect*
0 Rectangle, with rotation*
0 The origin of the aperture is its center*
0 $1 length*
0 $2 width*
0 $3 Rotation angle, in degrees counterclockwise*
0 Add horizontal line*
21,1,$1,$2,0,0,$3*%
G04 Aperture macros list end*
%ADD10C,0.100000*%
%ADD11C,1.500000*%
%ADD12C,1.000000*%
%ADD13RoundRect,0.250000X0.350000X0.450000X-0.350000X0.450000X-0.350000X-0.450000X0.350000X-0.450000X0*%
%ADD14RoundRect,0.250000X-0.350000X-0.450000X0.350000X-0.450000X0.350000X0.450000X-0.350000X0.450000X0*%
%ADD15RoundRect,0.250000X-0.450000X0.350000X-0.450000X-0.350000X0.450000X-0.350000X0.450000X0.350000X0*%
%ADD16RotRect,4.000000X11.300000X230.000000*%
%ADD17RoundRect,0.063500X-0.381000X-1.206500X0.381000X-1.206500X0.381000X1.206500X-0.381000X1.206500X0*%
%ADD18C,1.240000*%
%ADD19RoundRect,0.063500X0.381000X1.206500X-0.381000X1.206500X-0.381000X-1.206500X0.381000X-1.206500X0*%
%ADD20RotRect,4.000000X11.300000X130.000000*%
%ADD21RotRect,4.000000X11.300000X50.000000*%
%ADD22RotRect,4.000000X11.300000X310.000000*%
G04 APERTURE END LIST*
D10*
X176101100Y-100698579D02*
G75*
G02*
X171101100Y-100698579I-2500000J0D01*
G01*
X171101100Y-100698579D02*
G75*
G02*
X176101100Y-100698579I2500000J0D01*
G01*
D11*
X160115312Y-110112792D02*
X146901100Y-96898579D01*
X148001100Y-104598579D02*
G75*
G02*
X151101121Y-107698579I0J-3100021D01*
G01*
X186262421Y-89259901D02*
G75*
G02*
X187141127Y-91381220I-2121421J-2121399D01*
G01*
X144601100Y-119498579D02*
X130736634Y-119498579D01*
X114801100Y-118981426D02*
G75*
G02*
X116061746Y-115937895I4304200J26D01*
G01*
X187141100Y-105803579D02*
X187141100Y-117818579D01*
D10*
X151501100Y-125798579D02*
G75*
G02*
X145501100Y-125798579I-3000000J0D01*
G01*
X145501100Y-125798579D02*
G75*
G02*
X151501100Y-125798579I3000000J0D01*
G01*
D11*
X130843740Y-104598579D02*
X148001100Y-104598579D01*
X130836634Y-81975914D02*
G75*
G02*
X129720000Y-81710000I-34J2477314D01*
G01*
X187141100Y-117818579D02*
G75*
G02*
X168561100Y-136498580I-18630000J-50001D01*
G01*
X151101100Y-111298579D02*
X151101100Y-107698579D01*
X182479778Y-85477258D02*
X186262421Y-89259901D01*
X161529528Y-110698579D02*
G75*
G02*
X160115303Y-110112801I-28J1999979D01*
G01*
X124659684Y-107339995D02*
G75*
G02*
X131278053Y-104598554I6618416J-6618405D01*
G01*
X182479778Y-85477258D02*
G75*
G02*
X181601084Y-83355939I2121122J2121258D01*
G01*
X152401100Y-119498579D02*
X166265565Y-119498579D01*
X182061100Y-105883579D02*
X182061100Y-107698579D01*
X181601100Y-77598579D02*
X181601100Y-83355939D01*
X116061765Y-115937914D02*
X124659684Y-107339995D01*
X166265561Y-119492508D02*
G75*
G02*
X167140000Y-119650000I39J-2506092D01*
G01*
X167150000Y-81760000D02*
G75*
G02*
X166282234Y-81914600I-867700J2357700D01*
G01*
X152401100Y-81898579D02*
X166265565Y-81898579D01*
D10*
X125901100Y-100698579D02*
G75*
G02*
X120901100Y-100698579I-2500000J0D01*
G01*
X120901100Y-100698579D02*
G75*
G02*
X125901100Y-100698579I2500000J0D01*
G01*
D11*
X187141100Y-91381220D02*
X187111100Y-95333579D01*
X179061100Y-110698579D02*
X161529528Y-110698579D01*
X145961100Y-90098579D02*
X145961100Y-94863045D01*
X181623451Y-77599911D02*
G75*
G02*
X182770000Y-75330000I3198349J-190989D01*
G01*
X146633334Y-96630814D02*
X146901100Y-96898579D01*
X114801100Y-126908579D02*
X114801100Y-118981426D01*
D10*
X151501100Y-75598579D02*
G75*
G02*
X145501100Y-75598579I-3000000J0D01*
G01*
X145501100Y-75598579D02*
G75*
G02*
X151501100Y-75598579I3000000J0D01*
G01*
D11*
X144701100Y-81998579D02*
X130836634Y-81998579D01*
X124391100Y-136498579D02*
G75*
G02*
X114801121Y-126908579I0J9589979D01*
G01*
X182061100Y-107698579D02*
G75*
G02*
X179061100Y-110698600I-3000000J-21D01*
G01*
X168561100Y-136498579D02*
X124391100Y-136498579D01*
X129744124Y-119705732D02*
G75*
G02*
X130736635Y-119500150I992476J-2292868D01*
G01*
X146633334Y-96630814D02*
G75*
G02*
X145961120Y-94863046I1797766J1695314D01*
G01*
X146901100Y-96898579D02*
X146839778Y-96837258D01*
D12*
%TO.C,FIDUCIAL4*%
X187101100Y-70498579D02*
G75*
G02*
X186101100Y-70498579I-500000J0D01*
G01*
X186101100Y-70498579D02*
G75*
G02*
X187101100Y-70498579I500000J0D01*
G01*
%TO.C,FIDUCIAL2*%
X113101100Y-136498579D02*
G75*
G02*
X112101100Y-136498579I-500000J0D01*
G01*
X112101100Y-136498579D02*
G75*
G02*
X113101100Y-136498579I500000J0D01*
G01*
%TO.C,FIDUCIAL3*%
X113101100Y-70498579D02*
G75*
G02*
X112101100Y-70498579I-500000J0D01*
G01*
X112101100Y-70498579D02*
G75*
G02*
X113101100Y-70498579I500000J0D01*
G01*
%TD*%
D13*
%TO.C,R2*%
X153170000Y-90360000D03*
X151170000Y-90360000D03*
%TD*%
D14*
%TO.C,R3*%
X143710000Y-110990000D03*
X145710000Y-110990000D03*
%TD*%
D15*
%TO.C,R1*%
X182180000Y-93430000D03*
X182180000Y-95430000D03*
%TD*%
D16*
%TO.C,UHF 180*%
X128300000Y-122300000D03*
%TD*%
D17*
%TO.C,U2*%
X145961100Y-87883579D03*
X147231100Y-87883579D03*
X148501100Y-87883579D03*
X149771100Y-87883579D03*
X151041100Y-87883579D03*
X151041100Y-81913579D03*
X149771100Y-81913579D03*
X148501100Y-81913579D03*
X147231100Y-81913579D03*
X145961100Y-81913579D03*
%TD*%
D18*
%TO.C,J1*%
X185601100Y-74598579D03*
X184331100Y-73328579D03*
X184331100Y-75868579D03*
X186871100Y-73328579D03*
X186871100Y-75868579D03*
%TD*%
D19*
%TO.C,U3*%
X151041100Y-113513579D03*
X149771100Y-113513579D03*
X148501100Y-113513579D03*
X147231100Y-113513579D03*
X145961100Y-113513579D03*
X145961100Y-119483579D03*
X147231100Y-119483579D03*
X148501100Y-119483579D03*
X149771100Y-119483579D03*
X151041100Y-119483579D03*
%TD*%
D20*
%TO.C,UHF 90*%
X127500001Y-79900000D03*
%TD*%
D21*
%TO.C,UHF 0*%
X169250000Y-79800000D03*
%TD*%
D19*
%TO.C,U1*%
X187141100Y-97613579D03*
X185871100Y-97613579D03*
X184601100Y-97613579D03*
X183331100Y-97613579D03*
X182061100Y-97613579D03*
X182061100Y-103583579D03*
X183331100Y-103583579D03*
X184601100Y-103583579D03*
X185871100Y-103583579D03*
X187141100Y-103583579D03*
%TD*%
D22*
%TO.C,UHF 270*%
X169359999Y-121590000D03*
%TD*%
M02*
