%TF.GenerationSoftware,KiCad,Pcbnew,9.0.0*%
%TF.CreationDate,2025-10-08T14:33:07-07:00*%
%TF.ProjectId,plusz-end-card-with-turnstile-mezzanine,706c7573-7a2d-4656-9e64-2d636172642d,rev?*%
%TF.SameCoordinates,Original*%
%TF.FileFunction,Copper,L3,Inr*%
%TF.FilePolarity,Positive*%
%FSLAX46Y46*%
G04 Gerber Fmt 4.6, Leading zero omitted, Abs format (unit mm)*
G04 Created by KiCad (PCBNEW 9.0.0) date 2025-10-08 14:33:07*
%MOMM*%
%LPD*%
G01*
G04 APERTURE LIST*
%TA.AperFunction,ComponentPad*%
%ADD10C,1.240000*%
%TD*%
%TA.AperFunction,ViaPad*%
%ADD11C,0.600000*%
%TD*%
%TA.AperFunction,ViaPad*%
%ADD12C,0.457200*%
%TD*%
G04 APERTURE END LIST*
D10*
%TO.N,/plusz-end-card-with-turnstile-mezzanine_1/UHF*%
%TO.C,J1*%
X185601100Y-74598579D03*
%TO.N,GND*%
X184331100Y-73328579D03*
X184331100Y-75868579D03*
X186871100Y-73328579D03*
X186871100Y-75868579D03*
%TD*%
D11*
%TO.N,GND*%
X182170000Y-92360000D03*
D12*
X142741100Y-110528579D03*
X113401100Y-116498579D03*
X187401100Y-124898579D03*
X143601100Y-100598579D03*
X161301100Y-109198579D03*
X152801100Y-80398579D03*
X144301100Y-88898579D03*
X176301100Y-109198579D03*
X179301100Y-112198579D03*
X113301100Y-119998579D03*
X178901100Y-85098579D03*
X144421100Y-106078579D03*
X185401100Y-121098579D03*
X138401100Y-103098579D03*
X138001100Y-134998579D03*
X116261100Y-118738579D03*
X174201100Y-137198579D03*
X183101100Y-79698579D03*
X142001100Y-83398579D03*
X127821100Y-106878579D03*
X137181100Y-120978579D03*
X156101100Y-103598579D03*
X119601100Y-115398579D03*
X164301100Y-112198579D03*
X165001100Y-137998579D03*
X161301100Y-117998579D03*
X149501100Y-80098579D03*
X154140000Y-90210000D03*
X132201100Y-83398579D03*
X184601100Y-95998579D03*
X162001100Y-137998579D03*
X138421100Y-106078579D03*
X135001100Y-134998579D03*
X156001100Y-134998579D03*
X188201100Y-121898579D03*
X135201100Y-80398579D03*
X121461100Y-112638579D03*
X149601100Y-111798579D03*
X183761100Y-100698579D03*
X188601100Y-119198579D03*
X188901100Y-98398579D03*
X117001100Y-69198579D03*
X126401100Y-85598579D03*
X155881100Y-107978579D03*
X144301100Y-83398579D03*
X188601100Y-68698579D03*
X179701100Y-134598579D03*
X140181100Y-80318579D03*
X181501100Y-74298579D03*
X176801100Y-136198579D03*
X147001100Y-134998579D03*
X147501100Y-121198579D03*
X113601100Y-75598579D03*
X148501100Y-111798579D03*
X188301100Y-89598579D03*
X144501100Y-91998579D03*
X147501100Y-89598579D03*
X184401100Y-85298579D03*
X147401100Y-91998579D03*
X156801100Y-117998579D03*
X152701100Y-112398579D03*
X153001100Y-87598579D03*
X147421100Y-106078579D03*
X174201100Y-133998579D03*
X188701100Y-116198579D03*
X188001100Y-100698579D03*
X148501100Y-89598579D03*
X188701100Y-107198579D03*
X115521100Y-114378579D03*
X185601100Y-107198579D03*
X118061100Y-116138579D03*
X144001100Y-138098579D03*
X131181100Y-120978579D03*
X183701100Y-95998579D03*
X147421100Y-103078579D03*
X162501100Y-83398579D03*
X137701100Y-80398579D03*
X126421100Y-104278579D03*
X184601100Y-123898579D03*
X129141100Y-103258579D03*
X113601100Y-110598579D03*
X144501100Y-94998579D03*
X119761100Y-110138579D03*
X164301100Y-117998579D03*
X113601100Y-90598579D03*
X116601100Y-129298579D03*
X143181100Y-117978579D03*
X183701100Y-105198579D03*
X181241100Y-100698579D03*
X152741100Y-100638579D03*
X135201100Y-103098579D03*
X144301100Y-86598579D03*
X133601100Y-130598579D03*
X188701100Y-110198579D03*
X126001100Y-69398579D03*
X147501100Y-94998579D03*
X158101100Y-111198579D03*
X171201100Y-137798579D03*
X182301100Y-132498579D03*
X178601100Y-105598579D03*
X166921100Y-118078579D03*
X154861100Y-102758579D03*
X118601100Y-95598579D03*
X129901100Y-83298579D03*
X164301100Y-109198579D03*
X129001100Y-134998579D03*
X158301100Y-105598579D03*
X135101100Y-83398579D03*
X173301100Y-112198579D03*
X173301100Y-109198579D03*
X141401100Y-103098579D03*
X159801100Y-120998579D03*
X188701100Y-91898579D03*
X168001100Y-137998579D03*
X148501100Y-80098579D03*
X147001100Y-137998579D03*
X183601100Y-120598579D03*
X113101100Y-126298579D03*
X117641100Y-112258579D03*
X159101100Y-106998579D03*
X185881100Y-100698579D03*
X134181100Y-117978579D03*
X188601100Y-85598579D03*
X118601100Y-85598579D03*
X179001100Y-82198579D03*
X159001100Y-134998579D03*
X128081100Y-118978579D03*
X159501100Y-84898579D03*
X119761100Y-114438579D03*
X138601100Y-75598579D03*
X171101100Y-134798579D03*
X150001100Y-134998579D03*
X121801100Y-137798579D03*
X152501100Y-110798579D03*
X138001100Y-138098579D03*
X152701100Y-114998579D03*
X161301100Y-112198579D03*
X126001100Y-134998579D03*
X183301100Y-126498579D03*
X185601100Y-110198579D03*
X145281100Y-97378579D03*
X129001100Y-138098579D03*
X182301100Y-110798579D03*
X118701100Y-136498579D03*
X183501100Y-107198579D03*
X186501100Y-87398579D03*
X150001100Y-137998579D03*
X149501100Y-121198579D03*
X180301100Y-103098579D03*
X161311100Y-120988579D03*
X183601100Y-70598579D03*
X185601100Y-93998579D03*
X151641100Y-103738579D03*
X147301100Y-116498579D03*
X132201100Y-80398579D03*
X123601100Y-90598579D03*
X116401100Y-122998579D03*
X179701100Y-130898579D03*
X147801100Y-70198579D03*
X139701100Y-70598579D03*
X148501100Y-121198579D03*
X185501100Y-105198579D03*
X159801100Y-117998579D03*
X132201100Y-103098579D03*
X144301100Y-80298579D03*
X145201100Y-84798579D03*
X185501100Y-95998579D03*
X159501100Y-83398579D03*
X183601100Y-90598579D03*
X149801100Y-84798579D03*
X140181100Y-120978579D03*
X150621100Y-98518579D03*
X156001100Y-137998579D03*
X139360000Y-83450000D03*
X131181100Y-117978579D03*
X120301100Y-133898579D03*
X176801100Y-132898579D03*
X123381100Y-110718579D03*
X153801100Y-117998579D03*
X180201100Y-76598579D03*
X178601100Y-115598579D03*
X116301100Y-126298579D03*
X168001100Y-134998579D03*
X144001100Y-134998579D03*
X153801100Y-120998579D03*
X113601100Y-80598579D03*
X152501100Y-107698579D03*
X141001100Y-138098579D03*
X141001100Y-134998579D03*
X167301100Y-109198579D03*
X156101100Y-83398579D03*
X156201100Y-80398579D03*
X153761100Y-105858579D03*
X147101100Y-84798579D03*
X126001100Y-138098579D03*
X134181100Y-120978579D03*
X186301100Y-127298579D03*
X136401100Y-83398579D03*
X188701100Y-94898579D03*
X188601100Y-137998579D03*
X153001100Y-137998579D03*
X118001100Y-131998579D03*
X162001100Y-134998579D03*
X151901100Y-105398579D03*
X118601100Y-80598579D03*
X159501100Y-80398579D03*
X180101100Y-81398579D03*
X143181100Y-120978579D03*
X180601100Y-85498579D03*
X153001100Y-85498579D03*
X150221100Y-103678579D03*
X132001100Y-138098579D03*
X149501100Y-107698579D03*
X156981100Y-104878579D03*
X132201100Y-106098579D03*
X184601100Y-105198579D03*
X180401100Y-96098579D03*
X125701100Y-108398579D03*
X143601100Y-130598579D03*
X151801100Y-116498579D03*
X116401100Y-120698579D03*
X124001100Y-105898579D03*
X188901100Y-103798579D03*
X149801100Y-89598579D03*
X156801100Y-120998579D03*
X186601100Y-71698579D03*
X135001100Y-138098579D03*
X182401100Y-87498579D03*
X149521100Y-101618579D03*
X170301100Y-109198579D03*
X165301100Y-80398579D03*
X180401100Y-98398579D03*
X132001100Y-134998579D03*
X185601100Y-118998579D03*
X152701100Y-83398579D03*
X184401100Y-130298579D03*
X180501100Y-106898579D03*
X144401100Y-103098579D03*
X114401100Y-132098579D03*
X153001100Y-134998579D03*
X181701100Y-128798579D03*
X113601100Y-100598579D03*
X184401100Y-89498579D03*
X185601100Y-113198579D03*
X135121100Y-106078579D03*
X110701100Y-68598579D03*
X140181100Y-117978579D03*
X159001100Y-137998579D03*
X145201100Y-116498579D03*
X116701100Y-117698579D03*
X110601100Y-137998579D03*
X149601100Y-116498579D03*
X185601100Y-91898579D03*
X142101100Y-80298579D03*
X147501100Y-80098579D03*
X116201100Y-134598579D03*
X147401100Y-99498579D03*
X180101100Y-78998579D03*
X167301100Y-112198579D03*
X113401100Y-129298579D03*
X113101100Y-123298579D03*
X138601100Y-125598579D03*
X137181100Y-117978579D03*
X164311100Y-120988579D03*
X180101100Y-83498579D03*
X149501100Y-110798579D03*
X178401100Y-109198579D03*
X148501100Y-96398579D03*
X178601100Y-75598579D03*
X170301100Y-112198579D03*
X185601100Y-116198579D03*
X176301100Y-112198579D03*
X168001100Y-83098579D03*
X121881100Y-108018579D03*
X122901100Y-134798579D03*
X183101100Y-82698579D03*
X141421100Y-106078579D03*
X118601100Y-105598579D03*
X165001100Y-134998579D03*
X165301100Y-83398579D03*
X162501100Y-80398579D03*
X188701100Y-113198579D03*
%TD*%
%TA.AperFunction,Conductor*%
%TO.N,GND*%
G36*
X187602107Y-67599645D02*
G01*
X187842402Y-67615395D01*
X187844767Y-67615642D01*
X187887362Y-67621766D01*
X187888984Y-67622043D01*
X188106112Y-67665232D01*
X188108757Y-67665883D01*
X188140682Y-67675257D01*
X188141876Y-67675634D01*
X188361852Y-67750305D01*
X188364729Y-67751447D01*
X188374605Y-67755957D01*
X188375338Y-67756305D01*
X188576682Y-67855597D01*
X188598793Y-67866501D01*
X188602278Y-67868512D01*
X188816350Y-68011549D01*
X188819537Y-68013995D01*
X189013098Y-68183742D01*
X189015942Y-68186586D01*
X189185692Y-68380145D01*
X189188141Y-68383336D01*
X189331176Y-68597401D01*
X189333187Y-68600884D01*
X189443351Y-68824271D01*
X189443743Y-68825098D01*
X189448244Y-68834954D01*
X189449391Y-68837844D01*
X189524055Y-69057793D01*
X189524441Y-69059013D01*
X189533807Y-69090909D01*
X189534462Y-69093574D01*
X189577651Y-69310687D01*
X189577929Y-69312309D01*
X189584056Y-69354914D01*
X189584303Y-69357280D01*
X189600034Y-69597251D01*
X189600100Y-69599262D01*
X189600100Y-137097575D01*
X189600034Y-137099586D01*
X189584184Y-137341432D01*
X189583937Y-137343797D01*
X189578352Y-137382641D01*
X189578074Y-137384264D01*
X189534187Y-137604913D01*
X189533532Y-137607578D01*
X189525363Y-137635398D01*
X189524977Y-137636618D01*
X189448996Y-137860457D01*
X189447850Y-137863345D01*
X189445536Y-137868413D01*
X189445143Y-137869241D01*
X189333184Y-138096277D01*
X189331173Y-138099761D01*
X189188139Y-138313830D01*
X189185690Y-138317021D01*
X189015942Y-138510583D01*
X189013098Y-138513427D01*
X188819538Y-138683177D01*
X188816347Y-138685626D01*
X188602279Y-138828662D01*
X188598795Y-138830673D01*
X188371761Y-138942635D01*
X188370933Y-138943028D01*
X188365863Y-138945343D01*
X188362975Y-138946489D01*
X188139187Y-139022455D01*
X188137967Y-139022841D01*
X188110076Y-139031031D01*
X188107411Y-139031686D01*
X187886790Y-139075570D01*
X187885167Y-139075848D01*
X187846315Y-139081434D01*
X187843950Y-139081681D01*
X187602427Y-139097513D01*
X187600416Y-139097579D01*
X111602104Y-139097579D01*
X111600093Y-139097513D01*
X111357705Y-139081624D01*
X111355340Y-139081377D01*
X111317809Y-139075981D01*
X111316186Y-139075703D01*
X111094318Y-139031572D01*
X111091653Y-139030917D01*
X111065219Y-139023155D01*
X111063999Y-139022769D01*
X110838844Y-138946338D01*
X110835958Y-138945193D01*
X110832521Y-138943624D01*
X110831691Y-138943230D01*
X110727823Y-138892008D01*
X110603409Y-138830653D01*
X110599936Y-138828648D01*
X110385863Y-138685608D01*
X110382674Y-138683160D01*
X110189116Y-138513412D01*
X110186272Y-138510568D01*
X110016526Y-138317009D01*
X110014077Y-138313818D01*
X109946493Y-138212670D01*
X109871044Y-138099750D01*
X109869033Y-138096266D01*
X109861628Y-138081250D01*
X109756442Y-137867950D01*
X109756094Y-137867217D01*
X109754494Y-137863713D01*
X109753354Y-137860841D01*
X109676918Y-137635660D01*
X109676547Y-137634489D01*
X109668772Y-137608006D01*
X109668125Y-137605375D01*
X109623986Y-137383464D01*
X109623718Y-137381898D01*
X109618317Y-137344332D01*
X109618071Y-137341972D01*
X109602166Y-137099257D01*
X109602100Y-137097246D01*
X109602100Y-123652836D01*
X118959307Y-123652836D01*
X118959307Y-123652837D01*
X118959379Y-123653663D01*
X128535567Y-131689041D01*
X128536393Y-131688969D01*
X130169608Y-129742587D01*
X130169536Y-129741761D01*
X130169534Y-129741759D01*
X130168902Y-129741228D01*
X130168902Y-129741229D01*
X129377686Y-129077320D01*
X167437074Y-129077320D01*
X169066273Y-131018917D01*
X169066272Y-131018917D01*
X169066273Y-131018918D01*
X169069759Y-131023071D01*
X169069759Y-131023072D01*
X169070291Y-131023706D01*
X169071117Y-131023778D01*
X178647307Y-122988400D01*
X178647379Y-122987574D01*
X178646847Y-122986940D01*
X178646846Y-122986938D01*
X177014170Y-121041185D01*
X177013344Y-121041113D01*
X177013343Y-121041113D01*
X167437780Y-129075962D01*
X167437779Y-129075961D01*
X167437147Y-129076492D01*
X167437146Y-129076494D01*
X167437074Y-129077320D01*
X129377686Y-129077320D01*
X125329596Y-125680569D01*
X146700600Y-125680569D01*
X146700600Y-125916588D01*
X146731406Y-126150592D01*
X146792491Y-126378566D01*
X146792497Y-126378582D01*
X146882813Y-126596621D01*
X146882816Y-126596628D01*
X147000827Y-126801029D01*
X147144508Y-126988278D01*
X147311401Y-127155171D01*
X147498650Y-127298852D01*
X147703051Y-127416863D01*
X147804637Y-127458941D01*
X147921096Y-127507181D01*
X147921112Y-127507187D01*
X148149086Y-127568272D01*
X148383089Y-127599079D01*
X148383094Y-127599079D01*
X148619106Y-127599079D01*
X148619111Y-127599079D01*
X148853114Y-127568272D01*
X148945632Y-127543481D01*
X149081087Y-127507187D01*
X149081090Y-127507185D01*
X149081093Y-127507185D01*
X149299149Y-127416863D01*
X149503550Y-127298852D01*
X149690799Y-127155171D01*
X149857692Y-126988278D01*
X150001373Y-126801029D01*
X150119384Y-126596628D01*
X150209706Y-126378572D01*
X150270793Y-126150593D01*
X150301600Y-125916590D01*
X150301600Y-125680568D01*
X150270793Y-125446565D01*
X150209708Y-125218591D01*
X150209702Y-125218575D01*
X150119386Y-125000536D01*
X150119384Y-125000530D01*
X150001373Y-124796129D01*
X149857692Y-124608880D01*
X149690799Y-124441987D01*
X149503550Y-124298306D01*
X149299149Y-124180295D01*
X149299142Y-124180292D01*
X149081103Y-124089976D01*
X149081087Y-124089970D01*
X148853113Y-124028885D01*
X148673555Y-124005246D01*
X148619111Y-123998079D01*
X148383089Y-123998079D01*
X148355866Y-124001662D01*
X148149086Y-124028885D01*
X147921112Y-124089970D01*
X147921096Y-124089976D01*
X147703057Y-124180292D01*
X147703041Y-124180300D01*
X147498654Y-124298303D01*
X147311405Y-124441983D01*
X147144504Y-124608884D01*
X147000824Y-124796133D01*
X146882821Y-125000520D01*
X146882813Y-125000536D01*
X146792497Y-125218575D01*
X146792491Y-125218591D01*
X146731406Y-125446565D01*
X146700600Y-125680569D01*
X125329596Y-125680569D01*
X120593341Y-121706379D01*
X120593340Y-121706379D01*
X120592515Y-121706451D01*
X118959839Y-123652201D01*
X118959840Y-123652202D01*
X118959307Y-123652836D01*
X109602100Y-123652836D01*
X109602100Y-100584415D01*
X121950600Y-100584415D01*
X121950600Y-100812742D01*
X121986315Y-101038236D01*
X122056868Y-101255377D01*
X122056870Y-101255382D01*
X122160515Y-101458797D01*
X122160523Y-101458810D01*
X122294716Y-101643510D01*
X122294718Y-101643512D01*
X122294721Y-101643516D01*
X122456163Y-101804958D01*
X122456166Y-101804960D01*
X122456168Y-101804962D01*
X122603289Y-101911852D01*
X122640872Y-101939158D01*
X122640877Y-101939160D01*
X122640881Y-101939163D01*
X122844296Y-102042808D01*
X122844301Y-102042810D01*
X123061440Y-102113363D01*
X123229331Y-102139954D01*
X123286936Y-102149078D01*
X123286937Y-102149078D01*
X123286943Y-102149079D01*
X123286949Y-102149079D01*
X123515251Y-102149079D01*
X123515257Y-102149079D01*
X123740760Y-102113363D01*
X123957899Y-102042810D01*
X124161328Y-101939158D01*
X124346037Y-101804958D01*
X124507479Y-101643516D01*
X124641679Y-101458807D01*
X124745331Y-101255378D01*
X124815884Y-101038239D01*
X124851600Y-100812736D01*
X124851600Y-100584422D01*
X124851599Y-100584415D01*
X172150600Y-100584415D01*
X172150600Y-100812742D01*
X172186315Y-101038236D01*
X172256868Y-101255377D01*
X172256870Y-101255382D01*
X172360515Y-101458797D01*
X172360523Y-101458810D01*
X172494716Y-101643510D01*
X172494718Y-101643512D01*
X172494721Y-101643516D01*
X172656163Y-101804958D01*
X172656166Y-101804960D01*
X172656168Y-101804962D01*
X172803289Y-101911852D01*
X172840872Y-101939158D01*
X172840877Y-101939160D01*
X172840881Y-101939163D01*
X173044296Y-102042808D01*
X173044301Y-102042810D01*
X173261440Y-102113363D01*
X173429331Y-102139954D01*
X173486936Y-102149078D01*
X173486937Y-102149078D01*
X173486943Y-102149079D01*
X173486949Y-102149079D01*
X173715251Y-102149079D01*
X173715257Y-102149079D01*
X173940760Y-102113363D01*
X174157899Y-102042810D01*
X174361328Y-101939158D01*
X174546037Y-101804958D01*
X174707479Y-101643516D01*
X174841679Y-101458807D01*
X174945331Y-101255378D01*
X175015884Y-101038239D01*
X175051600Y-100812736D01*
X175051600Y-100584422D01*
X175015884Y-100358919D01*
X174945331Y-100141780D01*
X174945329Y-100141775D01*
X174841684Y-99938360D01*
X174841681Y-99938356D01*
X174841679Y-99938351D01*
X174707479Y-99753642D01*
X174546037Y-99592200D01*
X174546033Y-99592197D01*
X174546031Y-99592195D01*
X174361331Y-99458002D01*
X174361318Y-99457994D01*
X174157903Y-99354349D01*
X174157898Y-99354347D01*
X173940757Y-99283794D01*
X173715263Y-99248079D01*
X173715257Y-99248079D01*
X173486943Y-99248079D01*
X173486936Y-99248079D01*
X173261442Y-99283794D01*
X173044301Y-99354347D01*
X173044296Y-99354349D01*
X172840881Y-99457994D01*
X172840868Y-99458002D01*
X172656168Y-99592195D01*
X172494716Y-99753647D01*
X172360523Y-99938347D01*
X172360515Y-99938360D01*
X172256870Y-100141775D01*
X172256868Y-100141780D01*
X172186315Y-100358921D01*
X172150600Y-100584415D01*
X124851599Y-100584415D01*
X124815884Y-100358919D01*
X124745331Y-100141780D01*
X124745329Y-100141775D01*
X124641684Y-99938360D01*
X124641681Y-99938356D01*
X124641679Y-99938351D01*
X124507479Y-99753642D01*
X124346037Y-99592200D01*
X124346033Y-99592197D01*
X124346031Y-99592195D01*
X124161331Y-99458002D01*
X124161318Y-99457994D01*
X123957903Y-99354349D01*
X123957898Y-99354347D01*
X123740757Y-99283794D01*
X123515263Y-99248079D01*
X123515257Y-99248079D01*
X123286943Y-99248079D01*
X123286936Y-99248079D01*
X123061442Y-99283794D01*
X122844301Y-99354347D01*
X122844296Y-99354349D01*
X122640881Y-99457994D01*
X122640868Y-99458002D01*
X122456168Y-99592195D01*
X122294716Y-99753647D01*
X122160523Y-99938347D01*
X122160515Y-99938360D01*
X122056870Y-100141775D01*
X122056868Y-100141780D01*
X121986315Y-100358921D01*
X121950600Y-100584415D01*
X109602100Y-100584415D01*
X109602100Y-78502425D01*
X118212620Y-78502425D01*
X119841812Y-80444026D01*
X119841811Y-80444026D01*
X119841812Y-80444027D01*
X119845298Y-80448180D01*
X119845298Y-80448181D01*
X119845830Y-80448815D01*
X119846656Y-80448887D01*
X125767665Y-75480569D01*
X146700600Y-75480569D01*
X146700600Y-75716588D01*
X146731406Y-75950592D01*
X146792491Y-76178566D01*
X146792497Y-76178582D01*
X146882813Y-76396621D01*
X146882816Y-76396628D01*
X147000827Y-76601029D01*
X147144508Y-76788278D01*
X147311401Y-76955171D01*
X147498650Y-77098852D01*
X147703051Y-77216863D01*
X147804637Y-77258941D01*
X147921096Y-77307181D01*
X147921112Y-77307187D01*
X148149086Y-77368272D01*
X148383089Y-77399079D01*
X148383094Y-77399079D01*
X148619106Y-77399079D01*
X148619111Y-77399079D01*
X148853114Y-77368272D01*
X148945632Y-77343481D01*
X149081087Y-77307187D01*
X149081090Y-77307185D01*
X149081093Y-77307185D01*
X149299149Y-77216863D01*
X149503550Y-77098852D01*
X149690799Y-76955171D01*
X149857692Y-76788278D01*
X150001373Y-76601029D01*
X150119384Y-76396628D01*
X150209706Y-76178572D01*
X150270793Y-75950593D01*
X150301600Y-75716590D01*
X150301600Y-75480568D01*
X150270793Y-75246565D01*
X150267936Y-75235902D01*
X150209708Y-75018591D01*
X150209702Y-75018575D01*
X150134867Y-74837910D01*
X150119384Y-74800530D01*
X150001373Y-74596129D01*
X149857692Y-74408880D01*
X149690799Y-74241987D01*
X149503550Y-74098306D01*
X149299149Y-73980295D01*
X149299142Y-73980292D01*
X149081103Y-73889976D01*
X149081087Y-73889970D01*
X148853113Y-73828885D01*
X148673555Y-73805246D01*
X148619111Y-73798079D01*
X148383089Y-73798079D01*
X148355866Y-73801662D01*
X148149086Y-73828885D01*
X147921112Y-73889970D01*
X147921096Y-73889976D01*
X147703057Y-73980292D01*
X147703041Y-73980300D01*
X147498654Y-74098303D01*
X147311405Y-74241983D01*
X147144504Y-74408884D01*
X147000824Y-74596133D01*
X146882821Y-74800520D01*
X146882813Y-74800536D01*
X146792497Y-75018575D01*
X146792491Y-75018591D01*
X146731406Y-75246565D01*
X146700600Y-75480569D01*
X125767665Y-75480569D01*
X129422850Y-72413503D01*
X129422922Y-72412677D01*
X129422390Y-72412043D01*
X129422389Y-72412041D01*
X129390272Y-72373766D01*
X129376556Y-72357420D01*
X167380395Y-72357420D01*
X167380467Y-72358247D01*
X176955630Y-80392763D01*
X176955629Y-80392763D01*
X176956918Y-80393844D01*
X176957479Y-80393552D01*
X176957482Y-80393552D01*
X176957483Y-80393549D01*
X176961096Y-80391672D01*
X176962227Y-80388091D01*
X176962295Y-80387994D01*
X176963288Y-80387361D01*
X176963917Y-80385880D01*
X178590161Y-78447799D01*
X178590162Y-78447799D01*
X178590695Y-78447165D01*
X178590622Y-78446339D01*
X173908730Y-74517765D01*
X184780600Y-74517765D01*
X184780600Y-74679392D01*
X184812130Y-74837908D01*
X184812131Y-74837910D01*
X184873982Y-74987231D01*
X184963776Y-75121617D01*
X185078062Y-75235903D01*
X185212448Y-75325697D01*
X185361769Y-75387548D01*
X185520286Y-75419078D01*
X185520287Y-75419079D01*
X185520288Y-75419079D01*
X185681913Y-75419079D01*
X185681913Y-75419078D01*
X185840431Y-75387548D01*
X185989752Y-75325697D01*
X186124138Y-75235903D01*
X186238424Y-75121617D01*
X186328218Y-74987231D01*
X186390069Y-74837910D01*
X186421600Y-74679391D01*
X186421600Y-74517767D01*
X186390069Y-74359248D01*
X186328218Y-74209927D01*
X186238424Y-74075541D01*
X186124138Y-73961255D01*
X185989752Y-73871461D01*
X185840431Y-73809610D01*
X185840429Y-73809609D01*
X185681913Y-73778079D01*
X185681912Y-73778079D01*
X185520288Y-73778079D01*
X185520287Y-73778079D01*
X185361770Y-73809609D01*
X185361768Y-73809610D01*
X185212448Y-73871461D01*
X185078062Y-73961255D01*
X184963776Y-74075541D01*
X184873982Y-74209927D01*
X184812131Y-74359247D01*
X184812130Y-74359249D01*
X184780600Y-74517765D01*
X173908730Y-74517765D01*
X169014433Y-70410962D01*
X169013606Y-70411034D01*
X167380927Y-72356785D01*
X167380928Y-72356786D01*
X167380395Y-72357420D01*
X129376556Y-72357420D01*
X127789709Y-70466294D01*
X127788883Y-70466222D01*
X127788882Y-70466222D01*
X118213326Y-78501067D01*
X118213325Y-78501066D01*
X118212693Y-78501597D01*
X118212692Y-78501599D01*
X118212620Y-78502425D01*
X109602100Y-78502425D01*
X109602100Y-69599583D01*
X109602166Y-69597572D01*
X109610697Y-69467426D01*
X109617954Y-69356718D01*
X109618198Y-69354386D01*
X109624139Y-69313063D01*
X109624407Y-69311499D01*
X109667854Y-69093091D01*
X109668499Y-69090466D01*
X109677463Y-69059941D01*
X109677817Y-69058821D01*
X109752973Y-68837422D01*
X109754102Y-68834577D01*
X109757871Y-68826326D01*
X109758182Y-68825670D01*
X109869035Y-68600884D01*
X109871035Y-68597421D01*
X110014085Y-68383336D01*
X110016515Y-68380169D01*
X110186274Y-68186598D01*
X110189116Y-68183757D01*
X110382686Y-68014002D01*
X110385854Y-68011570D01*
X110599937Y-67868526D01*
X110603411Y-67866521D01*
X110828154Y-67755691D01*
X110828857Y-67755357D01*
X110837083Y-67751601D01*
X110839962Y-67750459D01*
X111061285Y-67675329D01*
X111062456Y-67674959D01*
X111092999Y-67665991D01*
X111095627Y-67665345D01*
X111313992Y-67621910D01*
X111315582Y-67621637D01*
X111356904Y-67615696D01*
X111359261Y-67615450D01*
X111600416Y-67599644D01*
X111602421Y-67599579D01*
X187600096Y-67599579D01*
X187602107Y-67599645D01*
G37*
%TD.AperFunction*%
%TD*%
M02*
