%TF.GenerationSoftware,KiCad,Pcbnew,9.0.0*%
%TF.CreationDate,2026-04-06T20:12:24-07:00*%
%TF.ProjectId,proves_canted_turnstile,70726f76-6573-45f6-9361-6e7465645f74,rev?*%
%TF.SameCoordinates,Original*%
%TF.FileFunction,Copper,L3,Inr*%
%TF.FilePolarity,Positive*%
%FSLAX46Y46*%
G04 Gerber Fmt 4.6, Leading zero omitted, Abs format (unit mm)*
G04 Created by KiCad (PCBNEW 9.0.0) date 2026-04-06 20:12:24*
%MOMM*%
%LPD*%
G01*
G04 APERTURE LIST*
G04 Aperture macros list*
%AMRoundRect*
0 Rectangle with rounded corners*
0 $1 Rounding radius*
0 $2 $3 $4 $5 $6 $7 $8 $9 X,Y pos of 4 corners*
0 Add a 4 corners polygon primitive as box body*
4,1,4,$2,$3,$4,$5,$6,$7,$8,$9,$2,$3,0*
0 Add four circle primitives for the rounded corners*
1,1,$1+$1,$2,$3*
1,1,$1+$1,$4,$5*
1,1,$1+$1,$6,$7*
1,1,$1+$1,$8,$9*
0 Add four rect primitives between the rounded corners*
20,1,$1+$1,$2,$3,$4,$5,0*
20,1,$1+$1,$4,$5,$6,$7,0*
20,1,$1+$1,$6,$7,$8,$9,0*
20,1,$1+$1,$8,$9,$2,$3,0*%
G04 Aperture macros list end*
%TA.AperFunction,ComponentPad*%
%ADD10C,5.400000*%
%TD*%
%TA.AperFunction,ComponentPad*%
%ADD11RoundRect,0.250000X0.575000X-0.350000X0.575000X0.350000X-0.575000X0.350000X-0.575000X-0.350000X0*%
%TD*%
%TA.AperFunction,ComponentPad*%
%ADD12O,1.650000X1.200000*%
%TD*%
%TA.AperFunction,ComponentPad*%
%ADD13C,1.240000*%
%TD*%
%TA.AperFunction,ComponentPad*%
%ADD14RoundRect,0.250000X-0.350000X-0.575000X0.350000X-0.575000X0.350000X0.575000X-0.350000X0.575000X0*%
%TD*%
%TA.AperFunction,ComponentPad*%
%ADD15O,1.200000X1.650000*%
%TD*%
%TA.AperFunction,ComponentPad*%
%ADD16R,1.700000X1.700000*%
%TD*%
%TA.AperFunction,ComponentPad*%
%ADD17C,1.700000*%
%TD*%
%TA.AperFunction,HeatsinkPad*%
%ADD18O,1.600000X1.000000*%
%TD*%
%TA.AperFunction,HeatsinkPad*%
%ADD19O,2.100000X1.000000*%
%TD*%
%TA.AperFunction,ViaPad*%
%ADD20C,0.600000*%
%TD*%
%TA.AperFunction,Conductor*%
%ADD21C,0.200000*%
%TD*%
G04 APERTURE END LIST*
D10*
%TO.N,N/C*%
%TO.C,H4*%
X182934600Y-82547000D03*
%TD*%
D11*
%TO.N,/Payload_D-*%
%TO.C,J9*%
X108800000Y-51600000D03*
D12*
%TO.N,/Payload_VBUS*%
X110800000Y-51600000D03*
%TO.N,/Payload_D+*%
X108800000Y-49600000D03*
%TO.N,GND*%
X110800000Y-49600000D03*
%TD*%
D10*
%TO.N,N/C*%
%TO.C,H2*%
X104954600Y-82547000D03*
%TD*%
D13*
%TO.N,/UHF*%
%TO.C,J1*%
X177165000Y-114935000D03*
%TO.N,GND*%
X175895000Y-113665000D03*
X175895000Y-116205000D03*
X178435000Y-113665000D03*
X178435000Y-116205000D03*
%TD*%
D14*
%TO.N,GND*%
%TO.C,J11*%
X115000000Y-60600000D03*
D15*
X115000000Y-62600000D03*
%TO.N,WDT_DISABLE*%
X117000000Y-60600000D03*
%TO.N,BURN*%
X117000000Y-62600000D03*
%TO.N,unconnected-(J11-Pin_5-Pad5)*%
X119000000Y-60600000D03*
%TO.N,Dir_Chrg_In*%
X119000000Y-62600000D03*
%TO.N,unconnected-(J11-Pin_7-Pad7)*%
X121000000Y-60600000D03*
%TO.N,+3V3*%
X121000000Y-62600000D03*
%TO.N,USB_D+*%
X123000000Y-60600000D03*
%TO.N,USB_D-*%
X123000000Y-62600000D03*
%TO.N,FC_USBBOOT*%
X125000000Y-60600000D03*
%TO.N,~{FC_RESET}*%
X125000000Y-62600000D03*
%TD*%
D10*
%TO.N,N/C*%
%TO.C,H1*%
X143675000Y-121519200D03*
%TD*%
%TO.N,N/C*%
%TO.C,H3*%
X143675000Y-43569200D03*
%TD*%
D16*
%TO.N,WDT_DISABLE*%
%TO.C,J10*%
X121400000Y-44400000D03*
D17*
%TO.N,GND*%
X118860000Y-44400000D03*
%TD*%
D16*
%TO.N,Dir_Chrg_In*%
%TO.C,J3*%
X121475000Y-49800000D03*
D17*
%TO.N,GND*%
X118935000Y-49800000D03*
%TD*%
D18*
%TO.N,GND*%
%TO.C,J12*%
X97750000Y-65920000D03*
D19*
X101930000Y-65920000D03*
D18*
X97750000Y-57280000D03*
D19*
X101930000Y-57280000D03*
%TD*%
D16*
%TO.N,~{FC_RESET}*%
%TO.C,J6*%
X121375000Y-36900000D03*
D17*
%TO.N,GND*%
X118835000Y-36900000D03*
%TD*%
D16*
%TO.N,FC_USBBOOT*%
%TO.C,J7*%
X121375000Y-40700000D03*
D17*
%TO.N,GND*%
X118835000Y-40700000D03*
%TD*%
D18*
%TO.N,GND*%
%TO.C,J8*%
X97750000Y-54920000D03*
D19*
X101930000Y-54920000D03*
D18*
X97750000Y-46280000D03*
D19*
X101930000Y-46280000D03*
%TD*%
D20*
%TO.N,GND*%
X126250000Y-119750000D03*
X171100000Y-66600000D03*
X126350000Y-109600000D03*
X156800000Y-101200000D03*
X168200000Y-109800000D03*
X116050000Y-90200000D03*
X111252000Y-35991800D03*
X153400000Y-98200000D03*
X156800000Y-64400000D03*
X163000000Y-85600000D03*
X105200000Y-55000000D03*
X161600000Y-90200000D03*
X191490600Y-66954400D03*
X125050000Y-109000000D03*
X152950000Y-57800000D03*
X127800000Y-98400000D03*
X152750000Y-54400000D03*
X163600000Y-90000000D03*
X183800000Y-74300000D03*
X161300000Y-58550000D03*
X134696200Y-99644200D03*
X127000000Y-97400000D03*
X119200000Y-93050000D03*
X157000000Y-98800000D03*
X124282200Y-94767400D03*
X130800000Y-37050000D03*
X188061600Y-69646800D03*
X162814000Y-102362000D03*
X156400000Y-72600000D03*
X109200000Y-48000000D03*
X154400000Y-68600000D03*
X160450000Y-57750000D03*
X152200000Y-95800000D03*
X160200000Y-82800000D03*
X167800000Y-112600000D03*
X151300000Y-86700000D03*
X136900000Y-107900000D03*
X129950000Y-107900000D03*
X168500000Y-73200000D03*
X157000000Y-67400000D03*
X118050000Y-102100000D03*
X158000000Y-99800000D03*
X169800000Y-64100000D03*
X135534400Y-82423000D03*
X108712000Y-37617400D03*
X160200000Y-67800000D03*
X151000000Y-95600000D03*
X114900000Y-94400000D03*
X127450000Y-110000000D03*
X156350000Y-91800000D03*
X148850000Y-66650000D03*
X161600000Y-93200000D03*
X156800000Y-78000000D03*
X160000000Y-54850000D03*
X104343200Y-109905800D03*
X108661200Y-67411600D03*
X131250000Y-107900000D03*
X157400000Y-79800000D03*
X169150000Y-75100000D03*
X159200000Y-84800000D03*
X155600000Y-65400000D03*
X138709400Y-100812600D03*
X171100000Y-76100000D03*
X136575800Y-72644000D03*
X174000000Y-116000000D03*
X157800000Y-83400000D03*
X171800000Y-115800000D03*
X171150000Y-69050000D03*
X131300000Y-90900000D03*
X144348200Y-92837000D03*
X163600000Y-93800000D03*
X118450000Y-89150000D03*
X148818600Y-86868000D03*
X131495800Y-61010800D03*
X171400000Y-113200000D03*
X163400000Y-97600000D03*
X131950000Y-76000000D03*
X154000000Y-96200000D03*
X128800000Y-99200000D03*
X154400000Y-75800000D03*
X130400000Y-97800000D03*
X116000000Y-89050000D03*
X165800000Y-107000000D03*
X154400000Y-72200000D03*
X159200000Y-98800000D03*
X133200000Y-95800000D03*
X163068000Y-70358000D03*
X161600000Y-95400000D03*
X154400000Y-70200000D03*
X118400000Y-97200000D03*
X133800000Y-98000000D03*
X131400000Y-110950000D03*
X163400000Y-91600000D03*
X134000000Y-42200000D03*
X184800000Y-98950000D03*
X105400000Y-46200000D03*
X139650000Y-36600000D03*
X139150000Y-77450000D03*
X134400000Y-110950000D03*
X166800000Y-111400000D03*
X168850000Y-67850000D03*
X156000000Y-97800000D03*
X169100000Y-76050000D03*
X168100000Y-65450000D03*
X168350000Y-71850000D03*
X162550000Y-56800000D03*
X119600000Y-100100000D03*
X167000000Y-59200000D03*
X128700000Y-110150000D03*
X156400000Y-73800000D03*
X134899400Y-95351600D03*
X131900000Y-68550000D03*
X151600000Y-54400000D03*
X163600000Y-88000000D03*
X118400000Y-90250000D03*
X143433800Y-100812600D03*
X130350000Y-110150000D03*
X150368000Y-98221800D03*
X142773400Y-92735400D03*
X166000000Y-58400000D03*
X134200000Y-47000000D03*
X133000000Y-111000000D03*
X119450000Y-94400000D03*
X134350000Y-107750000D03*
X169200000Y-111000000D03*
X156700000Y-56700000D03*
X126750000Y-107250000D03*
X125900000Y-106350000D03*
X156200000Y-42150000D03*
X146177000Y-92786200D03*
X167500000Y-64650000D03*
X166200000Y-108000000D03*
X174500000Y-96000000D03*
X145950000Y-89700000D03*
X187800000Y-101750000D03*
X172400000Y-113800000D03*
X163800000Y-108400000D03*
X135550000Y-110150000D03*
X108800000Y-95750000D03*
X130600000Y-51250000D03*
X172008800Y-52400200D03*
X178300000Y-100500000D03*
X132800000Y-107000000D03*
X164450000Y-48350000D03*
X135940800Y-100812600D03*
X130400000Y-101200000D03*
X116900000Y-100650000D03*
X167400000Y-105200000D03*
X124333000Y-113715800D03*
X149936200Y-94157800D03*
X131600000Y-96600000D03*
X184200000Y-109550000D03*
X148056600Y-100761800D03*
X139750800Y-92735400D03*
X161600000Y-91600000D03*
X130937000Y-44018200D03*
X167000000Y-108800000D03*
X171150000Y-75050000D03*
X182450000Y-66950000D03*
X136950000Y-110100000D03*
X120400000Y-105800000D03*
X189300000Y-115750000D03*
X165800000Y-110400000D03*
X141224000Y-92887800D03*
X160150000Y-118650000D03*
X149250400Y-36474400D03*
X158300000Y-54650000D03*
X176200000Y-69900000D03*
X136601200Y-92760800D03*
X140436600Y-100838000D03*
X154400000Y-73800000D03*
X124800000Y-77050000D03*
X159562800Y-38125400D03*
X146558000Y-73761600D03*
X129850000Y-82350000D03*
X146354800Y-101092000D03*
X169050000Y-70750000D03*
X107696000Y-124434600D03*
X141935200Y-100914200D03*
X103800000Y-72900000D03*
X116100000Y-91600000D03*
X167800000Y-60200000D03*
X137337800Y-100914200D03*
X171750000Y-70050000D03*
X149174200Y-100050600D03*
X131400000Y-100000000D03*
X158050000Y-56650000D03*
X149148800Y-98425000D03*
X127750000Y-107850000D03*
X155450000Y-57500000D03*
X155400000Y-80800000D03*
X98196400Y-77546200D03*
X114500000Y-71400000D03*
X170000000Y-102400000D03*
X163600000Y-96200000D03*
X115350000Y-92800000D03*
X163170000Y-63052000D03*
X154000000Y-53450000D03*
X143650000Y-63250000D03*
X123850000Y-108150000D03*
X156600000Y-82000000D03*
X172150000Y-71050000D03*
X128850000Y-107950000D03*
X158800000Y-81400000D03*
X152000000Y-97800000D03*
X111760000Y-40970200D03*
X173800000Y-114000000D03*
X119600000Y-104800000D03*
X166600000Y-106200000D03*
X158800000Y-111700000D03*
X150164800Y-62915800D03*
X126400000Y-125000000D03*
X154400000Y-77600000D03*
X119100000Y-95700000D03*
X156400000Y-70000000D03*
X170400000Y-112200000D03*
X141020800Y-68122800D03*
X155000000Y-96800000D03*
X160200000Y-98000000D03*
X107800000Y-52600000D03*
X157600000Y-66600000D03*
X116200000Y-98900000D03*
X124179900Y-102042100D03*
X181000400Y-52476400D03*
X155600000Y-100200000D03*
X161800000Y-84400000D03*
X98475800Y-107696000D03*
X132600000Y-98800000D03*
X136800000Y-62900000D03*
X158350000Y-125000000D03*
X115500000Y-95750000D03*
X168100000Y-127950000D03*
X169100000Y-73950000D03*
X154400000Y-99000000D03*
X103505000Y-92862400D03*
X177317400Y-59004200D03*
X107188000Y-102082600D03*
X159400000Y-57000000D03*
X154800000Y-66800000D03*
X170700000Y-65150000D03*
X127050800Y-36245800D03*
X168700000Y-66500000D03*
X132867400Y-117652800D03*
X168800000Y-113600000D03*
X171100000Y-67850000D03*
X101250000Y-99050000D03*
X172050000Y-73450000D03*
X121400000Y-106600000D03*
X156400000Y-68600000D03*
X144957800Y-101193600D03*
X137972800Y-92735400D03*
X164800000Y-109400000D03*
X170200000Y-114800000D03*
X150250000Y-56700000D03*
X109200000Y-48000000D03*
X158600000Y-65800000D03*
X97358200Y-88925400D03*
X171950000Y-72200000D03*
X155650000Y-54600000D03*
X168900000Y-69250000D03*
X154150000Y-57400000D03*
X120040400Y-72136000D03*
X154600000Y-79000000D03*
X190373000Y-56769000D03*
X150300000Y-54450000D03*
X152806400Y-120015000D03*
X118800000Y-98750000D03*
X157000000Y-54600000D03*
X150596600Y-80721200D03*
X151600000Y-56650000D03*
X159400000Y-66800000D03*
X112700000Y-107200000D03*
X167233600Y-122148600D03*
X135650000Y-107900000D03*
X168900000Y-63100000D03*
X118350000Y-91500000D03*
X171500000Y-74350000D03*
X116050000Y-97250000D03*
X156400000Y-76000000D03*
X135280400Y-93929200D03*
X161400000Y-87800000D03*
X148336000Y-92837000D03*
X186600000Y-94850000D03*
X156400000Y-71600000D03*
X116400000Y-115000000D03*
X160600000Y-86200000D03*
%TO.N,USB_D+*%
X108373358Y-60854259D03*
X120972166Y-58139154D03*
%TO.N,USB_D-*%
X108373358Y-61704259D03*
X120972166Y-58989154D03*
%TO.N,/Payload_D-*%
X101200000Y-50400000D03*
X101200000Y-51800000D03*
%TO.N,GND*%
X161350000Y-55650000D03*
%TD*%
D21*
%TO.N,USB_D+*%
X109227544Y-61054258D02*
X108573357Y-61054258D01*
X120772167Y-58339153D02*
X111942649Y-58339153D01*
X108573357Y-61054258D02*
X108373358Y-60854259D01*
X111942649Y-58339153D02*
X109227544Y-61054258D01*
X120972166Y-58139154D02*
X120772167Y-58339153D01*
%TO.N,USB_D-*%
X109413938Y-61504260D02*
X108573357Y-61504260D01*
X120972166Y-58989154D02*
X120772167Y-58789155D01*
X120772167Y-58789155D02*
X112129043Y-58789155D01*
X108573357Y-61504260D02*
X108373358Y-61704259D01*
X112129043Y-58789155D02*
X109413938Y-61504260D01*
%TO.N,/Payload_D-*%
X101200000Y-50400000D02*
X101200000Y-51800000D01*
%TD*%
%TA.AperFunction,Conductor*%
%TO.N,GND*%
G36*
X115250000Y-62253590D02*
G01*
X115164044Y-62203963D01*
X115055952Y-62175000D01*
X114944048Y-62175000D01*
X114835956Y-62203963D01*
X114750000Y-62253590D01*
X114750000Y-60946409D01*
X114835956Y-60996037D01*
X114944048Y-61025000D01*
X115055952Y-61025000D01*
X115164044Y-60996037D01*
X115250000Y-60946409D01*
X115250000Y-62253590D01*
G37*
%TD.AperFunction*%
%TA.AperFunction,Conductor*%
G36*
X118693122Y-33049654D02*
G01*
X118693254Y-33048654D01*
X118701302Y-33049711D01*
X118701306Y-33049713D01*
X118701309Y-33049712D01*
X118701310Y-33049713D01*
X129974368Y-33047500D01*
X182550500Y-33047500D01*
X182617539Y-33067185D01*
X182663294Y-33119989D01*
X182674500Y-33171500D01*
X182674500Y-43112891D01*
X182708608Y-43240187D01*
X182725812Y-43269984D01*
X182774500Y-43354314D01*
X182867686Y-43447500D01*
X182981814Y-43513392D01*
X183109108Y-43547500D01*
X193050500Y-43547500D01*
X193117539Y-43567185D01*
X193163294Y-43619989D01*
X193174500Y-43671500D01*
X193174500Y-121422500D01*
X193154815Y-121489539D01*
X193102011Y-121535294D01*
X193050500Y-121546500D01*
X183109108Y-121546500D01*
X182981812Y-121580608D01*
X182867686Y-121646500D01*
X182867683Y-121646502D01*
X182774502Y-121739683D01*
X182774500Y-121739686D01*
X182708608Y-121853812D01*
X182674500Y-121981108D01*
X182674500Y-131922500D01*
X182654815Y-131989539D01*
X182602011Y-132035294D01*
X182550500Y-132046500D01*
X104799500Y-132046500D01*
X104732461Y-132026815D01*
X104686706Y-131974011D01*
X104675500Y-131922500D01*
X104675500Y-121981110D01*
X104675500Y-121981108D01*
X104641392Y-121853814D01*
X104575500Y-121739686D01*
X104482314Y-121646500D01*
X104425250Y-121613554D01*
X104368187Y-121580608D01*
X104304539Y-121563554D01*
X104240892Y-121546500D01*
X104240891Y-121546500D01*
X94299500Y-121546500D01*
X94290814Y-121543949D01*
X94281853Y-121545238D01*
X94257812Y-121534259D01*
X94232461Y-121526815D01*
X94226533Y-121519974D01*
X94218297Y-121516213D01*
X94204007Y-121493978D01*
X94186706Y-121474011D01*
X94184418Y-121463496D01*
X94180523Y-121457435D01*
X94175500Y-121422500D01*
X94175500Y-121356306D01*
X140774500Y-121356306D01*
X140774500Y-121682093D01*
X140810974Y-122005804D01*
X140810976Y-122005820D01*
X140883467Y-122323426D01*
X140883471Y-122323438D01*
X140991066Y-122630925D01*
X141132413Y-122924434D01*
X141132415Y-122924437D01*
X141305739Y-123200281D01*
X141508857Y-123454983D01*
X141739217Y-123685343D01*
X141993919Y-123888461D01*
X142269763Y-124061785D01*
X142563278Y-124203135D01*
X142794217Y-124283944D01*
X142870761Y-124310728D01*
X142870773Y-124310732D01*
X143188383Y-124383224D01*
X143512106Y-124419699D01*
X143512107Y-124419700D01*
X143512111Y-124419700D01*
X143837893Y-124419700D01*
X143837893Y-124419699D01*
X144161617Y-124383224D01*
X144479227Y-124310732D01*
X144786722Y-124203135D01*
X145080237Y-124061785D01*
X145356081Y-123888461D01*
X145610783Y-123685343D01*
X145841143Y-123454983D01*
X146044261Y-123200281D01*
X146217585Y-122924437D01*
X146358935Y-122630922D01*
X146466532Y-122323427D01*
X146539024Y-122005817D01*
X146575500Y-121682089D01*
X146575500Y-121356311D01*
X146539024Y-121032583D01*
X146466532Y-120714973D01*
X146358935Y-120407478D01*
X146217585Y-120113963D01*
X146044261Y-119838119D01*
X145841143Y-119583417D01*
X145610783Y-119353057D01*
X145356081Y-119149939D01*
X145080237Y-118976615D01*
X145080234Y-118976613D01*
X144786725Y-118835266D01*
X144479238Y-118727671D01*
X144479226Y-118727667D01*
X144161620Y-118655176D01*
X144161604Y-118655174D01*
X143837893Y-118618700D01*
X143837889Y-118618700D01*
X143512111Y-118618700D01*
X143512107Y-118618700D01*
X143188395Y-118655174D01*
X143188379Y-118655176D01*
X142870773Y-118727667D01*
X142870761Y-118727671D01*
X142563274Y-118835266D01*
X142269765Y-118976613D01*
X141993920Y-119149938D01*
X141739217Y-119353056D01*
X141508856Y-119583417D01*
X141305738Y-119838120D01*
X141132413Y-120113965D01*
X140991066Y-120407474D01*
X140883471Y-120714961D01*
X140883467Y-120714973D01*
X140810976Y-121032579D01*
X140810974Y-121032595D01*
X140774500Y-121356306D01*
X94175500Y-121356306D01*
X94175500Y-113633110D01*
X136889497Y-113633110D01*
X136889497Y-113633993D01*
X136889497Y-113633994D01*
X136889500Y-116304893D01*
X136889501Y-116304895D01*
X136923609Y-116432191D01*
X136941331Y-116462886D01*
X136989501Y-116546318D01*
X137036094Y-116592910D01*
X137082687Y-116639503D01*
X137196815Y-116705395D01*
X137324109Y-116739503D01*
X137324110Y-116739503D01*
X137324111Y-116739503D01*
X149955892Y-116739503D01*
X149955893Y-116739503D01*
X149955894Y-116739503D01*
X150083188Y-116705395D01*
X150197316Y-116639503D01*
X150243908Y-116592910D01*
X150290502Y-116546318D01*
X150356394Y-116432190D01*
X150390502Y-116304896D01*
X150390506Y-113633112D01*
X150390506Y-113633110D01*
X150375431Y-113576848D01*
X174775000Y-113576848D01*
X174775000Y-113753151D01*
X174802577Y-113927263D01*
X174857057Y-114094933D01*
X174937092Y-114252011D01*
X174944389Y-114262055D01*
X174944390Y-114262055D01*
X175477356Y-113729089D01*
X175503622Y-113827114D01*
X175558916Y-113922886D01*
X175637114Y-114001084D01*
X175732886Y-114056378D01*
X175830909Y-114082643D01*
X175297942Y-114615608D01*
X175297943Y-114615609D01*
X175307981Y-114622902D01*
X175307990Y-114622908D01*
X175465066Y-114702942D01*
X175632736Y-114757422D01*
X175806849Y-114785000D01*
X175983145Y-114785000D01*
X176001097Y-114782156D01*
X176019640Y-114784551D01*
X176038147Y-114781891D01*
X176053573Y-114788936D01*
X176070391Y-114791109D01*
X176084693Y-114803148D01*
X176101703Y-114810916D01*
X176110871Y-114825182D01*
X176123845Y-114836103D01*
X176129368Y-114853964D01*
X176139477Y-114869694D01*
X176144034Y-114901390D01*
X176144487Y-114902854D01*
X176144500Y-114904629D01*
X176144500Y-114965370D01*
X176124815Y-115032409D01*
X176072011Y-115078164D01*
X176002853Y-115088108D01*
X176001103Y-115087843D01*
X175983153Y-115085000D01*
X175806849Y-115085000D01*
X175632736Y-115112577D01*
X175465066Y-115167057D01*
X175307992Y-115247090D01*
X175297942Y-115254390D01*
X175830910Y-115787356D01*
X175732886Y-115813622D01*
X175637114Y-115868916D01*
X175558916Y-115947114D01*
X175503622Y-116042886D01*
X175477356Y-116140909D01*
X174944390Y-115607942D01*
X174937090Y-115617992D01*
X174857057Y-115775066D01*
X174802577Y-115942736D01*
X174775000Y-116116848D01*
X174775000Y-116293151D01*
X174802577Y-116467263D01*
X174857057Y-116634933D01*
X174937092Y-116792011D01*
X174944389Y-116802055D01*
X174944390Y-116802055D01*
X175477356Y-116269089D01*
X175503622Y-116367114D01*
X175558916Y-116462886D01*
X175637114Y-116541084D01*
X175732886Y-116596378D01*
X175830909Y-116622643D01*
X175297942Y-117155608D01*
X175297943Y-117155609D01*
X175307981Y-117162902D01*
X175307990Y-117162908D01*
X175465066Y-117242942D01*
X175632736Y-117297422D01*
X175806849Y-117325000D01*
X175983151Y-117325000D01*
X176157263Y-117297422D01*
X176324936Y-117242941D01*
X176482000Y-117162914D01*
X176482009Y-117162909D01*
X176492055Y-117155609D01*
X176492056Y-117155608D01*
X175959090Y-116622642D01*
X176057114Y-116596378D01*
X176152886Y-116541084D01*
X176231084Y-116462886D01*
X176286378Y-116367114D01*
X176312643Y-116269089D01*
X176845608Y-116802055D01*
X176845609Y-116802055D01*
X176852909Y-116792009D01*
X176852914Y-116792000D01*
X176932941Y-116634936D01*
X176987422Y-116467263D01*
X177015000Y-116293151D01*
X177015000Y-116116847D01*
X177012157Y-116098897D01*
X177014552Y-116080358D01*
X177011892Y-116061853D01*
X177018938Y-116046423D01*
X177021112Y-116029604D01*
X177033150Y-116015302D01*
X177040917Y-115998297D01*
X177055185Y-115989127D01*
X177066108Y-115976152D01*
X177083968Y-115970629D01*
X177099695Y-115960523D01*
X177131400Y-115955964D01*
X177132860Y-115955513D01*
X177134630Y-115955500D01*
X177195370Y-115955500D01*
X177262409Y-115975185D01*
X177308164Y-116027989D01*
X177318108Y-116097147D01*
X177317843Y-116098897D01*
X177315000Y-116116847D01*
X177315000Y-116293151D01*
X177342577Y-116467263D01*
X177397057Y-116634933D01*
X177477092Y-116792011D01*
X177484389Y-116802055D01*
X177484390Y-116802055D01*
X178017356Y-116269089D01*
X178043622Y-116367114D01*
X178098916Y-116462886D01*
X178177114Y-116541084D01*
X178272886Y-116596378D01*
X178370909Y-116622643D01*
X177837942Y-117155608D01*
X177837943Y-117155609D01*
X177847981Y-117162902D01*
X177847990Y-117162908D01*
X178005066Y-117242942D01*
X178172736Y-117297422D01*
X178346849Y-117325000D01*
X178523151Y-117325000D01*
X178697263Y-117297422D01*
X178864936Y-117242941D01*
X179022000Y-117162914D01*
X179022009Y-117162909D01*
X179032055Y-117155609D01*
X179032056Y-117155608D01*
X178499090Y-116622642D01*
X178597114Y-116596378D01*
X178692886Y-116541084D01*
X178771084Y-116462886D01*
X178826378Y-116367114D01*
X178852642Y-116269090D01*
X179385608Y-116802056D01*
X179385609Y-116802055D01*
X179392909Y-116792009D01*
X179392914Y-116792000D01*
X179472941Y-116634936D01*
X179527422Y-116467263D01*
X179555000Y-116293151D01*
X179555000Y-116116848D01*
X179527422Y-115942736D01*
X179472942Y-115775066D01*
X179392908Y-115617990D01*
X179392902Y-115617981D01*
X179385609Y-115607943D01*
X179385608Y-115607942D01*
X178852642Y-116140908D01*
X178826378Y-116042886D01*
X178771084Y-115947114D01*
X178692886Y-115868916D01*
X178597114Y-115813622D01*
X178499089Y-115787356D01*
X179032055Y-115254390D01*
X179032055Y-115254389D01*
X179022011Y-115247092D01*
X178864933Y-115167057D01*
X178697263Y-115112577D01*
X178523151Y-115085000D01*
X178346847Y-115085000D01*
X178328897Y-115087843D01*
X178310358Y-115085447D01*
X178291853Y-115088108D01*
X178276423Y-115081061D01*
X178259604Y-115078888D01*
X178245302Y-115066849D01*
X178228297Y-115059083D01*
X178219127Y-115044814D01*
X178206152Y-115033892D01*
X178200629Y-115016031D01*
X178190523Y-115000305D01*
X178185964Y-114968599D01*
X178185513Y-114967140D01*
X178185500Y-114965370D01*
X178185500Y-114904629D01*
X178205185Y-114837590D01*
X178257989Y-114791835D01*
X178327147Y-114781891D01*
X178328903Y-114782156D01*
X178346855Y-114785000D01*
X178523151Y-114785000D01*
X178697263Y-114757422D01*
X178864936Y-114702941D01*
X179022000Y-114622914D01*
X179022009Y-114622909D01*
X179032055Y-114615609D01*
X179032055Y-114615608D01*
X178499089Y-114082643D01*
X178597114Y-114056378D01*
X178692886Y-114001084D01*
X178771084Y-113922886D01*
X178826378Y-113827114D01*
X178852642Y-113729090D01*
X179385608Y-114262056D01*
X179385609Y-114262055D01*
X179392909Y-114252009D01*
X179392914Y-114252000D01*
X179472941Y-114094936D01*
X179527422Y-113927263D01*
X179555000Y-113753151D01*
X179555000Y-113576848D01*
X179527422Y-113402736D01*
X179472942Y-113235066D01*
X179392908Y-113077990D01*
X179392902Y-113077981D01*
X179385609Y-113067943D01*
X179385608Y-113067942D01*
X178852642Y-113600908D01*
X178826378Y-113502886D01*
X178771084Y-113407114D01*
X178692886Y-113328916D01*
X178597114Y-113273622D01*
X178499089Y-113247356D01*
X179032055Y-112714390D01*
X179032055Y-112714389D01*
X179022011Y-112707092D01*
X178864933Y-112627057D01*
X178697263Y-112572577D01*
X178523151Y-112545000D01*
X178346849Y-112545000D01*
X178172736Y-112572577D01*
X178005066Y-112627057D01*
X177847992Y-112707090D01*
X177837942Y-112714390D01*
X178370910Y-113247356D01*
X178272886Y-113273622D01*
X178177114Y-113328916D01*
X178098916Y-113407114D01*
X178043622Y-113502886D01*
X178017356Y-113600910D01*
X177484390Y-113067942D01*
X177477090Y-113077992D01*
X177397057Y-113235066D01*
X177342577Y-113402736D01*
X177315000Y-113576848D01*
X177315000Y-113753152D01*
X177317843Y-113771103D01*
X177315447Y-113789641D01*
X177318108Y-113808147D01*
X177311061Y-113823576D01*
X177308888Y-113840396D01*
X177296849Y-113854697D01*
X177289083Y-113871703D01*
X177274814Y-113880872D01*
X177263892Y-113893848D01*
X177246031Y-113899370D01*
X177230305Y-113909477D01*
X177198599Y-113914035D01*
X177197140Y-113914487D01*
X177195370Y-113914500D01*
X177134630Y-113914500D01*
X177067591Y-113894815D01*
X177021836Y-113842011D01*
X177011892Y-113772853D01*
X177012157Y-113771103D01*
X177015000Y-113753152D01*
X177015000Y-113576848D01*
X176987422Y-113402736D01*
X176932942Y-113235066D01*
X176852908Y-113077990D01*
X176852902Y-113077981D01*
X176845609Y-113067943D01*
X176845608Y-113067942D01*
X176312643Y-113600909D01*
X176286378Y-113502886D01*
X176231084Y-113407114D01*
X176152886Y-113328916D01*
X176057114Y-113273622D01*
X175959089Y-113247356D01*
X176492055Y-112714390D01*
X176492055Y-112714389D01*
X176482011Y-112707092D01*
X176324933Y-112627057D01*
X176157263Y-112572577D01*
X175983151Y-112545000D01*
X175806849Y-112545000D01*
X175632736Y-112572577D01*
X175465066Y-112627057D01*
X175307992Y-112707090D01*
X175297942Y-112714390D01*
X175830910Y-113247356D01*
X175732886Y-113273622D01*
X175637114Y-113328916D01*
X175558916Y-113407114D01*
X175503622Y-113502886D01*
X175477356Y-113600909D01*
X174944390Y-113067942D01*
X174937090Y-113077992D01*
X174857057Y-113235066D01*
X174802577Y-113402736D01*
X174775000Y-113576848D01*
X150375431Y-113576848D01*
X150356398Y-113505817D01*
X150290506Y-113391689D01*
X150243913Y-113345096D01*
X150197321Y-113298503D01*
X150124967Y-113256729D01*
X150083194Y-113232611D01*
X150019546Y-113215557D01*
X149955899Y-113198503D01*
X149955898Y-113198503D01*
X149955896Y-113198502D01*
X137455888Y-113198501D01*
X137324104Y-113198501D01*
X137196808Y-113232609D01*
X137082682Y-113298501D01*
X137082678Y-113298504D01*
X136989497Y-113391685D01*
X136923604Y-113505815D01*
X136893002Y-113620025D01*
X136892980Y-113620111D01*
X136889498Y-113633108D01*
X136889497Y-113633110D01*
X94175500Y-113633110D01*
X94175500Y-82384106D01*
X102054100Y-82384106D01*
X102054100Y-82709893D01*
X102090574Y-83033604D01*
X102090576Y-83033620D01*
X102163067Y-83351226D01*
X102163071Y-83351238D01*
X102270666Y-83658725D01*
X102412013Y-83952234D01*
X102412015Y-83952237D01*
X102585339Y-84228081D01*
X102788457Y-84482783D01*
X103018817Y-84713143D01*
X103273519Y-84916261D01*
X103549363Y-85089585D01*
X103842878Y-85230935D01*
X104073817Y-85311744D01*
X104150361Y-85338528D01*
X104150373Y-85338532D01*
X104467983Y-85411024D01*
X104791706Y-85447499D01*
X104791707Y-85447500D01*
X104791711Y-85447500D01*
X105117493Y-85447500D01*
X105117493Y-85447499D01*
X105441217Y-85411024D01*
X105758827Y-85338532D01*
X106066322Y-85230935D01*
X106359837Y-85089585D01*
X106635681Y-84916261D01*
X106890383Y-84713143D01*
X107120743Y-84482783D01*
X107323861Y-84228081D01*
X107497185Y-83952237D01*
X107638535Y-83658722D01*
X107746132Y-83351227D01*
X107818624Y-83033617D01*
X107855100Y-82709889D01*
X107855100Y-82384111D01*
X107818624Y-82060383D01*
X107746132Y-81742773D01*
X107638535Y-81435278D01*
X107497185Y-81141763D01*
X107323861Y-80865919D01*
X107120743Y-80611217D01*
X106890383Y-80380857D01*
X106635681Y-80177739D01*
X106359837Y-80004415D01*
X106359834Y-80004413D01*
X106066325Y-79863066D01*
X105758838Y-79755471D01*
X105758826Y-79755467D01*
X105441220Y-79682976D01*
X105441204Y-79682974D01*
X105117493Y-79646500D01*
X105117489Y-79646500D01*
X104791711Y-79646500D01*
X104791707Y-79646500D01*
X104467995Y-79682974D01*
X104467979Y-79682976D01*
X104150373Y-79755467D01*
X104150361Y-79755471D01*
X103842874Y-79863066D01*
X103549365Y-80004413D01*
X103273520Y-80177738D01*
X103018817Y-80380856D01*
X102788456Y-80611217D01*
X102585338Y-80865920D01*
X102412013Y-81141765D01*
X102270666Y-81435274D01*
X102163071Y-81742761D01*
X102163067Y-81742773D01*
X102090576Y-82060379D01*
X102090574Y-82060395D01*
X102054100Y-82384106D01*
X94175500Y-82384106D01*
X94175500Y-76195909D01*
X109481897Y-76195909D01*
X109481897Y-88827694D01*
X109498951Y-88891341D01*
X109516005Y-88954989D01*
X109516008Y-88954994D01*
X109581897Y-89069116D01*
X109628489Y-89115708D01*
X109675082Y-89162302D01*
X109789210Y-89228194D01*
X109916504Y-89262302D01*
X112431840Y-89262304D01*
X112431844Y-89262306D01*
X112456505Y-89262306D01*
X112588287Y-89262306D01*
X112588288Y-89262306D01*
X112588289Y-89262306D01*
X112715583Y-89228198D01*
X112829711Y-89162306D01*
X112876303Y-89115713D01*
X112922897Y-89069121D01*
X112988789Y-88954993D01*
X113022897Y-88827699D01*
X113022897Y-88765511D01*
X174326501Y-88765511D01*
X174326501Y-88897295D01*
X174360609Y-89024591D01*
X174386316Y-89069115D01*
X174426501Y-89138718D01*
X174450086Y-89162302D01*
X174519687Y-89231903D01*
X174633815Y-89297795D01*
X174761109Y-89331903D01*
X174761110Y-89331903D01*
X174761111Y-89331903D01*
X174944249Y-89331903D01*
X174944252Y-89331901D01*
X177432896Y-89331899D01*
X177560190Y-89297791D01*
X177674318Y-89231899D01*
X177743914Y-89162302D01*
X177767503Y-89138713D01*
X177833395Y-89024585D01*
X177867503Y-88897291D01*
X177867503Y-82384106D01*
X180034100Y-82384106D01*
X180034100Y-82709893D01*
X180070574Y-83033604D01*
X180070576Y-83033620D01*
X180143067Y-83351226D01*
X180143071Y-83351238D01*
X180250666Y-83658725D01*
X180392013Y-83952234D01*
X180392015Y-83952237D01*
X180565339Y-84228081D01*
X180768457Y-84482783D01*
X180998817Y-84713143D01*
X181253519Y-84916261D01*
X181529363Y-85089585D01*
X181822878Y-85230935D01*
X182053817Y-85311744D01*
X182130361Y-85338528D01*
X182130373Y-85338532D01*
X182447983Y-85411024D01*
X182771706Y-85447499D01*
X182771707Y-85447500D01*
X182771711Y-85447500D01*
X183097493Y-85447500D01*
X183097493Y-85447499D01*
X183421217Y-85411024D01*
X183738827Y-85338532D01*
X184046322Y-85230935D01*
X184339837Y-85089585D01*
X184615681Y-84916261D01*
X184870383Y-84713143D01*
X185100743Y-84482783D01*
X185303861Y-84228081D01*
X185477185Y-83952237D01*
X185618535Y-83658722D01*
X185726132Y-83351227D01*
X185798624Y-83033617D01*
X185835100Y-82709889D01*
X185835100Y-82384111D01*
X185798624Y-82060383D01*
X185726132Y-81742773D01*
X185618535Y-81435278D01*
X185477185Y-81141763D01*
X185303861Y-80865919D01*
X185100743Y-80611217D01*
X184870383Y-80380857D01*
X184615681Y-80177739D01*
X184339837Y-80004415D01*
X184339834Y-80004413D01*
X184046325Y-79863066D01*
X183738838Y-79755471D01*
X183738826Y-79755467D01*
X183421220Y-79682976D01*
X183421204Y-79682974D01*
X183097493Y-79646500D01*
X183097489Y-79646500D01*
X182771711Y-79646500D01*
X182771707Y-79646500D01*
X182447995Y-79682974D01*
X182447979Y-79682976D01*
X182130373Y-79755467D01*
X182130361Y-79755471D01*
X181822874Y-79863066D01*
X181529365Y-80004413D01*
X181253520Y-80177738D01*
X180998817Y-80380856D01*
X180768456Y-80611217D01*
X180565338Y-80865920D01*
X180392013Y-81141765D01*
X180250666Y-81435274D01*
X180143071Y-81742761D01*
X180143067Y-81742773D01*
X180070576Y-82060379D01*
X180070574Y-82060395D01*
X180034100Y-82384106D01*
X177867503Y-82384106D01*
X177867503Y-76265506D01*
X177833395Y-76138212D01*
X177767503Y-76024084D01*
X177697901Y-75954482D01*
X177674318Y-75930898D01*
X177606507Y-75891747D01*
X177560191Y-75865006D01*
X177496543Y-75847952D01*
X177432896Y-75830898D01*
X177432894Y-75830897D01*
X177432893Y-75830897D01*
X174892895Y-75830894D01*
X174761111Y-75830894D01*
X174633815Y-75865002D01*
X174519689Y-75930894D01*
X174496100Y-75954483D01*
X174426502Y-76024079D01*
X174360610Y-76138208D01*
X174360609Y-76138208D01*
X174345152Y-76195902D01*
X174345152Y-76195903D01*
X174326503Y-76265502D01*
X174326502Y-76265504D01*
X174326501Y-88765511D01*
X113022897Y-88765511D01*
X113022897Y-88695915D01*
X113022897Y-88035407D01*
X138838612Y-88035407D01*
X138838612Y-88140728D01*
X138865871Y-88242461D01*
X138865872Y-88242464D01*
X138918529Y-88333670D01*
X138918533Y-88333675D01*
X138993004Y-88408146D01*
X138993009Y-88408150D01*
X139084215Y-88460807D01*
X139084218Y-88460808D01*
X139185951Y-88488067D01*
X139185953Y-88488068D01*
X139291271Y-88488068D01*
X139291272Y-88488067D01*
X139393005Y-88460808D01*
X139393008Y-88460807D01*
X139484214Y-88408150D01*
X139484219Y-88408146D01*
X139558690Y-88333675D01*
X139558694Y-88333670D01*
X139611351Y-88242464D01*
X139611352Y-88242461D01*
X139638611Y-88140728D01*
X139638612Y-88140727D01*
X139638612Y-88035409D01*
X139638611Y-88035407D01*
X139611352Y-87933674D01*
X139611351Y-87933671D01*
X139558694Y-87842465D01*
X139558690Y-87842460D01*
X139484219Y-87767989D01*
X139484214Y-87767985D01*
X139393008Y-87715328D01*
X139393005Y-87715327D01*
X139291272Y-87688068D01*
X139185951Y-87688068D01*
X139084218Y-87715327D01*
X139084215Y-87715328D01*
X138993009Y-87767985D01*
X138993004Y-87767989D01*
X138918533Y-87842460D01*
X138918529Y-87842465D01*
X138865872Y-87933671D01*
X138865871Y-87933674D01*
X138838612Y-88035407D01*
X113022897Y-88035407D01*
X113022898Y-81435274D01*
X113022899Y-79171883D01*
X147568367Y-79171883D01*
X147593365Y-79297550D01*
X147593367Y-79297556D01*
X147642401Y-79415936D01*
X147642406Y-79415945D01*
X147713591Y-79522480D01*
X147713594Y-79522484D01*
X147804195Y-79613085D01*
X147804199Y-79613088D01*
X147910734Y-79684273D01*
X147910740Y-79684276D01*
X147910741Y-79684277D01*
X148029124Y-79733313D01*
X148029128Y-79733313D01*
X148029129Y-79733314D01*
X148154796Y-79758312D01*
X148154799Y-79758312D01*
X148282939Y-79758312D01*
X148367483Y-79741494D01*
X148408612Y-79733313D01*
X148526995Y-79684277D01*
X148633537Y-79613088D01*
X148724144Y-79522481D01*
X148795333Y-79415939D01*
X148844369Y-79297556D01*
X148869368Y-79171881D01*
X148869368Y-79043743D01*
X148869368Y-79043740D01*
X148844370Y-78918073D01*
X148844369Y-78918072D01*
X148844369Y-78918068D01*
X148795333Y-78799685D01*
X148795332Y-78799684D01*
X148795329Y-78799678D01*
X148724144Y-78693143D01*
X148724141Y-78693139D01*
X148633540Y-78602538D01*
X148633536Y-78602535D01*
X148527001Y-78531350D01*
X148526992Y-78531345D01*
X148408612Y-78482311D01*
X148408606Y-78482309D01*
X148282939Y-78457312D01*
X148282937Y-78457312D01*
X148154799Y-78457312D01*
X148154797Y-78457312D01*
X148029129Y-78482309D01*
X148029123Y-78482311D01*
X147910743Y-78531345D01*
X147910734Y-78531350D01*
X147804199Y-78602535D01*
X147804195Y-78602538D01*
X147713594Y-78693139D01*
X147713591Y-78693143D01*
X147642406Y-78799678D01*
X147642401Y-78799687D01*
X147593367Y-78918067D01*
X147593365Y-78918073D01*
X147568368Y-79043740D01*
X147568368Y-79043743D01*
X147568368Y-79171881D01*
X147568368Y-79171883D01*
X147568367Y-79171883D01*
X113022899Y-79171883D01*
X113022899Y-79037651D01*
X113022899Y-76195902D01*
X113022898Y-76195901D01*
X113007441Y-76138213D01*
X113007440Y-76138208D01*
X112988791Y-76068610D01*
X112922899Y-75954482D01*
X112876305Y-75907889D01*
X112829713Y-75861297D01*
X112772649Y-75828351D01*
X112715586Y-75795405D01*
X112651938Y-75778351D01*
X112588291Y-75761297D01*
X112456507Y-75761297D01*
X112456506Y-75761297D01*
X109916506Y-75761300D01*
X109916504Y-75761301D01*
X109789208Y-75795409D01*
X109675082Y-75861301D01*
X109675078Y-75861304D01*
X109581897Y-75954485D01*
X109516006Y-76068611D01*
X109516006Y-76068612D01*
X109516005Y-76068614D01*
X109516005Y-76068615D01*
X109481897Y-76195909D01*
X94175500Y-76195909D01*
X94175500Y-65670000D01*
X96480138Y-65670000D01*
X97283012Y-65670000D01*
X97265795Y-65679940D01*
X97209940Y-65735795D01*
X97170444Y-65804204D01*
X97150000Y-65880504D01*
X97150000Y-65959496D01*
X97170444Y-66035796D01*
X97209940Y-66104205D01*
X97265795Y-66160060D01*
X97283012Y-66170000D01*
X96480138Y-66170000D01*
X96488430Y-66211690D01*
X96488430Y-66211692D01*
X96563807Y-66393671D01*
X96563814Y-66393684D01*
X96673248Y-66557462D01*
X96673251Y-66557466D01*
X96812533Y-66696748D01*
X96812537Y-66696751D01*
X96976315Y-66806185D01*
X96976328Y-66806192D01*
X97158306Y-66881569D01*
X97158318Y-66881572D01*
X97351504Y-66919999D01*
X97351508Y-66920000D01*
X97500000Y-66920000D01*
X97500000Y-66220000D01*
X98000000Y-66220000D01*
X98000000Y-66920000D01*
X98148492Y-66920000D01*
X98148495Y-66919999D01*
X98341681Y-66881572D01*
X98341693Y-66881569D01*
X98523671Y-66806192D01*
X98523684Y-66806185D01*
X98687462Y-66696751D01*
X98687466Y-66696748D01*
X98826748Y-66557466D01*
X98826751Y-66557462D01*
X98936185Y-66393684D01*
X98936192Y-66393671D01*
X99011569Y-66211692D01*
X99011569Y-66211690D01*
X99019862Y-66170000D01*
X98216988Y-66170000D01*
X98234205Y-66160060D01*
X98290060Y-66104205D01*
X98329556Y-66035796D01*
X98350000Y-65959496D01*
X98350000Y-65880504D01*
X98329556Y-65804204D01*
X98290060Y-65735795D01*
X98234205Y-65679940D01*
X98216988Y-65670000D01*
X99019862Y-65670000D01*
X100410138Y-65670000D01*
X101213012Y-65670000D01*
X101195795Y-65679940D01*
X101139940Y-65735795D01*
X101100444Y-65804204D01*
X101080000Y-65880504D01*
X101080000Y-65959496D01*
X101100444Y-66035796D01*
X101139940Y-66104205D01*
X101195795Y-66160060D01*
X101213012Y-66170000D01*
X100410138Y-66170000D01*
X100418430Y-66211690D01*
X100418430Y-66211692D01*
X100493807Y-66393671D01*
X100493814Y-66393684D01*
X100603248Y-66557462D01*
X100603251Y-66557466D01*
X100742533Y-66696748D01*
X100742537Y-66696751D01*
X100906315Y-66806185D01*
X100906328Y-66806192D01*
X101088306Y-66881569D01*
X101088318Y-66881572D01*
X101281504Y-66919999D01*
X101281508Y-66920000D01*
X101680000Y-66920000D01*
X101680000Y-66220000D01*
X102180000Y-66220000D01*
X102180000Y-66920000D01*
X102578492Y-66920000D01*
X102578495Y-66919999D01*
X102771681Y-66881572D01*
X102771693Y-66881569D01*
X102953671Y-66806192D01*
X102953684Y-66806185D01*
X103117462Y-66696751D01*
X103117466Y-66696748D01*
X103256748Y-66557466D01*
X103256751Y-66557462D01*
X103366185Y-66393684D01*
X103366192Y-66393671D01*
X103441569Y-66211692D01*
X103441569Y-66211690D01*
X103449862Y-66170000D01*
X102646988Y-66170000D01*
X102664205Y-66160060D01*
X102720060Y-66104205D01*
X102759556Y-66035796D01*
X102780000Y-65959496D01*
X102780000Y-65880504D01*
X102759556Y-65804204D01*
X102720060Y-65735795D01*
X102664205Y-65679940D01*
X102646988Y-65670000D01*
X103449862Y-65670000D01*
X103441569Y-65628309D01*
X103441569Y-65628307D01*
X103366192Y-65446328D01*
X103366185Y-65446315D01*
X103256751Y-65282537D01*
X103256748Y-65282533D01*
X103117466Y-65143251D01*
X103117462Y-65143248D01*
X102953684Y-65033814D01*
X102953671Y-65033807D01*
X102771693Y-64958430D01*
X102771681Y-64958427D01*
X102578495Y-64920000D01*
X102180000Y-64920000D01*
X102180000Y-65620000D01*
X101680000Y-65620000D01*
X101680000Y-65064463D01*
X101699685Y-64997424D01*
X101742000Y-64957076D01*
X101753365Y-64950515D01*
X101860515Y-64843365D01*
X101861372Y-64841879D01*
X101881721Y-64806637D01*
X101936279Y-64712138D01*
X101936281Y-64712135D01*
X101975500Y-64565766D01*
X101975500Y-64414234D01*
X101936281Y-64267865D01*
X101860515Y-64136635D01*
X101753365Y-64029485D01*
X101687750Y-63991602D01*
X101622136Y-63953719D01*
X101548950Y-63934109D01*
X101475766Y-63914500D01*
X101324234Y-63914500D01*
X101177863Y-63953719D01*
X101046635Y-64029485D01*
X101046632Y-64029487D01*
X100939487Y-64136632D01*
X100939485Y-64136635D01*
X100863719Y-64267863D01*
X100824500Y-64414234D01*
X100824500Y-64565765D01*
X100863719Y-64712136D01*
X100901602Y-64777750D01*
X100939485Y-64843365D01*
X100939487Y-64843367D01*
X100944432Y-64849811D01*
X100941612Y-64851974D01*
X100967302Y-64899020D01*
X100962318Y-64968712D01*
X100920446Y-65024645D01*
X100911379Y-65030416D01*
X100911387Y-65030427D01*
X100742536Y-65143248D01*
X100603251Y-65282533D01*
X100603248Y-65282537D01*
X100493814Y-65446315D01*
X100493807Y-65446328D01*
X100418430Y-65628307D01*
X100418430Y-65628309D01*
X100410138Y-65670000D01*
X99019862Y-65670000D01*
X99011569Y-65628309D01*
X99011569Y-65628307D01*
X98936192Y-65446328D01*
X98936185Y-65446315D01*
X98826751Y-65282537D01*
X98826748Y-65282533D01*
X98687466Y-65143251D01*
X98687462Y-65143248D01*
X98523684Y-65033814D01*
X98523671Y-65033807D01*
X98341693Y-64958430D01*
X98341681Y-64958427D01*
X98148495Y-64920000D01*
X98000000Y-64920000D01*
X98000000Y-65620000D01*
X97500000Y-65620000D01*
X97500000Y-64920000D01*
X97351504Y-64920000D01*
X97158318Y-64958427D01*
X97158306Y-64958430D01*
X96976328Y-65033807D01*
X96976315Y-65033814D01*
X96812537Y-65143248D01*
X96812533Y-65143251D01*
X96673251Y-65282533D01*
X96673248Y-65282537D01*
X96563814Y-65446315D01*
X96563807Y-65446328D01*
X96488430Y-65628307D01*
X96488430Y-65628309D01*
X96480138Y-65670000D01*
X94175500Y-65670000D01*
X94175500Y-60788367D01*
X107872858Y-60788367D01*
X107872858Y-60920150D01*
X107906966Y-61047446D01*
X107913349Y-61058501D01*
X107972858Y-61161573D01*
X107972860Y-61161575D01*
X108002863Y-61191578D01*
X108036348Y-61252901D01*
X108031364Y-61322593D01*
X108002863Y-61366940D01*
X107972860Y-61396942D01*
X107972858Y-61396945D01*
X107906966Y-61511071D01*
X107883138Y-61600000D01*
X107872858Y-61638367D01*
X107872858Y-61770151D01*
X107889912Y-61833798D01*
X107906966Y-61897446D01*
X107938892Y-61952742D01*
X107972858Y-62011573D01*
X108066044Y-62104759D01*
X108180172Y-62170651D01*
X108307466Y-62204759D01*
X108307468Y-62204759D01*
X108439248Y-62204759D01*
X108439250Y-62204759D01*
X108566544Y-62170651D01*
X108680672Y-62104759D01*
X108773858Y-62011573D01*
X108839750Y-61897445D01*
X108839958Y-61896667D01*
X108840313Y-61896085D01*
X108842858Y-61889941D01*
X108843816Y-61890337D01*
X108876322Y-61837007D01*
X108939168Y-61806477D01*
X108959733Y-61804760D01*
X109453498Y-61804760D01*
X109453500Y-61804760D01*
X109529927Y-61784281D01*
X109598449Y-61744720D01*
X109654398Y-61688771D01*
X112217195Y-59125974D01*
X112278518Y-59092489D01*
X112304876Y-59089655D01*
X114319883Y-59089655D01*
X114386922Y-59109340D01*
X114432677Y-59162144D01*
X114442621Y-59231302D01*
X114413596Y-59294858D01*
X114358888Y-59331361D01*
X114330878Y-59340642D01*
X114330875Y-59340643D01*
X114181654Y-59432684D01*
X114057684Y-59556654D01*
X113965643Y-59705875D01*
X113965641Y-59705880D01*
X113910494Y-59872302D01*
X113910493Y-59872309D01*
X113900000Y-59975013D01*
X113900000Y-60350000D01*
X114653590Y-60350000D01*
X114603963Y-60435956D01*
X114575000Y-60544048D01*
X114575000Y-60655952D01*
X114603963Y-60764044D01*
X114653590Y-60850000D01*
X113900001Y-60850000D01*
X113900001Y-61224986D01*
X113910494Y-61327697D01*
X113965641Y-61494119D01*
X113965643Y-61494124D01*
X114057686Y-61643348D01*
X114058905Y-61644890D01*
X114059411Y-61646145D01*
X114061475Y-61649491D01*
X114060903Y-61649843D01*
X114085041Y-61709688D01*
X114071997Y-61778329D01*
X114061960Y-61794670D01*
X114059196Y-61798473D01*
X114059195Y-61798476D01*
X113980591Y-61952742D01*
X113927085Y-62117415D01*
X113900000Y-62288428D01*
X113900000Y-62350000D01*
X114653590Y-62350000D01*
X114603963Y-62435956D01*
X114575000Y-62544048D01*
X114575000Y-62655952D01*
X114603963Y-62764044D01*
X114653590Y-62850000D01*
X113900000Y-62850000D01*
X113900000Y-62911571D01*
X113927085Y-63082584D01*
X113980591Y-63247257D01*
X114059195Y-63401524D01*
X114160967Y-63541602D01*
X114283397Y-63664032D01*
X114423475Y-63765804D01*
X114577744Y-63844408D01*
X114742415Y-63897914D01*
X114742414Y-63897914D01*
X114749999Y-63899115D01*
X114750000Y-63899114D01*
X114750000Y-62946409D01*
X114835956Y-62996037D01*
X114944048Y-63025000D01*
X115055952Y-63025000D01*
X115164044Y-62996037D01*
X115250000Y-62946409D01*
X115250000Y-63899115D01*
X115257584Y-63897914D01*
X115422255Y-63844408D01*
X115576524Y-63765804D01*
X115716602Y-63664032D01*
X115839032Y-63541602D01*
X115940804Y-63401524D01*
X116019409Y-63247253D01*
X116042603Y-63175870D01*
X116082040Y-63118194D01*
X116146398Y-63090995D01*
X116215244Y-63102909D01*
X116266721Y-63150153D01*
X116275095Y-63166733D01*
X116290603Y-63204172D01*
X116290606Y-63204178D01*
X116290609Y-63204185D01*
X116378210Y-63335288D01*
X116378213Y-63335292D01*
X116489707Y-63446786D01*
X116489711Y-63446789D01*
X116620814Y-63534390D01*
X116620827Y-63534397D01*
X116766498Y-63594735D01*
X116766503Y-63594737D01*
X116921153Y-63625499D01*
X116921156Y-63625500D01*
X116921158Y-63625500D01*
X117078844Y-63625500D01*
X117078845Y-63625499D01*
X117233497Y-63594737D01*
X117379179Y-63534394D01*
X117510289Y-63446789D01*
X117621789Y-63335289D01*
X117709394Y-63204179D01*
X117769737Y-63058497D01*
X117800500Y-62903842D01*
X117800500Y-62296158D01*
X117800500Y-62296155D01*
X117800499Y-62296153D01*
X117775535Y-62170651D01*
X117769737Y-62141503D01*
X117769735Y-62141498D01*
X117709397Y-61995827D01*
X117709390Y-61995814D01*
X117621789Y-61864711D01*
X117621786Y-61864707D01*
X117510292Y-61753213D01*
X117510288Y-61753210D01*
X117435296Y-61703102D01*
X117390491Y-61649490D01*
X117381784Y-61580165D01*
X117411938Y-61517138D01*
X117435296Y-61496898D01*
X117454055Y-61484363D01*
X117510289Y-61446789D01*
X117621789Y-61335289D01*
X117709394Y-61204179D01*
X117714614Y-61191578D01*
X117769735Y-61058501D01*
X117769737Y-61058497D01*
X117800500Y-60903842D01*
X117800500Y-60296158D01*
X117800500Y-60296155D01*
X117800499Y-60296153D01*
X118199500Y-60296153D01*
X118199500Y-60903846D01*
X118230261Y-61058489D01*
X118230264Y-61058501D01*
X118290602Y-61204172D01*
X118290609Y-61204185D01*
X118378210Y-61335288D01*
X118378213Y-61335292D01*
X118489707Y-61446786D01*
X118489711Y-61446789D01*
X118564703Y-61496898D01*
X118609508Y-61550511D01*
X118618215Y-61619836D01*
X118588060Y-61682863D01*
X118564703Y-61703102D01*
X118489711Y-61753210D01*
X118489707Y-61753213D01*
X118378213Y-61864707D01*
X118378210Y-61864711D01*
X118290609Y-61995814D01*
X118290602Y-61995827D01*
X118230264Y-62141498D01*
X118230261Y-62141510D01*
X118199500Y-62296153D01*
X118199500Y-62903846D01*
X118230261Y-63058489D01*
X118230264Y-63058501D01*
X118290602Y-63204172D01*
X118290609Y-63204185D01*
X118378210Y-63335288D01*
X118378213Y-63335292D01*
X118489707Y-63446786D01*
X118489711Y-63446789D01*
X118620814Y-63534390D01*
X118620827Y-63534397D01*
X118766498Y-63594735D01*
X118766503Y-63594737D01*
X118921153Y-63625499D01*
X118921156Y-63625500D01*
X118921158Y-63625500D01*
X119078844Y-63625500D01*
X119078845Y-63625499D01*
X119233497Y-63594737D01*
X119379179Y-63534394D01*
X119510289Y-63446789D01*
X119621789Y-63335289D01*
X119709394Y-63204179D01*
X119769737Y-63058497D01*
X119800500Y-62903842D01*
X119800500Y-62296158D01*
X119800500Y-62296155D01*
X119800499Y-62296153D01*
X119775535Y-62170651D01*
X119769737Y-62141503D01*
X119769735Y-62141498D01*
X119709397Y-61995827D01*
X119709390Y-61995814D01*
X119621789Y-61864711D01*
X119621786Y-61864707D01*
X119510292Y-61753213D01*
X119510288Y-61753210D01*
X119435296Y-61703102D01*
X119390491Y-61649490D01*
X119381784Y-61580165D01*
X119411938Y-61517138D01*
X119435296Y-61496898D01*
X119454055Y-61484363D01*
X119510289Y-61446789D01*
X119621789Y-61335289D01*
X119709394Y-61204179D01*
X119714614Y-61191578D01*
X119769735Y-61058501D01*
X119769737Y-61058497D01*
X119800500Y-60903842D01*
X119800500Y-60296158D01*
X119800500Y-60296155D01*
X119800499Y-60296153D01*
X119769738Y-60141510D01*
X119769737Y-60141503D01*
X119714230Y-60007496D01*
X119709397Y-59995827D01*
X119709390Y-59995814D01*
X119621789Y-59864711D01*
X119621786Y-59864707D01*
X119510292Y-59753213D01*
X119510288Y-59753210D01*
X119379185Y-59665609D01*
X119379172Y-59665602D01*
X119233501Y-59605264D01*
X119233489Y-59605261D01*
X119078845Y-59574500D01*
X119078842Y-59574500D01*
X118921158Y-59574500D01*
X118921155Y-59574500D01*
X118766510Y-59605261D01*
X118766498Y-59605264D01*
X118620827Y-59665602D01*
X118620814Y-59665609D01*
X118489711Y-59753210D01*
X118489707Y-59753213D01*
X118378213Y-59864707D01*
X118378210Y-59864711D01*
X118290609Y-59995814D01*
X118290602Y-59995827D01*
X118230264Y-60141498D01*
X118230261Y-60141510D01*
X118199500Y-60296153D01*
X117800499Y-60296153D01*
X117769738Y-60141510D01*
X117769737Y-60141503D01*
X117714230Y-60007496D01*
X117709397Y-59995827D01*
X117709390Y-59995814D01*
X117621789Y-59864711D01*
X117621786Y-59864707D01*
X117510292Y-59753213D01*
X117510288Y-59753210D01*
X117379185Y-59665609D01*
X117379172Y-59665602D01*
X117233501Y-59605264D01*
X117233489Y-59605261D01*
X117078845Y-59574500D01*
X117078842Y-59574500D01*
X116921158Y-59574500D01*
X116921155Y-59574500D01*
X116766510Y-59605261D01*
X116766498Y-59605264D01*
X116620827Y-59665602D01*
X116620814Y-59665609D01*
X116489711Y-59753210D01*
X116489707Y-59753213D01*
X116378213Y-59864707D01*
X116318559Y-59953985D01*
X116264946Y-59998789D01*
X116195621Y-60007496D01*
X116132594Y-59977341D01*
X116095875Y-59917897D01*
X116092099Y-59897691D01*
X116089506Y-59872303D01*
X116034358Y-59705880D01*
X116034356Y-59705875D01*
X115942315Y-59556654D01*
X115818345Y-59432684D01*
X115669124Y-59340643D01*
X115669119Y-59340641D01*
X115641112Y-59331361D01*
X115583667Y-59291589D01*
X115556844Y-59227073D01*
X115569159Y-59158297D01*
X115616702Y-59107097D01*
X115680116Y-59089655D01*
X120385791Y-59089655D01*
X120452830Y-59109340D01*
X120498585Y-59162144D01*
X120505565Y-59181560D01*
X120505774Y-59182340D01*
X120571666Y-59296468D01*
X120664852Y-59389654D01*
X120706998Y-59413987D01*
X120755214Y-59464554D01*
X120768437Y-59533161D01*
X120742469Y-59598026D01*
X120692452Y-59635935D01*
X120620820Y-59665606D01*
X120620814Y-59665609D01*
X120489711Y-59753210D01*
X120489707Y-59753213D01*
X120378213Y-59864707D01*
X120378210Y-59864711D01*
X120290609Y-59995814D01*
X120290602Y-59995827D01*
X120230264Y-60141498D01*
X120230261Y-60141510D01*
X120199500Y-60296153D01*
X120199500Y-60903846D01*
X120230261Y-61058489D01*
X120230264Y-61058501D01*
X120290602Y-61204172D01*
X120290609Y-61204185D01*
X120378210Y-61335288D01*
X120378213Y-61335292D01*
X120489707Y-61446786D01*
X120489711Y-61446789D01*
X120564703Y-61496898D01*
X120609508Y-61550511D01*
X120618215Y-61619836D01*
X120588060Y-61682863D01*
X120564703Y-61703102D01*
X120489711Y-61753210D01*
X120489707Y-61753213D01*
X120378213Y-61864707D01*
X120378210Y-61864711D01*
X120290609Y-61995814D01*
X120290602Y-61995827D01*
X120230264Y-62141498D01*
X120230261Y-62141510D01*
X120199500Y-62296153D01*
X120199500Y-62903846D01*
X120230261Y-63058489D01*
X120230264Y-63058501D01*
X120290602Y-63204172D01*
X120290609Y-63204185D01*
X120378210Y-63335288D01*
X120378213Y-63335292D01*
X120489707Y-63446786D01*
X120489711Y-63446789D01*
X120620814Y-63534390D01*
X120620827Y-63534397D01*
X120766498Y-63594735D01*
X120766503Y-63594737D01*
X120921153Y-63625499D01*
X120921156Y-63625500D01*
X120921158Y-63625500D01*
X121078844Y-63625500D01*
X121078845Y-63625499D01*
X121233497Y-63594737D01*
X121379179Y-63534394D01*
X121510289Y-63446789D01*
X121621789Y-63335289D01*
X121709394Y-63204179D01*
X121769737Y-63058497D01*
X121800500Y-62903842D01*
X121800500Y-62296158D01*
X121800500Y-62296155D01*
X121800499Y-62296153D01*
X121775535Y-62170651D01*
X121769737Y-62141503D01*
X121769735Y-62141498D01*
X121709397Y-61995827D01*
X121709390Y-61995814D01*
X121621789Y-61864711D01*
X121621786Y-61864707D01*
X121510292Y-61753213D01*
X121510288Y-61753210D01*
X121435296Y-61703102D01*
X121390491Y-61649490D01*
X121381784Y-61580165D01*
X121411938Y-61517138D01*
X121435296Y-61496898D01*
X121454055Y-61484363D01*
X121510289Y-61446789D01*
X121621789Y-61335289D01*
X121709394Y-61204179D01*
X121714614Y-61191578D01*
X121769735Y-61058501D01*
X121769737Y-61058497D01*
X121800500Y-60903842D01*
X121800500Y-60296158D01*
X121800500Y-60296155D01*
X121800499Y-60296153D01*
X122199500Y-60296153D01*
X122199500Y-60903846D01*
X122230261Y-61058489D01*
X122230264Y-61058501D01*
X122290602Y-61204172D01*
X122290609Y-61204185D01*
X122378210Y-61335288D01*
X122378213Y-61335292D01*
X122489707Y-61446786D01*
X122489711Y-61446789D01*
X122564703Y-61496898D01*
X122609508Y-61550511D01*
X122618215Y-61619836D01*
X122588060Y-61682863D01*
X122564703Y-61703102D01*
X122489711Y-61753210D01*
X122489707Y-61753213D01*
X122378213Y-61864707D01*
X122378210Y-61864711D01*
X122290609Y-61995814D01*
X122290602Y-61995827D01*
X122230264Y-62141498D01*
X122230261Y-62141510D01*
X122199500Y-62296153D01*
X122199500Y-62903846D01*
X122230261Y-63058489D01*
X122230264Y-63058501D01*
X122290602Y-63204172D01*
X122290609Y-63204185D01*
X122378210Y-63335288D01*
X122378213Y-63335292D01*
X122489707Y-63446786D01*
X122489711Y-63446789D01*
X122620814Y-63534390D01*
X122620827Y-63534397D01*
X122766498Y-63594735D01*
X122766503Y-63594737D01*
X122921153Y-63625499D01*
X122921156Y-63625500D01*
X122921158Y-63625500D01*
X123078844Y-63625500D01*
X123078845Y-63625499D01*
X123233497Y-63594737D01*
X123379179Y-63534394D01*
X123510289Y-63446789D01*
X123621789Y-63335289D01*
X123709394Y-63204179D01*
X123769737Y-63058497D01*
X123800500Y-62903842D01*
X123800500Y-62296158D01*
X123800500Y-62296155D01*
X123800499Y-62296153D01*
X123775535Y-62170651D01*
X123769737Y-62141503D01*
X123769735Y-62141498D01*
X123709397Y-61995827D01*
X123709390Y-61995814D01*
X123621789Y-61864711D01*
X123621786Y-61864707D01*
X123510292Y-61753213D01*
X123510288Y-61753210D01*
X123435296Y-61703102D01*
X123390491Y-61649490D01*
X123381784Y-61580165D01*
X123411938Y-61517138D01*
X123435296Y-61496898D01*
X123454055Y-61484363D01*
X123510289Y-61446789D01*
X123621789Y-61335289D01*
X123709394Y-61204179D01*
X123714614Y-61191578D01*
X123769735Y-61058501D01*
X123769737Y-61058497D01*
X123800500Y-60903842D01*
X123800500Y-60296158D01*
X123800500Y-60296155D01*
X123800499Y-60296153D01*
X124199500Y-60296153D01*
X124199500Y-60903846D01*
X124230261Y-61058489D01*
X124230264Y-61058501D01*
X124290602Y-61204172D01*
X124290609Y-61204185D01*
X124378210Y-61335288D01*
X124378213Y-61335292D01*
X124489707Y-61446786D01*
X124489711Y-61446789D01*
X124564703Y-61496898D01*
X124609508Y-61550511D01*
X124618215Y-61619836D01*
X124588060Y-61682863D01*
X124564703Y-61703102D01*
X124489711Y-61753210D01*
X124489707Y-61753213D01*
X124378213Y-61864707D01*
X124378210Y-61864711D01*
X124290609Y-61995814D01*
X124290602Y-61995827D01*
X124230264Y-62141498D01*
X124230261Y-62141510D01*
X124199500Y-62296153D01*
X124199500Y-62903846D01*
X124230261Y-63058489D01*
X124230264Y-63058501D01*
X124290602Y-63204172D01*
X124290609Y-63204185D01*
X124378210Y-63335288D01*
X124378213Y-63335292D01*
X124489707Y-63446786D01*
X124489711Y-63446789D01*
X124620814Y-63534390D01*
X124620827Y-63534397D01*
X124766498Y-63594735D01*
X124766503Y-63594737D01*
X124921153Y-63625499D01*
X124921156Y-63625500D01*
X124921158Y-63625500D01*
X125078844Y-63625500D01*
X125078845Y-63625499D01*
X125233497Y-63594737D01*
X125379179Y-63534394D01*
X125510289Y-63446789D01*
X125621789Y-63335289D01*
X125709394Y-63204179D01*
X125769737Y-63058497D01*
X125800500Y-62903842D01*
X125800500Y-62296158D01*
X125800500Y-62296155D01*
X125800499Y-62296153D01*
X125775535Y-62170651D01*
X125769737Y-62141503D01*
X125769735Y-62141498D01*
X125709397Y-61995827D01*
X125709390Y-61995814D01*
X125621789Y-61864711D01*
X125621786Y-61864707D01*
X125510292Y-61753213D01*
X125510288Y-61753210D01*
X125435296Y-61703102D01*
X125390491Y-61649490D01*
X125381784Y-61580165D01*
X125411938Y-61517138D01*
X125435296Y-61496898D01*
X125454055Y-61484363D01*
X125510289Y-61446789D01*
X125621789Y-61335289D01*
X125709394Y-61204179D01*
X125714614Y-61191578D01*
X125769735Y-61058501D01*
X125769737Y-61058497D01*
X125800500Y-60903842D01*
X125800500Y-60296158D01*
X125800500Y-60296155D01*
X125800499Y-60296153D01*
X125769738Y-60141510D01*
X125769737Y-60141503D01*
X125714230Y-60007496D01*
X125709397Y-59995827D01*
X125709390Y-59995814D01*
X125621789Y-59864711D01*
X125621786Y-59864707D01*
X125510292Y-59753213D01*
X125510288Y-59753210D01*
X125379185Y-59665609D01*
X125379172Y-59665602D01*
X125233501Y-59605264D01*
X125233489Y-59605261D01*
X125078845Y-59574500D01*
X125078842Y-59574500D01*
X124921158Y-59574500D01*
X124921155Y-59574500D01*
X124766510Y-59605261D01*
X124766498Y-59605264D01*
X124620827Y-59665602D01*
X124620814Y-59665609D01*
X124489711Y-59753210D01*
X124489707Y-59753213D01*
X124378213Y-59864707D01*
X124378210Y-59864711D01*
X124290609Y-59995814D01*
X124290602Y-59995827D01*
X124230264Y-60141498D01*
X124230261Y-60141510D01*
X124199500Y-60296153D01*
X123800499Y-60296153D01*
X123769738Y-60141510D01*
X123769737Y-60141503D01*
X123714230Y-60007496D01*
X123709397Y-59995827D01*
X123709390Y-59995814D01*
X123621789Y-59864711D01*
X123621786Y-59864707D01*
X123510292Y-59753213D01*
X123510288Y-59753210D01*
X123379185Y-59665609D01*
X123379172Y-59665602D01*
X123233501Y-59605264D01*
X123233489Y-59605261D01*
X123078845Y-59574500D01*
X123078842Y-59574500D01*
X122921158Y-59574500D01*
X122921155Y-59574500D01*
X122766510Y-59605261D01*
X122766498Y-59605264D01*
X122620827Y-59665602D01*
X122620814Y-59665609D01*
X122489711Y-59753210D01*
X122489707Y-59753213D01*
X122378213Y-59864707D01*
X122378210Y-59864711D01*
X122290609Y-59995814D01*
X122290602Y-59995827D01*
X122230264Y-60141498D01*
X122230261Y-60141510D01*
X122199500Y-60296153D01*
X121800499Y-60296153D01*
X121769738Y-60141510D01*
X121769737Y-60141503D01*
X121714230Y-60007496D01*
X121709397Y-59995827D01*
X121709390Y-59995814D01*
X121621789Y-59864711D01*
X121621786Y-59864707D01*
X121510292Y-59753213D01*
X121510288Y-59753210D01*
X121379185Y-59665609D01*
X121379176Y-59665604D01*
X121275134Y-59622509D01*
X121220731Y-59578668D01*
X121198666Y-59512374D01*
X121215945Y-59444675D01*
X121260587Y-59400561D01*
X121279480Y-59389654D01*
X121372666Y-59296468D01*
X121438558Y-59182340D01*
X121472666Y-59055046D01*
X121472666Y-58923262D01*
X121438558Y-58795968D01*
X121372666Y-58681840D01*
X121342661Y-58651835D01*
X121309176Y-58590512D01*
X121314160Y-58520820D01*
X121342661Y-58476473D01*
X121372666Y-58446468D01*
X121438558Y-58332340D01*
X121472666Y-58205046D01*
X121472666Y-58073262D01*
X121438558Y-57945968D01*
X121372666Y-57831840D01*
X121279480Y-57738654D01*
X121222416Y-57705708D01*
X121165353Y-57672762D01*
X121101705Y-57655708D01*
X121038058Y-57638654D01*
X120906274Y-57638654D01*
X120778978Y-57672762D01*
X120664852Y-57738654D01*
X120664849Y-57738656D01*
X120571668Y-57831837D01*
X120571666Y-57831840D01*
X120505774Y-57945967D01*
X120505566Y-57946745D01*
X120505210Y-57947327D01*
X120502666Y-57953472D01*
X120501707Y-57953075D01*
X120469202Y-58006406D01*
X120406356Y-58036936D01*
X120385791Y-58038653D01*
X111903087Y-58038653D01*
X111864873Y-58048892D01*
X111826658Y-58059132D01*
X111826653Y-58059135D01*
X111758144Y-58098688D01*
X111758136Y-58098694D01*
X109139392Y-60717439D01*
X109112464Y-60732142D01*
X109086646Y-60748735D01*
X109080445Y-60749626D01*
X109078069Y-60750924D01*
X109051711Y-60753758D01*
X108959733Y-60753758D01*
X108892694Y-60734073D01*
X108846939Y-60681269D01*
X108839958Y-60661850D01*
X108839750Y-60661073D01*
X108773858Y-60546945D01*
X108680672Y-60453759D01*
X108623608Y-60420813D01*
X108566545Y-60387867D01*
X108498687Y-60369685D01*
X108439250Y-60353759D01*
X108307466Y-60353759D01*
X108180170Y-60387867D01*
X108066044Y-60453759D01*
X108066041Y-60453761D01*
X107972860Y-60546942D01*
X107972858Y-60546945D01*
X107906966Y-60661071D01*
X107872858Y-60788367D01*
X94175500Y-60788367D01*
X94175500Y-57030000D01*
X96480138Y-57030000D01*
X97283012Y-57030000D01*
X97265795Y-57039940D01*
X97209940Y-57095795D01*
X97170444Y-57164204D01*
X97150000Y-57240504D01*
X97150000Y-57319496D01*
X97170444Y-57395796D01*
X97209940Y-57464205D01*
X97265795Y-57520060D01*
X97283012Y-57530000D01*
X96480138Y-57530000D01*
X96488430Y-57571690D01*
X96488430Y-57571692D01*
X96563807Y-57753671D01*
X96563814Y-57753684D01*
X96673248Y-57917462D01*
X96673251Y-57917466D01*
X96812533Y-58056748D01*
X96812537Y-58056751D01*
X96976315Y-58166185D01*
X96976328Y-58166192D01*
X97158306Y-58241569D01*
X97158318Y-58241572D01*
X97351504Y-58279999D01*
X97351508Y-58280000D01*
X97500000Y-58280000D01*
X97500000Y-57580000D01*
X98000000Y-57580000D01*
X98000000Y-58280000D01*
X98148492Y-58280000D01*
X98148495Y-58279999D01*
X98341681Y-58241572D01*
X98341693Y-58241569D01*
X98523671Y-58166192D01*
X98523684Y-58166185D01*
X98687462Y-58056751D01*
X98687466Y-58056748D01*
X98826748Y-57917466D01*
X98826751Y-57917462D01*
X98936185Y-57753684D01*
X98936192Y-57753671D01*
X99011569Y-57571692D01*
X99011569Y-57571690D01*
X99019862Y-57530000D01*
X98216988Y-57530000D01*
X98234205Y-57520060D01*
X98290060Y-57464205D01*
X98329556Y-57395796D01*
X98350000Y-57319496D01*
X98350000Y-57240504D01*
X98329556Y-57164204D01*
X98290060Y-57095795D01*
X98234205Y-57039940D01*
X98216988Y-57030000D01*
X99019862Y-57030000D01*
X100410138Y-57030000D01*
X101213012Y-57030000D01*
X101195795Y-57039940D01*
X101139940Y-57095795D01*
X101100444Y-57164204D01*
X101080000Y-57240504D01*
X101080000Y-57319496D01*
X101100444Y-57395796D01*
X101139940Y-57464205D01*
X101195795Y-57520060D01*
X101213012Y-57530000D01*
X100410138Y-57530000D01*
X100418430Y-57571690D01*
X100418430Y-57571692D01*
X100493807Y-57753671D01*
X100493814Y-57753684D01*
X100603248Y-57917462D01*
X100603251Y-57917466D01*
X100742533Y-58056748D01*
X100742537Y-58056751D01*
X100911387Y-58169574D01*
X100910430Y-58171005D01*
X100954425Y-58214211D01*
X100969895Y-58282346D01*
X100946072Y-58348029D01*
X100944309Y-58350094D01*
X100944432Y-58350189D01*
X100939485Y-58356635D01*
X100863719Y-58487863D01*
X100824500Y-58634234D01*
X100824500Y-58785765D01*
X100863719Y-58932136D01*
X100901602Y-58997750D01*
X100939485Y-59063365D01*
X101046635Y-59170515D01*
X101177865Y-59246281D01*
X101324234Y-59285500D01*
X101324236Y-59285500D01*
X101475764Y-59285500D01*
X101475766Y-59285500D01*
X101622135Y-59246281D01*
X101753365Y-59170515D01*
X101860515Y-59063365D01*
X101936281Y-58932135D01*
X101975500Y-58785766D01*
X101975500Y-58634234D01*
X101936281Y-58487865D01*
X101860515Y-58356635D01*
X101753365Y-58249485D01*
X101741998Y-58242922D01*
X101693783Y-58192354D01*
X101680000Y-58135536D01*
X101680000Y-57580000D01*
X102180000Y-57580000D01*
X102180000Y-58280000D01*
X102578492Y-58280000D01*
X102578495Y-58279999D01*
X102771681Y-58241572D01*
X102771693Y-58241569D01*
X102953671Y-58166192D01*
X102953684Y-58166185D01*
X103117462Y-58056751D01*
X103117466Y-58056748D01*
X103256748Y-57917466D01*
X103256751Y-57917462D01*
X103366185Y-57753684D01*
X103366192Y-57753671D01*
X103441569Y-57571692D01*
X103441569Y-57571690D01*
X103449862Y-57530000D01*
X102646988Y-57530000D01*
X102664205Y-57520060D01*
X102720060Y-57464205D01*
X102759556Y-57395796D01*
X102780000Y-57319496D01*
X102780000Y-57240504D01*
X102759556Y-57164204D01*
X102720060Y-57095795D01*
X102664205Y-57039940D01*
X102646988Y-57030000D01*
X103449862Y-57030000D01*
X103441569Y-56988309D01*
X103441569Y-56988307D01*
X103366192Y-56806328D01*
X103366185Y-56806315D01*
X103256751Y-56642537D01*
X103256748Y-56642533D01*
X103117466Y-56503251D01*
X103117462Y-56503248D01*
X102953684Y-56393814D01*
X102953671Y-56393807D01*
X102771693Y-56318430D01*
X102771681Y-56318427D01*
X102578495Y-56280000D01*
X102180000Y-56280000D01*
X102180000Y-56980000D01*
X101680000Y-56980000D01*
X101680000Y-56280000D01*
X101281504Y-56280000D01*
X101088318Y-56318427D01*
X101088306Y-56318430D01*
X100906328Y-56393807D01*
X100906315Y-56393814D01*
X100742537Y-56503248D01*
X100742533Y-56503251D01*
X100603251Y-56642533D01*
X100603248Y-56642537D01*
X100493814Y-56806315D01*
X100493807Y-56806328D01*
X100418430Y-56988307D01*
X100418430Y-56988309D01*
X100410138Y-57030000D01*
X99019862Y-57030000D01*
X99011569Y-56988309D01*
X99011569Y-56988307D01*
X98936192Y-56806328D01*
X98936185Y-56806315D01*
X98826751Y-56642537D01*
X98826748Y-56642533D01*
X98687466Y-56503251D01*
X98687462Y-56503248D01*
X98523684Y-56393814D01*
X98523671Y-56393807D01*
X98341693Y-56318430D01*
X98341681Y-56318427D01*
X98148495Y-56280000D01*
X98000000Y-56280000D01*
X98000000Y-56980000D01*
X97500000Y-56980000D01*
X97500000Y-56280000D01*
X97351504Y-56280000D01*
X97158318Y-56318427D01*
X97158306Y-56318430D01*
X96976328Y-56393807D01*
X96976315Y-56393814D01*
X96812537Y-56503248D01*
X96812533Y-56503251D01*
X96673251Y-56642533D01*
X96673248Y-56642537D01*
X96563814Y-56806315D01*
X96563807Y-56806328D01*
X96488430Y-56988307D01*
X96488430Y-56988309D01*
X96480138Y-57030000D01*
X94175500Y-57030000D01*
X94175500Y-54670000D01*
X96480138Y-54670000D01*
X97283012Y-54670000D01*
X97265795Y-54679940D01*
X97209940Y-54735795D01*
X97170444Y-54804204D01*
X97150000Y-54880504D01*
X97150000Y-54959496D01*
X97170444Y-55035796D01*
X97209940Y-55104205D01*
X97265795Y-55160060D01*
X97283012Y-55170000D01*
X96480138Y-55170000D01*
X96488430Y-55211690D01*
X96488430Y-55211692D01*
X96563807Y-55393671D01*
X96563814Y-55393684D01*
X96673248Y-55557462D01*
X96673251Y-55557466D01*
X96812533Y-55696748D01*
X96812537Y-55696751D01*
X96976315Y-55806185D01*
X96976328Y-55806192D01*
X97158306Y-55881569D01*
X97158318Y-55881572D01*
X97351504Y-55919999D01*
X97351508Y-55920000D01*
X97500000Y-55920000D01*
X97500000Y-55220000D01*
X98000000Y-55220000D01*
X98000000Y-55920000D01*
X98148492Y-55920000D01*
X98148495Y-55919999D01*
X98341681Y-55881572D01*
X98341693Y-55881569D01*
X98523671Y-55806192D01*
X98523684Y-55806185D01*
X98687462Y-55696751D01*
X98687466Y-55696748D01*
X98826748Y-55557466D01*
X98826751Y-55557462D01*
X98936185Y-55393684D01*
X98936192Y-55393671D01*
X99011569Y-55211692D01*
X99011569Y-55211690D01*
X99019862Y-55170000D01*
X98216988Y-55170000D01*
X98234205Y-55160060D01*
X98290060Y-55104205D01*
X98329556Y-55035796D01*
X98350000Y-54959496D01*
X98350000Y-54880504D01*
X98329556Y-54804204D01*
X98290060Y-54735795D01*
X98234205Y-54679940D01*
X98216988Y-54670000D01*
X99019862Y-54670000D01*
X100410138Y-54670000D01*
X101213012Y-54670000D01*
X101195795Y-54679940D01*
X101139940Y-54735795D01*
X101100444Y-54804204D01*
X101080000Y-54880504D01*
X101080000Y-54959496D01*
X101100444Y-55035796D01*
X101139940Y-55104205D01*
X101195795Y-55160060D01*
X101213012Y-55170000D01*
X100410138Y-55170000D01*
X100418430Y-55211690D01*
X100418430Y-55211692D01*
X100493807Y-55393671D01*
X100493814Y-55393684D01*
X100603248Y-55557462D01*
X100603251Y-55557466D01*
X100742533Y-55696748D01*
X100742537Y-55696751D01*
X100906315Y-55806185D01*
X100906328Y-55806192D01*
X101088306Y-55881569D01*
X101088318Y-55881572D01*
X101281504Y-55919999D01*
X101281508Y-55920000D01*
X101680000Y-55920000D01*
X101680000Y-55220000D01*
X102180000Y-55220000D01*
X102180000Y-55920000D01*
X102578492Y-55920000D01*
X102578495Y-55919999D01*
X102771681Y-55881572D01*
X102771693Y-55881569D01*
X102953671Y-55806192D01*
X102953684Y-55806185D01*
X103117462Y-55696751D01*
X103117466Y-55696748D01*
X103256748Y-55557466D01*
X103256751Y-55557462D01*
X103366185Y-55393684D01*
X103366192Y-55393671D01*
X103441569Y-55211692D01*
X103441569Y-55211690D01*
X103449862Y-55170000D01*
X102646988Y-55170000D01*
X102664205Y-55160060D01*
X102720060Y-55104205D01*
X102759556Y-55035796D01*
X102780000Y-54959496D01*
X102780000Y-54880504D01*
X102759556Y-54804204D01*
X102720060Y-54735795D01*
X102664205Y-54679940D01*
X102646988Y-54670000D01*
X103449862Y-54670000D01*
X103441569Y-54628309D01*
X103441569Y-54628307D01*
X103366192Y-54446328D01*
X103366185Y-54446315D01*
X103256751Y-54282537D01*
X103256748Y-54282533D01*
X103117466Y-54143251D01*
X103117462Y-54143248D01*
X102953684Y-54033814D01*
X102953671Y-54033807D01*
X102771693Y-53958430D01*
X102771681Y-53958427D01*
X102578495Y-53920000D01*
X102180000Y-53920000D01*
X102180000Y-54620000D01*
X101680000Y-54620000D01*
X101680000Y-54064463D01*
X101699685Y-53997424D01*
X101742000Y-53957076D01*
X101753365Y-53950515D01*
X101860515Y-53843365D01*
X101861372Y-53841879D01*
X101881721Y-53806637D01*
X101936279Y-53712138D01*
X101936281Y-53712135D01*
X101975500Y-53565766D01*
X101975500Y-53414234D01*
X101936281Y-53267865D01*
X101860515Y-53136635D01*
X101753365Y-53029485D01*
X101687750Y-52991602D01*
X101622136Y-52953719D01*
X101548950Y-52934109D01*
X101475766Y-52914500D01*
X101324234Y-52914500D01*
X101177863Y-52953719D01*
X101046635Y-53029485D01*
X101046632Y-53029487D01*
X100939487Y-53136632D01*
X100939485Y-53136635D01*
X100863719Y-53267863D01*
X100824500Y-53414234D01*
X100824500Y-53565765D01*
X100863719Y-53712136D01*
X100901602Y-53777750D01*
X100939485Y-53843365D01*
X100939487Y-53843367D01*
X100944432Y-53849811D01*
X100941612Y-53851974D01*
X100967302Y-53899020D01*
X100962318Y-53968712D01*
X100920446Y-54024645D01*
X100911379Y-54030416D01*
X100911387Y-54030427D01*
X100742536Y-54143248D01*
X100603251Y-54282533D01*
X100603248Y-54282537D01*
X100493814Y-54446315D01*
X100493807Y-54446328D01*
X100418430Y-54628307D01*
X100418430Y-54628309D01*
X100410138Y-54670000D01*
X99019862Y-54670000D01*
X99011569Y-54628309D01*
X99011569Y-54628307D01*
X98936192Y-54446328D01*
X98936185Y-54446315D01*
X98826751Y-54282537D01*
X98826748Y-54282533D01*
X98687466Y-54143251D01*
X98687462Y-54143248D01*
X98523684Y-54033814D01*
X98523671Y-54033807D01*
X98341693Y-53958430D01*
X98341681Y-53958427D01*
X98148495Y-53920000D01*
X98000000Y-53920000D01*
X98000000Y-54620000D01*
X97500000Y-54620000D01*
X97500000Y-53920000D01*
X97351504Y-53920000D01*
X97158318Y-53958427D01*
X97158306Y-53958430D01*
X96976328Y-54033807D01*
X96976315Y-54033814D01*
X96812537Y-54143248D01*
X96812533Y-54143251D01*
X96673251Y-54282533D01*
X96673248Y-54282537D01*
X96563814Y-54446315D01*
X96563807Y-54446328D01*
X96488430Y-54628307D01*
X96488430Y-54628309D01*
X96480138Y-54670000D01*
X94175500Y-54670000D01*
X94175500Y-50334108D01*
X100699500Y-50334108D01*
X100699500Y-50465891D01*
X100733608Y-50593187D01*
X100748747Y-50619408D01*
X100799500Y-50707314D01*
X100799502Y-50707316D01*
X100863181Y-50770995D01*
X100896666Y-50832318D01*
X100899500Y-50858676D01*
X100899500Y-51341323D01*
X100879815Y-51408362D01*
X100863182Y-51429004D01*
X100799500Y-51492686D01*
X100733608Y-51606812D01*
X100699500Y-51734108D01*
X100699500Y-51865891D01*
X100733608Y-51993187D01*
X100757577Y-52034701D01*
X100799500Y-52107314D01*
X100892686Y-52200500D01*
X101006814Y-52266392D01*
X101134108Y-52300500D01*
X101134110Y-52300500D01*
X101265890Y-52300500D01*
X101265892Y-52300500D01*
X101393186Y-52266392D01*
X101507314Y-52200500D01*
X101600500Y-52107314D01*
X101666392Y-51993186D01*
X101700500Y-51865892D01*
X101700500Y-51734108D01*
X101666392Y-51606814D01*
X101600500Y-51492686D01*
X101536818Y-51429004D01*
X101503334Y-51367680D01*
X101500500Y-51341323D01*
X101500500Y-50858676D01*
X101520185Y-50791637D01*
X101536819Y-50770995D01*
X101561416Y-50746398D01*
X101600500Y-50707314D01*
X101666392Y-50593186D01*
X101700500Y-50465892D01*
X101700500Y-50334108D01*
X101666392Y-50206814D01*
X101600500Y-50092686D01*
X101507314Y-49999500D01*
X101450250Y-49966554D01*
X101393187Y-49933608D01*
X101329539Y-49916554D01*
X101265892Y-49899500D01*
X101134108Y-49899500D01*
X101006812Y-49933608D01*
X100892686Y-49999500D01*
X100892683Y-49999502D01*
X100799502Y-50092683D01*
X100799500Y-50092686D01*
X100733608Y-50206812D01*
X100699500Y-50334108D01*
X94175500Y-50334108D01*
X94175500Y-49521153D01*
X107774500Y-49521153D01*
X107774500Y-49678846D01*
X107805261Y-49833489D01*
X107805264Y-49833501D01*
X107865602Y-49979172D01*
X107865609Y-49979185D01*
X107953210Y-50110288D01*
X107953213Y-50110292D01*
X108064707Y-50221786D01*
X108064711Y-50221789D01*
X108195814Y-50309390D01*
X108195827Y-50309397D01*
X108332597Y-50366048D01*
X108341503Y-50369737D01*
X108496153Y-50400499D01*
X108496156Y-50400500D01*
X108496158Y-50400500D01*
X109103844Y-50400500D01*
X109103845Y-50400499D01*
X109258497Y-50369737D01*
X109393351Y-50313879D01*
X109404172Y-50309397D01*
X109404172Y-50309396D01*
X109404179Y-50309394D01*
X109524881Y-50228742D01*
X109591556Y-50207866D01*
X109658936Y-50226350D01*
X109694089Y-50258961D01*
X109735967Y-50316602D01*
X109858397Y-50439032D01*
X109998475Y-50540804D01*
X110152744Y-50619408D01*
X110224130Y-50642603D01*
X110281805Y-50682040D01*
X110309004Y-50746398D01*
X110297090Y-50815245D01*
X110249846Y-50866721D01*
X110233267Y-50875094D01*
X110195826Y-50890603D01*
X110195814Y-50890609D01*
X110064711Y-50978210D01*
X109975435Y-51067486D01*
X109914111Y-51100970D01*
X109844420Y-51095986D01*
X109788486Y-51054114D01*
X109778120Y-51037739D01*
X109777795Y-51037125D01*
X109777793Y-51037118D01*
X109697150Y-50927850D01*
X109587882Y-50847207D01*
X109587880Y-50847206D01*
X109459700Y-50802353D01*
X109429270Y-50799500D01*
X109429266Y-50799500D01*
X108170734Y-50799500D01*
X108170730Y-50799500D01*
X108140300Y-50802353D01*
X108140298Y-50802353D01*
X108012119Y-50847206D01*
X108012117Y-50847207D01*
X107902850Y-50927850D01*
X107822207Y-51037117D01*
X107822206Y-51037119D01*
X107777353Y-51165298D01*
X107777353Y-51165300D01*
X107774500Y-51195730D01*
X107774500Y-52004269D01*
X107777353Y-52034699D01*
X107777353Y-52034701D01*
X107819813Y-52156041D01*
X107822207Y-52162882D01*
X107902850Y-52272150D01*
X108012118Y-52352793D01*
X108054845Y-52367744D01*
X108140299Y-52397646D01*
X108170730Y-52400500D01*
X108170734Y-52400500D01*
X109429270Y-52400500D01*
X109459699Y-52397646D01*
X109459701Y-52397646D01*
X109523790Y-52375219D01*
X109587882Y-52352793D01*
X109697150Y-52272150D01*
X109777793Y-52162882D01*
X109777795Y-52162874D01*
X109778118Y-52162265D01*
X109778656Y-52161711D01*
X109783311Y-52155405D01*
X109784173Y-52156041D01*
X109826841Y-52112187D01*
X109894904Y-52096401D01*
X109960697Y-52119919D01*
X109975435Y-52132514D01*
X110064707Y-52221786D01*
X110064711Y-52221789D01*
X110195814Y-52309390D01*
X110195827Y-52309397D01*
X110300596Y-52352793D01*
X110341503Y-52369737D01*
X110481810Y-52397646D01*
X110496153Y-52400499D01*
X110496156Y-52400500D01*
X110496158Y-52400500D01*
X111103844Y-52400500D01*
X111103845Y-52400499D01*
X111258497Y-52369737D01*
X111404179Y-52309394D01*
X111535289Y-52221789D01*
X111646789Y-52110289D01*
X111734394Y-51979179D01*
X111794737Y-51833497D01*
X111825500Y-51678842D01*
X111825500Y-51521158D01*
X111825500Y-51521155D01*
X111825499Y-51521153D01*
X111794738Y-51366506D01*
X111794737Y-51366504D01*
X111794737Y-51366503D01*
X111762618Y-51288961D01*
X111734397Y-51220827D01*
X111734390Y-51220814D01*
X111646789Y-51089711D01*
X111646786Y-51089707D01*
X111535292Y-50978213D01*
X111535286Y-50978208D01*
X111527207Y-50972810D01*
X111527195Y-50972803D01*
X111404179Y-50890606D01*
X111358297Y-50871601D01*
X111350453Y-50866901D01*
X111332705Y-50847673D01*
X111312330Y-50831253D01*
X111309386Y-50822408D01*
X111303064Y-50815559D01*
X111298529Y-50789785D01*
X111290266Y-50764958D01*
X111292571Y-50755926D01*
X111290956Y-50746746D01*
X111301074Y-50722614D01*
X111307546Y-50697259D01*
X111314368Y-50690906D01*
X111317973Y-50682311D01*
X111339531Y-50667480D01*
X111358684Y-50649649D01*
X111375434Y-50642781D01*
X111375537Y-50642711D01*
X111375612Y-50642708D01*
X111375870Y-50642603D01*
X111447253Y-50619409D01*
X111601524Y-50540804D01*
X111741602Y-50439032D01*
X111864032Y-50316602D01*
X111965804Y-50176524D01*
X112044408Y-50022255D01*
X112097914Y-49857584D01*
X112099115Y-49850000D01*
X111146410Y-49850000D01*
X111196037Y-49764044D01*
X111214871Y-49693753D01*
X117585000Y-49693753D01*
X117585000Y-49906246D01*
X117618242Y-50116127D01*
X117618242Y-50116130D01*
X117683904Y-50318217D01*
X117780375Y-50507550D01*
X117819728Y-50561716D01*
X118452037Y-49929408D01*
X118469075Y-49992993D01*
X118534901Y-50107007D01*
X118627993Y-50200099D01*
X118742007Y-50265925D01*
X118805590Y-50282962D01*
X118173282Y-50915269D01*
X118173282Y-50915270D01*
X118227449Y-50954624D01*
X118416782Y-51051095D01*
X118618870Y-51116757D01*
X118828754Y-51150000D01*
X119041246Y-51150000D01*
X119251127Y-51116757D01*
X119251130Y-51116757D01*
X119453217Y-51051095D01*
X119480658Y-51037113D01*
X136959294Y-51037113D01*
X136959294Y-51329104D01*
X136959294Y-51329105D01*
X136959294Y-51460889D01*
X136959295Y-51460891D01*
X136993402Y-51588184D01*
X137026348Y-51645247D01*
X137059294Y-51702311D01*
X137091091Y-51734108D01*
X137152479Y-51795497D01*
X137266607Y-51861389D01*
X137393901Y-51895497D01*
X137393902Y-51895497D01*
X149869247Y-51895497D01*
X149869251Y-51895499D01*
X149893912Y-51895499D01*
X150025694Y-51895499D01*
X150025695Y-51895499D01*
X150025696Y-51895499D01*
X150152990Y-51861391D01*
X150267118Y-51795499D01*
X150328508Y-51734108D01*
X150360303Y-51702313D01*
X150426195Y-51588185D01*
X150460303Y-51460891D01*
X150460303Y-51329107D01*
X150460303Y-51304670D01*
X150460301Y-51304551D01*
X150460299Y-48789104D01*
X150426191Y-48661810D01*
X150360299Y-48547682D01*
X150313705Y-48501089D01*
X150267113Y-48454497D01*
X150210049Y-48421551D01*
X150152986Y-48388605D01*
X150089338Y-48371551D01*
X150025691Y-48354497D01*
X137393906Y-48354497D01*
X137266612Y-48388605D01*
X137266611Y-48388605D01*
X137266609Y-48388606D01*
X137266608Y-48388606D01*
X137152482Y-48454497D01*
X137059301Y-48547678D01*
X137059298Y-48547682D01*
X136993406Y-48661808D01*
X136959298Y-48789104D01*
X136959297Y-48789106D01*
X136959294Y-51037113D01*
X119480658Y-51037113D01*
X119642554Y-50954622D01*
X119696716Y-50915270D01*
X119696717Y-50915270D01*
X119064408Y-50282962D01*
X119127993Y-50265925D01*
X119242007Y-50200099D01*
X119335099Y-50107007D01*
X119400925Y-49992993D01*
X119417962Y-49929409D01*
X120050270Y-50561717D01*
X120050270Y-50561716D01*
X120089622Y-50507554D01*
X120188306Y-50313879D01*
X120189321Y-50314396D01*
X120229779Y-50264192D01*
X120296073Y-50242127D01*
X120363772Y-50259406D01*
X120411383Y-50310542D01*
X120424500Y-50366048D01*
X120424500Y-50669752D01*
X120436131Y-50728229D01*
X120436132Y-50728230D01*
X120480447Y-50794552D01*
X120546769Y-50838867D01*
X120546770Y-50838868D01*
X120605247Y-50850499D01*
X120605250Y-50850500D01*
X120605252Y-50850500D01*
X122344750Y-50850500D01*
X122344751Y-50850499D01*
X122361308Y-50847206D01*
X122403229Y-50838868D01*
X122403229Y-50838867D01*
X122403231Y-50838867D01*
X122469552Y-50794552D01*
X122513867Y-50728231D01*
X122513867Y-50728229D01*
X122513868Y-50728229D01*
X122525499Y-50669752D01*
X122525500Y-50669750D01*
X122525500Y-48930249D01*
X122525499Y-48930247D01*
X122513868Y-48871770D01*
X122513867Y-48871769D01*
X122469552Y-48805447D01*
X122403230Y-48761132D01*
X122403229Y-48761131D01*
X122344752Y-48749500D01*
X122344748Y-48749500D01*
X120605252Y-48749500D01*
X120605247Y-48749500D01*
X120546770Y-48761131D01*
X120546769Y-48761132D01*
X120480447Y-48805447D01*
X120436132Y-48871769D01*
X120436131Y-48871770D01*
X120424500Y-48930247D01*
X120424500Y-49233951D01*
X120404815Y-49300990D01*
X120352011Y-49346745D01*
X120282853Y-49356689D01*
X120219297Y-49327664D01*
X120189061Y-49285736D01*
X120188306Y-49286121D01*
X120089624Y-49092449D01*
X120050270Y-49038282D01*
X120050269Y-49038282D01*
X119417962Y-49670590D01*
X119400925Y-49607007D01*
X119335099Y-49492993D01*
X119242007Y-49399901D01*
X119127993Y-49334075D01*
X119064409Y-49317037D01*
X119696716Y-48684728D01*
X119642550Y-48645375D01*
X119453217Y-48548904D01*
X119251129Y-48483242D01*
X119041246Y-48450000D01*
X118828754Y-48450000D01*
X118618872Y-48483242D01*
X118618869Y-48483242D01*
X118416782Y-48548904D01*
X118227439Y-48645380D01*
X118173282Y-48684727D01*
X118173282Y-48684728D01*
X118805591Y-49317037D01*
X118742007Y-49334075D01*
X118627993Y-49399901D01*
X118534901Y-49492993D01*
X118469075Y-49607007D01*
X118452037Y-49670591D01*
X117819728Y-49038282D01*
X117819727Y-49038282D01*
X117780380Y-49092439D01*
X117683904Y-49281782D01*
X117618242Y-49483869D01*
X117618242Y-49483872D01*
X117585000Y-49693753D01*
X111214871Y-49693753D01*
X111225000Y-49655952D01*
X111225000Y-49544048D01*
X111196037Y-49435956D01*
X111146410Y-49350000D01*
X112099115Y-49350000D01*
X112099115Y-49349999D01*
X112097914Y-49342415D01*
X112044408Y-49177744D01*
X111965804Y-49023475D01*
X111864032Y-48883397D01*
X111741602Y-48760967D01*
X111601524Y-48659195D01*
X111447257Y-48580591D01*
X111282584Y-48527085D01*
X111111571Y-48500000D01*
X111050000Y-48500000D01*
X111050000Y-49253590D01*
X110964044Y-49203963D01*
X110855952Y-49175000D01*
X110744048Y-49175000D01*
X110635956Y-49203963D01*
X110550000Y-49253590D01*
X110550000Y-48500000D01*
X110488429Y-48500000D01*
X110317415Y-48527085D01*
X110152742Y-48580591D01*
X109998475Y-48659195D01*
X109858397Y-48760967D01*
X109735965Y-48883399D01*
X109735961Y-48883404D01*
X109694088Y-48941038D01*
X109638758Y-48983704D01*
X109569145Y-48989683D01*
X109524879Y-48971255D01*
X109404185Y-48890609D01*
X109404172Y-48890602D01*
X109258501Y-48830264D01*
X109258489Y-48830261D01*
X109103845Y-48799500D01*
X109103842Y-48799500D01*
X108496158Y-48799500D01*
X108496155Y-48799500D01*
X108341510Y-48830261D01*
X108341498Y-48830264D01*
X108195827Y-48890602D01*
X108195814Y-48890609D01*
X108064711Y-48978210D01*
X108064707Y-48978213D01*
X107953213Y-49089707D01*
X107953210Y-49089711D01*
X107865609Y-49220814D01*
X107865602Y-49220827D01*
X107805264Y-49366498D01*
X107805261Y-49366510D01*
X107774500Y-49521153D01*
X94175500Y-49521153D01*
X94175500Y-46030000D01*
X96480138Y-46030000D01*
X97283012Y-46030000D01*
X97265795Y-46039940D01*
X97209940Y-46095795D01*
X97170444Y-46164204D01*
X97150000Y-46240504D01*
X97150000Y-46319496D01*
X97170444Y-46395796D01*
X97209940Y-46464205D01*
X97265795Y-46520060D01*
X97283012Y-46530000D01*
X96480138Y-46530000D01*
X96488430Y-46571690D01*
X96488430Y-46571692D01*
X96563807Y-46753671D01*
X96563814Y-46753684D01*
X96673248Y-46917462D01*
X96673251Y-46917466D01*
X96812533Y-47056748D01*
X96812537Y-47056751D01*
X96976315Y-47166185D01*
X96976328Y-47166192D01*
X97158306Y-47241569D01*
X97158318Y-47241572D01*
X97351504Y-47279999D01*
X97351508Y-47280000D01*
X97500000Y-47280000D01*
X97500000Y-46580000D01*
X98000000Y-46580000D01*
X98000000Y-47280000D01*
X98148492Y-47280000D01*
X98148495Y-47279999D01*
X98341681Y-47241572D01*
X98341693Y-47241569D01*
X98523671Y-47166192D01*
X98523684Y-47166185D01*
X98687462Y-47056751D01*
X98687466Y-47056748D01*
X98826748Y-46917466D01*
X98826751Y-46917462D01*
X98936185Y-46753684D01*
X98936192Y-46753671D01*
X99011569Y-46571692D01*
X99011569Y-46571690D01*
X99019862Y-46530000D01*
X98216988Y-46530000D01*
X98234205Y-46520060D01*
X98290060Y-46464205D01*
X98329556Y-46395796D01*
X98350000Y-46319496D01*
X98350000Y-46240504D01*
X98329556Y-46164204D01*
X98290060Y-46095795D01*
X98234205Y-46039940D01*
X98216988Y-46030000D01*
X99019862Y-46030000D01*
X100410138Y-46030000D01*
X101213012Y-46030000D01*
X101195795Y-46039940D01*
X101139940Y-46095795D01*
X101100444Y-46164204D01*
X101080000Y-46240504D01*
X101080000Y-46319496D01*
X101100444Y-46395796D01*
X101139940Y-46464205D01*
X101195795Y-46520060D01*
X101213012Y-46530000D01*
X100410138Y-46530000D01*
X100418430Y-46571690D01*
X100418430Y-46571692D01*
X100493807Y-46753671D01*
X100493814Y-46753684D01*
X100603248Y-46917462D01*
X100603251Y-46917466D01*
X100742533Y-47056748D01*
X100742537Y-47056751D01*
X100911387Y-47169574D01*
X100910430Y-47171005D01*
X100954425Y-47214211D01*
X100969895Y-47282346D01*
X100946072Y-47348029D01*
X100944309Y-47350094D01*
X100944432Y-47350189D01*
X100939485Y-47356635D01*
X100863719Y-47487863D01*
X100824500Y-47634234D01*
X100824500Y-47785765D01*
X100863719Y-47932136D01*
X100901602Y-47997750D01*
X100939485Y-48063365D01*
X101046635Y-48170515D01*
X101177865Y-48246281D01*
X101324234Y-48285500D01*
X101324236Y-48285500D01*
X101475764Y-48285500D01*
X101475766Y-48285500D01*
X101622135Y-48246281D01*
X101753365Y-48170515D01*
X101860515Y-48063365D01*
X101936281Y-47932135D01*
X101975500Y-47785766D01*
X101975500Y-47634234D01*
X101936281Y-47487865D01*
X101860515Y-47356635D01*
X101753365Y-47249485D01*
X101741998Y-47242922D01*
X101693783Y-47192354D01*
X101680000Y-47135536D01*
X101680000Y-46580000D01*
X102180000Y-46580000D01*
X102180000Y-47280000D01*
X102578492Y-47280000D01*
X102578495Y-47279999D01*
X102771681Y-47241572D01*
X102771693Y-47241569D01*
X102953671Y-47166192D01*
X102953684Y-47166185D01*
X103117462Y-47056751D01*
X103117466Y-47056748D01*
X103256748Y-46917466D01*
X103256751Y-46917462D01*
X103366185Y-46753684D01*
X103366192Y-46753671D01*
X103441569Y-46571692D01*
X103441569Y-46571690D01*
X103449862Y-46530000D01*
X102646988Y-46530000D01*
X102664205Y-46520060D01*
X102720060Y-46464205D01*
X102759556Y-46395796D01*
X102780000Y-46319496D01*
X102780000Y-46240504D01*
X102759556Y-46164204D01*
X102720060Y-46095795D01*
X102664205Y-46039940D01*
X102646988Y-46030000D01*
X103449862Y-46030000D01*
X103441569Y-45988309D01*
X103441569Y-45988307D01*
X103366192Y-45806328D01*
X103366185Y-45806315D01*
X103256751Y-45642537D01*
X103256748Y-45642533D01*
X103117466Y-45503251D01*
X103117462Y-45503248D01*
X102953684Y-45393814D01*
X102953671Y-45393807D01*
X102771693Y-45318430D01*
X102771681Y-45318427D01*
X102578495Y-45280000D01*
X102180000Y-45280000D01*
X102180000Y-45980000D01*
X101680000Y-45980000D01*
X101680000Y-45280000D01*
X101281504Y-45280000D01*
X101088318Y-45318427D01*
X101088306Y-45318430D01*
X100906328Y-45393807D01*
X100906315Y-45393814D01*
X100742537Y-45503248D01*
X100742533Y-45503251D01*
X100603251Y-45642533D01*
X100603248Y-45642537D01*
X100493814Y-45806315D01*
X100493807Y-45806328D01*
X100418430Y-45988307D01*
X100418430Y-45988309D01*
X100410138Y-46030000D01*
X99019862Y-46030000D01*
X99011569Y-45988309D01*
X99011569Y-45988307D01*
X98936192Y-45806328D01*
X98936185Y-45806315D01*
X98826751Y-45642537D01*
X98826748Y-45642533D01*
X98687466Y-45503251D01*
X98687462Y-45503248D01*
X98523684Y-45393814D01*
X98523671Y-45393807D01*
X98341693Y-45318430D01*
X98341681Y-45318427D01*
X98148495Y-45280000D01*
X98000000Y-45280000D01*
X98000000Y-45980000D01*
X97500000Y-45980000D01*
X97500000Y-45280000D01*
X97351504Y-45280000D01*
X97158318Y-45318427D01*
X97158306Y-45318430D01*
X96976328Y-45393807D01*
X96976315Y-45393814D01*
X96812537Y-45503248D01*
X96812533Y-45503251D01*
X96673251Y-45642533D01*
X96673248Y-45642537D01*
X96563814Y-45806315D01*
X96563807Y-45806328D01*
X96488430Y-45988307D01*
X96488430Y-45988309D01*
X96480138Y-46030000D01*
X94175500Y-46030000D01*
X94175500Y-44293753D01*
X117510000Y-44293753D01*
X117510000Y-44506246D01*
X117543242Y-44716127D01*
X117543242Y-44716130D01*
X117608904Y-44918217D01*
X117705375Y-45107550D01*
X117744728Y-45161716D01*
X118377037Y-44529408D01*
X118394075Y-44592993D01*
X118459901Y-44707007D01*
X118552993Y-44800099D01*
X118667007Y-44865925D01*
X118730590Y-44882962D01*
X118098282Y-45515269D01*
X118098282Y-45515270D01*
X118152449Y-45554624D01*
X118341782Y-45651095D01*
X118543870Y-45716757D01*
X118753754Y-45750000D01*
X118966246Y-45750000D01*
X119176127Y-45716757D01*
X119176130Y-45716757D01*
X119378217Y-45651095D01*
X119567554Y-45554622D01*
X119621716Y-45515270D01*
X119621717Y-45515270D01*
X118989408Y-44882962D01*
X119052993Y-44865925D01*
X119167007Y-44800099D01*
X119260099Y-44707007D01*
X119325925Y-44592993D01*
X119342962Y-44529408D01*
X119975270Y-45161717D01*
X119975270Y-45161716D01*
X120014622Y-45107554D01*
X120113306Y-44913879D01*
X120114321Y-44914396D01*
X120154779Y-44864192D01*
X120221073Y-44842127D01*
X120288772Y-44859406D01*
X120336383Y-44910542D01*
X120349500Y-44966048D01*
X120349500Y-45269752D01*
X120361131Y-45328229D01*
X120361132Y-45328230D01*
X120405447Y-45394552D01*
X120471769Y-45438867D01*
X120471770Y-45438868D01*
X120530247Y-45450499D01*
X120530250Y-45450500D01*
X120530252Y-45450500D01*
X122269750Y-45450500D01*
X122269751Y-45450499D01*
X122284568Y-45447552D01*
X122328229Y-45438868D01*
X122328229Y-45438867D01*
X122328231Y-45438867D01*
X122394552Y-45394552D01*
X122438867Y-45328231D01*
X122438867Y-45328229D01*
X122438868Y-45328229D01*
X122450499Y-45269752D01*
X122450500Y-45269750D01*
X122450500Y-43530249D01*
X122450499Y-43530247D01*
X122438868Y-43471772D01*
X122438867Y-43471770D01*
X122438867Y-43471769D01*
X122395129Y-43406311D01*
X122395126Y-43406306D01*
X140774500Y-43406306D01*
X140774500Y-43732093D01*
X140810974Y-44055804D01*
X140810976Y-44055820D01*
X140883467Y-44373426D01*
X140883471Y-44373438D01*
X140991066Y-44680925D01*
X141132413Y-44974434D01*
X141132415Y-44974437D01*
X141305739Y-45250281D01*
X141508857Y-45504983D01*
X141739217Y-45735343D01*
X141993919Y-45938461D01*
X142269763Y-46111785D01*
X142563278Y-46253135D01*
X142752927Y-46319496D01*
X142870761Y-46360728D01*
X142870773Y-46360732D01*
X143188383Y-46433224D01*
X143512106Y-46469699D01*
X143512107Y-46469700D01*
X143512111Y-46469700D01*
X143837893Y-46469700D01*
X143837893Y-46469699D01*
X144161617Y-46433224D01*
X144479227Y-46360732D01*
X144786722Y-46253135D01*
X145080237Y-46111785D01*
X145356081Y-45938461D01*
X145610783Y-45735343D01*
X145841143Y-45504983D01*
X146044261Y-45250281D01*
X146217585Y-44974437D01*
X146358935Y-44680922D01*
X146466532Y-44373427D01*
X146539024Y-44055817D01*
X146575500Y-43732089D01*
X146575500Y-43406311D01*
X146539024Y-43082583D01*
X146466532Y-42764973D01*
X146358935Y-42457478D01*
X146217585Y-42163963D01*
X146044261Y-41888119D01*
X145841143Y-41633417D01*
X145610783Y-41403057D01*
X145356081Y-41199939D01*
X145080237Y-41026615D01*
X145080234Y-41026613D01*
X144786725Y-40885266D01*
X144479238Y-40777671D01*
X144479226Y-40777667D01*
X144161620Y-40705176D01*
X144161604Y-40705174D01*
X143837893Y-40668700D01*
X143837889Y-40668700D01*
X143512111Y-40668700D01*
X143512107Y-40668700D01*
X143188395Y-40705174D01*
X143188379Y-40705176D01*
X142870773Y-40777667D01*
X142870761Y-40777671D01*
X142563274Y-40885266D01*
X142269765Y-41026613D01*
X141993920Y-41199938D01*
X141739217Y-41403056D01*
X141508856Y-41633417D01*
X141305738Y-41888120D01*
X141132413Y-42163965D01*
X140991066Y-42457474D01*
X140883471Y-42764961D01*
X140883467Y-42764973D01*
X140810976Y-43082579D01*
X140810974Y-43082595D01*
X140774500Y-43406306D01*
X122395126Y-43406306D01*
X122394552Y-43405447D01*
X122328230Y-43361132D01*
X122328229Y-43361131D01*
X122269752Y-43349500D01*
X122269748Y-43349500D01*
X120530252Y-43349500D01*
X120530247Y-43349500D01*
X120471770Y-43361131D01*
X120471769Y-43361132D01*
X120405447Y-43405447D01*
X120361132Y-43471769D01*
X120361131Y-43471770D01*
X120349500Y-43530247D01*
X120349500Y-43833951D01*
X120329815Y-43900990D01*
X120277011Y-43946745D01*
X120207853Y-43956689D01*
X120144297Y-43927664D01*
X120114061Y-43885736D01*
X120113306Y-43886121D01*
X120014624Y-43692449D01*
X119975270Y-43638282D01*
X119975269Y-43638282D01*
X119342962Y-44270590D01*
X119325925Y-44207007D01*
X119260099Y-44092993D01*
X119167007Y-43999901D01*
X119052993Y-43934075D01*
X118989409Y-43917037D01*
X119621716Y-43284728D01*
X119567550Y-43245375D01*
X119378217Y-43148904D01*
X119176129Y-43083242D01*
X118966246Y-43050000D01*
X118753754Y-43050000D01*
X118543872Y-43083242D01*
X118543869Y-43083242D01*
X118341782Y-43148904D01*
X118152439Y-43245380D01*
X118098282Y-43284727D01*
X118098282Y-43284728D01*
X118730591Y-43917037D01*
X118667007Y-43934075D01*
X118552993Y-43999901D01*
X118459901Y-44092993D01*
X118394075Y-44207007D01*
X118377037Y-44270591D01*
X117744728Y-43638282D01*
X117744727Y-43638282D01*
X117705380Y-43692439D01*
X117608904Y-43881782D01*
X117543242Y-44083869D01*
X117543242Y-44083872D01*
X117510000Y-44293753D01*
X94175500Y-44293753D01*
X94175500Y-43671500D01*
X94195185Y-43604461D01*
X94247989Y-43558706D01*
X94299500Y-43547500D01*
X104240890Y-43547500D01*
X104240892Y-43547500D01*
X104368186Y-43513392D01*
X104482314Y-43447500D01*
X104575500Y-43354314D01*
X104641392Y-43240186D01*
X104675500Y-43112892D01*
X104675500Y-40593753D01*
X117485000Y-40593753D01*
X117485000Y-40806246D01*
X117518242Y-41016127D01*
X117518242Y-41016130D01*
X117583904Y-41218217D01*
X117680375Y-41407550D01*
X117719728Y-41461716D01*
X118352037Y-40829408D01*
X118369075Y-40892993D01*
X118434901Y-41007007D01*
X118527993Y-41100099D01*
X118642007Y-41165925D01*
X118705590Y-41182962D01*
X118073282Y-41815269D01*
X118073282Y-41815270D01*
X118127449Y-41854624D01*
X118316782Y-41951095D01*
X118518870Y-42016757D01*
X118728754Y-42050000D01*
X118941246Y-42050000D01*
X119151127Y-42016757D01*
X119151130Y-42016757D01*
X119353217Y-41951095D01*
X119542554Y-41854622D01*
X119596716Y-41815270D01*
X119596717Y-41815270D01*
X118964408Y-41182962D01*
X119027993Y-41165925D01*
X119142007Y-41100099D01*
X119235099Y-41007007D01*
X119300925Y-40892993D01*
X119317962Y-40829409D01*
X119950270Y-41461717D01*
X119950270Y-41461716D01*
X119989622Y-41407554D01*
X120088306Y-41213879D01*
X120089321Y-41214396D01*
X120129779Y-41164192D01*
X120196073Y-41142127D01*
X120263772Y-41159406D01*
X120311383Y-41210542D01*
X120324500Y-41266048D01*
X120324500Y-41569752D01*
X120336131Y-41628229D01*
X120336132Y-41628230D01*
X120380447Y-41694552D01*
X120446769Y-41738867D01*
X120446770Y-41738868D01*
X120505247Y-41750499D01*
X120505250Y-41750500D01*
X120505252Y-41750500D01*
X122244750Y-41750500D01*
X122244751Y-41750499D01*
X122259568Y-41747552D01*
X122303229Y-41738868D01*
X122303229Y-41738867D01*
X122303231Y-41738867D01*
X122369552Y-41694552D01*
X122413867Y-41628231D01*
X122413867Y-41628229D01*
X122413868Y-41628229D01*
X122425499Y-41569752D01*
X122425500Y-41569750D01*
X122425500Y-39830249D01*
X122425499Y-39830247D01*
X122413868Y-39771770D01*
X122413867Y-39771769D01*
X122369552Y-39705447D01*
X122303230Y-39661132D01*
X122303229Y-39661131D01*
X122244752Y-39649500D01*
X122244748Y-39649500D01*
X120505252Y-39649500D01*
X120505247Y-39649500D01*
X120446770Y-39661131D01*
X120446769Y-39661132D01*
X120380447Y-39705447D01*
X120336132Y-39771769D01*
X120336131Y-39771770D01*
X120324500Y-39830247D01*
X120324500Y-40133951D01*
X120304815Y-40200990D01*
X120252011Y-40246745D01*
X120182853Y-40256689D01*
X120119297Y-40227664D01*
X120089061Y-40185736D01*
X120088306Y-40186121D01*
X119989624Y-39992449D01*
X119950270Y-39938282D01*
X119950269Y-39938282D01*
X119317962Y-40570590D01*
X119300925Y-40507007D01*
X119235099Y-40392993D01*
X119142007Y-40299901D01*
X119027993Y-40234075D01*
X118964409Y-40217037D01*
X119596716Y-39584728D01*
X119542550Y-39545375D01*
X119353217Y-39448904D01*
X119151129Y-39383242D01*
X118941246Y-39350000D01*
X118728754Y-39350000D01*
X118518872Y-39383242D01*
X118518869Y-39383242D01*
X118316782Y-39448904D01*
X118127439Y-39545380D01*
X118073282Y-39584727D01*
X118073282Y-39584728D01*
X118705591Y-40217037D01*
X118642007Y-40234075D01*
X118527993Y-40299901D01*
X118434901Y-40392993D01*
X118369075Y-40507007D01*
X118352037Y-40570591D01*
X117719728Y-39938282D01*
X117719727Y-39938282D01*
X117680380Y-39992439D01*
X117583904Y-40181782D01*
X117518242Y-40383869D01*
X117518242Y-40383872D01*
X117485000Y-40593753D01*
X104675500Y-40593753D01*
X104675500Y-36793753D01*
X117485000Y-36793753D01*
X117485000Y-37006246D01*
X117518242Y-37216127D01*
X117518242Y-37216130D01*
X117583904Y-37418217D01*
X117680375Y-37607550D01*
X117719728Y-37661716D01*
X118352037Y-37029408D01*
X118369075Y-37092993D01*
X118434901Y-37207007D01*
X118527993Y-37300099D01*
X118642007Y-37365925D01*
X118705590Y-37382962D01*
X118073282Y-38015269D01*
X118073282Y-38015270D01*
X118127449Y-38054624D01*
X118316782Y-38151095D01*
X118518870Y-38216757D01*
X118728754Y-38250000D01*
X118941246Y-38250000D01*
X119151127Y-38216757D01*
X119151130Y-38216757D01*
X119353217Y-38151095D01*
X119542554Y-38054622D01*
X119596716Y-38015270D01*
X119596717Y-38015270D01*
X118964408Y-37382962D01*
X119027993Y-37365925D01*
X119142007Y-37300099D01*
X119235099Y-37207007D01*
X119300925Y-37092993D01*
X119317962Y-37029409D01*
X119950270Y-37661717D01*
X119950270Y-37661716D01*
X119989622Y-37607554D01*
X120088306Y-37413879D01*
X120089321Y-37414396D01*
X120129779Y-37364192D01*
X120196073Y-37342127D01*
X120263772Y-37359406D01*
X120311383Y-37410542D01*
X120324500Y-37466048D01*
X120324500Y-37769752D01*
X120336131Y-37828229D01*
X120336132Y-37828230D01*
X120380447Y-37894552D01*
X120446769Y-37938867D01*
X120446770Y-37938868D01*
X120505247Y-37950499D01*
X120505250Y-37950500D01*
X120505252Y-37950500D01*
X122244750Y-37950500D01*
X122244751Y-37950499D01*
X122259568Y-37947552D01*
X122303229Y-37938868D01*
X122303229Y-37938867D01*
X122303231Y-37938867D01*
X122369552Y-37894552D01*
X122413867Y-37828231D01*
X122413867Y-37828229D01*
X122413868Y-37828229D01*
X122425499Y-37769752D01*
X122425500Y-37769750D01*
X122425500Y-36030249D01*
X122425499Y-36030247D01*
X122413868Y-35971770D01*
X122413867Y-35971769D01*
X122369552Y-35905447D01*
X122303230Y-35861132D01*
X122303229Y-35861131D01*
X122244752Y-35849500D01*
X122244748Y-35849500D01*
X120505252Y-35849500D01*
X120505247Y-35849500D01*
X120446770Y-35861131D01*
X120446769Y-35861132D01*
X120380447Y-35905447D01*
X120336132Y-35971769D01*
X120336131Y-35971770D01*
X120324500Y-36030247D01*
X120324500Y-36333951D01*
X120304815Y-36400990D01*
X120252011Y-36446745D01*
X120182853Y-36456689D01*
X120119297Y-36427664D01*
X120089061Y-36385736D01*
X120088306Y-36386121D01*
X119989624Y-36192449D01*
X119950270Y-36138282D01*
X119950269Y-36138282D01*
X119317962Y-36770590D01*
X119300925Y-36707007D01*
X119235099Y-36592993D01*
X119142007Y-36499901D01*
X119027993Y-36434075D01*
X118964409Y-36417037D01*
X119596716Y-35784728D01*
X119542550Y-35745375D01*
X119353217Y-35648904D01*
X119151129Y-35583242D01*
X118941246Y-35550000D01*
X118728754Y-35550000D01*
X118518872Y-35583242D01*
X118518869Y-35583242D01*
X118316782Y-35648904D01*
X118127439Y-35745380D01*
X118073282Y-35784727D01*
X118073282Y-35784728D01*
X118705591Y-36417037D01*
X118642007Y-36434075D01*
X118527993Y-36499901D01*
X118434901Y-36592993D01*
X118369075Y-36707007D01*
X118352037Y-36770591D01*
X117719728Y-36138282D01*
X117719727Y-36138282D01*
X117680380Y-36192439D01*
X117583904Y-36381782D01*
X117518242Y-36583869D01*
X117518242Y-36583872D01*
X117485000Y-36793753D01*
X104675500Y-36793753D01*
X104675500Y-33171500D01*
X104695185Y-33104461D01*
X104747989Y-33058706D01*
X104799500Y-33047500D01*
X118676729Y-33047500D01*
X118693122Y-33049654D01*
G37*
%TD.AperFunction*%
%TD*%
M02*
