%TF.GenerationSoftware,KiCad,Pcbnew,9.0.2*%
%TF.CreationDate,2026-05-17T18:17:52-07:00*%
%TF.ProjectId,proves_canted_turnstile,70726f76-6573-45f6-9361-6e7465645f74,rev?*%
%TF.SameCoordinates,Original*%
%TF.FileFunction,Paste,Bot*%
%TF.FilePolarity,Positive*%
%FSLAX46Y46*%
G04 Gerber Fmt 4.6, Leading zero omitted, Abs format (unit mm)*
G04 Created by KiCad (PCBNEW 9.0.2) date 2026-05-17 18:17:52*
%MOMM*%
%LPD*%
G01*
G04 APERTURE LIST*
G04 Aperture macros list*
%AMRoundRect*
0 Rectangle with rounded corners*
0 $1 Rounding radius*
0 $2 $3 $4 $5 $6 $7 $8 $9 X,Y pos of 4 corners*
0 Add a 4 corners polygon primitive as box body*
4,1,4,$2,$3,$4,$5,$6,$7,$8,$9,$2,$3,0*
0 Add four circle primitives for the rounded corners*
1,1,$1+$1,$2,$3*
1,1,$1+$1,$4,$5*
1,1,$1+$1,$6,$7*
1,1,$1+$1,$8,$9*
0 Add four rect primitives between the rounded corners*
20,1,$1+$1,$2,$3,$4,$5,0*
20,1,$1+$1,$4,$5,$6,$7,0*
20,1,$1+$1,$6,$7,$8,$9,0*
20,1,$1+$1,$8,$9,$2,$3,0*%
G04 Aperture macros list end*
%ADD10RoundRect,0.200000X0.200000X0.275000X-0.200000X0.275000X-0.200000X-0.275000X0.200000X-0.275000X0*%
%ADD11R,1.450000X0.600000*%
%ADD12R,1.450000X0.300000*%
G04 APERTURE END LIST*
D10*
%TO.C,R27*%
X107250000Y-59800000D03*
X105600000Y-59800000D03*
%TD*%
%TO.C,R5*%
X106650000Y-52000000D03*
X105000000Y-52000000D03*
%TD*%
D11*
%TO.C,J12*%
X102845000Y-64850000D03*
X102845000Y-64050000D03*
D12*
X102845000Y-62850000D03*
X102845000Y-61850000D03*
X102845000Y-61350000D03*
X102845000Y-60350000D03*
D11*
X102845000Y-59150000D03*
X102845000Y-58350000D03*
X102845000Y-58350000D03*
X102845000Y-59150000D03*
D12*
X102845000Y-59850000D03*
X102845000Y-60850000D03*
X102845000Y-62350000D03*
X102845000Y-63350000D03*
D11*
X102845000Y-64050000D03*
X102845000Y-64850000D03*
%TD*%
D10*
%TO.C,R6*%
X107650000Y-48000000D03*
X106000000Y-48000000D03*
%TD*%
D11*
%TO.C,J8*%
X102845000Y-53850000D03*
X102845000Y-53050000D03*
D12*
X102845000Y-51850000D03*
X102845000Y-50850000D03*
X102845000Y-50350000D03*
X102845000Y-49350000D03*
D11*
X102845000Y-48150000D03*
X102845000Y-47350000D03*
X102845000Y-47350000D03*
X102845000Y-48150000D03*
D12*
X102845000Y-48850000D03*
X102845000Y-49850000D03*
X102845000Y-51350000D03*
X102845000Y-52350000D03*
D11*
X102845000Y-53050000D03*
X102845000Y-53850000D03*
%TD*%
D10*
%TO.C,R26*%
X107050000Y-63800000D03*
X105400000Y-63800000D03*
%TD*%
M02*
