M48
; DRILL file {KiCad 9.0.0} date 2026-04-06T20:12:25-0700
; FORMAT={-:-/ absolute / inch / decimal}
; #@! TF.CreationDate,2026-04-06T20:12:25-07:00
; #@! TF.GenerationSoftware,Kicad,Pcbnew,9.0.0
; #@! TF.FileFunction,Plated,1,4,PTH
FMAT,2
INCH
; #@! TA.AperFunction,Plated,PTH,ViaDrill
T1C0.0118
; #@! TA.AperFunction,Plated,PTH,ComponentDrill
T2C0.0236
; #@! TA.AperFunction,Plated,PTH,ComponentDrill
T3C0.0315
; #@! TA.AperFunction,Plated,PTH,ComponentDrill
T4C0.0331
; #@! TA.AperFunction,Plated,PTH,ComponentDrill
T5C0.0335
; #@! TA.AperFunction,Plated,PTH,ComponentDrill
T6C0.0394
; #@! TA.AperFunction,Plated,PTH,ComponentDrill
T7C0.1063
%
G90
G05
T1
X3.833Y-3.501
X3.866Y-3.053
X3.877Y-4.24
X3.9843Y-1.9843
X3.9843Y-2.0394
X3.9862Y-3.8996
X4.075Y-3.656
X4.0866Y-2.8701
X4.108Y-4.327
X4.1417Y-2.1654
X4.1496Y-1.8189
X4.22Y-4.019
X4.24Y-4.899
X4.2441Y-2.0709
X4.2667Y-2.3958
X4.2667Y-2.4293
X4.278Y-2.654
X4.28Y-1.481
X4.2835Y-3.7697
X4.2992Y-1.8898
X4.2992Y-1.8898
X4.38Y-1.417
X4.4Y-1.613
X4.437Y-4.2205
X4.5079Y-2.811
X4.5236Y-3.7165
X4.5413Y-3.6535
X4.5472Y-3.7697
X4.5669Y-3.5059
X4.5689Y-3.5512
X4.5689Y-3.8287
X4.5709Y-3.6063
X4.5748Y-3.8937
X4.5827Y-4.5276
X4.6024Y-3.9626
X4.6476Y-4.0197
X4.6594Y-3.6024
X4.6614Y-3.5531
X4.6614Y-3.8268
X4.6634Y-3.5098
X4.6772Y-3.8878
X4.689Y-3.7677
X4.6929Y-3.6634
X4.7028Y-3.7165
X4.7087Y-3.9409
X4.7087Y-4.126
X4.726Y-2.84
X4.7402Y-4.1654
X4.7627Y-2.2889
X4.7627Y-2.3224
X4.7795Y-4.1969
X4.876Y-4.2579
X4.889Y-4.0174
X4.893Y-3.731
X4.895Y-4.477
X4.9134Y-3.0335
X4.9232Y-4.2913
X4.9567Y-4.187
X4.9705Y-4.7146
X4.9744Y-4.315
X4.9764Y-4.9213
X4.9902Y-4.2224
X5.0Y-3.8346
X5.002Y-1.427
X5.0177Y-4.3307
X5.0295Y-4.2461
X5.0315Y-3.874
X5.0669Y-4.3366
X5.0709Y-3.9055
X5.0728Y-4.25
X5.1122Y-3.2421
X5.1161Y-4.248
X5.1319Y-4.3366
X5.1339Y-3.8504
X5.1339Y-3.9843
X5.1417Y-2.0177
X5.1496Y-1.4587
X5.155Y-1.733
X5.1673Y-4.248
X5.1693Y-3.5787
X5.1732Y-3.937
X5.1732Y-4.3681
X5.177Y-2.402
X5.1811Y-3.8031
X5.1929Y-2.6988
X5.1949Y-2.9921
X5.2205Y-3.8898
X5.2283Y-4.2126
X5.231Y-4.632
X5.2362Y-4.3701
X5.2441Y-3.7717
X5.2677Y-3.8583
X5.2756Y-1.6614
X5.2835Y-1.8504
X5.2894Y-4.2421
X5.2913Y-4.3681
X5.303Y-3.923
X5.311Y-3.754
X5.326Y-3.698
X5.336Y-3.245
X5.3366Y-4.3366
X5.3406Y-4.248
X5.352Y-3.969
X5.377Y-2.86
X5.378Y-3.652
X5.3858Y-2.4764
X5.3898Y-4.248
X5.3917Y-4.3346
X5.407Y-3.973
X5.432Y-3.651
X5.461Y-3.969
X5.4783Y-3.0492
X5.498Y-1.4409
X5.502Y-3.651
X5.529Y-3.97
X5.552Y-2.682
X5.56Y-3.657
X5.588Y-3.973
X5.621Y-3.651
X5.647Y-3.969
X5.6555Y-2.4902
X5.683Y-3.655
X5.707Y-3.984
X5.7461Y-3.5315
X5.755Y-3.653
X5.762Y-3.98
X5.77Y-2.904
X5.829Y-3.967
X5.84Y-3.655
X5.859Y-3.42
X5.8602Y-2.624
X5.872Y-3.875
X5.873Y-3.939
X5.876Y-1.436
X5.903Y-3.707
X5.912Y-2.477
X5.9154Y-2.2323
X5.9173Y-2.1437
X5.92Y-3.867
X5.929Y-3.178
X5.9449Y-3.7638
X5.9567Y-3.4134
X5.9685Y-2.1417
X5.9685Y-2.2303
X5.9843Y-3.8504
X5.9921Y-3.7717
X6.0138Y-2.1417
X6.016Y-4.725
X6.0217Y-2.2756
X6.0394Y-3.8661
X6.063Y-2.1043
X6.063Y-3.7874
X6.0689Y-2.2598
X6.0787Y-2.7008
X6.0787Y-2.7638
X6.0787Y-2.8425
X6.0787Y-2.9055
X6.0787Y-2.9843
X6.0787Y-3.0551
X6.0787Y-3.8976
X6.0866Y-3.1102
X6.0945Y-2.6299
X6.1024Y-3.811
X6.1181Y-3.1811
X6.1201Y-2.2638
X6.126Y-2.5748
X6.126Y-3.9449
X6.128Y-2.1496
X6.1417Y-3.8504
X6.1496Y-1.6594
X6.1555Y-3.6142
X6.1575Y-2.7008
X6.1575Y-2.7559
X6.1575Y-2.8189
X6.1575Y-2.8583
X6.1575Y-2.9055
X6.1575Y-2.9921
X6.1654Y-3.2283
X6.1693Y-2.2323
X6.1732Y-2.5354
X6.1732Y-3.0709
X6.1732Y-3.9843
X6.1811Y-2.1496
X6.1811Y-2.6535
X6.1811Y-3.8898
X6.1969Y-3.1417
X6.2047Y-2.622
X6.2126Y-3.2835
X6.2205Y-3.9291
X6.2224Y-2.2303
X6.2323Y-2.1516
X6.2343Y-4.9213
X6.2441Y-2.5906
X6.252Y-3.2047
X6.252Y-4.3976
X6.2677Y-3.3386
X6.2677Y-3.8898
X6.2756Y-2.2441
X6.2756Y-2.6299
X6.282Y-1.501
X6.2992Y-2.1594
X6.3051Y-4.6713
X6.3071Y-2.6693
X6.3071Y-3.2598
X6.3071Y-3.8583
X6.3169Y-2.2736
X6.3228Y-3.3937
X6.3504Y-2.3051
X6.3524Y-2.1909
X6.3543Y-3.4567
X6.3622Y-3.5512
X6.3622Y-3.6063
X6.3622Y-3.6693
X6.3622Y-3.7559
X6.3701Y-3.3228
X6.3996Y-2.2362
X6.41Y-4.03
X6.4173Y-3.3701
X6.42Y-2.77
X6.424Y-2.4824
X6.4331Y-3.6063
X6.4331Y-3.8425
X6.4409Y-3.4646
X6.4409Y-3.5433
X6.4409Y-3.6929
X6.4409Y-3.7874
X6.4488Y-4.2677
X6.4744Y-1.9035
X6.4882Y-4.3071
X6.5276Y-4.2126
X6.5276Y-4.3465
X6.5354Y-2.2992
X6.5433Y-4.252
X6.5591Y-4.1811
X6.5669Y-4.3858
X6.5748Y-2.3307
X6.5748Y-4.2835
X6.584Y-4.809
X6.5906Y-4.1417
X6.5945Y-2.5453
X6.6063Y-2.3701
X6.6063Y-4.4331
X6.6181Y-2.5768
X6.6181Y-5.0374
X6.622Y-4.3228
X6.628Y-2.8287
X6.6339Y-2.8819
X6.6417Y-2.6181
X6.6457Y-4.4724
X6.6476Y-2.6713
X6.6496Y-2.4843
X6.6496Y-2.7264
X6.6555Y-2.7854
X6.6575Y-2.9114
X6.6575Y-2.9941
X6.6594Y-2.9567
X6.6614Y-4.3701
X6.685Y-2.5236
X6.6929Y-4.0315
X6.7008Y-4.5197
X6.7087Y-4.4173
X6.7205Y-2.565
X6.7362Y-2.622
X6.7362Y-2.6713
X6.7362Y-2.9961
X6.7382Y-2.7185
X6.7382Y-2.9547
X6.748Y-4.4567
X6.752Y-2.9272
X6.7618Y-2.7579
X6.7638Y-4.5591
X6.7697Y-2.8425
X6.772Y-2.063
X6.7736Y-2.8917
X6.7776Y-2.7972
X6.7874Y-4.4803
X6.8425Y-4.4882
X6.8504Y-4.5669
X6.8701Y-3.7795
X6.937Y-2.752
X6.981Y-2.323
X7.0197Y-3.9567
X7.126Y-2.066
X7.1831Y-2.6358
X7.2362Y-2.9252
X7.252Y-4.313
X7.2756Y-3.8957
X7.3465Y-3.7343
X7.3937Y-4.0059
X7.404Y-2.742
X7.4528Y-4.5571
X7.495Y-2.235
X7.539Y-2.636
T3
X5.4818Y-3.468
X5.8354Y-3.1145
T4
X6.925Y-4.475
X6.925Y-4.575
X6.975Y-4.525
X7.025Y-4.475
X7.025Y-4.575
T5
X4.2835Y-1.9528
X4.2835Y-2.0315
X4.3622Y-1.9528
X4.3622Y-2.0315
X4.5276Y-2.3858
X4.5276Y-2.4646
X4.6063Y-2.3858
X4.6063Y-2.4646
X4.685Y-2.3858
X4.685Y-2.4646
X4.7638Y-2.3858
X4.7638Y-2.4646
X4.8425Y-2.3858
X4.8425Y-2.4646
X4.9213Y-2.3858
X4.9213Y-2.4646
T6
X4.6785Y-1.4528
X4.6785Y-1.6024
X4.6795Y-1.748
X4.6825Y-1.9606
X4.7785Y-1.4528
X4.7785Y-1.6024
X4.7795Y-1.748
X4.7825Y-1.9606
T7
X4.1321Y-3.2499
X5.6565Y-1.7153
X5.6565Y-4.7842
X7.2021Y-3.2499
T2
G00X3.8366Y-1.822
M15
G01X3.8602Y-1.822
M16
G05
G00X3.8366Y-2.1622
M15
G01X3.8602Y-2.1622
M16
G05
G00X3.8366Y-2.2551
M15
G01X3.8602Y-2.2551
M16
G05
G00X3.8366Y-2.5953
M15
G01X3.8602Y-2.5953
M16
G05
G00X3.9913Y-1.822
M15
G01X4.0346Y-1.822
M16
G05
G00X3.9913Y-2.1622
M15
G01X4.0346Y-2.1622
M16
G05
G00X3.9913Y-2.2551
M15
G01X4.0346Y-2.2551
M16
G05
G00X3.9913Y-2.5953
M15
G01X4.0346Y-2.5953
M16
G05
M30
