%TF.GenerationSoftware,KiCad,Pcbnew,9.0.0*%
%TF.CreationDate,2026-04-06T20:12:25-07:00*%
%TF.ProjectId,proves_canted_turnstile,70726f76-6573-45f6-9361-6e7465645f74,rev?*%
%TF.SameCoordinates,Original*%
%TF.FileFunction,Profile,NP*%
%FSLAX46Y46*%
G04 Gerber Fmt 4.6, Leading zero omitted, Abs format (unit mm)*
G04 Created by KiCad (PCBNEW 9.0.0) date 2026-04-06 20:12:25*
%MOMM*%
%LPD*%
G01*
G04 APERTURE LIST*
%TA.AperFunction,Profile*%
%ADD10C,0.100000*%
%TD*%
%TA.AperFunction,Profile*%
%ADD11C,0.050000*%
%TD*%
G04 APERTURE END LIST*
D10*
X104175000Y-32547000D02*
X118774600Y-32547000D01*
X118767100Y-32549200D02*
X129974600Y-32547000D01*
X93675000Y-43047000D02*
X104175000Y-43047000D01*
X183175000Y-132547000D02*
X104175000Y-132547000D01*
X183175000Y-32547000D02*
X129974600Y-32547000D01*
X183175000Y-32547000D02*
X183175000Y-43047000D01*
X104175000Y-132547000D02*
X104175000Y-122047000D01*
X104175000Y-43047000D02*
X104175000Y-32547000D01*
X183175000Y-122047000D02*
X183175000Y-132547000D01*
X193675000Y-43047000D02*
X193675000Y-122047000D01*
X93675000Y-43047000D02*
X93675000Y-122047000D01*
X193675000Y-122047000D02*
X183175000Y-122047000D01*
X183175000Y-43047000D02*
X193675000Y-43047000D01*
X104175000Y-122047000D02*
X93675000Y-122047000D01*
D11*
%TO.C,AE3*%
X109982397Y-76261801D02*
X109982397Y-88761802D01*
X109982397Y-88761802D02*
X112522397Y-88761806D01*
X112522397Y-88761806D02*
X112522399Y-76261797D01*
X112522399Y-76261797D02*
X109982397Y-76261801D01*
%TO.C,AE1*%
X174827001Y-88831403D02*
X177367003Y-88831399D01*
X174827003Y-76331394D02*
X174827001Y-88831403D01*
X177367003Y-76331398D02*
X174827003Y-76331394D01*
X177367003Y-88831399D02*
X177367003Y-76331398D01*
%TO.C,AE2*%
X137459794Y-51394997D02*
X149959803Y-51394999D01*
X137459798Y-48854997D02*
X137459794Y-51394997D01*
X149959799Y-48854997D02*
X137459798Y-48854997D01*
X149959803Y-51394999D02*
X149959799Y-48854997D01*
%TO.C,AE4*%
X137389997Y-113699001D02*
X137390001Y-116239003D01*
X137390001Y-116239003D02*
X149890002Y-116239003D01*
X149890002Y-116239003D02*
X149890006Y-113699003D01*
X149890006Y-113699003D02*
X137389997Y-113699001D01*
%TD*%
M02*
