%TF.GenerationSoftware,KiCad,Pcbnew,9.0.2*%
%TF.CreationDate,2026-05-17T18:17:52-07:00*%
%TF.ProjectId,proves_canted_turnstile,70726f76-6573-45f6-9361-6e7465645f74,rev?*%
%TF.SameCoordinates,Original*%
%TF.FileFunction,Paste,Top*%
%TF.FilePolarity,Positive*%
%FSLAX46Y46*%
G04 Gerber Fmt 4.6, Leading zero omitted, Abs format (unit mm)*
G04 Created by KiCad (PCBNEW 9.0.2) date 2026-05-17 18:17:52*
%MOMM*%
%LPD*%
G01*
G04 APERTURE LIST*
G04 Aperture macros list*
%AMRoundRect*
0 Rectangle with rounded corners*
0 $1 Rounding radius*
0 $2 $3 $4 $5 $6 $7 $8 $9 X,Y pos of 4 corners*
0 Add a 4 corners polygon primitive as box body*
4,1,4,$2,$3,$4,$5,$6,$7,$8,$9,$2,$3,0*
0 Add four circle primitives for the rounded corners*
1,1,$1+$1,$2,$3*
1,1,$1+$1,$4,$5*
1,1,$1+$1,$6,$7*
1,1,$1+$1,$8,$9*
0 Add four rect primitives between the rounded corners*
20,1,$1+$1,$2,$3,$4,$5,0*
20,1,$1+$1,$4,$5,$6,$7,0*
20,1,$1+$1,$6,$7,$8,$9,0*
20,1,$1+$1,$8,$9,$2,$3,0*%
%AMRotRect*
0 Rectangle, with rotation*
0 The origin of the aperture is its center*
0 $1 length*
0 $2 width*
0 $3 Rotation angle, in degrees counterclockwise*
0 Add horizontal line*
21,1,$1,$2,0,0,$3*%
G04 Aperture macros list end*
%ADD10R,4.000000X11.300000*%
%ADD11RotRect,0.762000X2.413000X45.000000*%
%ADD12RoundRect,0.100000X0.530330X-0.388909X-0.388909X0.530330X-0.530330X0.388909X0.388909X-0.530330X0*%
%ADD13R,11.300000X4.000000*%
%ADD14RotRect,0.762000X2.413000X315.000000*%
%ADD15RoundRect,0.150000X-0.318198X-0.106066X-0.106066X-0.318198X0.318198X0.106066X0.106066X0.318198X0*%
%ADD16RoundRect,0.150000X-0.106066X0.318198X-0.318198X0.106066X0.106066X-0.318198X0.318198X-0.106066X0*%
%ADD17RotRect,0.762000X2.413000X135.000000*%
%ADD18RotRect,1.270000X0.610000X45.000000*%
%ADD19RotRect,3.810000X3.910000X45.000000*%
%ADD20RotRect,1.020000X0.610000X45.000000*%
%ADD21RoundRect,0.150000X0.318198X0.106066X0.106066X0.318198X-0.318198X-0.106066X-0.106066X-0.318198X0*%
G04 APERTURE END LIST*
D10*
%TO.C,AE3*%
X117174800Y-82546600D03*
%TD*%
%TO.C,AE1*%
X170174600Y-82546600D03*
%TD*%
D11*
%TO.C,U1*%
X163128663Y-106268765D03*
X164026688Y-105370739D03*
X164924714Y-104472714D03*
X165822739Y-103574688D03*
X166720765Y-102676663D03*
X162499337Y-98455235D03*
X161601312Y-99353261D03*
X160703286Y-100251286D03*
X159805261Y-101149312D03*
X158907235Y-102047337D03*
%TD*%
D12*
%TO.C,U4*%
X168628833Y-112906071D03*
X169088452Y-112446452D03*
X169548071Y-111986833D03*
X167667167Y-110105929D03*
X167207548Y-110565548D03*
X166747929Y-111025167D03*
%TD*%
D13*
%TO.C,AE2*%
X143673000Y-55592400D03*
%TD*%
D14*
%TO.C,U2*%
X159263235Y-63366663D03*
X160161261Y-64264688D03*
X161059286Y-65162714D03*
X161957312Y-66060739D03*
X162855337Y-66958765D03*
X167076765Y-62737337D03*
X166178739Y-61839312D03*
X165280714Y-60941286D03*
X164382688Y-60043261D03*
X163484663Y-59145235D03*
%TD*%
D15*
%TO.C,R3*%
X125108025Y-95542425D03*
X126097975Y-96532375D03*
%TD*%
D13*
%TO.C,AE4*%
X143674800Y-109046600D03*
%TD*%
D16*
%TO.C,R1*%
X169294975Y-103105025D03*
X168305025Y-104094975D03*
%TD*%
D17*
%TO.C,U3*%
X128086665Y-101727437D03*
X127188639Y-100829412D03*
X126290614Y-99931386D03*
X125392588Y-99033361D03*
X124494563Y-98135335D03*
X120273135Y-102356763D03*
X121171161Y-103254788D03*
X122069186Y-104152814D03*
X122967212Y-105050839D03*
X123865237Y-105948865D03*
%TD*%
D18*
%TO.C,Q1*%
X171139984Y-106580262D03*
X172038010Y-107478287D03*
X172936036Y-108376313D03*
X173834061Y-109274339D03*
D19*
X174862902Y-105551421D03*
D20*
X175004323Y-102715923D03*
X175902349Y-103613949D03*
X176800374Y-104511974D03*
X177698400Y-105410000D03*
%TD*%
D21*
%TO.C,R2*%
X162292975Y-69582975D03*
X161303025Y-68593025D03*
%TD*%
M02*
