%TF.GenerationSoftware,KiCad,Pcbnew,9.0.0*%
%TF.CreationDate,2026-04-06T20:12:24-07:00*%
%TF.ProjectId,proves_canted_turnstile,70726f76-6573-45f6-9361-6e7465645f74,rev?*%
%TF.SameCoordinates,Original*%
%TF.FileFunction,Soldermask,Top*%
%TF.FilePolarity,Negative*%
%FSLAX46Y46*%
G04 Gerber Fmt 4.6, Leading zero omitted, Abs format (unit mm)*
G04 Created by KiCad (PCBNEW 9.0.0) date 2026-04-06 20:12:24*
%MOMM*%
%LPD*%
G01*
G04 APERTURE LIST*
G04 Aperture macros list*
%AMRoundRect*
0 Rectangle with rounded corners*
0 $1 Rounding radius*
0 $2 $3 $4 $5 $6 $7 $8 $9 X,Y pos of 4 corners*
0 Add a 4 corners polygon primitive as box body*
4,1,4,$2,$3,$4,$5,$6,$7,$8,$9,$2,$3,0*
0 Add four circle primitives for the rounded corners*
1,1,$1+$1,$2,$3*
1,1,$1+$1,$4,$5*
1,1,$1+$1,$6,$7*
1,1,$1+$1,$8,$9*
0 Add four rect primitives between the rounded corners*
20,1,$1+$1,$2,$3,$4,$5,0*
20,1,$1+$1,$4,$5,$6,$7,0*
20,1,$1+$1,$6,$7,$8,$9,0*
20,1,$1+$1,$8,$9,$2,$3,0*%
G04 Aperture macros list end*
%ADD10C,0.100000*%
%ADD11C,0.045000*%
%ADD12C,1.000000*%
%ADD13C,0.080000*%
%ADD14C,0.430000*%
%ADD15R,4.000000X11.300000*%
%ADD16RoundRect,0.063500X0.583717X-1.122532X1.122532X-0.583717X-0.583717X1.122532X-1.122532X0.583717X0*%
%ADD17C,5.400000*%
%ADD18R,11.300000X4.000000*%
%ADD19RoundRect,0.063500X-1.122532X-0.583717X-0.583717X-1.122532X1.122532X0.583717X0.583717X1.122532X0*%
%ADD20RoundRect,0.250000X0.575000X-0.350000X0.575000X0.350000X-0.575000X0.350000X-0.575000X-0.350000X0*%
%ADD21O,1.650000X1.200000*%
%ADD22C,1.240000*%
%ADD23RoundRect,0.250000X-0.350000X-0.575000X0.350000X-0.575000X0.350000X0.575000X-0.350000X0.575000X0*%
%ADD24O,1.200000X1.650000*%
%ADD25RoundRect,0.063500X1.122532X0.583717X0.583717X1.122532X-1.122532X-0.583717X-0.583717X-1.122532X0*%
%ADD26R,1.700000X1.700000*%
%ADD27C,1.700000*%
%ADD28O,1.600000X1.000000*%
%ADD29O,2.100000X1.000000*%
%ADD30C,1.600000*%
%ADD31C,0.942400*%
G04 APERTURE END LIST*
D10*
X115722400Y-92329000D02*
X118694200Y-92329000D01*
X118694200Y-95275400D01*
X115722400Y-95275400D01*
X115722400Y-92329000D01*
G36*
X115722400Y-92329000D02*
G01*
X118694200Y-92329000D01*
X118694200Y-95275400D01*
X115722400Y-95275400D01*
X115722400Y-92329000D01*
G37*
X168681400Y-70561200D02*
X171653200Y-70561200D01*
X171653200Y-73507600D01*
X168681400Y-73507600D01*
X168681400Y-70561200D01*
G36*
X168681400Y-70561200D02*
G01*
X171653200Y-70561200D01*
X171653200Y-73507600D01*
X168681400Y-73507600D01*
X168681400Y-70561200D01*
G37*
X135902700Y-93370400D02*
X149580600Y-93370400D01*
X149580600Y-97307400D01*
X135902700Y-97307400D01*
X135902700Y-93370400D01*
G36*
X135902700Y-93370400D02*
G01*
X149580600Y-93370400D01*
X149580600Y-97307400D01*
X135902700Y-97307400D01*
X135902700Y-93370400D01*
G37*
X152527000Y-54152800D02*
X155498800Y-54152800D01*
X155498800Y-57099200D01*
X152527000Y-57099200D01*
X152527000Y-54152800D01*
G36*
X152527000Y-54152800D02*
G01*
X155498800Y-54152800D01*
X155498800Y-57099200D01*
X152527000Y-57099200D01*
X152527000Y-54152800D01*
G37*
X131419600Y-107518200D02*
X134391400Y-107518200D01*
X134391400Y-110464600D01*
X131419600Y-110464600D01*
X131419600Y-107518200D01*
G36*
X131419600Y-107518200D02*
G01*
X134391400Y-107518200D01*
X134391400Y-110464600D01*
X131419600Y-110464600D01*
X131419600Y-107518200D01*
G37*
X135178800Y-96291400D02*
X148805900Y-96291400D01*
X148805900Y-100101400D01*
X135178800Y-100101400D01*
X135178800Y-96291400D01*
G36*
X135178800Y-96291400D02*
G01*
X148805900Y-96291400D01*
X148805900Y-100101400D01*
X135178800Y-100101400D01*
X135178800Y-96291400D01*
G37*
D11*
X125491187Y-96089109D02*
X125516946Y-95943142D01*
X125388151Y-95986074D02*
X125568463Y-95805761D01*
X125568463Y-95805761D02*
X125637154Y-95874452D01*
X125637154Y-95874452D02*
X125645740Y-95900211D01*
X125645740Y-95900211D02*
X125645740Y-95917383D01*
X125645740Y-95917383D02*
X125637154Y-95943142D01*
X125637154Y-95943142D02*
X125611395Y-95968901D01*
X125611395Y-95968901D02*
X125585636Y-95977487D01*
X125585636Y-95977487D02*
X125568463Y-95977487D01*
X125568463Y-95977487D02*
X125542704Y-95968901D01*
X125542704Y-95968901D02*
X125474014Y-95900211D01*
X125731603Y-95968901D02*
X125843225Y-96080523D01*
X125843225Y-96080523D02*
X125714430Y-96089109D01*
X125714430Y-96089109D02*
X125740189Y-96114868D01*
X125740189Y-96114868D02*
X125748776Y-96140627D01*
X125748776Y-96140627D02*
X125748776Y-96157799D01*
X125748776Y-96157799D02*
X125740189Y-96183558D01*
X125740189Y-96183558D02*
X125697258Y-96226490D01*
X125697258Y-96226490D02*
X125671499Y-96235076D01*
X125671499Y-96235076D02*
X125654326Y-96235076D01*
X125654326Y-96235076D02*
X125628567Y-96226490D01*
X125628567Y-96226490D02*
X125577050Y-96174972D01*
X125577050Y-96174972D02*
X125568463Y-96149213D01*
X125568463Y-96149213D02*
X125568463Y-96132041D01*
X168748290Y-103488187D02*
X168894257Y-103513946D01*
X168851325Y-103385151D02*
X169031638Y-103565463D01*
X169031638Y-103565463D02*
X168962947Y-103634154D01*
X168962947Y-103634154D02*
X168937188Y-103642740D01*
X168937188Y-103642740D02*
X168920016Y-103642740D01*
X168920016Y-103642740D02*
X168894257Y-103634154D01*
X168894257Y-103634154D02*
X168868498Y-103608395D01*
X168868498Y-103608395D02*
X168859912Y-103582636D01*
X168859912Y-103582636D02*
X168859912Y-103565463D01*
X168859912Y-103565463D02*
X168868498Y-103539704D01*
X168868498Y-103539704D02*
X168937188Y-103471014D01*
X168576564Y-103659913D02*
X168679600Y-103556877D01*
X168628082Y-103608395D02*
X168808394Y-103788707D01*
X168808394Y-103788707D02*
X168799808Y-103745776D01*
X168799808Y-103745776D02*
X168799808Y-103711430D01*
X168799808Y-103711430D02*
X168808394Y-103685671D01*
X161909812Y-69036290D02*
X161884053Y-69182257D01*
X162012848Y-69139325D02*
X161832536Y-69319638D01*
X161832536Y-69319638D02*
X161763845Y-69250947D01*
X161763845Y-69250947D02*
X161755259Y-69225188D01*
X161755259Y-69225188D02*
X161755259Y-69208016D01*
X161755259Y-69208016D02*
X161763845Y-69182257D01*
X161763845Y-69182257D02*
X161789604Y-69156498D01*
X161789604Y-69156498D02*
X161815363Y-69147912D01*
X161815363Y-69147912D02*
X161832536Y-69147912D01*
X161832536Y-69147912D02*
X161858295Y-69156498D01*
X161858295Y-69156498D02*
X161926985Y-69225188D01*
X161677982Y-69130739D02*
X161660810Y-69130739D01*
X161660810Y-69130739D02*
X161635051Y-69122153D01*
X161635051Y-69122153D02*
X161592119Y-69079221D01*
X161592119Y-69079221D02*
X161583533Y-69053462D01*
X161583533Y-69053462D02*
X161583533Y-69036290D01*
X161583533Y-69036290D02*
X161592119Y-69010531D01*
X161592119Y-69010531D02*
X161609292Y-68993358D01*
X161609292Y-68993358D02*
X161643637Y-68976186D01*
X161643637Y-68976186D02*
X161849708Y-68976186D01*
X161849708Y-68976186D02*
X161738086Y-68864564D01*
D12*
%TO.C,FIDUCIAL2*%
X114200000Y-125900000D02*
G75*
G02*
X113200000Y-125900000I-500000J0D01*
G01*
X113200000Y-125900000D02*
G75*
G02*
X114200000Y-125900000I500000J0D01*
G01*
%TO.C,FIDUCIAL1*%
X103370000Y-113792000D02*
G75*
G02*
X102370000Y-113792000I-500000J0D01*
G01*
X102370000Y-113792000D02*
G75*
G02*
X103370000Y-113792000I500000J0D01*
G01*
%TO.C,FIDUCIAL6*%
X175252000Y-39624000D02*
G75*
G02*
X174252000Y-39624000I-500000J0D01*
G01*
X174252000Y-39624000D02*
G75*
G02*
X175252000Y-39624000I500000J0D01*
G01*
%TO.C,FIDUCIAL4*%
X184400000Y-49400000D02*
G75*
G02*
X183400000Y-49400000I-500000J0D01*
G01*
X183400000Y-49400000D02*
G75*
G02*
X184400000Y-49400000I500000J0D01*
G01*
D13*
%TO.C,R3*%
X124747401Y-95761628D02*
X125327228Y-95181801D01*
D14*
X125001959Y-95853552D02*
X124796898Y-95648491D01*
X125214091Y-95231298D02*
X124796898Y-95648491D01*
D10*
X125327228Y-95195943D02*
X126444457Y-96313172D01*
D14*
X125419152Y-95436359D02*
X125001959Y-95853552D01*
X125419152Y-95436359D02*
X125214091Y-95231298D01*
D10*
X125878772Y-96878857D02*
X124761543Y-95761628D01*
D14*
X125991909Y-96843502D02*
X125786848Y-96638441D01*
X126204041Y-96221248D02*
X125786848Y-96638441D01*
X126409102Y-96426309D02*
X125991909Y-96843502D01*
X126409102Y-96426309D02*
X126204041Y-96221248D01*
D13*
X126458599Y-96313172D02*
X125878772Y-96892999D01*
D10*
%TO.C,R1*%
X167958543Y-103875772D02*
X169075772Y-102758543D01*
D14*
X167993898Y-103988909D02*
X168198959Y-103783848D01*
X168411091Y-104406102D02*
X167993898Y-103988909D01*
X168411091Y-104406102D02*
X168616152Y-104201041D01*
D13*
X168524228Y-104455599D02*
X167944401Y-103875772D01*
D14*
X168616152Y-104201041D02*
X168198959Y-103783848D01*
X168983848Y-102998959D02*
X169188909Y-102793898D01*
D13*
X169075772Y-102744401D02*
X169655599Y-103324228D01*
D14*
X169401041Y-103416152D02*
X168983848Y-102998959D01*
X169401041Y-103416152D02*
X169606102Y-103211091D01*
X169606102Y-103211091D02*
X169188909Y-102793898D01*
D10*
X169641457Y-103324228D02*
X168524228Y-104441457D01*
D12*
%TO.C,FIDUCIAL3*%
X108958000Y-45974000D02*
G75*
G02*
X107958000Y-45974000I-500000J0D01*
G01*
X107958000Y-45974000D02*
G75*
G02*
X108958000Y-45974000I500000J0D01*
G01*
%TO.C,FIDUCIAL7*%
X183888000Y-104394000D02*
G75*
G02*
X182888000Y-104394000I-500000J0D01*
G01*
X182888000Y-104394000D02*
G75*
G02*
X183888000Y-104394000I500000J0D01*
G01*
D13*
%TO.C,R2*%
X160942401Y-68812228D02*
X161522228Y-68232401D01*
D14*
X160991898Y-68699091D02*
X161196959Y-68904152D01*
X160991898Y-68699091D02*
X161409091Y-68281898D01*
X161196959Y-68904152D02*
X161614152Y-68486959D01*
X161409091Y-68281898D02*
X161614152Y-68486959D01*
D10*
X161522228Y-68246543D02*
X162639457Y-69363772D01*
D14*
X161981848Y-69689041D02*
X162186909Y-69894102D01*
X161981848Y-69689041D02*
X162399041Y-69271848D01*
D10*
X162073772Y-69929457D02*
X160956543Y-68812228D01*
D14*
X162186909Y-69894102D02*
X162604102Y-69476909D01*
X162399041Y-69271848D02*
X162604102Y-69476909D01*
D13*
X162653599Y-69363772D02*
X162073772Y-69943599D01*
%TD*%
D15*
%TO.C,AE3*%
X117174800Y-82546600D03*
%TD*%
%TO.C,AE1*%
X170174600Y-82546600D03*
%TD*%
D16*
%TO.C,U1*%
X163128663Y-106268765D03*
X164026688Y-105370739D03*
X164924714Y-104472714D03*
X165822739Y-103574688D03*
X166720765Y-102676663D03*
X162499337Y-98455235D03*
X161601312Y-99353261D03*
X160703286Y-100251286D03*
X159805261Y-101149312D03*
X158907235Y-102047337D03*
%TD*%
D17*
%TO.C,H4*%
X182934600Y-82547000D03*
%TD*%
D18*
%TO.C,AE2*%
X143673000Y-55592400D03*
%TD*%
D19*
%TO.C,U2*%
X159263235Y-63366663D03*
X160161261Y-64264688D03*
X161059286Y-65162714D03*
X161957312Y-66060739D03*
X162855337Y-66958765D03*
X167076765Y-62737337D03*
X166178739Y-61839312D03*
X165280714Y-60941286D03*
X164382688Y-60043261D03*
X163484663Y-59145235D03*
%TD*%
D20*
%TO.C,J9*%
X108800000Y-51600000D03*
D21*
X110800000Y-51600000D03*
X108800000Y-49600000D03*
X110800000Y-49600000D03*
%TD*%
D17*
%TO.C,H2*%
X104954600Y-82547000D03*
%TD*%
D22*
%TO.C,J1*%
X177165000Y-114935000D03*
X175895000Y-113665000D03*
X175895000Y-116205000D03*
X178435000Y-113665000D03*
X178435000Y-116205000D03*
%TD*%
D18*
%TO.C,AE4*%
X143674800Y-109046600D03*
%TD*%
D23*
%TO.C,J11*%
X115000000Y-60600000D03*
D24*
X115000000Y-62600000D03*
X117000000Y-60600000D03*
X117000000Y-62600000D03*
X119000000Y-60600000D03*
X119000000Y-62600000D03*
X121000000Y-60600000D03*
X121000000Y-62600000D03*
X123000000Y-60600000D03*
X123000000Y-62600000D03*
X125000000Y-60600000D03*
X125000000Y-62600000D03*
%TD*%
D17*
%TO.C,H1*%
X143675000Y-121519200D03*
%TD*%
D25*
%TO.C,U3*%
X128086665Y-101727437D03*
X127188639Y-100829412D03*
X126290614Y-99931386D03*
X125392588Y-99033361D03*
X124494563Y-98135335D03*
X120273135Y-102356763D03*
X121171161Y-103254788D03*
X122069186Y-104152814D03*
X122967212Y-105050839D03*
X123865237Y-105948865D03*
%TD*%
D17*
%TO.C,H3*%
X143675000Y-43569200D03*
%TD*%
D26*
%TO.C,J10*%
X121400000Y-44400000D03*
D27*
X118860000Y-44400000D03*
%TD*%
D26*
%TO.C,J3*%
X121475000Y-49800000D03*
D27*
X118935000Y-49800000D03*
%TD*%
D28*
%TO.C,J12*%
X97750000Y-65920000D03*
D29*
X101930000Y-65920000D03*
D28*
X97750000Y-57280000D03*
D29*
X101930000Y-57280000D03*
%TD*%
D26*
%TO.C,J6*%
X121375000Y-36900000D03*
D27*
X118835000Y-36900000D03*
%TD*%
D26*
%TO.C,J7*%
X121375000Y-40700000D03*
D27*
X118835000Y-40700000D03*
%TD*%
D28*
%TO.C,J8*%
X97750000Y-54920000D03*
D29*
X101930000Y-54920000D03*
D28*
X97750000Y-46280000D03*
D29*
X101930000Y-46280000D03*
%TD*%
D30*
%TO.C,R4*%
X148218868Y-79107812D03*
X139238612Y-88088068D03*
%TD*%
D31*
X177165000Y-114935000D02*
X173451752Y-114935000D01*
X170623325Y-113763427D02*
X163128663Y-106268765D01*
X173451752Y-114935000D02*
G75*
G02*
X170623349Y-113763403I48J4000000D01*
G01*
X158907235Y-102047337D02*
X155023549Y-98163651D01*
X149783800Y-96774000D02*
X151967923Y-96774000D01*
X134696956Y-96774000D02*
X135348072Y-96774000D01*
X128086665Y-101727437D02*
X131868529Y-97945573D01*
X154805471Y-97945573D02*
G75*
G03*
X151977044Y-96773969I-2828471J-2828427D01*
G01*
X131868529Y-97945573D02*
G75*
G02*
X134696956Y-96773969I2828471J-2828427D01*
G01*
X159263235Y-63367765D02*
X156492573Y-66138427D01*
X155321000Y-68966854D02*
X155321000Y-77718146D01*
X156492573Y-80546573D02*
X161327764Y-85381764D01*
X162499337Y-88210191D02*
X162499337Y-98455235D01*
X159263235Y-63366663D02*
X159263235Y-63367765D01*
X156492573Y-80546573D02*
G75*
G02*
X155320968Y-77718146I2828427J2828473D01*
G01*
X161327764Y-85381764D02*
G75*
G02*
X162499332Y-88210191I-2828464J-2828436D01*
G01*
X156492573Y-66138427D02*
G75*
G03*
X155320968Y-68966854I2828427J-2828473D01*
G01*
X143680600Y-55600000D02*
X152604633Y-55600000D01*
X155879800Y-55600000D02*
X158215057Y-55600000D01*
X161111001Y-56771573D02*
X163484663Y-59145235D01*
X158282574Y-55600000D02*
G75*
G02*
X161111014Y-56771560I26J-4000000D01*
G01*
X167076765Y-62776765D02*
X169003027Y-64703027D01*
X170174600Y-73888600D02*
X170174600Y-82546600D01*
X170174600Y-67531454D02*
X170174600Y-70271321D01*
X169003027Y-64703027D02*
G75*
G02*
X170174632Y-67531454I-2828427J-2828473D01*
G01*
X117174800Y-82546600D02*
X117174800Y-92341669D01*
X117174800Y-95656400D02*
X117174800Y-97531235D01*
X118448344Y-100498344D02*
X120273135Y-102323135D01*
X117174800Y-97567946D02*
G75*
G03*
X118346396Y-100396350I4000000J46D01*
G01*
X128603454Y-109046600D02*
X130968542Y-109046600D01*
X130968542Y-109046600D02*
X131463303Y-109046600D01*
X123865237Y-105965237D02*
X125775027Y-107875027D01*
X134747000Y-109046600D02*
X143674800Y-109046600D01*
X125775027Y-107875027D02*
G75*
G03*
X128603454Y-109046632I2828473J2828427D01*
G01*
M02*
