M48
; DRILL file {KiCad 9.0.0} date 2025-09-25T20:11:43-0700
; FORMAT={-:-/ absolute / inch / decimal}
; #@! TF.CreationDate,2025-09-25T20:11:43-07:00
; #@! TF.GenerationSoftware,Kicad,Pcbnew,9.0.0
; #@! TF.FileFunction,Plated,1,4,PTH
FMAT,2
INCH
; #@! TA.AperFunction,Plated,PTH,ViaDrill
T1C0.0079
; #@! TA.AperFunction,Plated,PTH,ViaDrill
T2C0.0157
; #@! TA.AperFunction,Plated,PTH,ComponentDrill
T3C0.0236
; #@! TA.AperFunction,Plated,PTH,ComponentDrill
T4C0.0335
; #@! TA.AperFunction,Plated,PTH,ComponentDrill
T5C0.0354
; #@! TA.AperFunction,Plated,PTH,ComponentDrill
T6C0.0394
; #@! TA.AperFunction,Plated,PTH,ComponentDrill
T7C0.0472
; #@! TA.AperFunction,Plated,PTH,ComponentDrill
T8C0.1063
%
G90
G05
T1
X7.3286Y-2.737
X7.3703Y-2.737
T2
X4.6435Y-5.4579
X4.6499Y-5.3831
X4.6514Y-5.3079
X4.7849Y-5.2917
X4.8278Y-5.3827
X4.8404Y-5.4451
X4.8758Y-5.4771
X4.8837Y-5.3866
X4.9152Y-5.4653
X4.9506Y-4.8275
X4.9585Y-4.985
X5.0215Y-5.4043
X5.0254Y-5.2921
X5.0899Y-5.3546
X5.1111Y-4.9845
X5.1318Y-4.8513
X5.1435Y-4.9614
X5.1593Y-5.0362
X5.1968Y-4.959
X5.2695Y-4.8669
X5.4624Y-4.7685
X5.5254Y-4.9063
X5.5372Y-4.8315
X5.7538Y-4.2139
X5.8168Y-4.269
X5.8365Y-4.395
X5.864Y-4.2409
X5.8955Y-4.3472
X5.927Y-4.3
X5.99Y-4.3
X6.0372Y-4.2291
X6.112Y-4.0874
X6.242Y-4.1307
X6.2774Y-4.1897
X6.3286Y-4.0953
X6.4034Y-4.0992
X6.4664Y-5.0283
X6.4664Y-5.0677
X6.4687Y-5.1073
X6.8522Y-4.1346
X7.1514Y-2.8453
X7.2794Y-2.8492
X7.4073Y-2.8453
X7.5431Y-2.8492
X7.6081Y-2.8197
X7.7256Y-2.7342
X7.8443Y-2.8393
X7.9034Y-2.8393
T4
X6.4861Y-3.9811
X6.4861Y-4.0598
X6.4861Y-4.1386
X6.4861Y-4.2173
X6.4861Y-4.296
X6.4861Y-4.3748
X6.5648Y-3.9811
X6.5648Y-4.0598
X6.5648Y-4.1386
X6.5648Y-4.2173
X6.5648Y-4.296
X6.5648Y-4.3748
X7.3187Y-2.9555
X7.3187Y-3.0342
X7.3975Y-2.9555
X7.3975Y-3.0342
X7.7183Y-3.0638
X7.7183Y-3.1425
X7.7971Y-3.0638
X7.7971Y-3.1425
X7.9742Y-3.0559
X7.9742Y-3.1346
X8.053Y-3.0559
X8.053Y-3.1346
T5
X6.5431Y-4.9043
T6
X5.1868Y-2.9496
X5.1922Y-2.6622
X5.1922Y-2.8079
X5.2868Y-2.9496
X5.2922Y-2.6622
X5.2922Y-2.8079
X5.5185Y-2.737
X5.6185Y-2.737
X6.0739Y-4.8351
X6.0766Y-4.4034
X6.1239Y-4.9351
X6.1266Y-4.3034
X6.2239Y-4.9351
X6.2266Y-4.3034
X6.2853Y-4.8351
X6.288Y-4.4034
T7
X6.4939Y-4.8551
X6.4939Y-4.9535
X6.5924Y-4.8551
X6.5924Y-4.9535
T8
X4.9931Y-4.4189
X5.6179Y-3.14
X5.9164Y-2.7606
X5.9927Y-3.1405
X6.529Y-2.8834
X6.529Y-5.9523
X8.0632Y-4.4169
T3
G00X7.1683Y-2.5716
M15
G01X7.1683Y-2.5953
M16
G05
G00X7.1683Y-2.7264
M15
G01X7.1683Y-2.7697
M16
G05
G00X7.5085Y-2.5716
M15
G01X7.5085Y-2.5953
M16
G05
G00X7.5085Y-2.7264
M15
G01X7.5085Y-2.7697
M16
G05
G00X7.6081Y-2.5716
M15
G01X7.6081Y-2.5953
M16
G05
G00X7.6081Y-2.7264
M15
G01X7.6081Y-2.7697
M16
G05
G00X7.9483Y-2.5716
M15
G01X7.9483Y-2.5953
M16
G05
G00X7.9483Y-2.7264
M15
G01X7.9483Y-2.7697
M16
G05
M30
