M48
; DRILL file {KiCad 9.0.0} date 2025-10-08T14:33:07-0700
; FORMAT={-:-/ absolute / inch / decimal}
; #@! TF.CreationDate,2025-10-08T14:33:07-07:00
; #@! TF.GenerationSoftware,Kicad,Pcbnew,9.0.0
; #@! TF.FileFunction,Plated,1,4,PTH
FMAT,2
INCH
; #@! TA.AperFunction,Plated,PTH,ViaDrill
T1C0.0100
; #@! TA.AperFunction,Plated,PTH,ViaDrill
T2C0.0118
; #@! TA.AperFunction,Plated,PTH,ComponentDrill
T3C0.0331
%
G90
G05
T1
X4.3544Y-5.433
X4.3583Y-2.7007
X4.4528Y-4.8543
X4.4528Y-4.9724
X4.4607Y-4.7244
X4.4646Y-4.5866
X4.4646Y-5.0905
X4.4725Y-2.9763
X4.4725Y-3.1732
X4.4725Y-3.5669
X4.4725Y-3.9606
X4.4725Y-4.3543
X4.504Y-5.2007
X4.5481Y-4.5031
X4.5748Y-5.2992
X4.5772Y-4.6747
X4.5788Y-4.9724
X4.5827Y-4.7519
X4.5827Y-4.8425
X4.5906Y-5.0905
X4.5945Y-4.6338
X4.6063Y-2.7244
X4.6315Y-4.4196
X4.6457Y-5.1968
X4.6481Y-4.5724
X4.6693Y-3.1732
X4.6693Y-3.37
X4.6693Y-3.7637
X4.6693Y-4.1574
X4.6733Y-5.374
X4.7087Y-4.5433
X4.715Y-4.3362
X4.715Y-4.5055
X4.7363Y-5.2716
X4.7819Y-4.4346
X4.7953Y-5.4251
X4.7985Y-4.2527
X4.8386Y-5.307
X4.8575Y-4.359
X4.8662Y-3.5669
X4.8819Y-4.1692
X4.9489Y-4.2677
X4.9607Y-2.7322
X4.9607Y-5.3149
X4.9607Y-5.437
X4.9764Y-3.37
X4.9772Y-4.1055
X5.0323Y-4.2078
X5.0426Y-4.6842
X5.0788Y-5.3149
X5.0788Y-5.437
X5.0843Y-4.0653
X5.1142Y-3.2795
X5.1646Y-4.6448
X5.1646Y-4.7629
X5.1969Y-5.3149
X5.1969Y-5.437
X5.2048Y-3.1653
X5.2048Y-3.2834
X5.2048Y-4.059
X5.2048Y-4.1771
X5.2599Y-5.1417
X5.2827Y-4.6448
X5.2827Y-4.7629
X5.315Y-5.3149
X5.315Y-5.437
X5.3189Y-3.2834
X5.3197Y-4.1763
X5.3229Y-3.1653
X5.3229Y-4.059
X5.3701Y-3.2834
X5.4008Y-4.6448
X5.4008Y-4.7629
X5.4213Y-3.1653
X5.4331Y-5.3149
X5.4331Y-5.437
X5.4489Y-4.059
X5.4496Y-4.1763
X5.4567Y-2.9763
X5.4567Y-4.9448
X5.4866Y-3.2854
X5.5Y-2.7795
X5.5189Y-3.1621
X5.5189Y-4.6448
X5.5189Y-4.7629
X5.5512Y-5.3149
X5.5512Y-5.437
X5.567Y-4.059
X5.5678Y-4.1763
X5.5906Y-3.2834
X5.5945Y-3.1614
X5.6197Y-4.3515
X5.6371Y-4.6448
X5.6371Y-4.7629
X5.6536Y-3.9606
X5.6536Y-5.1417
X5.6693Y-5.3149
X5.6693Y-5.437
X5.6811Y-3.1614
X5.6811Y-3.2834
X5.6811Y-3.4094
X5.6811Y-3.4999
X5.6851Y-4.059
X5.6859Y-4.1763
X5.689Y-3.622
X5.689Y-3.7401
X5.7166Y-3.3385
X5.7166Y-4.5866
X5.7197Y-3.8338
X5.7874Y-5.3149
X5.7874Y-5.433
X5.7914Y-3.3385
X5.7993Y-4.5866
X5.8032Y-3.622
X5.8032Y-3.9173
X5.804Y-4.0582
X5.804Y-4.1763
X5.8071Y-3.1535
X5.8071Y-3.5275
X5.8071Y-3.7401
X5.8071Y-4.7716
X5.8189Y-2.7637
X5.8465Y-3.1535
X5.8465Y-3.5275
X5.8465Y-3.7952
X5.8465Y-4.4015
X5.8465Y-4.7716
X5.8859Y-3.1535
X5.8859Y-4.2401
X5.8859Y-4.3621
X5.8859Y-4.7716
X5.8867Y-4.0007
X5.8898Y-4.4015
X5.8898Y-4.5866
X5.8977Y-3.3385
X5.8977Y-3.5275
X5.9056Y-5.3149
X5.9056Y-5.433
X5.9142Y-4.0818
X5.93Y-3.8787
X5.9701Y-4.0842
X5.9764Y-4.5866
X5.9804Y-4.1496
X6.004Y-4.2401
X6.004Y-4.3621
X6.0119Y-3.2834
X6.0119Y-4.4251
X6.0119Y-4.5275
X6.0134Y-3.9621
X6.0158Y-3.1653
X6.0237Y-3.3661
X6.0237Y-3.4488
X6.0237Y-5.3149
X6.0237Y-5.433
X6.0536Y-4.1677
X6.0552Y-4.6456
X6.0552Y-4.7637
X6.0685Y-3.5516
X6.0969Y-4.0456
X6.1371Y-4.2511
X6.1418Y-5.3149
X6.1418Y-5.433
X6.1457Y-3.2834
X6.1457Y-4.0787
X6.1496Y-3.1653
X6.1733Y-4.6456
X6.1733Y-4.7637
X6.1804Y-4.1291
X6.2245Y-4.3779
X6.2323Y-4.1574
X6.2599Y-5.3149
X6.2599Y-5.433
X6.2638Y-4.2125
X6.2796Y-3.1653
X6.2796Y-3.2834
X6.2796Y-3.3425
X6.2914Y-4.6456
X6.2914Y-4.7637
X6.3504Y-4.2992
X6.3504Y-4.4173
X6.3504Y-4.6456
X6.3508Y-4.7633
X6.378Y-5.3149
X6.378Y-5.433
X6.3977Y-3.1653
X6.3977Y-3.2834
X6.4685Y-4.2992
X6.4685Y-4.4173
X6.4685Y-4.6456
X6.4689Y-4.7633
X6.4961Y-5.3149
X6.4961Y-5.433
X6.5079Y-3.1653
X6.5079Y-3.2834
X6.5717Y-4.6488
X6.5867Y-4.2992
X6.5867Y-4.4173
X6.6142Y-3.2716
X6.6142Y-5.3149
X6.6142Y-5.433
X6.7048Y-4.2992
X6.7048Y-4.4173
X6.7363Y-5.307
X6.7402Y-5.4251
X6.8229Y-4.2992
X6.8229Y-4.4173
X6.8583Y-5.2755
X6.8583Y-5.4015
X6.941Y-4.2992
X6.941Y-4.4173
X6.9607Y-5.2322
X6.9607Y-5.3621
X7.0237Y-4.2992
X7.0315Y-2.9763
X7.0315Y-4.1574
X7.0315Y-4.5511
X7.0434Y-3.3503
X7.0473Y-3.2362
X7.0591Y-4.4173
X7.0748Y-5.1535
X7.0748Y-5.2992
X7.0906Y-3.1102
X7.0906Y-3.2047
X7.0906Y-3.2873
X7.0945Y-3.0157
X7.0985Y-4.059
X7.1024Y-3.7834
X7.1024Y-3.874
X7.1063Y-4.2086
X7.1103Y-3.3661
X7.1355Y-3.9645
X7.1457Y-2.9251
X7.1536Y-5.0708
X7.1772Y-4.3621
X7.1772Y-5.2165
X7.1811Y-3.4448
X7.2087Y-3.1377
X7.2087Y-3.2558
X7.2166Y-4.9803
X7.2245Y-4.2204
X7.2284Y-2.7795
X7.2284Y-3.5669
X7.2284Y-4.748
X7.2323Y-3.7795
X7.2323Y-4.1417
X7.2347Y-3.9645
X7.2599Y-3.3582
X7.2599Y-3.5236
X7.2599Y-5.1299
X7.2678Y-3.7795
X7.2678Y-4.1417
X7.2678Y-4.8779
X7.2993Y-4.7677
X7.3032Y-3.7795
X7.3032Y-4.1417
X7.3071Y-3.6181
X7.3071Y-3.7007
X7.3071Y-4.2204
X7.3071Y-4.3385
X7.3071Y-4.4566
X7.3071Y-4.5747
X7.3071Y-4.685
X7.3182Y-3.9645
X7.3347Y-5.0118
X7.3426Y-3.4409
X7.3465Y-2.8228
X7.378Y-4.9173
X7.4016Y-3.9645
X7.4095Y-4.7992
X7.4134Y-3.5275
X7.4252Y-2.7047
X7.4252Y-3.37
X7.4252Y-4.6929
X7.4252Y-5.433
X7.4292Y-3.6181
X7.4292Y-3.7362
X7.4292Y-4.2204
X7.4292Y-4.3385
X7.4292Y-4.4566
X7.4292Y-4.5747
X7.4371Y-3.874
X7.4371Y-4.0866
T2
X7.172Y-3.6362
T3
X7.2571Y-2.887
X7.2571Y-2.987
X7.3071Y-2.937
X7.3571Y-2.887
X7.3571Y-2.987
M30
