%TF.GenerationSoftware,KiCad,Pcbnew,9.0.0*%
%TF.CreationDate,2025-10-08T14:33:07-07:00*%
%TF.ProjectId,plusz-end-card-with-turnstile-mezzanine,706c7573-7a2d-4656-9e64-2d636172642d,rev?*%
%TF.SameCoordinates,Original*%
%TF.FileFunction,Profile,NP*%
%FSLAX46Y46*%
G04 Gerber Fmt 4.6, Leading zero omitted, Abs format (unit mm)*
G04 Created by KiCad (PCBNEW 9.0.0) date 2025-10-08 14:33:07*
%MOMM*%
%LPD*%
G01*
G04 APERTURE LIST*
%TA.AperFunction,Profile*%
%ADD10C,0.001000*%
%TD*%
%TA.AperFunction,Profile*%
%ADD11C,0.050000*%
%TD*%
G04 APERTURE END LIST*
D10*
X124601090Y-100698589D02*
G75*
G02*
X122201090Y-100698589I-1200000J0D01*
G01*
X122201090Y-100698589D02*
G75*
G02*
X124601090Y-100698589I1200000J0D01*
G01*
X189601100Y-69598579D02*
X189601100Y-137098579D01*
X187601100Y-67598579D02*
G75*
G02*
X189601121Y-69598579I0J-2000021D01*
G01*
X150051090Y-75598589D02*
G75*
G02*
X146951090Y-75598589I-1550000J0D01*
G01*
X146951090Y-75598589D02*
G75*
G02*
X150051090Y-75598589I1550000J0D01*
G01*
X109601100Y-69598579D02*
G75*
G02*
X111601100Y-67598600I2000000J-21D01*
G01*
X111601100Y-139098579D02*
X187601100Y-139098579D01*
X189601100Y-137098579D02*
G75*
G02*
X187601100Y-139098600I-2000000J-21D01*
G01*
X150051090Y-125798589D02*
G75*
G02*
X146951090Y-125798589I-1550000J0D01*
G01*
X146951090Y-125798589D02*
G75*
G02*
X150051090Y-125798589I1550000J0D01*
G01*
X111601100Y-139098579D02*
G75*
G02*
X109601121Y-137098579I0J1999979D01*
G01*
X109601100Y-69598579D02*
X109601100Y-137098579D01*
X174801090Y-100698589D02*
G75*
G02*
X172401090Y-100698589I-1200000J0D01*
G01*
X172401090Y-100698589D02*
G75*
G02*
X174801090Y-100698589I1200000J0D01*
G01*
X111601100Y-67598579D02*
X187601100Y-67598579D01*
D11*
%TO.C,UHF 180*%
X118960339Y-123653163D02*
X128535893Y-131688009D01*
X120593015Y-121707411D02*
X118960339Y-123653163D01*
X128535893Y-131688009D02*
X130168576Y-129742261D01*
X130168576Y-129742261D02*
X120593015Y-121707411D01*
%TO.C,UHF 90*%
X118213652Y-78502099D02*
X119846330Y-80447855D01*
X119846330Y-80447855D02*
X129421890Y-72413003D01*
X127789209Y-70467254D02*
X118213652Y-78502099D01*
X129421890Y-72413003D02*
X127789209Y-70467254D01*
%TO.C,UHF 0*%
X167381427Y-72357747D02*
X176956982Y-80392592D01*
X169014107Y-70411994D02*
X167381427Y-72357747D01*
X176956982Y-80392592D02*
X178589662Y-78446839D01*
X178589662Y-78446839D02*
X169014107Y-70411994D01*
%TO.C,UHF 270*%
X167438106Y-129076994D02*
X169070791Y-131022746D01*
X169070791Y-131022746D02*
X178646347Y-122987900D01*
X177013670Y-121042145D02*
X167438106Y-129076994D01*
X178646347Y-122987900D02*
X177013670Y-121042145D01*
%TD*%
M02*
