%TF.GenerationSoftware,KiCad,Pcbnew,9.0.0*%
%TF.CreationDate,2026-03-05T14:56:30-08:00*%
%TF.ProjectId,debug_board_v1,64656275-675f-4626-9f61-72645f76312e,rev?*%
%TF.SameCoordinates,Original*%
%TF.FileFunction,Legend,Bot*%
%TF.FilePolarity,Positive*%
%FSLAX46Y46*%
G04 Gerber Fmt 4.6, Leading zero omitted, Abs format (unit mm)*
G04 Created by KiCad (PCBNEW 9.0.0) date 2026-03-05 14:56:30*
%MOMM*%
%LPD*%
G01*
G04 APERTURE LIST*
%ADD10C,0.300000*%
G04 APERTURE END LIST*
D10*
X143821427Y-94249757D02*
X143964285Y-94178328D01*
X143964285Y-94178328D02*
X144178570Y-94178328D01*
X144178570Y-94178328D02*
X144392856Y-94249757D01*
X144392856Y-94249757D02*
X144535713Y-94392614D01*
X144535713Y-94392614D02*
X144607142Y-94535471D01*
X144607142Y-94535471D02*
X144678570Y-94821185D01*
X144678570Y-94821185D02*
X144678570Y-95035471D01*
X144678570Y-95035471D02*
X144607142Y-95321185D01*
X144607142Y-95321185D02*
X144535713Y-95464042D01*
X144535713Y-95464042D02*
X144392856Y-95606900D01*
X144392856Y-95606900D02*
X144178570Y-95678328D01*
X144178570Y-95678328D02*
X144035713Y-95678328D01*
X144035713Y-95678328D02*
X143821427Y-95606900D01*
X143821427Y-95606900D02*
X143749999Y-95535471D01*
X143749999Y-95535471D02*
X143749999Y-95035471D01*
X143749999Y-95035471D02*
X144035713Y-95035471D01*
X142892856Y-94178328D02*
X142892856Y-94535471D01*
X143249999Y-94392614D02*
X142892856Y-94535471D01*
X142892856Y-94535471D02*
X142535713Y-94392614D01*
X143107142Y-94821185D02*
X142892856Y-94535471D01*
X142892856Y-94535471D02*
X142678570Y-94821185D01*
X141749999Y-94178328D02*
X141749999Y-94535471D01*
X142107142Y-94392614D02*
X141749999Y-94535471D01*
X141749999Y-94535471D02*
X141392856Y-94392614D01*
X141964285Y-94821185D02*
X141749999Y-94535471D01*
X141749999Y-94535471D02*
X141535713Y-94821185D01*
X140607142Y-94178328D02*
X140607142Y-94535471D01*
X140964285Y-94392614D02*
X140607142Y-94535471D01*
X140607142Y-94535471D02*
X140249999Y-94392614D01*
X140821428Y-94821185D02*
X140607142Y-94535471D01*
X140607142Y-94535471D02*
X140392856Y-94821185D01*
%LPC*%
%LPD*%
M02*
