%TF.GenerationSoftware,KiCad,Pcbnew,9.0.0*%
%TF.CreationDate,2026-03-05T14:56:30-08:00*%
%TF.ProjectId,debug_board_v1,64656275-675f-4626-9f61-72645f76312e,rev?*%
%TF.SameCoordinates,Original*%
%TF.FileFunction,Profile,NP*%
%FSLAX46Y46*%
G04 Gerber Fmt 4.6, Leading zero omitted, Abs format (unit mm)*
G04 Created by KiCad (PCBNEW 9.0.0) date 2026-03-05 14:56:30*
%MOMM*%
%LPD*%
G01*
G04 APERTURE LIST*
%TA.AperFunction,Profile*%
%ADD10C,0.000000*%
%TD*%
G04 APERTURE END LIST*
D10*
%TA.AperFunction,Profile*%
%TO.C,G\u002A\u002A\u002A*%
G36*
X155663493Y-67821739D02*
G01*
X156138328Y-68107909D01*
X156318505Y-68280970D01*
X156455868Y-68488288D01*
X156511602Y-68758107D01*
X156517931Y-69181581D01*
X156515881Y-69244145D01*
X156472881Y-69676143D01*
X156383617Y-70262961D01*
X156259569Y-70935494D01*
X156112210Y-71624638D01*
X155927543Y-72501441D01*
X155731412Y-73838515D01*
X155686154Y-75014881D01*
X155797634Y-76055533D01*
X156071720Y-76985462D01*
X156514279Y-77829663D01*
X157131178Y-78613129D01*
X157928284Y-79360851D01*
X158333009Y-79685099D01*
X158916617Y-80134472D01*
X159622789Y-80666162D01*
X160411085Y-81250577D01*
X161241064Y-81858121D01*
X162072286Y-82459203D01*
X162864313Y-83024228D01*
X163576702Y-83523602D01*
X164169013Y-83927732D01*
X164578318Y-84206485D01*
X165195367Y-84661264D01*
X165674494Y-85077050D01*
X166067886Y-85501293D01*
X166427733Y-85981447D01*
X166643008Y-86264293D01*
X166999447Y-86605295D01*
X167445538Y-86877447D01*
X168032956Y-87110010D01*
X168813379Y-87332242D01*
X169116409Y-87411311D01*
X169616752Y-87551755D01*
X170010288Y-87674694D01*
X170231110Y-87760231D01*
X170262251Y-87778021D01*
X170498676Y-88052433D01*
X170548327Y-88449789D01*
X170405271Y-88930224D01*
X170311929Y-89145796D01*
X170261357Y-89397493D01*
X170336282Y-89584827D01*
X170336605Y-89585267D01*
X170713963Y-90236401D01*
X170913392Y-90945975D01*
X170955287Y-91786528D01*
X170975038Y-92550460D01*
X171143135Y-93527536D01*
X171200601Y-93751970D01*
X171321288Y-94538325D01*
X171281546Y-95275992D01*
X171071964Y-96033521D01*
X170683136Y-96879459D01*
X170574414Y-97090449D01*
X170300456Y-97661252D01*
X170063227Y-98206596D01*
X169904565Y-98632288D01*
X169866390Y-98743700D01*
X169582081Y-99336417D01*
X169214865Y-99857378D01*
X169156136Y-99923993D01*
X169028812Y-100074652D01*
X168925186Y-100224911D01*
X168840605Y-100402009D01*
X168770421Y-100633181D01*
X168709979Y-100945666D01*
X168654630Y-101366701D01*
X168599723Y-101923524D01*
X168540606Y-102643372D01*
X168472628Y-103553483D01*
X168391137Y-104681093D01*
X168331105Y-105475286D01*
X168249466Y-106366872D01*
X168158129Y-107059224D01*
X168045956Y-107578897D01*
X167901814Y-107952445D01*
X167714567Y-108206422D01*
X167473082Y-108367381D01*
X167166222Y-108461876D01*
X166782852Y-108516462D01*
X166650846Y-108531416D01*
X166055040Y-108640750D01*
X165439518Y-108831841D01*
X164744968Y-109125928D01*
X163912077Y-109544242D01*
X163843565Y-109580449D01*
X163447310Y-109782244D01*
X163144206Y-109901392D01*
X162849752Y-109954417D01*
X162479448Y-109957848D01*
X161948792Y-109928209D01*
X161018900Y-109846116D01*
X160172744Y-109708107D01*
X159409255Y-109501098D01*
X158645171Y-109206912D01*
X158064664Y-108995805D01*
X157417629Y-108900508D01*
X156807908Y-108999675D01*
X156169727Y-109295665D01*
X155966697Y-109407232D01*
X155510608Y-109573735D01*
X155141825Y-109550310D01*
X154812662Y-109338463D01*
X154532210Y-109074993D01*
X153549248Y-109354879D01*
X153277345Y-109427974D01*
X152605762Y-109553099D01*
X152058302Y-109551055D01*
X151572547Y-109424024D01*
X151416276Y-109427379D01*
X151225492Y-109638218D01*
X151121799Y-109805550D01*
X150905113Y-110025115D01*
X150598306Y-110184347D01*
X150162621Y-110295530D01*
X149559296Y-110370946D01*
X148749576Y-110422879D01*
X147135212Y-110500098D01*
X146563569Y-110951955D01*
X146354712Y-111115321D01*
X146009469Y-111363436D01*
X145700955Y-111529632D01*
X145358904Y-111640115D01*
X144913048Y-111721098D01*
X144293120Y-111798785D01*
X143954038Y-111839939D01*
X143483406Y-111903832D01*
X143142512Y-111958776D01*
X142988490Y-111996127D01*
X142978483Y-112029570D01*
X142955440Y-112268440D01*
X142930341Y-112714474D01*
X142904100Y-113341803D01*
X142877635Y-114124553D01*
X142851863Y-115036854D01*
X142827698Y-116052832D01*
X142806058Y-117146620D01*
X142715098Y-122240580D01*
X136104167Y-122240580D01*
X129493236Y-122240580D01*
X129486627Y-121596377D01*
X129479388Y-121000797D01*
X129466472Y-120141433D01*
X129449304Y-119134409D01*
X129428369Y-118000412D01*
X129404149Y-116760125D01*
X129377131Y-115434236D01*
X129347799Y-114043429D01*
X129316635Y-112608388D01*
X129284127Y-111149801D01*
X129250758Y-109688350D01*
X129217011Y-108244723D01*
X129183372Y-106839604D01*
X129150325Y-105493678D01*
X129118354Y-104227632D01*
X129087945Y-103062149D01*
X129059580Y-102017915D01*
X129033746Y-101115616D01*
X129010925Y-100375936D01*
X128991603Y-99819561D01*
X128976264Y-99467177D01*
X128965393Y-99339468D01*
X128963480Y-99338360D01*
X128811519Y-99329492D01*
X128437303Y-99329567D01*
X127862107Y-99338040D01*
X127107209Y-99354362D01*
X126193884Y-99377986D01*
X125143405Y-99408365D01*
X123977052Y-99444951D01*
X122716099Y-99487199D01*
X121381822Y-99534558D01*
X120260368Y-99575738D01*
X118852577Y-99627602D01*
X117659920Y-99670129D01*
X116664645Y-99702149D01*
X115848996Y-99722495D01*
X115195220Y-99729998D01*
X114685563Y-99723492D01*
X114302272Y-99701806D01*
X114027592Y-99663774D01*
X113843769Y-99608226D01*
X113733050Y-99533995D01*
X113677680Y-99439912D01*
X113659905Y-99324810D01*
X113661974Y-99187520D01*
X113666130Y-99026873D01*
X113667187Y-98966540D01*
X114475143Y-98966540D01*
X116002306Y-98890207D01*
X116588145Y-98862399D01*
X117434813Y-98825650D01*
X118398469Y-98786749D01*
X119453240Y-98746511D01*
X120573253Y-98705749D01*
X121732635Y-98665280D01*
X122905512Y-98625917D01*
X124066012Y-98588475D01*
X125188261Y-98553767D01*
X126246386Y-98522612D01*
X127214513Y-98495819D01*
X128066771Y-98474207D01*
X128777285Y-98458587D01*
X129320182Y-98449775D01*
X129669591Y-98448586D01*
X129799634Y-98455834D01*
X129805095Y-98488252D01*
X129819443Y-98728635D01*
X129837298Y-99187292D01*
X129858201Y-99845853D01*
X129881692Y-100685953D01*
X129907310Y-101689222D01*
X129934598Y-102837299D01*
X129963095Y-104111808D01*
X129992341Y-105494390D01*
X130021876Y-106966674D01*
X130051242Y-108510292D01*
X130060345Y-108999233D01*
X130090374Y-110575499D01*
X130120509Y-112104808D01*
X130150261Y-113565113D01*
X130179140Y-114934369D01*
X130206657Y-116190529D01*
X130232320Y-117311548D01*
X130255641Y-118275378D01*
X130276128Y-119059974D01*
X130293294Y-119643289D01*
X130306646Y-120003278D01*
X130377123Y-121508488D01*
X136065990Y-121501910D01*
X137113452Y-121499068D01*
X138203174Y-121492433D01*
X139194257Y-121482556D01*
X140062240Y-121469871D01*
X140782661Y-121454813D01*
X141331057Y-121437817D01*
X141682968Y-121419317D01*
X141813930Y-121399749D01*
X141828890Y-121271814D01*
X141847669Y-120924409D01*
X141868660Y-120386572D01*
X141890967Y-119686499D01*
X141913696Y-118852387D01*
X141935953Y-117912434D01*
X141956843Y-116894837D01*
X141975739Y-115978240D01*
X141999462Y-114991631D01*
X142024598Y-114092826D01*
X142050104Y-113313339D01*
X142074940Y-112684689D01*
X142098063Y-112238387D01*
X142118432Y-112005952D01*
X142119594Y-111998894D01*
X142233731Y-111662046D01*
X142469088Y-111404497D01*
X142856564Y-111210691D01*
X143427057Y-111065067D01*
X144211467Y-110952069D01*
X144302365Y-110941644D01*
X144862662Y-110864679D01*
X145252649Y-110776345D01*
X145538407Y-110657149D01*
X145786015Y-110487599D01*
X145900690Y-110396037D01*
X146379594Y-110038192D01*
X146783372Y-109807696D01*
X147192011Y-109676913D01*
X147685504Y-109618209D01*
X148343840Y-109603951D01*
X148400588Y-109603836D01*
X149129267Y-109594452D01*
X149659442Y-109562522D01*
X150034892Y-109496138D01*
X150299407Y-109383394D01*
X150496768Y-109212385D01*
X150670762Y-108971204D01*
X150853140Y-108727203D01*
X151146005Y-108527819D01*
X151519814Y-108504938D01*
X152031522Y-108644903D01*
X152254952Y-108707546D01*
X152515475Y-108718006D01*
X152857943Y-108658519D01*
X153356729Y-108522198D01*
X154053435Y-108340722D01*
X154569149Y-108265268D01*
X154921523Y-108297557D01*
X155138647Y-108436232D01*
X155275609Y-108566093D01*
X155445997Y-108604767D01*
X155703340Y-108534493D01*
X156111123Y-108349617D01*
X156492642Y-108199852D01*
X157311771Y-108070311D01*
X158198969Y-108158664D01*
X159126570Y-108463864D01*
X159260008Y-108520436D01*
X160233684Y-108834190D01*
X161312165Y-109038281D01*
X162386658Y-109111112D01*
X162579450Y-109105607D01*
X162965480Y-109045550D01*
X163375541Y-108896893D01*
X163896971Y-108631927D01*
X164436243Y-108362459D01*
X165107420Y-108080802D01*
X165769751Y-107850720D01*
X166355130Y-107695556D01*
X166795449Y-107638648D01*
X167045451Y-107591708D01*
X167205032Y-107462689D01*
X167268876Y-107207718D01*
X167345391Y-106726300D01*
X167425756Y-106065149D01*
X167506268Y-105258329D01*
X167583224Y-104339911D01*
X167652916Y-103343963D01*
X167707224Y-102494792D01*
X167761599Y-101706073D01*
X167812598Y-101101108D01*
X167866672Y-100646989D01*
X167930270Y-100310808D01*
X168009845Y-100059655D01*
X168111848Y-99860622D01*
X168242730Y-99680801D01*
X168408940Y-99487282D01*
X168582420Y-99266808D01*
X168895662Y-98764046D01*
X169120082Y-98271953D01*
X169174227Y-98125006D01*
X169374635Y-97648728D01*
X169635161Y-97087923D01*
X169913508Y-96535175D01*
X170086255Y-96192685D01*
X170361584Y-95504103D01*
X170479701Y-94881677D01*
X170449986Y-94248836D01*
X170281822Y-93529006D01*
X170256010Y-93433000D01*
X170166348Y-92949267D01*
X170099054Y-92355362D01*
X170067088Y-91758184D01*
X170059225Y-91423809D01*
X170031927Y-90976735D01*
X169973371Y-90660341D01*
X169866822Y-90401079D01*
X169695544Y-90125406D01*
X169527585Y-89851183D01*
X169413235Y-89519063D01*
X169425717Y-89153928D01*
X169556130Y-88662356D01*
X169572147Y-88605621D01*
X169567898Y-88484028D01*
X169457617Y-88392067D01*
X169196400Y-88303991D01*
X168739341Y-88194055D01*
X168669546Y-88178062D01*
X167808756Y-87946618D01*
X167131244Y-87678164D01*
X166579007Y-87337474D01*
X166094044Y-86889318D01*
X165618351Y-86298467D01*
X165360372Y-85976163D01*
X165046987Y-85658059D01*
X164642139Y-85315725D01*
X164105967Y-84915494D01*
X163398606Y-84423696D01*
X162716272Y-83952831D01*
X161852474Y-83343063D01*
X160942395Y-82688611D01*
X160027490Y-82020037D01*
X159149215Y-81367907D01*
X158349028Y-80762785D01*
X157668383Y-80235236D01*
X157148737Y-79815825D01*
X157005131Y-79692009D01*
X156210956Y-78847498D01*
X155568661Y-77880139D01*
X155124832Y-76858012D01*
X155113217Y-76821247D01*
X154898684Y-75775811D01*
X154849986Y-74550414D01*
X154967102Y-73145944D01*
X155250011Y-71563285D01*
X155427711Y-70750514D01*
X155559671Y-70137228D01*
X155649336Y-69695753D01*
X155701565Y-69391962D01*
X155721219Y-69191720D01*
X155713157Y-69060895D01*
X155682237Y-68965354D01*
X155633320Y-68870965D01*
X155622680Y-68851649D01*
X155467829Y-68681145D01*
X155243282Y-68645040D01*
X154906792Y-68747567D01*
X154416112Y-68992963D01*
X154272670Y-69069780D01*
X153942467Y-69220843D01*
X153622350Y-69306906D01*
X153227250Y-69345609D01*
X152672104Y-69354590D01*
X152324276Y-69357564D01*
X151949316Y-69376794D01*
X151602773Y-69425596D01*
X151243255Y-69517188D01*
X150829369Y-69664785D01*
X150319723Y-69881605D01*
X149672924Y-70180865D01*
X148847579Y-70575782D01*
X148456472Y-70766456D01*
X147961891Y-71025962D01*
X147556488Y-71281678D01*
X147219946Y-71563351D01*
X146931952Y-71900729D01*
X146672190Y-72323562D01*
X146420345Y-72861596D01*
X146156102Y-73544581D01*
X145859148Y-74402264D01*
X145509165Y-75464395D01*
X145401811Y-75790327D01*
X145227428Y-76280476D01*
X145064106Y-76639401D01*
X144871407Y-76935277D01*
X144608892Y-77236279D01*
X144236120Y-77610583D01*
X143988323Y-77864465D01*
X143665076Y-78235836D01*
X143334864Y-78670455D01*
X142970640Y-79206690D01*
X142545360Y-79882910D01*
X142031977Y-80737481D01*
X141602926Y-81460489D01*
X140964717Y-82526406D01*
X140422318Y-83414078D01*
X139959441Y-84145407D01*
X139559798Y-84742292D01*
X139207103Y-85226633D01*
X138885069Y-85620332D01*
X138577407Y-85945287D01*
X138267831Y-86223400D01*
X137940053Y-86476570D01*
X137577787Y-86726699D01*
X137106008Y-87020783D01*
X136253756Y-87437967D01*
X135346769Y-87721096D01*
X134294707Y-87902523D01*
X134015291Y-87933461D01*
X132935918Y-87974968D01*
X132034709Y-87862585D01*
X131294701Y-87587885D01*
X130698933Y-87142443D01*
X130230443Y-86517834D01*
X129872269Y-85705629D01*
X129703419Y-85241890D01*
X129404237Y-84593159D01*
X129101456Y-84165669D01*
X128785605Y-83944070D01*
X128559645Y-83918679D01*
X128114412Y-84021628D01*
X127540718Y-84273404D01*
X126866285Y-84661238D01*
X126118840Y-85172361D01*
X126108482Y-85179959D01*
X125557869Y-85578768D01*
X124940562Y-86018394D01*
X124388247Y-86405039D01*
X123993973Y-86685948D01*
X123522375Y-87069322D01*
X123164948Y-87453378D01*
X122893329Y-87886748D01*
X122679154Y-88418067D01*
X122494059Y-89095967D01*
X122309682Y-89969083D01*
X122263813Y-90195167D01*
X122046919Y-91054054D01*
X121783994Y-91727326D01*
X121446063Y-92263524D01*
X121004142Y-92711189D01*
X120429255Y-93118860D01*
X120277664Y-93222115D01*
X119879574Y-93534834D01*
X119385057Y-93960239D01*
X118842664Y-94455888D01*
X118300946Y-94979340D01*
X118039503Y-95239363D01*
X117492974Y-95780482D01*
X116974368Y-96291016D01*
X116532193Y-96723286D01*
X116214955Y-97029616D01*
X115877658Y-97365148D01*
X115415412Y-97856332D01*
X115020663Y-98307330D01*
X114475143Y-98966540D01*
X113667187Y-98966540D01*
X113667294Y-98960416D01*
X113707757Y-98715853D01*
X113828282Y-98456381D01*
X114059278Y-98128390D01*
X114431159Y-97678270D01*
X114567794Y-97520470D01*
X114991600Y-97050014D01*
X115405612Y-96613823D01*
X115736814Y-96289561D01*
X115888488Y-96147880D01*
X116245675Y-95804602D01*
X116705577Y-95355223D01*
X117225175Y-94841873D01*
X117761452Y-94306685D01*
X118117108Y-93956834D01*
X118638873Y-93467182D01*
X119114737Y-93046852D01*
X119503461Y-92731858D01*
X119763805Y-92558209D01*
X120122617Y-92350073D01*
X120707674Y-91840602D01*
X121098567Y-91234340D01*
X121177302Y-91007258D01*
X121298174Y-90575812D01*
X121434579Y-90026375D01*
X121569376Y-89424824D01*
X121596039Y-89301207D01*
X121863971Y-88280807D01*
X122176942Y-87474183D01*
X122547488Y-86854562D01*
X122988145Y-86395175D01*
X123349996Y-86113391D01*
X123887448Y-85715146D01*
X124508948Y-85269255D01*
X125167675Y-84808078D01*
X125816808Y-84363972D01*
X126409524Y-83969298D01*
X126899004Y-83656416D01*
X127238427Y-83457685D01*
X127386078Y-83383818D01*
X128112138Y-83137543D01*
X128774803Y-83110284D01*
X129354878Y-83300207D01*
X129833164Y-83705480D01*
X130015158Y-83961806D01*
X130332560Y-84568323D01*
X130667889Y-85404446D01*
X130681709Y-85442359D01*
X130918513Y-86012626D01*
X131164783Y-86406915D01*
X131470587Y-86687356D01*
X131885990Y-86916084D01*
X131956601Y-86946127D01*
X132530430Y-87084674D01*
X133253766Y-87127622D01*
X134063046Y-87081293D01*
X134894706Y-86952012D01*
X135685181Y-86746104D01*
X136370909Y-86469890D01*
X136587093Y-86358289D01*
X137079995Y-86076940D01*
X137516856Y-85773720D01*
X137921982Y-85420713D01*
X138319680Y-84990006D01*
X138734255Y-84453684D01*
X139190013Y-83783832D01*
X139711261Y-82952537D01*
X140322304Y-81931884D01*
X140513184Y-81608781D01*
X141083572Y-80646879D01*
X141553677Y-79862831D01*
X141941149Y-79230096D01*
X142263645Y-78722127D01*
X142538815Y-78312382D01*
X142784313Y-77974318D01*
X143017791Y-77681390D01*
X143256903Y-77407056D01*
X143519302Y-77124771D01*
X143710303Y-76922276D01*
X143985875Y-76614884D01*
X144195884Y-76338376D01*
X144368997Y-76040024D01*
X144533881Y-75667097D01*
X144719206Y-75166867D01*
X144953639Y-74486607D01*
X145031937Y-74258361D01*
X145266985Y-73588727D01*
X145491330Y-72970211D01*
X145682735Y-72463403D01*
X145818964Y-72128889D01*
X146075851Y-71655203D01*
X146545740Y-71040434D01*
X147093567Y-70525622D01*
X147653623Y-70180544D01*
X147663781Y-70176115D01*
X147997805Y-70026923D01*
X148487040Y-69804222D01*
X149067324Y-69537373D01*
X149674494Y-69255739D01*
X150283467Y-68975645D01*
X150742562Y-68781685D01*
X151118240Y-68656226D01*
X151479561Y-68580425D01*
X151895582Y-68535439D01*
X152435363Y-68502426D01*
X152852247Y-68477417D01*
X153344881Y-68430661D01*
X153702226Y-68361606D01*
X153991448Y-68255511D01*
X154279710Y-68097634D01*
X154546754Y-67951838D01*
X155135866Y-67769732D01*
X155663493Y-67821739D01*
G37*
%TD.AperFunction*%
%TD*%
M02*
