%TF.GenerationSoftware,KiCad,Pcbnew,9.0.0*%
%TF.CreationDate,2025-09-25T20:11:43-07:00*%
%TF.ProjectId,antenna_top_cap_v2b,616e7465-6e6e-4615-9f74-6f705f636170,rev?*%
%TF.SameCoordinates,Original*%
%TF.FileFunction,Copper,L3,Inr*%
%TF.FilePolarity,Positive*%
%FSLAX46Y46*%
G04 Gerber Fmt 4.6, Leading zero omitted, Abs format (unit mm)*
G04 Created by KiCad (PCBNEW 9.0.0) date 2025-09-25 20:11:43*
%MOMM*%
%LPD*%
G01*
G04 APERTURE LIST*
G04 Aperture macros list*
%AMRoundRect*
0 Rectangle with rounded corners*
0 $1 Rounding radius*
0 $2 $3 $4 $5 $6 $7 $8 $9 X,Y pos of 4 corners*
0 Add a 4 corners polygon primitive as box body*
4,1,4,$2,$3,$4,$5,$6,$7,$8,$9,$2,$3,0*
0 Add four circle primitives for the rounded corners*
1,1,$1+$1,$2,$3*
1,1,$1+$1,$4,$5*
1,1,$1+$1,$6,$7*
1,1,$1+$1,$8,$9*
0 Add four rect primitives between the rounded corners*
20,1,$1+$1,$2,$3,$4,$5,0*
20,1,$1+$1,$4,$5,$6,$7,0*
20,1,$1+$1,$6,$7,$8,$9,0*
20,1,$1+$1,$8,$9,$2,$3,0*%
G04 Aperture macros list end*
%TA.AperFunction,ComponentPad*%
%ADD10O,1.700000X1.700000*%
%TD*%
%TA.AperFunction,ComponentPad*%
%ADD11R,1.700000X1.700000*%
%TD*%
%TA.AperFunction,ComponentPad*%
%ADD12RoundRect,0.250000X-0.350000X-0.575000X0.350000X-0.575000X0.350000X0.575000X-0.350000X0.575000X0*%
%TD*%
%TA.AperFunction,ComponentPad*%
%ADD13O,1.200000X1.650000*%
%TD*%
%TA.AperFunction,ComponentPad*%
%ADD14C,5.400000*%
%TD*%
%TA.AperFunction,ComponentPad*%
%ADD15RoundRect,0.250000X-0.575000X0.350000X-0.575000X-0.350000X0.575000X-0.350000X0.575000X0.350000X0*%
%TD*%
%TA.AperFunction,ComponentPad*%
%ADD16O,1.650000X1.200000*%
%TD*%
%TA.AperFunction,ComponentPad*%
%ADD17RoundRect,0.250000X0.575000X-0.350000X0.575000X0.350000X-0.575000X0.350000X-0.575000X-0.350000X0*%
%TD*%
%TA.AperFunction,ComponentPad*%
%ADD18C,1.700000*%
%TD*%
%TA.AperFunction,ComponentPad*%
%ADD19C,1.300000*%
%TD*%
%TA.AperFunction,HeatsinkPad*%
%ADD20O,1.000000X1.600000*%
%TD*%
%TA.AperFunction,HeatsinkPad*%
%ADD21O,1.000000X2.100000*%
%TD*%
%TA.AperFunction,ViaPad*%
%ADD22C,0.800000*%
%TD*%
%TA.AperFunction,ViaPad*%
%ADD23C,0.460000*%
%TD*%
G04 APERTURE END LIST*
D10*
%TO.N,BURN*%
%TO.C,J7*%
X154345800Y-111846900D03*
D11*
X155615800Y-109306900D03*
X158155800Y-109306900D03*
D10*
X159715800Y-111846900D03*
D11*
%TO.N,GND*%
X154275800Y-122811900D03*
X155545800Y-125351900D03*
X158085800Y-125351900D03*
X159645800Y-122811900D03*
%TD*%
%TO.N,~{FC_RESET}*%
%TO.C,J3*%
X134420800Y-67619400D03*
D10*
%TO.N,GND*%
X131880800Y-67619400D03*
%TD*%
D12*
%TO.N,/RBF_High*%
%TO.C,J11*%
X202545800Y-77619400D03*
D13*
%TO.N,/RBF_Low*%
X202545800Y-79619400D03*
%TO.N,/RBF_High*%
X204545800Y-77619400D03*
%TO.N,/RBF_Low*%
X204545800Y-79619400D03*
%TD*%
D14*
%TO.N,unconnected-(TP3-Pad1)*%
%TO.C,TP3*%
X150275800Y-70119400D03*
%TD*%
D15*
%TO.N,Net-(J13-Pin_1)*%
%TO.C,J13*%
X198045800Y-77819400D03*
D16*
%TO.N,GND*%
X196045800Y-77819400D03*
%TO.N,Net-(J13-Pin_1)*%
X198045800Y-79819400D03*
%TO.N,GND*%
X196045800Y-79819400D03*
%TD*%
D17*
%TO.N,GND*%
%TO.C,J1*%
X164745800Y-111119400D03*
D16*
X166745801Y-111119400D03*
%TO.N,WDT_DISABLE*%
X164745800Y-109119399D03*
%TO.N,BURN*%
X166745800Y-109119400D03*
%TO.N,SCL0*%
X164745800Y-107119400D03*
%TO.N,Dir_Chrg_In*%
X166745800Y-107119399D03*
%TO.N,SDA0*%
X164745800Y-105119400D03*
%TO.N,+3V3*%
X166745800Y-105119400D03*
%TO.N,USB_D+*%
X164745800Y-103119400D03*
%TO.N,USB_D-*%
X166745800Y-103119400D03*
%TO.N,FC_USBBOOT*%
X164745800Y-101119400D03*
%TO.N,~{FC_RESET}*%
X166745800Y-101119400D03*
%TD*%
D11*
%TO.N,WDT_DISABLE*%
%TO.C,J10*%
X134285800Y-74919400D03*
D18*
%TO.N,GND*%
X131745800Y-74919400D03*
%TD*%
D14*
%TO.N,unconnected-(TP7-Pad1)*%
%TO.C,TP7*%
X142693713Y-79756113D03*
%TD*%
%TO.N,unconnected-(TP2-Pad1)*%
%TO.C,TP2*%
X152215800Y-79769400D03*
%TD*%
%TO.N,unconnected-(TP5-Pad1)*%
%TO.C,TP5*%
X126825800Y-112239400D03*
%TD*%
%TO.N,unconnected-(TP6-Pad1)*%
%TO.C,TP6*%
X165835800Y-73239400D03*
%TD*%
D18*
%TO.N,GND*%
%TO.C,RF1*%
X164945800Y-125819400D03*
X164945800Y-123319400D03*
X167445800Y-123319400D03*
X167445800Y-125819400D03*
D19*
%TO.N,Net-(B1-U.P.50)*%
X166195800Y-124569400D03*
%TD*%
D14*
%TO.N,unconnected-(TP1-Pad1)*%
%TO.C,TP1*%
X165835800Y-151189400D03*
%TD*%
%TO.N,unconnected-(TP4-Pad1)*%
%TO.C,TP4*%
X204805800Y-112189400D03*
%TD*%
D12*
%TO.N,/Payload_D-*%
%TO.C,J9*%
X185895800Y-75069400D03*
D13*
%TO.N,/Payload_VBUS*%
X185895800Y-77069400D03*
%TO.N,/Payload_D+*%
X187895800Y-75069400D03*
%TO.N,GND*%
X187895800Y-77069400D03*
%TD*%
D11*
%TO.N,FC_USBBOOT*%
%TO.C,J4*%
X134420800Y-71319400D03*
D10*
%TO.N,GND*%
X131880800Y-71319400D03*
%TD*%
D11*
%TO.N,Dir_Chrg_In*%
%TO.C,J2*%
X140170800Y-69519400D03*
D10*
%TO.N,GND*%
X142710800Y-69519400D03*
%TD*%
D20*
%TO.N,GND*%
%TO.C,J12*%
X193245800Y-65619400D03*
D21*
X193245800Y-69799400D03*
D20*
X201885800Y-65619400D03*
D21*
X201885800Y-69799400D03*
%TD*%
D20*
%TO.N,GND*%
%TO.C,J8*%
X182075800Y-65619400D03*
D21*
X182075800Y-69799400D03*
D20*
X190715800Y-65619400D03*
D21*
X190715800Y-69799400D03*
%TD*%
D22*
%TO.N,GND*%
X200745800Y-72119400D03*
X138745800Y-121119400D03*
X193245800Y-71619400D03*
X191595800Y-72369400D03*
X130347958Y-123222637D03*
X127645800Y-134419400D03*
X158545800Y-104919400D03*
X117945800Y-138629545D03*
X174045800Y-105019400D03*
X146145800Y-107031900D03*
X159445800Y-106419400D03*
X147745799Y-108431901D03*
X124845800Y-138819400D03*
X164245800Y-128719400D03*
X164245800Y-127719400D03*
X140645800Y-122719400D03*
X118145800Y-134819400D03*
X181645800Y-72269400D03*
X164306225Y-129726613D03*
X129283147Y-136006747D03*
%TO.N,+3V3*%
X140345800Y-124619400D03*
X127545800Y-137269400D03*
X148245928Y-111632835D03*
X155245800Y-103819400D03*
X160745800Y-104019400D03*
X148945800Y-107719400D03*
X153345800Y-107419400D03*
X149745800Y-110419400D03*
%TO.N,2.8V*%
X124045800Y-136819400D03*
X125945800Y-126619400D03*
X118106730Y-136731536D03*
X125745800Y-122619400D03*
X133845800Y-123619400D03*
X129820800Y-126607053D03*
%TO.N,/SCL_3V*%
X122945800Y-138304400D03*
%TO.N,/GPIO*%
X121535800Y-134409400D03*
%TO.N,/XSHUT_2.8V*%
X122625802Y-136719400D03*
%TO.N,/SDA_3V*%
X123845800Y-139119400D03*
%TO.N,Net-(J12-CC2)*%
X199245800Y-72119400D03*
%TO.N,Net-(J12-CC1)*%
X196229798Y-69447585D03*
%TO.N,Net-(J8-CC1)*%
X184895800Y-72369400D03*
%TO.N,Net-(J8-CC2)*%
X188145800Y-72269400D03*
D23*
%TO.N,/Payload_D+*%
X187206800Y-69519400D03*
X186145800Y-69519400D03*
D22*
%TO.N,WDT_DISABLE*%
X162645800Y-104119400D03*
%TO.N,SCL1*%
X131045800Y-127919400D03*
X152145800Y-109219400D03*
X150545800Y-109219400D03*
%TO.N,SDA1*%
X130645800Y-126019400D03*
X131999200Y-125959580D03*
%TD*%
%TA.AperFunction,Conductor*%
%TO.N,+3V3*%
G36*
X140597395Y-62419907D02*
G01*
X140598454Y-62419906D01*
X140598457Y-62419908D01*
X151844973Y-62417700D01*
X204719700Y-62417700D01*
X204787821Y-62437702D01*
X204834314Y-62491358D01*
X204845700Y-62543700D01*
X204845700Y-72757082D01*
X204876223Y-72830773D01*
X204876226Y-72830777D01*
X204932622Y-72887173D01*
X204932626Y-72887176D01*
X205006318Y-72917700D01*
X215219700Y-72917700D01*
X215287821Y-72937702D01*
X215334314Y-72991358D01*
X215345700Y-73043700D01*
X215345700Y-151390700D01*
X215325698Y-151458821D01*
X215272042Y-151505314D01*
X215219700Y-151516700D01*
X205006318Y-151516700D01*
X204932626Y-151547223D01*
X204932622Y-151547226D01*
X204876226Y-151603622D01*
X204876223Y-151603626D01*
X204845700Y-151677317D01*
X204845700Y-161890700D01*
X204825698Y-161958821D01*
X204772042Y-162005314D01*
X204719700Y-162016700D01*
X126372700Y-162016700D01*
X126304579Y-161996698D01*
X126258086Y-161943042D01*
X126246700Y-161890700D01*
X126246700Y-151677317D01*
X126216176Y-151603626D01*
X126216173Y-151603622D01*
X126159777Y-151547226D01*
X126159773Y-151547223D01*
X126086082Y-151516700D01*
X115872700Y-151516700D01*
X115804579Y-151496698D01*
X115758086Y-151443042D01*
X115746700Y-151390700D01*
X115746700Y-151009212D01*
X162627300Y-151009212D01*
X162627300Y-151369587D01*
X162667648Y-151727694D01*
X162674356Y-151757082D01*
X162747838Y-152079026D01*
X162747840Y-152079032D01*
X162747839Y-152079032D01*
X162866854Y-152419157D01*
X162866862Y-152419177D01*
X163023222Y-152743860D01*
X163023223Y-152743863D01*
X163214943Y-153048984D01*
X163214947Y-153048991D01*
X163439639Y-153330745D01*
X163694454Y-153585560D01*
X163976208Y-153810252D01*
X163976215Y-153810256D01*
X164281336Y-154001976D01*
X164281338Y-154001976D01*
X164281342Y-154001979D01*
X164606025Y-154158339D01*
X164606040Y-154158344D01*
X164606042Y-154158345D01*
X164946167Y-154277360D01*
X164946170Y-154277360D01*
X164946174Y-154277362D01*
X165297505Y-154357551D01*
X165297506Y-154357551D01*
X165297509Y-154357552D01*
X165508707Y-154381347D01*
X165655612Y-154397900D01*
X165655614Y-154397900D01*
X166015988Y-154397900D01*
X166106930Y-154387653D01*
X166374091Y-154357552D01*
X166725426Y-154277362D01*
X167065575Y-154158339D01*
X167390258Y-154001979D01*
X167695393Y-153810251D01*
X167977142Y-153585563D01*
X168231963Y-153330742D01*
X168456651Y-153048993D01*
X168648379Y-152743858D01*
X168804739Y-152419175D01*
X168923762Y-152079026D01*
X169003952Y-151727691D01*
X169044300Y-151369586D01*
X169044300Y-151009214D01*
X169003952Y-150651109D01*
X168923762Y-150299774D01*
X168804739Y-149959625D01*
X168648379Y-149634942D01*
X168648376Y-149634938D01*
X168648376Y-149634936D01*
X168456656Y-149329815D01*
X168456652Y-149329808D01*
X168231960Y-149048054D01*
X167977145Y-148793239D01*
X167695391Y-148568547D01*
X167695384Y-148568543D01*
X167390263Y-148376823D01*
X167390260Y-148376822D01*
X167065577Y-148220462D01*
X167065557Y-148220454D01*
X166725432Y-148101439D01*
X166374093Y-148021248D01*
X166374096Y-148021248D01*
X166015988Y-147980900D01*
X166015986Y-147980900D01*
X165655614Y-147980900D01*
X165655612Y-147980900D01*
X165297505Y-148021248D01*
X164946167Y-148101439D01*
X164606042Y-148220454D01*
X164606022Y-148220462D01*
X164281339Y-148376822D01*
X164281336Y-148376823D01*
X163976215Y-148568543D01*
X163976208Y-148568547D01*
X163694454Y-148793239D01*
X163439639Y-149048054D01*
X163214947Y-149329808D01*
X163214943Y-149329815D01*
X163023223Y-149634936D01*
X163023222Y-149634939D01*
X162866862Y-149959622D01*
X162866854Y-149959642D01*
X162747839Y-150299767D01*
X162667648Y-150651105D01*
X162627300Y-151009212D01*
X115746700Y-151009212D01*
X115746700Y-138540063D01*
X117037300Y-138540063D01*
X117037300Y-138719026D01*
X117040425Y-138734736D01*
X117070023Y-138883537D01*
X117072214Y-138894548D01*
X117078150Y-138908879D01*
X117140698Y-139059881D01*
X117240122Y-139208680D01*
X117366665Y-139335223D01*
X117515464Y-139434647D01*
X117680800Y-139503132D01*
X117856321Y-139538045D01*
X117856322Y-139538045D01*
X118035278Y-139538045D01*
X118035279Y-139538045D01*
X118210800Y-139503132D01*
X118376136Y-139434647D01*
X118524935Y-139335223D01*
X118651478Y-139208680D01*
X118750902Y-139059881D01*
X118819387Y-138894545D01*
X118854300Y-138719024D01*
X118854300Y-138540066D01*
X118819387Y-138364545D01*
X118750902Y-138199209D01*
X118651478Y-138050410D01*
X118524935Y-137923867D01*
X118376136Y-137824443D01*
X118376135Y-137824442D01*
X118370989Y-137821004D01*
X118371973Y-137819529D01*
X118327332Y-137775668D01*
X118311630Y-137706430D01*
X118335853Y-137639694D01*
X118389165Y-137597901D01*
X118537066Y-137536638D01*
X118685865Y-137437214D01*
X118812408Y-137310671D01*
X118911832Y-137161872D01*
X118980317Y-136996536D01*
X119015230Y-136821015D01*
X119015230Y-136642057D01*
X119012815Y-136629918D01*
X121717302Y-136629918D01*
X121717302Y-136808881D01*
X121719716Y-136821015D01*
X121752215Y-136984400D01*
X121820700Y-137149736D01*
X121920124Y-137298535D01*
X122046667Y-137425078D01*
X122195466Y-137524502D01*
X122200927Y-137527421D01*
X122200274Y-137528641D01*
X122250073Y-137568766D01*
X122272497Y-137636128D01*
X122254944Y-137704920D01*
X122243980Y-137720564D01*
X122240120Y-137725267D01*
X122140699Y-137874062D01*
X122072214Y-138039396D01*
X122037300Y-138214918D01*
X122037300Y-138214921D01*
X122037300Y-138393879D01*
X122072213Y-138569400D01*
X122140698Y-138734736D01*
X122240122Y-138883535D01*
X122366665Y-139010078D01*
X122515464Y-139109502D01*
X122652428Y-139166235D01*
X122680797Y-139177986D01*
X122680798Y-139177986D01*
X122680800Y-139177987D01*
X122856321Y-139212900D01*
X122858895Y-139213412D01*
X122921805Y-139246320D01*
X122956937Y-139308015D01*
X122957893Y-139312409D01*
X122972213Y-139384400D01*
X123040698Y-139549736D01*
X123140122Y-139698535D01*
X123266665Y-139825078D01*
X123415464Y-139924502D01*
X123580800Y-139992987D01*
X123756321Y-140027900D01*
X123756322Y-140027900D01*
X123935278Y-140027900D01*
X123935279Y-140027900D01*
X124110800Y-139992987D01*
X124276136Y-139924502D01*
X124424935Y-139825078D01*
X124513348Y-139736665D01*
X124575660Y-139702639D01*
X124627021Y-139702181D01*
X124756321Y-139727900D01*
X124756322Y-139727900D01*
X124935278Y-139727900D01*
X124935279Y-139727900D01*
X125110800Y-139692987D01*
X125276136Y-139624502D01*
X125424935Y-139525078D01*
X125551478Y-139398535D01*
X125650902Y-139249736D01*
X125719387Y-139084400D01*
X125754300Y-138908879D01*
X125754300Y-138729921D01*
X125719387Y-138554400D01*
X125650902Y-138389064D01*
X125551478Y-138240265D01*
X125424935Y-138113722D01*
X125276136Y-138014298D01*
X125159229Y-137965873D01*
X125110803Y-137945814D01*
X125110801Y-137945813D01*
X125110800Y-137945813D01*
X125022445Y-137928238D01*
X124935281Y-137910900D01*
X124935279Y-137910900D01*
X124756321Y-137910900D01*
X124756318Y-137910900D01*
X124625571Y-137936907D01*
X124580800Y-137945813D01*
X124580799Y-137945813D01*
X124580796Y-137945814D01*
X124415462Y-138014299D01*
X124266669Y-138113719D01*
X124266661Y-138113725D01*
X124178250Y-138202135D01*
X124171170Y-138206000D01*
X124166453Y-138212543D01*
X124140457Y-138222771D01*
X124115938Y-138236160D01*
X124106209Y-138236246D01*
X124100386Y-138238538D01*
X124064574Y-138236618D01*
X123932703Y-138210387D01*
X123869794Y-138177479D01*
X123834662Y-138115784D01*
X123833706Y-138111389D01*
X123819387Y-138039400D01*
X123819385Y-138039397D01*
X123819385Y-138039393D01*
X123756688Y-137888033D01*
X123749098Y-137817444D01*
X123780876Y-137753956D01*
X123841934Y-137717728D01*
X123897676Y-137716235D01*
X123956321Y-137727900D01*
X123956322Y-137727900D01*
X124135278Y-137727900D01*
X124135279Y-137727900D01*
X124310800Y-137692987D01*
X124476136Y-137624502D01*
X124624935Y-137525078D01*
X124751478Y-137398535D01*
X124850902Y-137249736D01*
X124919387Y-137084400D01*
X124954300Y-136908879D01*
X124954300Y-136729921D01*
X124919387Y-136554400D01*
X124850902Y-136389064D01*
X124751478Y-136240265D01*
X124624935Y-136113722D01*
X124598753Y-136096228D01*
X124478448Y-136015843D01*
X124476137Y-136014299D01*
X124476138Y-136014299D01*
X124476136Y-136014298D01*
X124359229Y-135965873D01*
X124310803Y-135945814D01*
X124310801Y-135945813D01*
X124310800Y-135945813D01*
X124222445Y-135928238D01*
X124167280Y-135917265D01*
X128374647Y-135917265D01*
X128374647Y-136096228D01*
X128391985Y-136183392D01*
X128409560Y-136271747D01*
X128478045Y-136437083D01*
X128577469Y-136585882D01*
X128704012Y-136712425D01*
X128852811Y-136811849D01*
X129018147Y-136880334D01*
X129193668Y-136915247D01*
X129193669Y-136915247D01*
X129372625Y-136915247D01*
X129372626Y-136915247D01*
X129548147Y-136880334D01*
X129713483Y-136811849D01*
X129862282Y-136712425D01*
X129988825Y-136585882D01*
X130088249Y-136437083D01*
X130156734Y-136271747D01*
X130191647Y-136096226D01*
X130191647Y-135917268D01*
X130156734Y-135741747D01*
X130088249Y-135576411D01*
X129988825Y-135427612D01*
X129862282Y-135301069D01*
X129713483Y-135201645D01*
X129596576Y-135153220D01*
X129548150Y-135133161D01*
X129548148Y-135133160D01*
X129548147Y-135133160D01*
X129457227Y-135115075D01*
X129372628Y-135098247D01*
X129372626Y-135098247D01*
X129193668Y-135098247D01*
X129193665Y-135098247D01*
X129062918Y-135124254D01*
X129018147Y-135133160D01*
X129018146Y-135133160D01*
X129018143Y-135133161D01*
X128852809Y-135201646D01*
X128704016Y-135301066D01*
X128704009Y-135301071D01*
X128577471Y-135427609D01*
X128577466Y-135427616D01*
X128478046Y-135576409D01*
X128409561Y-135741743D01*
X128409560Y-135741746D01*
X128409560Y-135741747D01*
X128400654Y-135786518D01*
X128374647Y-135917265D01*
X124167280Y-135917265D01*
X124135281Y-135910900D01*
X124135279Y-135910900D01*
X123956321Y-135910900D01*
X123956318Y-135910900D01*
X123825571Y-135936907D01*
X123780800Y-135945813D01*
X123780799Y-135945813D01*
X123780796Y-135945814D01*
X123649702Y-136000116D01*
X123616860Y-136013720D01*
X123615462Y-136014299D01*
X123466654Y-136113729D01*
X123466092Y-136114191D01*
X123465740Y-136114340D01*
X123461519Y-136117161D01*
X123460983Y-136116359D01*
X123400739Y-136141930D01*
X123330763Y-136129933D01*
X123297085Y-136105870D01*
X123287439Y-136096224D01*
X123204937Y-136013722D01*
X123056138Y-135914298D01*
X122920101Y-135857949D01*
X122890805Y-135845814D01*
X122890803Y-135845813D01*
X122890802Y-135845813D01*
X122802447Y-135828238D01*
X122715283Y-135810900D01*
X122715281Y-135810900D01*
X122536323Y-135810900D01*
X122536320Y-135810900D01*
X122431899Y-135831671D01*
X122360802Y-135845813D01*
X122360801Y-135845813D01*
X122360798Y-135845814D01*
X122230064Y-135899967D01*
X122203670Y-135910900D01*
X122195464Y-135914299D01*
X122046671Y-136013719D01*
X122046664Y-136013724D01*
X121920126Y-136140262D01*
X121920121Y-136140269D01*
X121820701Y-136289062D01*
X121752216Y-136454396D01*
X121717302Y-136629918D01*
X119012815Y-136629918D01*
X118980317Y-136466536D01*
X118911832Y-136301200D01*
X118812408Y-136152401D01*
X118685865Y-136025858D01*
X118610460Y-135975474D01*
X118537065Y-135926433D01*
X118473172Y-135899967D01*
X118417892Y-135855418D01*
X118395472Y-135788054D01*
X118413031Y-135719263D01*
X118464994Y-135670886D01*
X118473159Y-135667156D01*
X118576136Y-135624502D01*
X118724935Y-135525078D01*
X118851478Y-135398535D01*
X118950902Y-135249736D01*
X119019387Y-135084400D01*
X119054300Y-134908879D01*
X119054300Y-134729921D01*
X119019387Y-134554400D01*
X118950902Y-134389064D01*
X118904700Y-134319918D01*
X120627300Y-134319918D01*
X120627300Y-134498881D01*
X120638343Y-134554396D01*
X120662213Y-134674400D01*
X120730698Y-134839736D01*
X120830122Y-134988535D01*
X120956665Y-135115078D01*
X121105464Y-135214502D01*
X121270800Y-135282987D01*
X121446321Y-135317900D01*
X121446322Y-135317900D01*
X121625278Y-135317900D01*
X121625279Y-135317900D01*
X121800800Y-135282987D01*
X121966136Y-135214502D01*
X122114935Y-135115078D01*
X122241478Y-134988535D01*
X122340902Y-134839736D01*
X122409387Y-134674400D01*
X122444300Y-134498879D01*
X122444300Y-134329918D01*
X126737300Y-134329918D01*
X126737300Y-134508881D01*
X126754638Y-134596045D01*
X126772213Y-134684400D01*
X126840698Y-134849736D01*
X126940122Y-134998535D01*
X127066665Y-135125078D01*
X127215464Y-135224502D01*
X127380800Y-135292987D01*
X127556321Y-135327900D01*
X127556322Y-135327900D01*
X127735278Y-135327900D01*
X127735279Y-135327900D01*
X127910800Y-135292987D01*
X128076136Y-135224502D01*
X128224935Y-135125078D01*
X128351478Y-134998535D01*
X128450902Y-134849736D01*
X128519387Y-134684400D01*
X128554300Y-134508879D01*
X128554300Y-134329921D01*
X128519387Y-134154400D01*
X128450902Y-133989064D01*
X128351478Y-133840265D01*
X128224935Y-133713722D01*
X128076136Y-133614298D01*
X127959229Y-133565873D01*
X127910803Y-133545814D01*
X127910801Y-133545813D01*
X127910800Y-133545813D01*
X127822445Y-133528238D01*
X127735281Y-133510900D01*
X127735279Y-133510900D01*
X127556321Y-133510900D01*
X127556318Y-133510900D01*
X127431074Y-133535813D01*
X127380800Y-133545813D01*
X127380799Y-133545813D01*
X127380796Y-133545814D01*
X127215462Y-133614299D01*
X127066669Y-133713719D01*
X127066662Y-133713724D01*
X126940124Y-133840262D01*
X126940119Y-133840269D01*
X126840699Y-133989062D01*
X126772214Y-134154396D01*
X126737300Y-134329918D01*
X122444300Y-134329918D01*
X122444300Y-134319921D01*
X122409387Y-134144400D01*
X122340902Y-133979064D01*
X122241478Y-133830265D01*
X122114935Y-133703722D01*
X121966136Y-133604298D01*
X121849229Y-133555873D01*
X121800803Y-133535814D01*
X121800801Y-133535813D01*
X121800800Y-133535813D01*
X121712445Y-133518238D01*
X121625281Y-133500900D01*
X121625279Y-133500900D01*
X121446321Y-133500900D01*
X121446318Y-133500900D01*
X121315571Y-133526907D01*
X121270800Y-133535813D01*
X121270799Y-133535813D01*
X121270796Y-133535814D01*
X121105462Y-133604299D01*
X120956669Y-133703719D01*
X120956662Y-133703724D01*
X120830124Y-133830262D01*
X120830119Y-133830269D01*
X120730699Y-133979062D01*
X120662214Y-134144396D01*
X120627300Y-134319918D01*
X118904700Y-134319918D01*
X118851478Y-134240265D01*
X118724935Y-134113722D01*
X118576136Y-134014298D01*
X118459229Y-133965873D01*
X118410803Y-133945814D01*
X118410801Y-133945813D01*
X118410800Y-133945813D01*
X118322445Y-133928238D01*
X118235281Y-133910900D01*
X118235279Y-133910900D01*
X118056321Y-133910900D01*
X118056318Y-133910900D01*
X117925571Y-133936907D01*
X117880800Y-133945813D01*
X117880799Y-133945813D01*
X117880796Y-133945814D01*
X117715462Y-134014299D01*
X117566669Y-134113719D01*
X117566662Y-134113724D01*
X117440124Y-134240262D01*
X117440119Y-134240269D01*
X117340699Y-134389062D01*
X117272214Y-134554396D01*
X117237300Y-134729918D01*
X117237300Y-134908881D01*
X117272214Y-135084403D01*
X117289063Y-135125080D01*
X117340698Y-135249736D01*
X117440122Y-135398535D01*
X117566665Y-135525078D01*
X117643488Y-135576409D01*
X117715464Y-135624502D01*
X117715468Y-135624504D01*
X117779356Y-135650968D01*
X117834637Y-135695516D01*
X117857057Y-135762880D01*
X117839498Y-135831671D01*
X117787536Y-135880049D01*
X117779356Y-135883784D01*
X117676399Y-135926431D01*
X117676394Y-135926433D01*
X117527599Y-136025855D01*
X117527592Y-136025860D01*
X117401054Y-136152398D01*
X117401049Y-136152405D01*
X117301629Y-136301198D01*
X117233144Y-136466532D01*
X117198230Y-136642054D01*
X117198230Y-136642057D01*
X117198230Y-136821015D01*
X117233143Y-136996536D01*
X117301628Y-137161872D01*
X117401052Y-137310671D01*
X117527595Y-137437214D01*
X117620511Y-137499298D01*
X117681541Y-137540077D01*
X117680554Y-137541553D01*
X117725190Y-137585400D01*
X117740900Y-137654637D01*
X117716684Y-137721376D01*
X117663365Y-137763178D01*
X117515469Y-137824440D01*
X117515464Y-137824442D01*
X117366669Y-137923864D01*
X117366662Y-137923869D01*
X117240124Y-138050407D01*
X117240119Y-138050414D01*
X117196441Y-138115784D01*
X117140698Y-138199209D01*
X117135175Y-138212543D01*
X117072214Y-138364541D01*
X117037300Y-138540063D01*
X115746700Y-138540063D01*
X115746700Y-126529918D01*
X125037300Y-126529918D01*
X125037300Y-126708881D01*
X125042736Y-126736207D01*
X125072213Y-126884400D01*
X125140698Y-127049736D01*
X125240122Y-127198535D01*
X125366665Y-127325078D01*
X125515464Y-127424502D01*
X125680800Y-127492987D01*
X125856321Y-127527900D01*
X125856322Y-127527900D01*
X126035278Y-127527900D01*
X126035279Y-127527900D01*
X126210800Y-127492987D01*
X126376136Y-127424502D01*
X126524935Y-127325078D01*
X126651478Y-127198535D01*
X126750902Y-127049736D01*
X126819387Y-126884400D01*
X126854300Y-126708879D01*
X126854300Y-126529921D01*
X126854299Y-126529919D01*
X126854299Y-126529914D01*
X126851844Y-126517571D01*
X128912300Y-126517571D01*
X128912300Y-126696534D01*
X128920192Y-126736207D01*
X128946685Y-126869400D01*
X128947214Y-126872056D01*
X128953733Y-126887793D01*
X129015698Y-127037389D01*
X129115122Y-127186188D01*
X129241665Y-127312731D01*
X129390464Y-127412155D01*
X129555800Y-127480640D01*
X129731321Y-127515553D01*
X129731322Y-127515553D01*
X129910278Y-127515553D01*
X129910279Y-127515553D01*
X130027677Y-127492201D01*
X130098390Y-127498529D01*
X130154458Y-127542083D01*
X130178077Y-127609035D01*
X130173324Y-127648310D01*
X130173421Y-127648330D01*
X130173169Y-127649596D01*
X130172837Y-127652341D01*
X130172215Y-127654391D01*
X130137300Y-127829918D01*
X130137300Y-127829921D01*
X130137300Y-128008879D01*
X130172213Y-128184400D01*
X130240698Y-128349736D01*
X130340122Y-128498535D01*
X130466665Y-128625078D01*
X130615464Y-128724502D01*
X130780800Y-128792987D01*
X130956321Y-128827900D01*
X130956322Y-128827900D01*
X131135278Y-128827900D01*
X131135279Y-128827900D01*
X131310800Y-128792987D01*
X131476136Y-128724502D01*
X131624935Y-128625078D01*
X131751478Y-128498535D01*
X131850902Y-128349736D01*
X131919387Y-128184400D01*
X131954300Y-128008879D01*
X131954300Y-127829921D01*
X131919387Y-127654400D01*
X131850902Y-127489064D01*
X131751478Y-127340265D01*
X131624935Y-127213722D01*
X131476136Y-127114298D01*
X131310800Y-127045813D01*
X131252625Y-127034241D01*
X131173079Y-127018418D01*
X131156894Y-127009951D01*
X131138991Y-127006346D01*
X131126091Y-126993838D01*
X131110169Y-126985510D01*
X131101131Y-126969638D01*
X131088020Y-126956926D01*
X131083929Y-126939430D01*
X131075038Y-126923815D01*
X131076015Y-126905577D01*
X131071858Y-126887793D01*
X131077877Y-126870860D01*
X131077955Y-126869400D01*
X132885800Y-126869400D01*
X132885800Y-145539400D01*
X197915800Y-145539400D01*
X197915800Y-126869400D01*
X168609418Y-126869400D01*
X168541297Y-126849398D01*
X168494804Y-126795742D01*
X168484700Y-126725468D01*
X168507482Y-126669339D01*
X168510449Y-126665255D01*
X168607694Y-126531409D01*
X168704772Y-126340883D01*
X168770849Y-126137516D01*
X168804300Y-125926316D01*
X168804300Y-125712484D01*
X168770849Y-125501284D01*
X168704772Y-125297917D01*
X168607694Y-125107391D01*
X168482006Y-124934396D01*
X168482003Y-124934393D01*
X168482001Y-124934390D01*
X168330809Y-124783198D01*
X168330806Y-124783196D01*
X168330804Y-124783194D01*
X168176843Y-124671335D01*
X168133490Y-124615114D01*
X168127415Y-124544378D01*
X168160546Y-124481586D01*
X168176844Y-124467464D01*
X168330804Y-124355606D01*
X168482006Y-124204404D01*
X168607694Y-124031409D01*
X168704772Y-123840883D01*
X168770849Y-123637516D01*
X168804300Y-123426316D01*
X168804300Y-123212484D01*
X168770849Y-123001284D01*
X168704772Y-122797917D01*
X168607694Y-122607391D01*
X168482006Y-122434396D01*
X168482003Y-122434393D01*
X168482001Y-122434390D01*
X168330809Y-122283198D01*
X168330806Y-122283196D01*
X168330804Y-122283194D01*
X168157809Y-122157506D01*
X167967283Y-122060428D01*
X167967280Y-122060427D01*
X167967278Y-122060426D01*
X167763920Y-121994352D01*
X167763923Y-121994352D01*
X167724601Y-121988124D01*
X167552716Y-121960900D01*
X167338884Y-121960900D01*
X167136309Y-121992985D01*
X167127678Y-121994352D01*
X166924321Y-122060426D01*
X166924315Y-122060429D01*
X166733787Y-122157508D01*
X166560793Y-122283196D01*
X166560790Y-122283198D01*
X166409598Y-122434390D01*
X166409596Y-122434393D01*
X166297736Y-122588355D01*
X166241514Y-122631709D01*
X166170777Y-122637784D01*
X166107986Y-122604652D01*
X166093864Y-122588355D01*
X166041989Y-122516956D01*
X165982006Y-122434396D01*
X165982003Y-122434393D01*
X165982001Y-122434390D01*
X165830809Y-122283198D01*
X165830806Y-122283196D01*
X165830804Y-122283194D01*
X165657809Y-122157506D01*
X165467283Y-122060428D01*
X165467280Y-122060427D01*
X165467278Y-122060426D01*
X165263920Y-121994352D01*
X165263923Y-121994352D01*
X165224601Y-121988124D01*
X165052716Y-121960900D01*
X164838884Y-121960900D01*
X164636309Y-121992985D01*
X164627678Y-121994352D01*
X164424321Y-122060426D01*
X164424315Y-122060429D01*
X164233787Y-122157508D01*
X164060793Y-122283196D01*
X164060790Y-122283198D01*
X163909598Y-122434390D01*
X163909596Y-122434393D01*
X163783908Y-122607387D01*
X163686829Y-122797915D01*
X163686826Y-122797921D01*
X163620752Y-123001278D01*
X163620751Y-123001283D01*
X163620751Y-123001284D01*
X163587300Y-123212484D01*
X163587300Y-123426316D01*
X163619228Y-123627899D01*
X163620752Y-123637521D01*
X163686826Y-123840878D01*
X163686828Y-123840883D01*
X163783906Y-124031409D01*
X163909594Y-124204404D01*
X163909596Y-124204406D01*
X163909598Y-124204409D01*
X164060790Y-124355601D01*
X164060793Y-124355603D01*
X164060796Y-124355606D01*
X164111856Y-124392703D01*
X164214755Y-124467464D01*
X164258109Y-124523686D01*
X164264184Y-124594423D01*
X164231052Y-124657214D01*
X164214755Y-124671336D01*
X164060793Y-124783196D01*
X164060790Y-124783198D01*
X163909598Y-124934390D01*
X163909596Y-124934393D01*
X163783908Y-125107387D01*
X163686829Y-125297915D01*
X163686826Y-125297921D01*
X163620752Y-125501278D01*
X163620751Y-125501283D01*
X163620751Y-125501284D01*
X163587300Y-125712484D01*
X163587300Y-125926316D01*
X163606741Y-126049059D01*
X163620752Y-126137521D01*
X163677151Y-126311101D01*
X163686828Y-126340883D01*
X163783906Y-126531409D01*
X163783908Y-126531412D01*
X163808428Y-126565161D01*
X163880067Y-126663764D01*
X163884118Y-126669339D01*
X163907977Y-126736207D01*
X163891896Y-126805358D01*
X163840982Y-126854838D01*
X163782182Y-126869400D01*
X159271216Y-126869400D01*
X159203095Y-126849398D01*
X159156602Y-126795742D01*
X159146498Y-126725468D01*
X159175992Y-126660888D01*
X159195707Y-126642532D01*
X159299061Y-126565161D01*
X159386687Y-126448107D01*
X159386687Y-126448106D01*
X159386689Y-126448104D01*
X159437789Y-126311101D01*
X159444300Y-126250538D01*
X159444300Y-124453262D01*
X159441208Y-124424500D01*
X159437790Y-124392703D01*
X159437788Y-124392695D01*
X159418295Y-124340433D01*
X159413229Y-124269617D01*
X159447254Y-124207305D01*
X159509566Y-124173280D01*
X159536350Y-124170400D01*
X160544432Y-124170400D01*
X160544438Y-124170400D01*
X160544445Y-124170399D01*
X160544449Y-124170399D01*
X160604996Y-124163890D01*
X160604999Y-124163889D01*
X160605001Y-124163889D01*
X160742004Y-124112789D01*
X160859061Y-124025161D01*
X160877963Y-123999911D01*
X160946687Y-123908107D01*
X160946687Y-123908106D01*
X160946689Y-123908104D01*
X160997789Y-123771101D01*
X161004300Y-123710538D01*
X161004300Y-121913262D01*
X161004299Y-121913250D01*
X160997790Y-121852703D01*
X160997788Y-121852695D01*
X160968724Y-121774775D01*
X160946689Y-121715696D01*
X160946688Y-121715694D01*
X160946687Y-121715692D01*
X160859061Y-121598638D01*
X160742007Y-121511012D01*
X160742002Y-121511010D01*
X160605004Y-121459911D01*
X160604996Y-121459909D01*
X160544449Y-121453400D01*
X160544438Y-121453400D01*
X158747162Y-121453400D01*
X158747150Y-121453400D01*
X158686603Y-121459909D01*
X158686595Y-121459911D01*
X158549597Y-121511010D01*
X158549592Y-121511012D01*
X158432538Y-121598638D01*
X158344912Y-121715692D01*
X158344910Y-121715697D01*
X158293811Y-121852695D01*
X158293809Y-121852703D01*
X158287300Y-121913250D01*
X158287300Y-123710549D01*
X158293809Y-123771096D01*
X158293811Y-123771104D01*
X158313305Y-123823367D01*
X158318371Y-123894183D01*
X158284346Y-123956495D01*
X158222034Y-123990520D01*
X158195250Y-123993400D01*
X157187150Y-123993400D01*
X157126603Y-123999909D01*
X157126595Y-123999911D01*
X156989597Y-124051010D01*
X156989592Y-124051012D01*
X156891309Y-124124587D01*
X156824789Y-124149398D01*
X156755415Y-124134307D01*
X156740291Y-124124587D01*
X156642007Y-124051012D01*
X156642002Y-124051010D01*
X156505004Y-123999911D01*
X156504996Y-123999909D01*
X156444449Y-123993400D01*
X156444438Y-123993400D01*
X155726350Y-123993400D01*
X155658229Y-123973398D01*
X155611736Y-123919742D01*
X155601632Y-123849468D01*
X155608295Y-123823367D01*
X155627788Y-123771104D01*
X155627790Y-123771096D01*
X155634299Y-123710549D01*
X155634300Y-123710532D01*
X155634300Y-121913267D01*
X155634299Y-121913250D01*
X155627790Y-121852703D01*
X155627788Y-121852695D01*
X155598724Y-121774775D01*
X155576689Y-121715696D01*
X155576688Y-121715694D01*
X155576687Y-121715692D01*
X155489061Y-121598638D01*
X155372007Y-121511012D01*
X155372002Y-121511010D01*
X155235004Y-121459911D01*
X155234996Y-121459909D01*
X155174449Y-121453400D01*
X155174438Y-121453400D01*
X153377162Y-121453400D01*
X153377150Y-121453400D01*
X153316603Y-121459909D01*
X153316595Y-121459911D01*
X153179597Y-121511010D01*
X153179592Y-121511012D01*
X153062538Y-121598638D01*
X152974912Y-121715692D01*
X152974910Y-121715697D01*
X152923811Y-121852695D01*
X152923809Y-121852703D01*
X152917300Y-121913250D01*
X152917300Y-123710549D01*
X152923809Y-123771096D01*
X152923811Y-123771104D01*
X152974910Y-123908102D01*
X152974912Y-123908107D01*
X153062538Y-124025161D01*
X153179592Y-124112787D01*
X153179594Y-124112788D01*
X153179596Y-124112789D01*
X153237287Y-124134307D01*
X153316595Y-124163888D01*
X153316603Y-124163890D01*
X153377150Y-124170399D01*
X153377155Y-124170399D01*
X153377162Y-124170400D01*
X154095250Y-124170400D01*
X154163371Y-124190402D01*
X154209864Y-124244058D01*
X154219968Y-124314332D01*
X154213305Y-124340433D01*
X154193811Y-124392695D01*
X154193809Y-124392703D01*
X154187300Y-124453250D01*
X154187300Y-126250549D01*
X154193809Y-126311096D01*
X154193811Y-126311104D01*
X154244910Y-126448102D01*
X154244912Y-126448107D01*
X154332538Y-126565161D01*
X154435893Y-126642532D01*
X154478440Y-126699368D01*
X154483504Y-126770184D01*
X154449479Y-126832496D01*
X154387167Y-126866521D01*
X154360384Y-126869400D01*
X132885800Y-126869400D01*
X131077955Y-126869400D01*
X131078839Y-126852920D01*
X131089520Y-126838107D01*
X131095638Y-126820898D01*
X131116209Y-126801095D01*
X131120364Y-126795334D01*
X131120603Y-126795150D01*
X131124035Y-126792496D01*
X131224935Y-126725078D01*
X131271518Y-126678494D01*
X131277870Y-126673585D01*
X131303751Y-126663473D01*
X131328143Y-126650154D01*
X131336342Y-126650740D01*
X131343999Y-126647749D01*
X131371241Y-126653235D01*
X131398959Y-126655218D01*
X131410559Y-126661155D01*
X131413598Y-126661767D01*
X131415657Y-126663764D01*
X131424929Y-126668509D01*
X131568859Y-126764679D01*
X131568860Y-126764680D01*
X131568862Y-126764681D01*
X131568864Y-126764682D01*
X131734200Y-126833167D01*
X131909721Y-126868080D01*
X131909722Y-126868080D01*
X132088678Y-126868080D01*
X132088679Y-126868080D01*
X132264200Y-126833167D01*
X132429536Y-126764682D01*
X132578335Y-126665258D01*
X132704878Y-126538715D01*
X132804302Y-126389916D01*
X132872787Y-126224580D01*
X132907700Y-126049059D01*
X132907700Y-125870101D01*
X132872787Y-125694580D01*
X132804302Y-125529244D01*
X132704878Y-125380445D01*
X132578335Y-125253902D01*
X132429536Y-125154478D01*
X132312629Y-125106053D01*
X132264203Y-125085994D01*
X132264201Y-125085993D01*
X132264200Y-125085993D01*
X132175845Y-125068418D01*
X132088681Y-125051080D01*
X132088679Y-125051080D01*
X131909721Y-125051080D01*
X131909718Y-125051080D01*
X131778971Y-125077087D01*
X131734200Y-125085993D01*
X131734199Y-125085993D01*
X131734196Y-125085994D01*
X131568862Y-125154479D01*
X131420069Y-125253899D01*
X131420061Y-125253905D01*
X131379165Y-125294801D01*
X131316853Y-125328826D01*
X131246037Y-125323760D01*
X131220070Y-125310471D01*
X131076136Y-125214298D01*
X130910803Y-125145814D01*
X130910801Y-125145813D01*
X130910800Y-125145813D01*
X130822445Y-125128238D01*
X130735281Y-125110900D01*
X130735279Y-125110900D01*
X130556321Y-125110900D01*
X130556318Y-125110900D01*
X130425571Y-125136907D01*
X130380800Y-125145813D01*
X130380799Y-125145813D01*
X130380796Y-125145814D01*
X130215462Y-125214299D01*
X130066669Y-125313719D01*
X130066662Y-125313724D01*
X129940124Y-125440262D01*
X129940119Y-125440269D01*
X129840697Y-125589064D01*
X129840697Y-125589065D01*
X129826867Y-125622453D01*
X129782318Y-125677733D01*
X129735041Y-125697812D01*
X129605456Y-125723588D01*
X129555800Y-125733466D01*
X129555798Y-125733466D01*
X129555797Y-125733467D01*
X129390462Y-125801952D01*
X129241669Y-125901372D01*
X129241662Y-125901377D01*
X129115124Y-126027915D01*
X129115119Y-126027922D01*
X129100995Y-126049061D01*
X129015698Y-126176717D01*
X129010584Y-126189064D01*
X128947214Y-126342049D01*
X128912300Y-126517571D01*
X126851844Y-126517571D01*
X126838026Y-126448107D01*
X126819387Y-126354400D01*
X126750902Y-126189064D01*
X126651478Y-126040265D01*
X126524935Y-125913722D01*
X126376136Y-125814298D01*
X126259229Y-125765873D01*
X126210803Y-125745814D01*
X126210801Y-125745813D01*
X126210800Y-125745813D01*
X126122445Y-125728238D01*
X126035281Y-125710900D01*
X126035279Y-125710900D01*
X125856321Y-125710900D01*
X125856318Y-125710900D01*
X125742873Y-125733466D01*
X125680800Y-125745813D01*
X125680799Y-125745813D01*
X125680796Y-125745814D01*
X125515462Y-125814299D01*
X125366669Y-125913719D01*
X125366662Y-125913724D01*
X125240124Y-126040262D01*
X125240119Y-126040269D01*
X125140699Y-126189062D01*
X125072214Y-126354396D01*
X125072213Y-126354399D01*
X125072213Y-126354400D01*
X125065148Y-126389917D01*
X125037300Y-126529918D01*
X115746700Y-126529918D01*
X115746700Y-122529918D01*
X124837300Y-122529918D01*
X124837300Y-122708881D01*
X124844647Y-122745814D01*
X124857191Y-122808881D01*
X124872214Y-122884403D01*
X124892273Y-122932829D01*
X124940698Y-123049736D01*
X125040122Y-123198535D01*
X125166665Y-123325078D01*
X125315464Y-123424502D01*
X125480800Y-123492987D01*
X125656321Y-123527900D01*
X125656322Y-123527900D01*
X125835278Y-123527900D01*
X125835279Y-123527900D01*
X126010800Y-123492987D01*
X126176136Y-123424502D01*
X126324935Y-123325078D01*
X126451478Y-123198535D01*
X126495163Y-123133155D01*
X129439458Y-123133155D01*
X129439458Y-123312118D01*
X129474372Y-123487640D01*
X129491886Y-123529921D01*
X129542856Y-123652973D01*
X129642280Y-123801772D01*
X129768823Y-123928315D01*
X129917622Y-124027739D01*
X130082958Y-124096224D01*
X130258479Y-124131137D01*
X130258480Y-124131137D01*
X130437436Y-124131137D01*
X130437437Y-124131137D01*
X130612958Y-124096224D01*
X130778294Y-124027739D01*
X130927093Y-123928315D01*
X131053636Y-123801772D01*
X131153060Y-123652973D01*
X131204031Y-123529918D01*
X132937300Y-123529918D01*
X132937300Y-123708881D01*
X132972214Y-123884403D01*
X132982033Y-123908107D01*
X133040698Y-124049736D01*
X133140122Y-124198535D01*
X133266665Y-124325078D01*
X133415464Y-124424502D01*
X133580800Y-124492987D01*
X133756321Y-124527900D01*
X133756322Y-124527900D01*
X133935278Y-124527900D01*
X133935279Y-124527900D01*
X134110800Y-124492987D01*
X134276136Y-124424502D01*
X134424935Y-124325078D01*
X134551478Y-124198535D01*
X134650902Y-124049736D01*
X134719387Y-123884400D01*
X134754300Y-123708879D01*
X134754300Y-123529921D01*
X134719387Y-123354400D01*
X134650902Y-123189064D01*
X134551478Y-123040265D01*
X134424935Y-122913722D01*
X134276136Y-122814298D01*
X134159229Y-122765873D01*
X134110803Y-122745814D01*
X134110801Y-122745813D01*
X134110800Y-122745813D01*
X134022445Y-122728238D01*
X133935281Y-122710900D01*
X133935279Y-122710900D01*
X133756321Y-122710900D01*
X133756318Y-122710900D01*
X133625571Y-122736907D01*
X133580800Y-122745813D01*
X133580799Y-122745813D01*
X133580796Y-122745814D01*
X133497522Y-122780308D01*
X133428552Y-122808877D01*
X133415462Y-122814299D01*
X133266669Y-122913719D01*
X133266662Y-122913724D01*
X133140124Y-123040262D01*
X133140119Y-123040269D01*
X133040699Y-123189062D01*
X132972214Y-123354396D01*
X132937300Y-123529918D01*
X131204031Y-123529918D01*
X131221545Y-123487637D01*
X131256458Y-123312116D01*
X131256458Y-123133158D01*
X131221545Y-122957637D01*
X131153060Y-122792301D01*
X131053636Y-122643502D01*
X131040052Y-122629918D01*
X139737300Y-122629918D01*
X139737300Y-122808881D01*
X139772214Y-122984403D01*
X139792273Y-123032829D01*
X139840698Y-123149736D01*
X139940122Y-123298535D01*
X140066665Y-123425078D01*
X140215464Y-123524502D01*
X140380800Y-123592987D01*
X140556321Y-123627900D01*
X140556322Y-123627900D01*
X140735278Y-123627900D01*
X140735279Y-123627900D01*
X140910800Y-123592987D01*
X141076136Y-123524502D01*
X141224935Y-123425078D01*
X141351478Y-123298535D01*
X141450902Y-123149736D01*
X141519387Y-122984400D01*
X141554300Y-122808879D01*
X141554300Y-122629921D01*
X141519387Y-122454400D01*
X141450902Y-122289064D01*
X141351478Y-122140265D01*
X141224935Y-122013722D01*
X141076136Y-121914298D01*
X140927434Y-121852703D01*
X140910803Y-121845814D01*
X140910801Y-121845813D01*
X140910800Y-121845813D01*
X140822445Y-121828238D01*
X140735281Y-121810900D01*
X140735279Y-121810900D01*
X140556321Y-121810900D01*
X140556318Y-121810900D01*
X140425571Y-121836907D01*
X140380800Y-121845813D01*
X140380799Y-121845813D01*
X140380796Y-121845814D01*
X140215462Y-121914299D01*
X140066669Y-122013719D01*
X140066662Y-122013724D01*
X139940124Y-122140262D01*
X139940119Y-122140269D01*
X139840699Y-122289062D01*
X139772214Y-122454396D01*
X139737300Y-122629918D01*
X131040052Y-122629918D01*
X130927093Y-122516959D01*
X130778294Y-122417535D01*
X130625874Y-122354400D01*
X130612961Y-122349051D01*
X130612959Y-122349050D01*
X130612958Y-122349050D01*
X130524603Y-122331475D01*
X130437439Y-122314137D01*
X130437437Y-122314137D01*
X130258479Y-122314137D01*
X130258476Y-122314137D01*
X130127729Y-122340144D01*
X130082958Y-122349050D01*
X130082957Y-122349050D01*
X130082954Y-122349051D01*
X129917620Y-122417536D01*
X129768827Y-122516956D01*
X129768820Y-122516961D01*
X129642282Y-122643499D01*
X129642277Y-122643506D01*
X129573918Y-122745814D01*
X129542856Y-122792301D01*
X129533744Y-122814299D01*
X129474372Y-122957633D01*
X129439458Y-123133155D01*
X126495163Y-123133155D01*
X126550902Y-123049736D01*
X126619387Y-122884400D01*
X126654300Y-122708879D01*
X126654300Y-122529921D01*
X126619387Y-122354400D01*
X126550902Y-122189064D01*
X126451478Y-122040265D01*
X126324935Y-121913722D01*
X126176136Y-121814298D01*
X126059229Y-121765873D01*
X126010803Y-121745814D01*
X126010801Y-121745813D01*
X126010800Y-121745813D01*
X125922445Y-121728238D01*
X125835281Y-121710900D01*
X125835279Y-121710900D01*
X125656321Y-121710900D01*
X125656318Y-121710900D01*
X125525571Y-121736907D01*
X125480800Y-121745813D01*
X125480799Y-121745813D01*
X125480796Y-121745814D01*
X125349702Y-121800116D01*
X125323668Y-121810900D01*
X125315462Y-121814299D01*
X125166669Y-121913719D01*
X125166662Y-121913724D01*
X125040124Y-122040262D01*
X125040119Y-122040269D01*
X124940699Y-122189062D01*
X124872214Y-122354396D01*
X124837300Y-122529918D01*
X115746700Y-122529918D01*
X115746700Y-121029918D01*
X137837300Y-121029918D01*
X137837300Y-121029921D01*
X137837300Y-121208879D01*
X137872213Y-121384400D01*
X137940698Y-121549736D01*
X138040122Y-121698535D01*
X138166665Y-121825078D01*
X138315464Y-121924502D01*
X138480800Y-121992987D01*
X138656321Y-122027900D01*
X138656322Y-122027900D01*
X138835278Y-122027900D01*
X138835279Y-122027900D01*
X139010800Y-121992987D01*
X139176136Y-121924502D01*
X139324935Y-121825078D01*
X139451478Y-121698535D01*
X139550902Y-121549736D01*
X139619387Y-121384400D01*
X139654300Y-121208879D01*
X139654300Y-121029921D01*
X139619387Y-120854400D01*
X139550902Y-120689064D01*
X139451478Y-120540265D01*
X139324935Y-120413722D01*
X139176136Y-120314298D01*
X139059229Y-120265873D01*
X139010803Y-120245814D01*
X139010801Y-120245813D01*
X139010800Y-120245813D01*
X138922445Y-120228238D01*
X138835281Y-120210900D01*
X138835279Y-120210900D01*
X138656321Y-120210900D01*
X138656318Y-120210900D01*
X138525571Y-120236907D01*
X138480800Y-120245813D01*
X138480799Y-120245813D01*
X138480796Y-120245814D01*
X138315462Y-120314299D01*
X138166669Y-120413719D01*
X138166662Y-120413724D01*
X138040124Y-120540262D01*
X138040119Y-120540269D01*
X137940699Y-120689062D01*
X137872214Y-120854396D01*
X137837300Y-121029918D01*
X115746700Y-121029918D01*
X115746700Y-112059212D01*
X123617300Y-112059212D01*
X123617300Y-112419587D01*
X123657648Y-112777694D01*
X123681708Y-112883106D01*
X123737838Y-113129026D01*
X123737840Y-113129032D01*
X123737839Y-113129032D01*
X123856854Y-113469157D01*
X123856862Y-113469177D01*
X124013222Y-113793860D01*
X124013223Y-113793863D01*
X124204943Y-114098984D01*
X124204947Y-114098991D01*
X124429639Y-114380745D01*
X124684454Y-114635560D01*
X124966208Y-114860252D01*
X124966215Y-114860256D01*
X125271336Y-115051976D01*
X125271338Y-115051976D01*
X125271342Y-115051979D01*
X125596025Y-115208339D01*
X125596040Y-115208344D01*
X125596042Y-115208345D01*
X125936167Y-115327360D01*
X125936170Y-115327360D01*
X125936174Y-115327362D01*
X126287505Y-115407551D01*
X126287506Y-115407551D01*
X126287509Y-115407552D01*
X126498707Y-115431347D01*
X126645612Y-115447900D01*
X126645614Y-115447900D01*
X127005988Y-115447900D01*
X127096930Y-115437653D01*
X127364091Y-115407552D01*
X127715426Y-115327362D01*
X128055575Y-115208339D01*
X128380258Y-115051979D01*
X128685393Y-114860251D01*
X128967142Y-114635563D01*
X129221963Y-114380742D01*
X129446651Y-114098993D01*
X129638379Y-113793858D01*
X129794739Y-113469175D01*
X129913762Y-113129026D01*
X129993952Y-112777691D01*
X130034300Y-112419586D01*
X130034300Y-112059214D01*
X130034300Y-112059212D01*
X129999364Y-111749140D01*
X129998332Y-111739984D01*
X152987300Y-111739984D01*
X152987300Y-111953816D01*
X153020751Y-112165016D01*
X153020752Y-112165021D01*
X153086826Y-112368378D01*
X153086828Y-112368383D01*
X153183906Y-112558909D01*
X153309594Y-112731904D01*
X153309596Y-112731906D01*
X153309598Y-112731909D01*
X153460790Y-112883101D01*
X153460793Y-112883103D01*
X153460796Y-112883106D01*
X153633791Y-113008794D01*
X153824317Y-113105872D01*
X154027678Y-113171947D01*
X154027679Y-113171947D01*
X154027684Y-113171949D01*
X154238884Y-113205400D01*
X154238887Y-113205400D01*
X154452713Y-113205400D01*
X154452716Y-113205400D01*
X154663916Y-113171949D01*
X154867283Y-113105872D01*
X155057809Y-113008794D01*
X155230804Y-112883106D01*
X155382006Y-112731904D01*
X155507694Y-112558909D01*
X155604772Y-112368383D01*
X155670849Y-112165016D01*
X155704300Y-111953816D01*
X155704300Y-111739984D01*
X155670849Y-111528784D01*
X155604772Y-111325417D01*
X155507694Y-111134891D01*
X155382006Y-110961896D01*
X155382003Y-110961893D01*
X155382001Y-110961890D01*
X155300606Y-110880495D01*
X155266580Y-110818183D01*
X155271645Y-110747368D01*
X155314192Y-110690532D01*
X155380712Y-110665721D01*
X155389701Y-110665400D01*
X156514432Y-110665400D01*
X156514438Y-110665400D01*
X156514445Y-110665399D01*
X156514449Y-110665399D01*
X156574996Y-110658890D01*
X156574999Y-110658889D01*
X156575001Y-110658889D01*
X156712004Y-110607789D01*
X156810292Y-110534211D01*
X156876811Y-110509401D01*
X156946185Y-110524492D01*
X156961302Y-110534206D01*
X157059596Y-110607789D01*
X157196595Y-110658888D01*
X157196603Y-110658890D01*
X157257150Y-110665399D01*
X157257155Y-110665399D01*
X157257162Y-110665400D01*
X158671899Y-110665400D01*
X158740020Y-110685402D01*
X158786513Y-110739058D01*
X158796617Y-110809332D01*
X158767123Y-110873912D01*
X158760994Y-110880495D01*
X158679598Y-110961890D01*
X158679596Y-110961893D01*
X158553908Y-111134887D01*
X158456829Y-111325415D01*
X158456826Y-111325421D01*
X158390752Y-111528778D01*
X158390751Y-111528783D01*
X158390751Y-111528784D01*
X158357300Y-111739984D01*
X158357300Y-111953816D01*
X158390751Y-112165016D01*
X158390752Y-112165021D01*
X158456826Y-112368378D01*
X158456828Y-112368383D01*
X158553906Y-112558909D01*
X158679594Y-112731904D01*
X158679596Y-112731906D01*
X158679598Y-112731909D01*
X158830790Y-112883101D01*
X158830793Y-112883103D01*
X158830796Y-112883106D01*
X159003791Y-113008794D01*
X159194317Y-113105872D01*
X159397678Y-113171947D01*
X159397679Y-113171947D01*
X159397684Y-113171949D01*
X159608884Y-113205400D01*
X159608887Y-113205400D01*
X159822713Y-113205400D01*
X159822716Y-113205400D01*
X160033916Y-113171949D01*
X160237283Y-113105872D01*
X160427809Y-113008794D01*
X160600804Y-112883106D01*
X160752006Y-112731904D01*
X160877694Y-112558909D01*
X160974772Y-112368383D01*
X161040849Y-112165016D01*
X161074300Y-111953816D01*
X161074300Y-111739984D01*
X161040849Y-111528784D01*
X160974772Y-111325417D01*
X160877694Y-111134891D01*
X160752006Y-110961896D01*
X160752003Y-110961893D01*
X160752001Y-110961890D01*
X160600809Y-110810698D01*
X160600806Y-110810696D01*
X160600804Y-110810694D01*
X160427809Y-110685006D01*
X160237283Y-110587928D01*
X160237280Y-110587927D01*
X160237278Y-110587926D01*
X160033920Y-110521852D01*
X160033923Y-110521852D01*
X159955310Y-110509401D01*
X159822716Y-110488400D01*
X159608884Y-110488400D01*
X159606350Y-110488400D01*
X159538229Y-110468398D01*
X159491736Y-110414742D01*
X159481632Y-110344468D01*
X159488295Y-110318367D01*
X159507788Y-110266104D01*
X159507790Y-110266096D01*
X159514299Y-110205549D01*
X159514300Y-110205532D01*
X159514300Y-108408267D01*
X159514299Y-108408250D01*
X159507790Y-108347703D01*
X159507788Y-108347695D01*
X159456689Y-108210697D01*
X159456687Y-108210692D01*
X159369061Y-108093638D01*
X159252007Y-108006012D01*
X159252002Y-108006010D01*
X159115004Y-107954911D01*
X159114996Y-107954909D01*
X159054449Y-107948400D01*
X159054438Y-107948400D01*
X157257162Y-107948400D01*
X157257150Y-107948400D01*
X157196603Y-107954909D01*
X157196595Y-107954911D01*
X157059597Y-108006010D01*
X157059592Y-108006012D01*
X156961309Y-108079587D01*
X156894789Y-108104398D01*
X156825415Y-108089307D01*
X156810291Y-108079587D01*
X156712007Y-108006012D01*
X156712002Y-108006010D01*
X156575004Y-107954911D01*
X156574996Y-107954909D01*
X156514449Y-107948400D01*
X156514438Y-107948400D01*
X154717162Y-107948400D01*
X154717150Y-107948400D01*
X154656603Y-107954909D01*
X154656595Y-107954911D01*
X154519597Y-108006010D01*
X154519592Y-108006012D01*
X154402538Y-108093638D01*
X154314912Y-108210692D01*
X154314910Y-108210697D01*
X154263811Y-108347695D01*
X154263809Y-108347703D01*
X154257300Y-108408250D01*
X154257300Y-110205549D01*
X154263809Y-110266096D01*
X154263810Y-110266097D01*
X154263810Y-110266099D01*
X154263811Y-110266101D01*
X154286860Y-110327896D01*
X154291925Y-110398712D01*
X154257900Y-110461024D01*
X154195588Y-110495049D01*
X154188524Y-110496376D01*
X154027684Y-110521851D01*
X154027678Y-110521852D01*
X153824321Y-110587926D01*
X153824315Y-110587929D01*
X153633787Y-110685008D01*
X153460793Y-110810696D01*
X153460790Y-110810698D01*
X153309598Y-110961890D01*
X153309596Y-110961893D01*
X153183908Y-111134887D01*
X153086829Y-111325415D01*
X153086826Y-111325421D01*
X153020752Y-111528778D01*
X153020751Y-111528783D01*
X153020751Y-111528784D01*
X152987300Y-111739984D01*
X129998332Y-111739984D01*
X129993951Y-111701104D01*
X129982539Y-111651105D01*
X129913762Y-111349774D01*
X129905239Y-111325417D01*
X129794745Y-111009642D01*
X129794744Y-111009640D01*
X129794739Y-111009625D01*
X129638379Y-110684942D01*
X129638376Y-110684938D01*
X129638376Y-110684936D01*
X129446656Y-110379815D01*
X129446652Y-110379808D01*
X129221960Y-110098054D01*
X128967145Y-109843239D01*
X128685391Y-109618547D01*
X128685384Y-109618543D01*
X128380263Y-109426823D01*
X128380260Y-109426822D01*
X128276433Y-109376821D01*
X128055575Y-109270461D01*
X128055571Y-109270459D01*
X128055557Y-109270454D01*
X127715432Y-109151439D01*
X127364093Y-109071248D01*
X127364096Y-109071248D01*
X127005988Y-109030900D01*
X127005986Y-109030900D01*
X126645614Y-109030900D01*
X126645612Y-109030900D01*
X126287505Y-109071248D01*
X125936167Y-109151439D01*
X125596042Y-109270454D01*
X125596022Y-109270462D01*
X125271339Y-109426822D01*
X125271336Y-109426823D01*
X124966215Y-109618543D01*
X124966208Y-109618547D01*
X124684454Y-109843239D01*
X124429639Y-110098054D01*
X124204947Y-110379808D01*
X124204943Y-110379815D01*
X124013223Y-110684936D01*
X124013222Y-110684939D01*
X123856862Y-111009622D01*
X123856854Y-111009642D01*
X123737839Y-111349767D01*
X123657648Y-111701105D01*
X123617300Y-112059212D01*
X115746700Y-112059212D01*
X115746700Y-108342419D01*
X146837299Y-108342419D01*
X146837299Y-108342422D01*
X146837299Y-108521380D01*
X146872212Y-108696901D01*
X146940697Y-108862237D01*
X147040121Y-109011036D01*
X147166664Y-109137579D01*
X147315463Y-109237003D01*
X147480799Y-109305488D01*
X147656320Y-109340401D01*
X147656321Y-109340401D01*
X147835277Y-109340401D01*
X147835278Y-109340401D01*
X148010799Y-109305488D01*
X148176135Y-109237003D01*
X148324934Y-109137579D01*
X148332595Y-109129918D01*
X149637300Y-109129918D01*
X149637300Y-109129921D01*
X149637300Y-109308879D01*
X149672213Y-109484400D01*
X149740698Y-109649736D01*
X149840122Y-109798535D01*
X149966665Y-109925078D01*
X150115464Y-110024502D01*
X150280800Y-110092987D01*
X150456321Y-110127900D01*
X150456322Y-110127900D01*
X150635278Y-110127900D01*
X150635279Y-110127900D01*
X150810800Y-110092987D01*
X150976136Y-110024502D01*
X151124935Y-109925078D01*
X151251478Y-109798535D01*
X151251478Y-109798534D01*
X151255856Y-109794157D01*
X151257673Y-109795974D01*
X151307050Y-109762325D01*
X151378021Y-109760407D01*
X151435008Y-109794892D01*
X151435744Y-109794157D01*
X151438734Y-109797147D01*
X151438762Y-109797164D01*
X151438833Y-109797246D01*
X151440121Y-109798534D01*
X151440122Y-109798535D01*
X151566665Y-109925078D01*
X151715464Y-110024502D01*
X151880800Y-110092987D01*
X152056321Y-110127900D01*
X152056322Y-110127900D01*
X152235278Y-110127900D01*
X152235279Y-110127900D01*
X152410800Y-110092987D01*
X152576136Y-110024502D01*
X152724935Y-109925078D01*
X152851478Y-109798535D01*
X152950902Y-109649736D01*
X153019387Y-109484400D01*
X153054300Y-109308879D01*
X153054300Y-109129921D01*
X153019387Y-108954400D01*
X152950902Y-108789064D01*
X152851478Y-108640265D01*
X152724935Y-108513722D01*
X152576136Y-108414298D01*
X152415363Y-108347703D01*
X152410803Y-108345814D01*
X152410801Y-108345813D01*
X152410800Y-108345813D01*
X152314928Y-108326743D01*
X152235281Y-108310900D01*
X152235279Y-108310900D01*
X152056321Y-108310900D01*
X152056318Y-108310900D01*
X151925571Y-108336907D01*
X151880800Y-108345813D01*
X151880799Y-108345813D01*
X151880796Y-108345814D01*
X151715462Y-108414299D01*
X151566669Y-108513719D01*
X151566662Y-108513724D01*
X151435745Y-108644642D01*
X151433937Y-108642834D01*
X151384481Y-108676498D01*
X151313509Y-108678374D01*
X151256603Y-108643893D01*
X151255855Y-108644642D01*
X151252804Y-108641591D01*
X151252789Y-108641582D01*
X151252750Y-108641537D01*
X151124937Y-108513724D01*
X151124935Y-108513722D01*
X150976136Y-108414298D01*
X150815363Y-108347703D01*
X150810803Y-108345814D01*
X150810801Y-108345813D01*
X150810800Y-108345813D01*
X150714928Y-108326743D01*
X150635281Y-108310900D01*
X150635279Y-108310900D01*
X150456321Y-108310900D01*
X150456318Y-108310900D01*
X150325571Y-108336907D01*
X150280800Y-108345813D01*
X150280799Y-108345813D01*
X150280796Y-108345814D01*
X150115462Y-108414299D01*
X149966669Y-108513719D01*
X149966662Y-108513724D01*
X149840124Y-108640262D01*
X149840119Y-108640269D01*
X149740699Y-108789062D01*
X149672214Y-108954396D01*
X149637300Y-109129918D01*
X148332595Y-109129918D01*
X148451477Y-109011036D01*
X148550901Y-108862237D01*
X148619386Y-108696901D01*
X148654299Y-108521380D01*
X148654299Y-108342422D01*
X148619386Y-108166901D01*
X148550901Y-108001565D01*
X148451477Y-107852766D01*
X148324934Y-107726223D01*
X148176135Y-107626799D01*
X148059228Y-107578374D01*
X148010802Y-107558315D01*
X148010800Y-107558314D01*
X148010799Y-107558314D01*
X147922444Y-107540739D01*
X147835280Y-107523401D01*
X147835278Y-107523401D01*
X147656320Y-107523401D01*
X147656317Y-107523401D01*
X147525570Y-107549408D01*
X147480799Y-107558314D01*
X147480798Y-107558314D01*
X147480795Y-107558315D01*
X147315461Y-107626800D01*
X147166668Y-107726220D01*
X147166661Y-107726225D01*
X147040123Y-107852763D01*
X147040118Y-107852770D01*
X146965188Y-107964912D01*
X146940697Y-108001565D01*
X146938855Y-108006012D01*
X146872213Y-108166897D01*
X146872212Y-108166900D01*
X146872212Y-108166901D01*
X146871332Y-108171325D01*
X146837299Y-108342419D01*
X115746700Y-108342419D01*
X115746700Y-106942418D01*
X145237300Y-106942418D01*
X145237300Y-107121381D01*
X145238036Y-107125080D01*
X145272213Y-107296900D01*
X145340698Y-107462236D01*
X145440122Y-107611035D01*
X145566665Y-107737578D01*
X145715464Y-107837002D01*
X145880800Y-107905487D01*
X146056321Y-107940400D01*
X146056322Y-107940400D01*
X146235278Y-107940400D01*
X146235279Y-107940400D01*
X146410800Y-107905487D01*
X146576136Y-107837002D01*
X146724935Y-107737578D01*
X146851478Y-107611035D01*
X146950902Y-107462236D01*
X147019387Y-107296900D01*
X147054300Y-107121379D01*
X147054300Y-106942421D01*
X147019387Y-106766900D01*
X146950902Y-106601564D01*
X146851478Y-106452765D01*
X146724935Y-106326222D01*
X146576136Y-106226798D01*
X146442216Y-106171326D01*
X146410803Y-106158314D01*
X146410801Y-106158313D01*
X146410800Y-106158313D01*
X146322445Y-106140738D01*
X146235281Y-106123400D01*
X146235279Y-106123400D01*
X146056321Y-106123400D01*
X146056318Y-106123400D01*
X145950630Y-106144423D01*
X145880800Y-106158313D01*
X145880799Y-106158313D01*
X145880796Y-106158314D01*
X145762741Y-106207215D01*
X145728651Y-106221336D01*
X145715462Y-106226799D01*
X145566669Y-106326219D01*
X145566662Y-106326224D01*
X145440124Y-106452762D01*
X145440119Y-106452769D01*
X145340699Y-106601562D01*
X145272214Y-106766896D01*
X145237300Y-106942418D01*
X115746700Y-106942418D01*
X115746700Y-104829918D01*
X157637300Y-104829918D01*
X157637300Y-105008881D01*
X157641931Y-105032162D01*
X157670413Y-105175352D01*
X157672214Y-105184403D01*
X157692273Y-105232829D01*
X157740698Y-105349736D01*
X157840122Y-105498535D01*
X157966665Y-105625078D01*
X158115464Y-105724502D01*
X158280800Y-105792987D01*
X158456321Y-105827900D01*
X158456322Y-105827900D01*
X158518882Y-105827900D01*
X158587003Y-105847902D01*
X158633496Y-105901558D01*
X158643600Y-105971832D01*
X158635290Y-106002119D01*
X158572215Y-106154392D01*
X158572213Y-106154398D01*
X158572213Y-106154400D01*
X158561708Y-106207215D01*
X158537300Y-106329918D01*
X158537300Y-106508881D01*
X158572214Y-106684403D01*
X158576143Y-106693888D01*
X158640698Y-106849736D01*
X158740122Y-106998535D01*
X158866665Y-107125078D01*
X159015464Y-107224502D01*
X159180800Y-107292987D01*
X159356321Y-107327900D01*
X159356322Y-107327900D01*
X159535278Y-107327900D01*
X159535279Y-107327900D01*
X159710800Y-107292987D01*
X159876136Y-107224502D01*
X160024935Y-107125078D01*
X160151478Y-106998535D01*
X160250902Y-106849736D01*
X160319387Y-106684400D01*
X160354300Y-106508879D01*
X160354300Y-106329921D01*
X160319387Y-106154400D01*
X160250902Y-105989064D01*
X160151478Y-105840265D01*
X160024935Y-105713722D01*
X159876136Y-105614298D01*
X159759229Y-105565873D01*
X159710803Y-105545814D01*
X159710801Y-105545813D01*
X159710800Y-105545813D01*
X159622445Y-105528238D01*
X159535281Y-105510900D01*
X159535279Y-105510900D01*
X159472718Y-105510900D01*
X159404597Y-105490898D01*
X159358104Y-105437242D01*
X159348000Y-105366968D01*
X159356310Y-105336681D01*
X159419384Y-105184407D01*
X159419383Y-105184407D01*
X159419387Y-105184400D01*
X159454300Y-105008879D01*
X159454300Y-104829921D01*
X159419387Y-104654400D01*
X159350902Y-104489064D01*
X159251478Y-104340265D01*
X159124935Y-104213722D01*
X158976136Y-104114298D01*
X158863094Y-104067474D01*
X158810803Y-104045814D01*
X158810801Y-104045813D01*
X158810800Y-104045813D01*
X158730891Y-104029918D01*
X161737300Y-104029918D01*
X161737300Y-104208881D01*
X161738378Y-104214298D01*
X161772213Y-104384400D01*
X161840698Y-104549736D01*
X161940122Y-104698535D01*
X162066665Y-104825078D01*
X162215464Y-104924502D01*
X162380800Y-104992987D01*
X162556321Y-105027900D01*
X162556322Y-105027900D01*
X162735278Y-105027900D01*
X162735279Y-105027900D01*
X162910800Y-104992987D01*
X163076136Y-104924502D01*
X163224935Y-104825078D01*
X163224934Y-104825078D01*
X163230082Y-104821639D01*
X163231392Y-104823600D01*
X163287072Y-104799938D01*
X163357053Y-104811903D01*
X163409456Y-104859803D01*
X163427644Y-104928431D01*
X163426137Y-104944793D01*
X163412300Y-105032159D01*
X163412300Y-105206641D01*
X163439595Y-105378974D01*
X163439596Y-105378977D01*
X163482459Y-105510900D01*
X163493512Y-105544916D01*
X163534357Y-105625078D01*
X163572728Y-105700384D01*
X163582419Y-105713722D01*
X163675283Y-105841539D01*
X163675285Y-105841541D01*
X163675287Y-105841544D01*
X163798654Y-105964911D01*
X163798657Y-105964913D01*
X163798661Y-105964917D01*
X163861950Y-106010899D01*
X163870986Y-106017464D01*
X163914339Y-106073687D01*
X163920414Y-106144423D01*
X163887282Y-106207215D01*
X163870986Y-106221336D01*
X163798654Y-106273888D01*
X163675287Y-106397255D01*
X163675285Y-106397258D01*
X163572728Y-106538415D01*
X163493513Y-106693882D01*
X163493510Y-106693888D01*
X163439596Y-106859822D01*
X163439595Y-106859826D01*
X163412300Y-107032159D01*
X163412300Y-107206641D01*
X163439595Y-107378974D01*
X163493512Y-107544916D01*
X163572726Y-107700381D01*
X163675283Y-107841539D01*
X163675284Y-107841540D01*
X163675285Y-107841541D01*
X163675287Y-107841544D01*
X163798655Y-107964912D01*
X163798658Y-107964914D01*
X163798661Y-107964917D01*
X163870985Y-108017463D01*
X163914339Y-108073685D01*
X163920414Y-108144421D01*
X163887283Y-108207213D01*
X163870986Y-108221335D01*
X163798654Y-108273887D01*
X163675287Y-108397254D01*
X163675285Y-108397257D01*
X163572728Y-108538414D01*
X163493513Y-108693881D01*
X163493510Y-108693887D01*
X163462586Y-108789064D01*
X163439595Y-108859825D01*
X163412300Y-109032158D01*
X163412300Y-109206640D01*
X163439595Y-109378973D01*
X163439596Y-109378976D01*
X163455141Y-109426821D01*
X163493512Y-109544915D01*
X163572726Y-109700380D01*
X163675283Y-109841538D01*
X163675284Y-109841539D01*
X163675285Y-109841540D01*
X163675287Y-109841543D01*
X163774327Y-109940583D01*
X163808353Y-110002895D01*
X163803288Y-110073710D01*
X163760741Y-110130546D01*
X163751381Y-110136918D01*
X163697146Y-110170371D01*
X163697141Y-110170375D01*
X163571775Y-110295741D01*
X163571770Y-110295747D01*
X163478685Y-110446662D01*
X163422913Y-110614972D01*
X163422912Y-110614979D01*
X163412300Y-110718846D01*
X163412300Y-111519944D01*
X163422912Y-111623825D01*
X163478685Y-111792138D01*
X163571770Y-111943052D01*
X163571775Y-111943058D01*
X163697141Y-112068424D01*
X163697147Y-112068429D01*
X163697148Y-112068430D01*
X163848062Y-112161515D01*
X164016374Y-112217287D01*
X164120255Y-112227900D01*
X165371344Y-112227899D01*
X165475226Y-112217287D01*
X165643538Y-112161515D01*
X165794452Y-112068430D01*
X165794453Y-112068428D01*
X165800698Y-112064577D01*
X165802260Y-112067110D01*
X165855522Y-112045585D01*
X165925279Y-112058791D01*
X165935490Y-112065058D01*
X165935596Y-112064886D01*
X165939812Y-112067469D01*
X165939815Y-112067470D01*
X165939820Y-112067474D01*
X166095285Y-112146688D01*
X166261227Y-112200605D01*
X166433560Y-112227900D01*
X166433563Y-112227900D01*
X167058039Y-112227900D01*
X167058042Y-112227900D01*
X167230375Y-112200605D01*
X167396317Y-112146688D01*
X167551782Y-112067474D01*
X167631973Y-112009212D01*
X201597300Y-112009212D01*
X201597300Y-112369587D01*
X201637648Y-112727694D01*
X201673119Y-112883101D01*
X201717838Y-113079026D01*
X201717840Y-113079032D01*
X201717839Y-113079032D01*
X201836854Y-113419157D01*
X201836862Y-113419177D01*
X201993222Y-113743860D01*
X201993223Y-113743863D01*
X202184943Y-114048984D01*
X202184947Y-114048991D01*
X202409639Y-114330745D01*
X202664454Y-114585560D01*
X202946208Y-114810252D01*
X202946215Y-114810256D01*
X203251336Y-115001976D01*
X203251338Y-115001976D01*
X203251342Y-115001979D01*
X203576025Y-115158339D01*
X203576040Y-115158344D01*
X203576042Y-115158345D01*
X203916167Y-115277360D01*
X203916170Y-115277360D01*
X203916174Y-115277362D01*
X204267505Y-115357551D01*
X204267506Y-115357551D01*
X204267509Y-115357552D01*
X204478707Y-115381347D01*
X204625612Y-115397900D01*
X204625614Y-115397900D01*
X204985988Y-115397900D01*
X205076930Y-115387653D01*
X205344091Y-115357552D01*
X205695426Y-115277362D01*
X206035575Y-115158339D01*
X206360258Y-115001979D01*
X206665393Y-114810251D01*
X206947142Y-114585563D01*
X207201963Y-114330742D01*
X207426651Y-114048993D01*
X207618379Y-113743858D01*
X207774739Y-113419175D01*
X207893762Y-113079026D01*
X207973952Y-112727691D01*
X208014300Y-112369586D01*
X208014300Y-112009214D01*
X208009308Y-111964912D01*
X207983966Y-111739987D01*
X207973952Y-111651109D01*
X207893762Y-111299774D01*
X207861173Y-111206641D01*
X207774745Y-110959642D01*
X207774744Y-110959640D01*
X207774739Y-110959625D01*
X207618379Y-110634942D01*
X207618376Y-110634938D01*
X207618376Y-110634936D01*
X207426656Y-110329815D01*
X207426652Y-110329808D01*
X207201960Y-110048054D01*
X206947145Y-109793239D01*
X206665391Y-109568547D01*
X206665384Y-109568543D01*
X206360263Y-109376823D01*
X206360260Y-109376822D01*
X206284632Y-109340401D01*
X206035575Y-109220461D01*
X206035571Y-109220459D01*
X206035557Y-109220454D01*
X205695432Y-109101439D01*
X205344093Y-109021248D01*
X205344096Y-109021248D01*
X204985988Y-108980900D01*
X204985986Y-108980900D01*
X204625614Y-108980900D01*
X204625612Y-108980900D01*
X204267505Y-109021248D01*
X203916167Y-109101439D01*
X203576042Y-109220454D01*
X203576022Y-109220462D01*
X203251339Y-109376822D01*
X203251336Y-109376823D01*
X202946215Y-109568543D01*
X202946208Y-109568547D01*
X202664454Y-109793239D01*
X202409639Y-110048054D01*
X202184947Y-110329808D01*
X202184943Y-110329815D01*
X201993223Y-110634936D01*
X201993222Y-110634939D01*
X201836862Y-110959622D01*
X201836854Y-110959642D01*
X201717839Y-111299767D01*
X201637648Y-111651105D01*
X201597300Y-112009212D01*
X167631973Y-112009212D01*
X167692940Y-111964917D01*
X167714805Y-111943052D01*
X167741274Y-111916584D01*
X167816313Y-111841544D01*
X167816318Y-111841539D01*
X167918875Y-111700381D01*
X167998089Y-111544916D01*
X168052006Y-111378974D01*
X168079301Y-111206641D01*
X168079301Y-111032159D01*
X168052006Y-110859826D01*
X167998089Y-110693884D01*
X167918875Y-110538419D01*
X167816318Y-110397261D01*
X167816315Y-110397258D01*
X167816313Y-110397255D01*
X167692942Y-110273884D01*
X167620614Y-110221335D01*
X167577260Y-110165112D01*
X167571185Y-110094376D01*
X167604317Y-110031585D01*
X167620605Y-110017470D01*
X167692939Y-109964917D01*
X167816317Y-109841539D01*
X167918874Y-109700381D01*
X167998088Y-109544916D01*
X168052005Y-109378974D01*
X168079300Y-109206641D01*
X168079300Y-109032159D01*
X168052005Y-108859826D01*
X167998088Y-108693884D01*
X167918874Y-108538419D01*
X167816317Y-108397261D01*
X167816313Y-108397257D01*
X167816312Y-108397255D01*
X167692941Y-108273884D01*
X167620613Y-108221335D01*
X167577259Y-108165112D01*
X167571184Y-108094376D01*
X167604316Y-108031585D01*
X167620606Y-108017468D01*
X167692939Y-107964916D01*
X167816317Y-107841538D01*
X167918874Y-107700380D01*
X167998088Y-107544915D01*
X168052005Y-107378973D01*
X168079300Y-107206640D01*
X168079300Y-107032158D01*
X168052005Y-106859825D01*
X167998088Y-106693883D01*
X167918874Y-106538418D01*
X167816317Y-106397260D01*
X167816314Y-106397257D01*
X167816312Y-106397254D01*
X167692944Y-106273886D01*
X167692941Y-106273884D01*
X167692940Y-106273883D01*
X167692939Y-106273882D01*
X167620187Y-106221024D01*
X167576834Y-106164804D01*
X167570758Y-106094068D01*
X167603890Y-106031276D01*
X167620189Y-106017153D01*
X167692618Y-105964530D01*
X167815930Y-105841218D01*
X167815932Y-105841215D01*
X167918443Y-105700121D01*
X167997622Y-105544725D01*
X167997625Y-105544719D01*
X168051514Y-105378865D01*
X168052380Y-105373400D01*
X167089900Y-105373400D01*
X167141837Y-105283444D01*
X167170800Y-105175352D01*
X167170800Y-105063448D01*
X167141837Y-104955356D01*
X167127150Y-104929918D01*
X173137300Y-104929918D01*
X173137300Y-105108881D01*
X173152323Y-105184407D01*
X173172213Y-105284400D01*
X173240698Y-105449736D01*
X173340122Y-105598535D01*
X173466665Y-105725078D01*
X173615464Y-105824502D01*
X173780800Y-105892987D01*
X173956321Y-105927900D01*
X173956322Y-105927900D01*
X174135278Y-105927900D01*
X174135279Y-105927900D01*
X174310800Y-105892987D01*
X174476136Y-105824502D01*
X174624935Y-105725078D01*
X174751478Y-105598535D01*
X174850902Y-105449736D01*
X174919387Y-105284400D01*
X174954300Y-105108879D01*
X174954300Y-104929921D01*
X174919387Y-104754400D01*
X174850902Y-104589064D01*
X174751478Y-104440265D01*
X174624935Y-104313722D01*
X174476136Y-104214298D01*
X174358140Y-104165422D01*
X174310803Y-104145814D01*
X174310801Y-104145813D01*
X174310800Y-104145813D01*
X174222445Y-104128238D01*
X174135281Y-104110900D01*
X174135279Y-104110900D01*
X173956321Y-104110900D01*
X173956318Y-104110900D01*
X173825571Y-104136907D01*
X173780800Y-104145813D01*
X173780799Y-104145813D01*
X173780796Y-104145814D01*
X173615462Y-104214299D01*
X173466669Y-104313719D01*
X173466662Y-104313724D01*
X173340124Y-104440262D01*
X173340119Y-104440269D01*
X173240699Y-104589062D01*
X173172214Y-104754396D01*
X173137300Y-104929918D01*
X167127150Y-104929918D01*
X167089900Y-104865400D01*
X168052380Y-104865400D01*
X168051514Y-104859934D01*
X167997625Y-104694080D01*
X167997622Y-104694074D01*
X167918443Y-104538678D01*
X167815932Y-104397584D01*
X167815930Y-104397581D01*
X167692615Y-104274266D01*
X167620188Y-104221645D01*
X167576834Y-104165422D01*
X167570759Y-104094686D01*
X167603891Y-104031895D01*
X167620184Y-104017776D01*
X167692939Y-103964917D01*
X167816317Y-103841539D01*
X167918874Y-103700381D01*
X167998088Y-103544916D01*
X168052005Y-103378974D01*
X168079300Y-103206641D01*
X168079300Y-103032159D01*
X168052005Y-102859826D01*
X167998088Y-102693884D01*
X167918874Y-102538419D01*
X167816317Y-102397261D01*
X167816314Y-102397258D01*
X167816312Y-102397255D01*
X167692944Y-102273887D01*
X167692941Y-102273885D01*
X167692939Y-102273883D01*
X167620613Y-102221335D01*
X167577260Y-102165114D01*
X167571185Y-102094378D01*
X167604316Y-102031586D01*
X167620614Y-102017464D01*
X167692939Y-101964917D01*
X167816317Y-101841539D01*
X167918874Y-101700381D01*
X167998088Y-101544916D01*
X168052005Y-101378974D01*
X168079300Y-101206641D01*
X168079300Y-101032159D01*
X168052005Y-100859826D01*
X167998088Y-100693884D01*
X167918874Y-100538419D01*
X167816317Y-100397261D01*
X167816314Y-100397258D01*
X167816312Y-100397255D01*
X167692944Y-100273887D01*
X167692941Y-100273885D01*
X167692939Y-100273883D01*
X167551781Y-100171326D01*
X167396316Y-100092112D01*
X167396313Y-100092111D01*
X167396311Y-100092110D01*
X167230377Y-100038196D01*
X167230374Y-100038195D01*
X167058041Y-100010900D01*
X166433559Y-100010900D01*
X166261226Y-100038195D01*
X166261223Y-100038195D01*
X166261222Y-100038196D01*
X166095288Y-100092110D01*
X166095282Y-100092113D01*
X165939815Y-100171328D01*
X165819861Y-100258480D01*
X165752993Y-100282339D01*
X165683841Y-100266258D01*
X165671739Y-100258480D01*
X165551784Y-100171328D01*
X165551783Y-100171327D01*
X165551781Y-100171326D01*
X165396316Y-100092112D01*
X165396313Y-100092111D01*
X165396311Y-100092110D01*
X165230377Y-100038196D01*
X165230374Y-100038195D01*
X165058041Y-100010900D01*
X164433559Y-100010900D01*
X164261226Y-100038195D01*
X164261223Y-100038195D01*
X164261222Y-100038196D01*
X164095288Y-100092110D01*
X164095282Y-100092113D01*
X163939815Y-100171328D01*
X163798658Y-100273885D01*
X163798655Y-100273887D01*
X163675287Y-100397255D01*
X163675285Y-100397258D01*
X163572728Y-100538415D01*
X163493513Y-100693882D01*
X163493510Y-100693888D01*
X163439596Y-100859822D01*
X163439595Y-100859826D01*
X163412300Y-101032159D01*
X163412300Y-101206641D01*
X163439595Y-101378974D01*
X163493512Y-101544916D01*
X163572726Y-101700381D01*
X163675283Y-101841539D01*
X163675285Y-101841541D01*
X163675287Y-101841544D01*
X163798654Y-101964911D01*
X163798657Y-101964913D01*
X163798661Y-101964917D01*
X163870986Y-102017464D01*
X163914339Y-102073687D01*
X163920414Y-102144423D01*
X163887282Y-102207215D01*
X163870986Y-102221336D01*
X163798654Y-102273888D01*
X163675287Y-102397255D01*
X163675285Y-102397258D01*
X163572728Y-102538415D01*
X163493513Y-102693882D01*
X163493510Y-102693888D01*
X163439596Y-102859822D01*
X163439595Y-102859826D01*
X163412300Y-103032159D01*
X163412300Y-103206641D01*
X163426137Y-103294001D01*
X163417037Y-103364412D01*
X163371315Y-103418726D01*
X163303487Y-103439699D01*
X163235088Y-103420672D01*
X163230117Y-103417108D01*
X163230082Y-103417161D01*
X163076137Y-103314299D01*
X163076138Y-103314299D01*
X163076136Y-103314298D01*
X162959229Y-103265873D01*
X162910803Y-103245814D01*
X162910801Y-103245813D01*
X162910800Y-103245813D01*
X162822445Y-103228238D01*
X162735281Y-103210900D01*
X162735279Y-103210900D01*
X162556321Y-103210900D01*
X162556318Y-103210900D01*
X162425571Y-103236907D01*
X162380800Y-103245813D01*
X162380799Y-103245813D01*
X162380796Y-103245814D01*
X162215462Y-103314299D01*
X162066669Y-103413719D01*
X162066662Y-103413724D01*
X161940124Y-103540262D01*
X161940119Y-103540269D01*
X161840699Y-103689062D01*
X161772214Y-103854396D01*
X161737300Y-104029918D01*
X158730891Y-104029918D01*
X158722445Y-104028238D01*
X158635281Y-104010900D01*
X158635279Y-104010900D01*
X158456321Y-104010900D01*
X158456318Y-104010900D01*
X158350771Y-104031895D01*
X158280800Y-104045813D01*
X158280799Y-104045813D01*
X158280796Y-104045814D01*
X158162811Y-104094686D01*
X158123668Y-104110900D01*
X158115462Y-104114299D01*
X157966669Y-104213719D01*
X157966662Y-104213724D01*
X157840124Y-104340262D01*
X157840119Y-104340269D01*
X157740699Y-104489062D01*
X157672214Y-104654396D01*
X157637300Y-104829918D01*
X115746700Y-104829918D01*
X115746700Y-79575925D01*
X139485213Y-79575925D01*
X139485213Y-79936300D01*
X139525561Y-80294407D01*
X139561271Y-80450860D01*
X139605751Y-80645739D01*
X139605753Y-80645745D01*
X139605752Y-80645745D01*
X139724767Y-80985870D01*
X139724775Y-80985890D01*
X139881135Y-81310573D01*
X139881136Y-81310576D01*
X140072856Y-81615697D01*
X140072860Y-81615704D01*
X140297552Y-81897458D01*
X140552367Y-82152273D01*
X140834121Y-82376965D01*
X140834128Y-82376969D01*
X141139249Y-82568689D01*
X141139251Y-82568689D01*
X141139255Y-82568692D01*
X141463938Y-82725052D01*
X141463953Y-82725057D01*
X141463955Y-82725058D01*
X141804080Y-82844073D01*
X141804083Y-82844073D01*
X141804087Y-82844075D01*
X142155418Y-82924264D01*
X142155419Y-82924264D01*
X142155422Y-82924265D01*
X142366620Y-82948060D01*
X142513525Y-82964613D01*
X142513527Y-82964613D01*
X142873901Y-82964613D01*
X142964843Y-82954366D01*
X143232004Y-82924265D01*
X143583339Y-82844075D01*
X143923488Y-82725052D01*
X144248171Y-82568692D01*
X144553306Y-82376964D01*
X144835055Y-82152276D01*
X145089876Y-81897455D01*
X145314564Y-81615706D01*
X145506292Y-81310571D01*
X145662652Y-80985888D01*
X145751919Y-80730776D01*
X145781673Y-80645745D01*
X145781673Y-80645744D01*
X145781675Y-80645739D01*
X145861865Y-80294404D01*
X145902213Y-79936299D01*
X145902213Y-79589212D01*
X149007300Y-79589212D01*
X149007300Y-79949587D01*
X149047648Y-80307694D01*
X149078939Y-80444785D01*
X149127838Y-80659026D01*
X149127840Y-80659032D01*
X149127839Y-80659032D01*
X149246854Y-80999157D01*
X149246862Y-80999177D01*
X149403222Y-81323860D01*
X149403223Y-81323863D01*
X149594943Y-81628984D01*
X149594947Y-81628991D01*
X149819639Y-81910745D01*
X150074454Y-82165560D01*
X150356208Y-82390252D01*
X150356215Y-82390256D01*
X150661336Y-82581976D01*
X150661338Y-82581976D01*
X150661342Y-82581979D01*
X150986025Y-82738339D01*
X150986040Y-82738344D01*
X150986042Y-82738345D01*
X151326167Y-82857360D01*
X151326170Y-82857360D01*
X151326174Y-82857362D01*
X151677505Y-82937551D01*
X151677506Y-82937551D01*
X151677509Y-82937552D01*
X151888707Y-82961347D01*
X152035612Y-82977900D01*
X152035614Y-82977900D01*
X152395988Y-82977900D01*
X152486930Y-82967653D01*
X152754091Y-82937552D01*
X153105426Y-82857362D01*
X153445575Y-82738339D01*
X153770258Y-82581979D01*
X153791408Y-82568690D01*
X153824525Y-82547880D01*
X154075393Y-82390251D01*
X154357142Y-82165563D01*
X154611963Y-81910742D01*
X154836651Y-81628993D01*
X155028379Y-81323858D01*
X155184739Y-80999175D01*
X155303762Y-80659026D01*
X155383952Y-80307691D01*
X155424300Y-79949586D01*
X155424300Y-79589214D01*
X155420988Y-79559822D01*
X155392521Y-79307162D01*
X155383952Y-79231109D01*
X155303762Y-78879774D01*
X155299110Y-78866480D01*
X155184745Y-78539642D01*
X155184744Y-78539640D01*
X155184739Y-78539625D01*
X155028379Y-78214942D01*
X155028376Y-78214938D01*
X155028376Y-78214936D01*
X154836656Y-77909815D01*
X154836652Y-77909808D01*
X154611960Y-77628054D01*
X154357145Y-77373239D01*
X154075391Y-77148547D01*
X154075384Y-77148543D01*
X153770263Y-76956823D01*
X153770260Y-76956822D01*
X153742672Y-76943536D01*
X153445575Y-76800461D01*
X153445571Y-76800459D01*
X153445557Y-76800454D01*
X153105432Y-76681439D01*
X152754093Y-76601248D01*
X152754096Y-76601248D01*
X152395988Y-76560900D01*
X152395986Y-76560900D01*
X152035614Y-76560900D01*
X152035612Y-76560900D01*
X151677505Y-76601248D01*
X151326167Y-76681439D01*
X150986042Y-76800454D01*
X150986022Y-76800462D01*
X150661339Y-76956822D01*
X150661336Y-76956823D01*
X150356215Y-77148543D01*
X150356208Y-77148547D01*
X150074454Y-77373239D01*
X149819639Y-77628054D01*
X149594947Y-77909808D01*
X149594943Y-77909815D01*
X149403223Y-78214936D01*
X149403222Y-78214939D01*
X149246862Y-78539622D01*
X149246854Y-78539642D01*
X149127839Y-78879767D01*
X149047648Y-79231105D01*
X149007300Y-79589212D01*
X145902213Y-79589212D01*
X145902213Y-79575927D01*
X145900398Y-79559822D01*
X145890475Y-79471754D01*
X145861865Y-79217822D01*
X145781675Y-78866487D01*
X145781185Y-78865088D01*
X145662658Y-78526355D01*
X145662657Y-78526353D01*
X145662652Y-78526338D01*
X145506292Y-78201655D01*
X145506289Y-78201651D01*
X145506289Y-78201649D01*
X145314569Y-77896528D01*
X145314565Y-77896521D01*
X145089873Y-77614767D01*
X144835058Y-77359952D01*
X144553304Y-77135260D01*
X144553297Y-77135256D01*
X144248176Y-76943536D01*
X144248173Y-76943535D01*
X144136964Y-76889979D01*
X143923488Y-76787174D01*
X143923484Y-76787172D01*
X143923470Y-76787167D01*
X143583345Y-76668152D01*
X143232006Y-76587961D01*
X143232009Y-76587961D01*
X142873901Y-76547613D01*
X142873899Y-76547613D01*
X142513527Y-76547613D01*
X142513525Y-76547613D01*
X142155418Y-76587961D01*
X141804080Y-76668152D01*
X141463955Y-76787167D01*
X141463935Y-76787175D01*
X141139252Y-76943535D01*
X141139249Y-76943536D01*
X140834128Y-77135256D01*
X140834121Y-77135260D01*
X140552367Y-77359952D01*
X140297552Y-77614767D01*
X140072860Y-77896521D01*
X140072856Y-77896528D01*
X139881136Y-78201649D01*
X139881135Y-78201652D01*
X139724775Y-78526335D01*
X139724767Y-78526355D01*
X139605752Y-78866480D01*
X139525561Y-79217818D01*
X139485213Y-79575925D01*
X115746700Y-79575925D01*
X115746700Y-74812484D01*
X130387300Y-74812484D01*
X130387300Y-75026316D01*
X130398810Y-75098984D01*
X130420752Y-75237521D01*
X130467287Y-75380742D01*
X130486828Y-75440883D01*
X130583906Y-75631409D01*
X130709594Y-75804404D01*
X130709596Y-75804406D01*
X130709598Y-75804409D01*
X130860790Y-75955601D01*
X130860793Y-75955603D01*
X130860796Y-75955606D01*
X131033791Y-76081294D01*
X131224317Y-76178372D01*
X131427678Y-76244447D01*
X131427679Y-76244447D01*
X131427684Y-76244449D01*
X131638884Y-76277900D01*
X131638887Y-76277900D01*
X131852713Y-76277900D01*
X131852716Y-76277900D01*
X132063916Y-76244449D01*
X132267283Y-76178372D01*
X132457809Y-76081294D01*
X132630804Y-75955606D01*
X132733782Y-75852627D01*
X132796092Y-75818604D01*
X132866908Y-75823668D01*
X132923744Y-75866215D01*
X132940931Y-75897691D01*
X132984910Y-76015603D01*
X132984912Y-76015607D01*
X133072538Y-76132661D01*
X133189592Y-76220287D01*
X133189594Y-76220288D01*
X133189596Y-76220289D01*
X133248675Y-76242324D01*
X133326595Y-76271388D01*
X133326603Y-76271390D01*
X133387150Y-76277899D01*
X133387155Y-76277899D01*
X133387162Y-76277900D01*
X133387168Y-76277900D01*
X135184432Y-76277900D01*
X135184438Y-76277900D01*
X135184445Y-76277899D01*
X135184449Y-76277899D01*
X135244996Y-76271390D01*
X135244999Y-76271389D01*
X135245001Y-76271389D01*
X135382004Y-76220289D01*
X135397960Y-76208345D01*
X135499061Y-76132661D01*
X135586687Y-76015607D01*
X135586687Y-76015606D01*
X135586689Y-76015604D01*
X135630760Y-75897445D01*
X135637788Y-75878604D01*
X135637790Y-75878596D01*
X135644299Y-75818049D01*
X135644300Y-75818032D01*
X135644300Y-74020767D01*
X135644299Y-74020750D01*
X135637790Y-73960203D01*
X135637788Y-73960195D01*
X135586689Y-73823197D01*
X135586687Y-73823192D01*
X135499061Y-73706138D01*
X135382007Y-73618512D01*
X135382002Y-73618510D01*
X135245004Y-73567411D01*
X135244996Y-73567409D01*
X135184449Y-73560900D01*
X135184438Y-73560900D01*
X133387162Y-73560900D01*
X133387150Y-73560900D01*
X133326603Y-73567409D01*
X133326595Y-73567411D01*
X133189597Y-73618510D01*
X133189592Y-73618512D01*
X133072538Y-73706138D01*
X132984912Y-73823192D01*
X132984910Y-73823197D01*
X132940931Y-73941108D01*
X132898384Y-73997944D01*
X132831864Y-74022754D01*
X132762490Y-74007662D01*
X132733781Y-73986170D01*
X132630809Y-73883198D01*
X132630806Y-73883196D01*
X132630804Y-73883194D01*
X132500581Y-73788582D01*
X132457812Y-73757508D01*
X132457811Y-73757507D01*
X132457809Y-73757506D01*
X132267283Y-73660428D01*
X132267280Y-73660427D01*
X132267278Y-73660426D01*
X132063920Y-73594352D01*
X132063923Y-73594352D01*
X132024601Y-73588124D01*
X131852716Y-73560900D01*
X131638884Y-73560900D01*
X131427684Y-73594351D01*
X131427678Y-73594352D01*
X131224321Y-73660426D01*
X131224315Y-73660429D01*
X131033787Y-73757508D01*
X130860793Y-73883196D01*
X130860790Y-73883198D01*
X130709598Y-74034390D01*
X130709596Y-74034393D01*
X130583908Y-74207387D01*
X130486829Y-74397915D01*
X130486826Y-74397921D01*
X130420752Y-74601278D01*
X130420751Y-74601283D01*
X130420751Y-74601284D01*
X130387300Y-74812484D01*
X115746700Y-74812484D01*
X115746700Y-73043700D01*
X115766702Y-72975579D01*
X115820358Y-72929086D01*
X115872700Y-72917700D01*
X126086082Y-72917700D01*
X126159774Y-72887176D01*
X126216176Y-72830774D01*
X126246700Y-72757082D01*
X126246700Y-71212484D01*
X130522300Y-71212484D01*
X130522300Y-71426316D01*
X130550538Y-71604602D01*
X130555752Y-71637521D01*
X130621236Y-71839062D01*
X130621828Y-71840883D01*
X130718906Y-72031409D01*
X130718908Y-72031412D01*
X130732221Y-72049736D01*
X130844594Y-72204404D01*
X130844596Y-72204406D01*
X130844598Y-72204409D01*
X130995790Y-72355601D01*
X130995793Y-72355603D01*
X130995796Y-72355606D01*
X131168791Y-72481294D01*
X131359317Y-72578372D01*
X131562678Y-72644447D01*
X131562679Y-72644447D01*
X131562684Y-72644449D01*
X131773884Y-72677900D01*
X131773887Y-72677900D01*
X131987713Y-72677900D01*
X131987716Y-72677900D01*
X132198916Y-72644449D01*
X132402283Y-72578372D01*
X132592809Y-72481294D01*
X132765804Y-72355606D01*
X132868782Y-72252627D01*
X132931092Y-72218604D01*
X133001908Y-72223668D01*
X133058744Y-72266215D01*
X133075931Y-72297691D01*
X133119910Y-72415603D01*
X133119912Y-72415607D01*
X133207538Y-72532661D01*
X133324592Y-72620287D01*
X133324594Y-72620288D01*
X133324596Y-72620289D01*
X133356536Y-72632202D01*
X133461595Y-72671388D01*
X133461603Y-72671390D01*
X133522150Y-72677899D01*
X133522155Y-72677899D01*
X133522162Y-72677900D01*
X133522168Y-72677900D01*
X135319432Y-72677900D01*
X135319438Y-72677900D01*
X135319445Y-72677899D01*
X135319449Y-72677899D01*
X135379996Y-72671390D01*
X135379999Y-72671389D01*
X135380001Y-72671389D01*
X135517004Y-72620289D01*
X135572999Y-72578372D01*
X135634061Y-72532661D01*
X135721687Y-72415607D01*
X135721687Y-72415606D01*
X135721689Y-72415604D01*
X135772789Y-72278601D01*
X135775582Y-72252629D01*
X135779299Y-72218049D01*
X135779300Y-72218032D01*
X135779300Y-70420767D01*
X135779299Y-70420750D01*
X135772790Y-70360203D01*
X135772788Y-70360195D01*
X135739318Y-70270461D01*
X135721689Y-70223196D01*
X135721688Y-70223194D01*
X135721687Y-70223192D01*
X135634061Y-70106138D01*
X135517007Y-70018512D01*
X135517002Y-70018510D01*
X135380004Y-69967411D01*
X135379996Y-69967409D01*
X135319449Y-69960900D01*
X135319438Y-69960900D01*
X133522162Y-69960900D01*
X133522150Y-69960900D01*
X133461603Y-69967409D01*
X133461595Y-69967411D01*
X133324597Y-70018510D01*
X133324592Y-70018512D01*
X133207538Y-70106138D01*
X133119912Y-70223192D01*
X133119910Y-70223197D01*
X133075931Y-70341108D01*
X133033384Y-70397944D01*
X132966864Y-70422754D01*
X132897490Y-70407662D01*
X132868781Y-70386170D01*
X132765809Y-70283198D01*
X132765806Y-70283196D01*
X132765804Y-70283194D01*
X132592809Y-70157506D01*
X132402283Y-70060428D01*
X132402280Y-70060427D01*
X132402278Y-70060426D01*
X132198920Y-69994352D01*
X132198923Y-69994352D01*
X132159601Y-69988124D01*
X131987716Y-69960900D01*
X131773884Y-69960900D01*
X131562684Y-69994351D01*
X131562678Y-69994352D01*
X131359321Y-70060426D01*
X131359315Y-70060429D01*
X131168787Y-70157508D01*
X130995793Y-70283196D01*
X130995790Y-70283198D01*
X130844598Y-70434390D01*
X130844596Y-70434393D01*
X130718908Y-70607387D01*
X130621829Y-70797915D01*
X130621826Y-70797921D01*
X130555752Y-71001278D01*
X130555751Y-71001283D01*
X130555751Y-71001284D01*
X130522300Y-71212484D01*
X126246700Y-71212484D01*
X126246700Y-67512484D01*
X130522300Y-67512484D01*
X130522300Y-67726316D01*
X130555751Y-67937516D01*
X130555752Y-67937521D01*
X130621826Y-68140878D01*
X130621828Y-68140883D01*
X130718906Y-68331409D01*
X130718908Y-68331412D01*
X130737868Y-68357508D01*
X130844594Y-68504404D01*
X130844596Y-68504406D01*
X130844598Y-68504409D01*
X130995790Y-68655601D01*
X130995793Y-68655603D01*
X130995796Y-68655606D01*
X131168791Y-68781294D01*
X131359317Y-68878372D01*
X131562678Y-68944447D01*
X131562679Y-68944447D01*
X131562684Y-68944449D01*
X131773884Y-68977900D01*
X131773887Y-68977900D01*
X131987713Y-68977900D01*
X131987716Y-68977900D01*
X132198916Y-68944449D01*
X132402283Y-68878372D01*
X132592809Y-68781294D01*
X132765804Y-68655606D01*
X132868782Y-68552627D01*
X132931092Y-68518604D01*
X133001908Y-68523668D01*
X133058744Y-68566215D01*
X133075931Y-68597691D01*
X133119910Y-68715603D01*
X133119912Y-68715607D01*
X133207538Y-68832661D01*
X133324592Y-68920287D01*
X133324594Y-68920288D01*
X133324596Y-68920289D01*
X133374518Y-68938909D01*
X133461595Y-68971388D01*
X133461603Y-68971390D01*
X133522150Y-68977899D01*
X133522155Y-68977899D01*
X133522162Y-68977900D01*
X133522168Y-68977900D01*
X135319432Y-68977900D01*
X135319438Y-68977900D01*
X135319445Y-68977899D01*
X135319449Y-68977899D01*
X135379996Y-68971390D01*
X135379999Y-68971389D01*
X135380001Y-68971389D01*
X135517004Y-68920289D01*
X135525964Y-68913582D01*
X135634061Y-68832661D01*
X135721687Y-68715607D01*
X135721689Y-68715603D01*
X135744067Y-68655606D01*
X135757068Y-68620750D01*
X138812300Y-68620750D01*
X138812300Y-70418049D01*
X138818809Y-70478596D01*
X138818811Y-70478604D01*
X138869910Y-70615602D01*
X138869912Y-70615607D01*
X138957538Y-70732661D01*
X139074592Y-70820287D01*
X139074594Y-70820288D01*
X139074596Y-70820289D01*
X139092868Y-70827104D01*
X139211595Y-70871388D01*
X139211603Y-70871390D01*
X139272150Y-70877899D01*
X139272155Y-70877899D01*
X139272162Y-70877900D01*
X139272168Y-70877900D01*
X141069432Y-70877900D01*
X141069438Y-70877900D01*
X141069445Y-70877899D01*
X141069449Y-70877899D01*
X141129996Y-70871390D01*
X141129999Y-70871389D01*
X141130001Y-70871389D01*
X141267004Y-70820289D01*
X141296890Y-70797917D01*
X141384061Y-70732661D01*
X141471687Y-70615607D01*
X141471687Y-70615606D01*
X141471689Y-70615604D01*
X141515669Y-70497688D01*
X141558214Y-70440856D01*
X141624734Y-70416045D01*
X141694108Y-70431136D01*
X141722818Y-70452629D01*
X141825790Y-70555601D01*
X141825793Y-70555603D01*
X141825796Y-70555606D01*
X141998791Y-70681294D01*
X142189317Y-70778372D01*
X142392678Y-70844447D01*
X142392679Y-70844447D01*
X142392684Y-70844449D01*
X142603884Y-70877900D01*
X142603887Y-70877900D01*
X142817713Y-70877900D01*
X142817716Y-70877900D01*
X143028916Y-70844449D01*
X143232283Y-70778372D01*
X143422809Y-70681294D01*
X143595804Y-70555606D01*
X143747006Y-70404404D01*
X143872694Y-70231409D01*
X143969772Y-70040883D01*
X144002806Y-69939212D01*
X147067300Y-69939212D01*
X147067300Y-70299587D01*
X147107648Y-70657694D01*
X147144760Y-70820289D01*
X147187838Y-71009026D01*
X147187840Y-71009032D01*
X147187839Y-71009032D01*
X147306854Y-71349157D01*
X147306859Y-71349171D01*
X147306861Y-71349175D01*
X147312508Y-71360900D01*
X147463222Y-71673860D01*
X147463223Y-71673863D01*
X147654943Y-71978984D01*
X147654947Y-71978991D01*
X147879639Y-72260745D01*
X148134454Y-72515560D01*
X148416208Y-72740252D01*
X148416215Y-72740256D01*
X148721336Y-72931976D01*
X148721338Y-72931976D01*
X148721342Y-72931979D01*
X149046025Y-73088339D01*
X149046040Y-73088344D01*
X149046042Y-73088345D01*
X149386167Y-73207360D01*
X149386170Y-73207360D01*
X149386174Y-73207362D01*
X149737505Y-73287551D01*
X149737506Y-73287551D01*
X149737509Y-73287552D01*
X149948707Y-73311347D01*
X150095612Y-73327900D01*
X150095614Y-73327900D01*
X150455988Y-73327900D01*
X150546930Y-73317653D01*
X150814091Y-73287552D01*
X151165426Y-73207362D01*
X151505575Y-73088339D01*
X151566057Y-73059212D01*
X162627300Y-73059212D01*
X162627300Y-73419587D01*
X162667648Y-73777694D01*
X162694726Y-73896328D01*
X162747838Y-74129026D01*
X162747840Y-74129032D01*
X162747839Y-74129032D01*
X162866854Y-74469157D01*
X162866862Y-74469177D01*
X163023222Y-74793860D01*
X163023223Y-74793863D01*
X163214943Y-75098984D01*
X163214947Y-75098991D01*
X163439639Y-75380745D01*
X163694454Y-75635560D01*
X163976208Y-75860252D01*
X163976215Y-75860256D01*
X164281336Y-76051976D01*
X164281338Y-76051976D01*
X164281342Y-76051979D01*
X164606025Y-76208339D01*
X164606040Y-76208344D01*
X164606042Y-76208345D01*
X164946167Y-76327360D01*
X164946170Y-76327360D01*
X164946174Y-76327362D01*
X165297505Y-76407551D01*
X165297506Y-76407551D01*
X165297509Y-76407552D01*
X165508707Y-76431347D01*
X165655612Y-76447900D01*
X165655614Y-76447900D01*
X166015988Y-76447900D01*
X166106930Y-76437653D01*
X166374091Y-76407552D01*
X166725426Y-76327362D01*
X167065575Y-76208339D01*
X167390258Y-76051979D01*
X167695393Y-75860251D01*
X167977142Y-75635563D01*
X168231963Y-75380742D01*
X168456651Y-75098993D01*
X168648379Y-74793858D01*
X168804739Y-74469175D01*
X168813602Y-74443846D01*
X184787300Y-74443846D01*
X184787300Y-75694944D01*
X184797912Y-75798825D01*
X184830673Y-75897691D01*
X184853685Y-75967138D01*
X184924097Y-76081294D01*
X184950623Y-76124298D01*
X184948099Y-76125854D01*
X184969622Y-76179194D01*
X184956374Y-76248944D01*
X184950143Y-76259090D01*
X184950314Y-76259195D01*
X184947730Y-76263411D01*
X184868513Y-76418882D01*
X184868510Y-76418888D01*
X184826272Y-76548887D01*
X184814595Y-76584826D01*
X184787300Y-76757159D01*
X184787300Y-77381641D01*
X184814595Y-77553974D01*
X184814596Y-77553977D01*
X184858230Y-77688273D01*
X184868512Y-77719916D01*
X184874752Y-77732162D01*
X184947728Y-77875384D01*
X184970435Y-77906637D01*
X185050283Y-78016539D01*
X185050285Y-78016541D01*
X185050287Y-78016544D01*
X185173655Y-78139912D01*
X185173658Y-78139914D01*
X185173661Y-78139917D01*
X185314819Y-78242474D01*
X185470284Y-78321688D01*
X185636226Y-78375605D01*
X185808559Y-78402900D01*
X185808562Y-78402900D01*
X185983038Y-78402900D01*
X185983041Y-78402900D01*
X186155374Y-78375605D01*
X186321316Y-78321688D01*
X186476781Y-78242474D01*
X186617939Y-78139917D01*
X186741317Y-78016539D01*
X186793864Y-77944213D01*
X186850086Y-77900860D01*
X186920822Y-77894785D01*
X186983614Y-77927916D01*
X186997735Y-77944213D01*
X187050283Y-78016539D01*
X187050285Y-78016541D01*
X187050287Y-78016544D01*
X187173655Y-78139912D01*
X187173658Y-78139914D01*
X187173661Y-78139917D01*
X187314819Y-78242474D01*
X187470284Y-78321688D01*
X187636226Y-78375605D01*
X187808559Y-78402900D01*
X187808562Y-78402900D01*
X187983038Y-78402900D01*
X187983041Y-78402900D01*
X188155374Y-78375605D01*
X188321316Y-78321688D01*
X188476781Y-78242474D01*
X188617939Y-78139917D01*
X188741317Y-78016539D01*
X188843874Y-77875381D01*
X188916850Y-77732159D01*
X194712300Y-77732159D01*
X194712300Y-77906641D01*
X194739595Y-78078974D01*
X194739596Y-78078977D01*
X194792718Y-78242474D01*
X194793512Y-78244916D01*
X194860101Y-78375603D01*
X194872728Y-78400384D01*
X194890891Y-78425383D01*
X194975283Y-78541539D01*
X194975285Y-78541541D01*
X194975287Y-78541544D01*
X195098654Y-78664911D01*
X195098657Y-78664913D01*
X195098661Y-78664917D01*
X195137949Y-78693461D01*
X195170986Y-78717464D01*
X195214339Y-78773687D01*
X195220414Y-78844423D01*
X195187282Y-78907215D01*
X195170986Y-78921336D01*
X195098654Y-78973888D01*
X194975287Y-79097255D01*
X194975285Y-79097258D01*
X194872728Y-79238415D01*
X194793513Y-79393882D01*
X194793510Y-79393888D01*
X194739596Y-79559822D01*
X194739595Y-79559826D01*
X194712300Y-79732159D01*
X194712300Y-79906641D01*
X194739595Y-80078974D01*
X194793512Y-80244916D01*
X194872726Y-80400381D01*
X194872728Y-80400384D01*
X194890892Y-80425384D01*
X194975283Y-80541539D01*
X194975285Y-80541541D01*
X194975287Y-80541544D01*
X195098655Y-80664912D01*
X195098658Y-80664914D01*
X195098661Y-80664917D01*
X195239819Y-80767474D01*
X195395284Y-80846688D01*
X195561226Y-80900605D01*
X195733559Y-80927900D01*
X195733562Y-80927900D01*
X196358038Y-80927900D01*
X196358041Y-80927900D01*
X196530374Y-80900605D01*
X196696316Y-80846688D01*
X196851781Y-80767474D01*
X196971740Y-80680318D01*
X197038606Y-80656461D01*
X197107758Y-80672541D01*
X197119853Y-80680313D01*
X197239819Y-80767474D01*
X197395284Y-80846688D01*
X197561226Y-80900605D01*
X197733559Y-80927900D01*
X197733562Y-80927900D01*
X198358038Y-80927900D01*
X198358041Y-80927900D01*
X198530374Y-80900605D01*
X198696316Y-80846688D01*
X198851781Y-80767474D01*
X198992939Y-80664917D01*
X199116317Y-80541539D01*
X199218874Y-80400381D01*
X199298088Y-80244916D01*
X199352005Y-80078974D01*
X199379300Y-79906641D01*
X199379300Y-79732159D01*
X199352005Y-79559826D01*
X199298088Y-79393884D01*
X199218874Y-79238419D01*
X199116317Y-79097261D01*
X199116314Y-79097258D01*
X199116312Y-79097255D01*
X199017272Y-78998215D01*
X198983246Y-78935903D01*
X198988311Y-78865088D01*
X199030858Y-78808252D01*
X199040198Y-78801894D01*
X199094452Y-78768430D01*
X199219830Y-78643052D01*
X199312915Y-78492138D01*
X199368687Y-78323826D01*
X199379300Y-78219945D01*
X199379299Y-77418856D01*
X199373281Y-77359950D01*
X199368687Y-77314974D01*
X199366097Y-77307159D01*
X199312915Y-77146662D01*
X199219830Y-76995748D01*
X199219829Y-76995747D01*
X199219824Y-76995741D01*
X199217929Y-76993846D01*
X201437300Y-76993846D01*
X201437300Y-78244944D01*
X201447912Y-78348825D01*
X201495401Y-78492137D01*
X201503685Y-78517138D01*
X201594836Y-78664917D01*
X201600623Y-78674298D01*
X201598099Y-78675854D01*
X201619622Y-78729194D01*
X201606374Y-78798944D01*
X201600143Y-78809090D01*
X201600314Y-78809195D01*
X201597730Y-78813411D01*
X201518513Y-78968882D01*
X201518510Y-78968888D01*
X201499712Y-79026744D01*
X201464595Y-79134826D01*
X201437300Y-79307159D01*
X201437300Y-79931641D01*
X201464595Y-80103974D01*
X201464596Y-80103977D01*
X201510387Y-80244911D01*
X201518512Y-80269916D01*
X201597726Y-80425381D01*
X201597728Y-80425384D01*
X201623083Y-80460282D01*
X201700283Y-80566539D01*
X201700285Y-80566541D01*
X201700287Y-80566544D01*
X201823655Y-80689912D01*
X201823658Y-80689914D01*
X201823661Y-80689917D01*
X201964819Y-80792474D01*
X202120284Y-80871688D01*
X202286226Y-80925605D01*
X202458559Y-80952900D01*
X202458562Y-80952900D01*
X202633038Y-80952900D01*
X202633041Y-80952900D01*
X202805374Y-80925605D01*
X202971316Y-80871688D01*
X203126781Y-80792474D01*
X203267939Y-80689917D01*
X203391317Y-80566539D01*
X203443864Y-80494213D01*
X203500086Y-80450860D01*
X203570822Y-80444785D01*
X203633614Y-80477916D01*
X203647735Y-80494213D01*
X203700283Y-80566539D01*
X203700285Y-80566541D01*
X203700287Y-80566544D01*
X203823655Y-80689912D01*
X203823658Y-80689914D01*
X203823661Y-80689917D01*
X203964819Y-80792474D01*
X204120284Y-80871688D01*
X204286226Y-80925605D01*
X204458559Y-80952900D01*
X204458562Y-80952900D01*
X204633038Y-80952900D01*
X204633041Y-80952900D01*
X204805374Y-80925605D01*
X204971316Y-80871688D01*
X205126781Y-80792474D01*
X205267939Y-80689917D01*
X205391317Y-80566539D01*
X205493874Y-80425381D01*
X205573088Y-80269916D01*
X205627005Y-80103974D01*
X205654300Y-79931641D01*
X205654300Y-79307159D01*
X205627005Y-79134826D01*
X205573088Y-78968884D01*
X205493874Y-78813419D01*
X205406718Y-78693459D01*
X205382861Y-78626594D01*
X205398941Y-78557442D01*
X205406713Y-78545346D01*
X205493874Y-78425381D01*
X205573088Y-78269916D01*
X205627005Y-78103974D01*
X205654300Y-77931641D01*
X205654300Y-77307159D01*
X205627005Y-77134826D01*
X205573088Y-76968884D01*
X205493874Y-76813419D01*
X205391317Y-76672261D01*
X205391314Y-76672258D01*
X205391312Y-76672255D01*
X205267944Y-76548887D01*
X205267941Y-76548885D01*
X205267939Y-76548883D01*
X205161682Y-76471683D01*
X205126784Y-76446328D01*
X205126783Y-76446327D01*
X205126781Y-76446326D01*
X204971316Y-76367112D01*
X204971313Y-76367111D01*
X204971311Y-76367110D01*
X204805377Y-76313196D01*
X204805374Y-76313195D01*
X204633041Y-76285900D01*
X204458559Y-76285900D01*
X204286226Y-76313195D01*
X204286223Y-76313195D01*
X204286222Y-76313196D01*
X204120288Y-76367110D01*
X204120282Y-76367113D01*
X203964815Y-76446328D01*
X203823660Y-76548883D01*
X203724615Y-76647928D01*
X203662303Y-76681953D01*
X203591487Y-76676887D01*
X203534651Y-76634340D01*
X203528284Y-76624986D01*
X203494830Y-76570748D01*
X203494827Y-76570745D01*
X203494824Y-76570741D01*
X203369458Y-76445375D01*
X203369452Y-76445370D01*
X203326518Y-76418888D01*
X203218538Y-76352285D01*
X203100570Y-76313195D01*
X203050227Y-76296513D01*
X203050220Y-76296512D01*
X202946353Y-76285900D01*
X202145255Y-76285900D01*
X202041374Y-76296512D01*
X201873061Y-76352285D01*
X201722147Y-76445370D01*
X201722141Y-76445375D01*
X201596775Y-76570741D01*
X201596770Y-76570747D01*
X201503685Y-76721662D01*
X201447913Y-76889972D01*
X201447912Y-76889979D01*
X201437300Y-76993846D01*
X199217929Y-76993846D01*
X199094458Y-76870375D01*
X199094452Y-76870370D01*
X199002120Y-76813419D01*
X198943538Y-76777285D01*
X198825570Y-76738195D01*
X198775227Y-76721513D01*
X198775220Y-76721512D01*
X198671353Y-76710900D01*
X197420255Y-76710900D01*
X197316374Y-76721512D01*
X197148061Y-76777285D01*
X197054174Y-76835195D01*
X196997148Y-76870370D01*
X196997147Y-76870370D01*
X196990902Y-76874223D01*
X196989350Y-76871708D01*
X196935948Y-76893227D01*
X196866204Y-76879948D01*
X196856109Y-76873744D01*
X196856005Y-76873914D01*
X196851788Y-76871330D01*
X196851782Y-76871327D01*
X196851781Y-76871326D01*
X196696316Y-76792112D01*
X196696313Y-76792111D01*
X196696311Y-76792110D01*
X196530377Y-76738196D01*
X196530374Y-76738195D01*
X196358041Y-76710900D01*
X195733559Y-76710900D01*
X195561226Y-76738195D01*
X195561223Y-76738195D01*
X195561222Y-76738196D01*
X195395288Y-76792110D01*
X195395282Y-76792113D01*
X195239815Y-76871328D01*
X195098658Y-76973885D01*
X195098655Y-76973887D01*
X194975287Y-77097255D01*
X194975285Y-77097258D01*
X194872728Y-77238415D01*
X194793513Y-77393882D01*
X194793510Y-77393888D01*
X194785398Y-77418856D01*
X194739595Y-77559826D01*
X194712300Y-77732159D01*
X188916850Y-77732159D01*
X188923088Y-77719916D01*
X188977005Y-77553974D01*
X189004300Y-77381641D01*
X189004300Y-76757159D01*
X188977005Y-76584826D01*
X188923088Y-76418884D01*
X188843874Y-76263419D01*
X188756718Y-76143459D01*
X188732861Y-76076594D01*
X188748941Y-76007442D01*
X188756713Y-75995346D01*
X188843874Y-75875381D01*
X188923088Y-75719916D01*
X188977005Y-75553974D01*
X189004300Y-75381641D01*
X189004300Y-74757159D01*
X188977005Y-74584826D01*
X188923088Y-74418884D01*
X188843874Y-74263419D01*
X188741317Y-74122261D01*
X188741314Y-74122258D01*
X188741312Y-74122255D01*
X188617944Y-73998887D01*
X188617941Y-73998885D01*
X188617939Y-73998883D01*
X188476781Y-73896326D01*
X188321316Y-73817112D01*
X188321313Y-73817111D01*
X188321311Y-73817110D01*
X188155377Y-73763196D01*
X188155374Y-73763195D01*
X187983041Y-73735900D01*
X187808559Y-73735900D01*
X187636226Y-73763195D01*
X187636223Y-73763195D01*
X187636222Y-73763196D01*
X187470288Y-73817110D01*
X187470282Y-73817113D01*
X187314815Y-73896328D01*
X187173660Y-73998883D01*
X187074615Y-74097928D01*
X187012303Y-74131953D01*
X186941487Y-74126887D01*
X186884651Y-74084340D01*
X186878284Y-74074986D01*
X186844830Y-74020748D01*
X186844827Y-74020745D01*
X186844824Y-74020741D01*
X186719458Y-73895375D01*
X186719452Y-73895370D01*
X186699712Y-73883194D01*
X186568538Y-73802285D01*
X186450570Y-73763195D01*
X186400227Y-73746513D01*
X186400220Y-73746512D01*
X186296353Y-73735900D01*
X185495255Y-73735900D01*
X185391374Y-73746512D01*
X185223061Y-73802285D01*
X185072147Y-73895370D01*
X185072141Y-73895375D01*
X184946775Y-74020741D01*
X184946770Y-74020747D01*
X184853685Y-74171662D01*
X184797913Y-74339972D01*
X184797912Y-74339979D01*
X184787300Y-74443846D01*
X168813602Y-74443846D01*
X168822337Y-74418884D01*
X168829284Y-74399031D01*
X168829284Y-74399030D01*
X168923760Y-74129032D01*
X168923760Y-74129031D01*
X168923762Y-74129026D01*
X169003952Y-73777691D01*
X169044300Y-73419586D01*
X169044300Y-73059214D01*
X169003952Y-72701109D01*
X168923762Y-72349774D01*
X168915121Y-72325080D01*
X168876724Y-72215346D01*
X168864327Y-72179918D01*
X180737300Y-72179918D01*
X180737300Y-72179921D01*
X180737300Y-72358879D01*
X180772213Y-72534400D01*
X180840698Y-72699736D01*
X180940122Y-72848535D01*
X181066665Y-72975078D01*
X181215464Y-73074502D01*
X181380800Y-73142987D01*
X181556321Y-73177900D01*
X181556322Y-73177900D01*
X181735278Y-73177900D01*
X181735279Y-73177900D01*
X181910800Y-73142987D01*
X182076136Y-73074502D01*
X182224935Y-72975078D01*
X182351478Y-72848535D01*
X182450902Y-72699736D01*
X182519387Y-72534400D01*
X182554300Y-72358879D01*
X182554300Y-72279918D01*
X183987300Y-72279918D01*
X183987300Y-72458881D01*
X184004638Y-72546045D01*
X184019406Y-72620289D01*
X184022214Y-72634403D01*
X184026375Y-72644449D01*
X184090698Y-72799736D01*
X184190122Y-72948535D01*
X184316665Y-73075078D01*
X184465464Y-73174502D01*
X184630800Y-73242987D01*
X184806321Y-73277900D01*
X184806322Y-73277900D01*
X184985278Y-73277900D01*
X184985279Y-73277900D01*
X185160800Y-73242987D01*
X185326136Y-73174502D01*
X185474935Y-73075078D01*
X185601478Y-72948535D01*
X185700902Y-72799736D01*
X185769387Y-72634400D01*
X185804300Y-72458879D01*
X185804300Y-72279921D01*
X185784408Y-72179918D01*
X187237300Y-72179918D01*
X187237300Y-72179921D01*
X187237300Y-72358879D01*
X187272213Y-72534400D01*
X187340698Y-72699736D01*
X187440122Y-72848535D01*
X187566665Y-72975078D01*
X187715464Y-73074502D01*
X187880800Y-73142987D01*
X188056321Y-73177900D01*
X188056322Y-73177900D01*
X188235278Y-73177900D01*
X188235279Y-73177900D01*
X188410800Y-73142987D01*
X188576136Y-73074502D01*
X188724935Y-72975078D01*
X188851478Y-72848535D01*
X188950902Y-72699736D01*
X189019387Y-72534400D01*
X189054300Y-72358879D01*
X189054300Y-72279918D01*
X190687300Y-72279918D01*
X190687300Y-72458881D01*
X190704638Y-72546045D01*
X190719406Y-72620289D01*
X190722214Y-72634403D01*
X190726375Y-72644449D01*
X190790698Y-72799736D01*
X190890122Y-72948535D01*
X191016665Y-73075078D01*
X191165464Y-73174502D01*
X191330800Y-73242987D01*
X191506321Y-73277900D01*
X191506322Y-73277900D01*
X191685278Y-73277900D01*
X191685279Y-73277900D01*
X191860800Y-73242987D01*
X192026136Y-73174502D01*
X192174935Y-73075078D01*
X192301478Y-72948535D01*
X192400902Y-72799736D01*
X192469387Y-72634400D01*
X192504300Y-72458879D01*
X192504300Y-72452318D01*
X192524302Y-72384197D01*
X192577958Y-72337704D01*
X192648232Y-72327600D01*
X192700300Y-72347552D01*
X192815464Y-72424502D01*
X192980800Y-72492987D01*
X193156321Y-72527900D01*
X193156322Y-72527900D01*
X193335278Y-72527900D01*
X193335279Y-72527900D01*
X193510800Y-72492987D01*
X193676136Y-72424502D01*
X193824935Y-72325078D01*
X193951478Y-72198535D01*
X194050902Y-72049736D01*
X194059111Y-72029918D01*
X198337300Y-72029918D01*
X198337300Y-72208881D01*
X198346002Y-72252629D01*
X198372213Y-72384400D01*
X198440698Y-72549736D01*
X198540122Y-72698535D01*
X198666665Y-72825078D01*
X198815464Y-72924502D01*
X198980800Y-72992987D01*
X199156321Y-73027900D01*
X199156322Y-73027900D01*
X199335278Y-73027900D01*
X199335279Y-73027900D01*
X199510800Y-72992987D01*
X199676136Y-72924502D01*
X199824935Y-72825078D01*
X199906705Y-72743308D01*
X199969017Y-72709282D01*
X200039832Y-72714347D01*
X200084895Y-72743308D01*
X200166665Y-72825078D01*
X200315464Y-72924502D01*
X200480800Y-72992987D01*
X200656321Y-73027900D01*
X200656322Y-73027900D01*
X200835278Y-73027900D01*
X200835279Y-73027900D01*
X201010800Y-72992987D01*
X201176136Y-72924502D01*
X201324935Y-72825078D01*
X201451478Y-72698535D01*
X201550902Y-72549736D01*
X201619387Y-72384400D01*
X201654300Y-72208879D01*
X201654300Y-72029921D01*
X201619387Y-71854400D01*
X201550902Y-71689064D01*
X201451478Y-71540265D01*
X201422809Y-71511596D01*
X201388783Y-71449284D01*
X201393848Y-71378469D01*
X201436395Y-71321633D01*
X201502915Y-71296822D01*
X201560122Y-71306092D01*
X201591631Y-71319144D01*
X201786471Y-71357900D01*
X201786472Y-71357900D01*
X201985128Y-71357900D01*
X201985129Y-71357900D01*
X202179969Y-71319144D01*
X202363504Y-71243121D01*
X202528681Y-71132753D01*
X202669153Y-70992281D01*
X202779521Y-70827104D01*
X202855544Y-70643569D01*
X202894300Y-70448729D01*
X202894300Y-69150071D01*
X202855544Y-68955231D01*
X202779521Y-68771696D01*
X202669153Y-68606519D01*
X202528681Y-68466047D01*
X202363504Y-68355679D01*
X202179969Y-68279656D01*
X201985131Y-68240900D01*
X201985129Y-68240900D01*
X201786471Y-68240900D01*
X201786468Y-68240900D01*
X201591630Y-68279656D01*
X201591625Y-68279658D01*
X201408096Y-68355679D01*
X201242923Y-68466044D01*
X201242916Y-68466049D01*
X201102449Y-68606516D01*
X201102444Y-68606523D01*
X200990642Y-68773846D01*
X200936165Y-68819374D01*
X200865722Y-68828222D01*
X200819633Y-68808323D01*
X200818773Y-68809814D01*
X200679482Y-68729394D01*
X200679480Y-68729393D01*
X200679478Y-68729392D01*
X200532093Y-68689900D01*
X200379507Y-68689900D01*
X200232122Y-68729392D01*
X200232117Y-68729394D01*
X200099982Y-68805682D01*
X200099972Y-68805690D01*
X199992090Y-68913572D01*
X199992082Y-68913582D01*
X199915794Y-69045717D01*
X199915792Y-69045722D01*
X199876300Y-69193107D01*
X199876300Y-69345693D01*
X199903356Y-69446665D01*
X199915792Y-69493077D01*
X199915794Y-69493082D01*
X199992082Y-69625217D01*
X199992090Y-69625227D01*
X200099972Y-69733109D01*
X200099977Y-69733113D01*
X200099979Y-69733115D01*
X200099980Y-69733116D01*
X200099982Y-69733117D01*
X200192862Y-69786741D01*
X200232122Y-69809408D01*
X200379507Y-69848900D01*
X200379510Y-69848900D01*
X200532090Y-69848900D01*
X200532093Y-69848900D01*
X200679478Y-69809408D01*
X200688300Y-69804314D01*
X200757293Y-69787576D01*
X200824385Y-69810795D01*
X200868273Y-69866601D01*
X200877300Y-69913433D01*
X200877300Y-70448731D01*
X200898559Y-70555606D01*
X200916056Y-70643569D01*
X200992079Y-70827104D01*
X201102447Y-70992281D01*
X201102449Y-70992283D01*
X201152144Y-71041978D01*
X201186170Y-71104290D01*
X201181105Y-71175105D01*
X201138558Y-71231941D01*
X201072038Y-71256752D01*
X201014833Y-71247483D01*
X201010804Y-71245814D01*
X201010800Y-71245813D01*
X200941060Y-71231941D01*
X200835281Y-71210900D01*
X200835279Y-71210900D01*
X200656321Y-71210900D01*
X200656318Y-71210900D01*
X200525571Y-71236907D01*
X200480800Y-71245813D01*
X200480799Y-71245813D01*
X200480796Y-71245814D01*
X200357654Y-71296822D01*
X200335273Y-71306093D01*
X200315462Y-71314299D01*
X200166669Y-71413719D01*
X200166667Y-71413720D01*
X200084895Y-71495492D01*
X200022583Y-71529517D01*
X199951767Y-71524451D01*
X199906705Y-71495492D01*
X199872113Y-71460900D01*
X199824935Y-71413722D01*
X199676136Y-71314298D01*
X199514832Y-71247483D01*
X199510803Y-71245814D01*
X199510801Y-71245813D01*
X199510800Y-71245813D01*
X199422445Y-71228238D01*
X199335281Y-71210900D01*
X199335279Y-71210900D01*
X199156321Y-71210900D01*
X199156318Y-71210900D01*
X199025571Y-71236907D01*
X198980800Y-71245813D01*
X198980799Y-71245813D01*
X198980796Y-71245814D01*
X198857654Y-71296822D01*
X198835273Y-71306093D01*
X198815462Y-71314299D01*
X198666669Y-71413719D01*
X198666662Y-71413724D01*
X198540124Y-71540262D01*
X198540119Y-71540269D01*
X198457630Y-71663724D01*
X198440698Y-71689064D01*
X198426516Y-71723302D01*
X198372214Y-71854396D01*
X198337300Y-72029918D01*
X194059111Y-72029918D01*
X194081645Y-71975517D01*
X194081647Y-71975513D01*
X194119385Y-71884405D01*
X194119385Y-71884404D01*
X194119387Y-71884400D01*
X194154300Y-71708879D01*
X194154300Y-71529921D01*
X194119387Y-71354400D01*
X194050902Y-71189064D01*
X194020580Y-71143684D01*
X193999366Y-71075933D01*
X194018149Y-71007466D01*
X194027950Y-70993746D01*
X194029146Y-70992287D01*
X194029153Y-70992281D01*
X194139521Y-70827104D01*
X194215544Y-70643569D01*
X194254300Y-70448729D01*
X194254300Y-69913433D01*
X194274302Y-69845312D01*
X194327958Y-69798819D01*
X194398232Y-69788715D01*
X194443298Y-69804313D01*
X194452122Y-69809408D01*
X194599507Y-69848900D01*
X194599510Y-69848900D01*
X194752090Y-69848900D01*
X194752093Y-69848900D01*
X194899478Y-69809408D01*
X195031621Y-69733115D01*
X195139080Y-69625655D01*
X195201390Y-69591632D01*
X195272206Y-69596696D01*
X195329042Y-69639243D01*
X195351753Y-69690171D01*
X195356211Y-69712587D01*
X195387745Y-69788715D01*
X195424696Y-69877921D01*
X195524120Y-70026720D01*
X195650663Y-70153263D01*
X195799462Y-70252687D01*
X195964798Y-70321172D01*
X196140319Y-70356085D01*
X196140320Y-70356085D01*
X196319276Y-70356085D01*
X196319277Y-70356085D01*
X196494798Y-70321172D01*
X196660134Y-70252687D01*
X196808933Y-70153263D01*
X196935476Y-70026720D01*
X197034900Y-69877921D01*
X197103385Y-69712585D01*
X197138298Y-69537064D01*
X197138298Y-69358106D01*
X197103385Y-69182585D01*
X197034900Y-69017249D01*
X196935476Y-68868450D01*
X196808933Y-68741907D01*
X196660134Y-68642483D01*
X196505911Y-68578601D01*
X196494801Y-68573999D01*
X196494799Y-68573998D01*
X196494798Y-68573998D01*
X196387368Y-68552629D01*
X196319279Y-68539085D01*
X196319277Y-68539085D01*
X196140319Y-68539085D01*
X196140316Y-68539085D01*
X196010356Y-68564936D01*
X195964798Y-68573998D01*
X195964797Y-68573998D01*
X195964794Y-68573999D01*
X195799460Y-68642484D01*
X195650667Y-68741904D01*
X195650660Y-68741909D01*
X195524122Y-68868447D01*
X195524117Y-68868454D01*
X195424692Y-69017254D01*
X195423246Y-69019960D01*
X195422116Y-69021109D01*
X195421257Y-69022396D01*
X195421012Y-69022232D01*
X195373490Y-69070604D01*
X195304252Y-69086309D01*
X195237515Y-69062087D01*
X195203010Y-69023555D01*
X195139517Y-68913582D01*
X195139509Y-68913572D01*
X195031627Y-68805690D01*
X195031617Y-68805682D01*
X194899482Y-68729394D01*
X194899480Y-68729393D01*
X194899478Y-68729392D01*
X194752093Y-68689900D01*
X194599507Y-68689900D01*
X194452122Y-68729392D01*
X194452117Y-68729394D01*
X194312827Y-68809814D01*
X194311744Y-68807939D01*
X194256189Y-68829409D01*
X194186642Y-68815134D01*
X194140957Y-68773846D01*
X194139521Y-68771698D01*
X194139521Y-68771696D01*
X194029153Y-68606519D01*
X193888681Y-68466047D01*
X193723504Y-68355679D01*
X193539969Y-68279656D01*
X193345131Y-68240900D01*
X193345129Y-68240900D01*
X193146471Y-68240900D01*
X193146468Y-68240900D01*
X192951630Y-68279656D01*
X192951625Y-68279658D01*
X192768096Y-68355679D01*
X192602923Y-68466044D01*
X192602916Y-68466049D01*
X192462449Y-68606516D01*
X192462444Y-68606523D01*
X192352079Y-68771696D01*
X192276058Y-68955225D01*
X192276056Y-68955230D01*
X192237300Y-69150068D01*
X192237300Y-70448731D01*
X192258559Y-70555606D01*
X192276056Y-70643569D01*
X192352079Y-70827104D01*
X192386020Y-70877900D01*
X192462447Y-70992281D01*
X192463650Y-70993747D01*
X192464040Y-70994665D01*
X192465886Y-70997428D01*
X192465362Y-70997778D01*
X192491405Y-71059093D01*
X192479426Y-71129072D01*
X192471020Y-71143683D01*
X192440698Y-71189064D01*
X192372214Y-71354396D01*
X192372213Y-71354399D01*
X192372213Y-71354400D01*
X192365764Y-71386822D01*
X192337300Y-71529918D01*
X192337300Y-71536481D01*
X192317298Y-71604602D01*
X192263642Y-71651095D01*
X192193368Y-71661199D01*
X192141299Y-71641247D01*
X192026136Y-71564298D01*
X191860803Y-71495814D01*
X191860801Y-71495813D01*
X191860800Y-71495813D01*
X191772445Y-71478238D01*
X191685281Y-71460900D01*
X191685279Y-71460900D01*
X191506321Y-71460900D01*
X191506318Y-71460900D01*
X191375571Y-71486907D01*
X191330800Y-71495813D01*
X191330799Y-71495813D01*
X191330796Y-71495814D01*
X191165462Y-71564299D01*
X191016669Y-71663719D01*
X191016662Y-71663724D01*
X190890124Y-71790262D01*
X190890119Y-71790269D01*
X190790699Y-71939062D01*
X190722214Y-72104396D01*
X190687300Y-72279918D01*
X189054300Y-72279918D01*
X189054300Y-72179921D01*
X189019387Y-72004400D01*
X188950902Y-71839064D01*
X188851478Y-71690265D01*
X188724935Y-71563722D01*
X188576136Y-71464298D01*
X188454029Y-71413719D01*
X188410803Y-71395814D01*
X188410801Y-71395813D01*
X188410800Y-71395813D01*
X188318563Y-71377466D01*
X188235281Y-71360900D01*
X188235279Y-71360900D01*
X188056321Y-71360900D01*
X188056318Y-71360900D01*
X187936403Y-71384753D01*
X187880800Y-71395813D01*
X187880799Y-71395813D01*
X187880796Y-71395814D01*
X187751711Y-71449284D01*
X187723668Y-71460900D01*
X187715462Y-71464299D01*
X187566669Y-71563719D01*
X187566662Y-71563724D01*
X187440124Y-71690262D01*
X187440119Y-71690269D01*
X187340699Y-71839062D01*
X187272214Y-72004396D01*
X187237300Y-72179918D01*
X185784408Y-72179918D01*
X185769387Y-72104400D01*
X185700902Y-71939064D01*
X185601478Y-71790265D01*
X185474935Y-71663722D01*
X185326136Y-71564298D01*
X185198903Y-71511596D01*
X185160803Y-71495814D01*
X185160801Y-71495813D01*
X185160800Y-71495813D01*
X185072445Y-71478238D01*
X184985281Y-71460900D01*
X184985279Y-71460900D01*
X184806321Y-71460900D01*
X184806318Y-71460900D01*
X184675571Y-71486907D01*
X184630800Y-71495813D01*
X184630799Y-71495813D01*
X184630796Y-71495814D01*
X184465462Y-71564299D01*
X184316669Y-71663719D01*
X184316662Y-71663724D01*
X184190124Y-71790262D01*
X184190119Y-71790269D01*
X184090699Y-71939062D01*
X184022214Y-72104396D01*
X183987300Y-72279918D01*
X182554300Y-72279918D01*
X182554300Y-72179921D01*
X182519387Y-72004400D01*
X182450902Y-71839064D01*
X182351478Y-71690265D01*
X182224935Y-71563722D01*
X182224931Y-71563719D01*
X182220145Y-71559791D01*
X182221786Y-71557791D01*
X182183509Y-71511941D01*
X182174699Y-71441493D01*
X182205375Y-71377466D01*
X182265797Y-71340187D01*
X182274460Y-71338141D01*
X182369969Y-71319144D01*
X182553504Y-71243121D01*
X182718681Y-71132753D01*
X182859153Y-70992281D01*
X182969521Y-70827104D01*
X183045544Y-70643569D01*
X183084300Y-70448729D01*
X183084300Y-69913433D01*
X183104302Y-69845312D01*
X183157958Y-69798819D01*
X183228232Y-69788715D01*
X183273298Y-69804313D01*
X183282122Y-69809408D01*
X183429507Y-69848900D01*
X183429510Y-69848900D01*
X183582090Y-69848900D01*
X183582093Y-69848900D01*
X183729478Y-69809408D01*
X183861621Y-69733115D01*
X183969515Y-69625221D01*
X184045808Y-69493078D01*
X184058245Y-69446661D01*
X185407300Y-69446661D01*
X185407300Y-69592138D01*
X185414098Y-69626312D01*
X185435680Y-69734812D01*
X185491350Y-69869211D01*
X185538125Y-69939214D01*
X185572169Y-69990165D01*
X185572174Y-69990171D01*
X185675028Y-70093025D01*
X185675034Y-70093030D01*
X185795989Y-70173850D01*
X185930388Y-70229520D01*
X186073064Y-70257900D01*
X186073065Y-70257900D01*
X186218535Y-70257900D01*
X186218536Y-70257900D01*
X186361212Y-70229520D01*
X186495611Y-70173850D01*
X186606301Y-70099888D01*
X186674050Y-70078675D01*
X186742517Y-70097458D01*
X186746242Y-70099851D01*
X186856989Y-70173850D01*
X186991388Y-70229520D01*
X187134064Y-70257900D01*
X187134065Y-70257900D01*
X187279535Y-70257900D01*
X187279536Y-70257900D01*
X187422212Y-70229520D01*
X187556611Y-70173850D01*
X187677566Y-70093030D01*
X187780430Y-69990166D01*
X187861250Y-69869211D01*
X187916920Y-69734812D01*
X187945300Y-69592136D01*
X187945300Y-69446664D01*
X187916920Y-69303988D01*
X187870991Y-69193107D01*
X188706300Y-69193107D01*
X188706300Y-69345693D01*
X188733356Y-69446665D01*
X188745792Y-69493077D01*
X188745794Y-69493082D01*
X188822082Y-69625217D01*
X188822090Y-69625227D01*
X188929972Y-69733109D01*
X188929977Y-69733113D01*
X188929979Y-69733115D01*
X188929980Y-69733116D01*
X188929982Y-69733117D01*
X189022862Y-69786741D01*
X189062122Y-69809408D01*
X189209507Y-69848900D01*
X189209510Y-69848900D01*
X189362090Y-69848900D01*
X189362093Y-69848900D01*
X189509478Y-69809408D01*
X189518300Y-69804314D01*
X189587293Y-69787576D01*
X189654385Y-69810795D01*
X189698273Y-69866601D01*
X189707300Y-69913433D01*
X189707300Y-70448731D01*
X189728559Y-70555606D01*
X189746056Y-70643569D01*
X189822079Y-70827104D01*
X189932447Y-70992281D01*
X190072919Y-71132753D01*
X190238096Y-71243121D01*
X190421631Y-71319144D01*
X190616471Y-71357900D01*
X190616472Y-71357900D01*
X190815128Y-71357900D01*
X190815129Y-71357900D01*
X191009969Y-71319144D01*
X191193504Y-71243121D01*
X191358681Y-71132753D01*
X191499153Y-70992281D01*
X191609521Y-70827104D01*
X191685544Y-70643569D01*
X191724300Y-70448729D01*
X191724300Y-69150071D01*
X191685544Y-68955231D01*
X191609521Y-68771696D01*
X191499153Y-68606519D01*
X191358681Y-68466047D01*
X191193504Y-68355679D01*
X191009969Y-68279656D01*
X190815131Y-68240900D01*
X190815129Y-68240900D01*
X190616471Y-68240900D01*
X190616468Y-68240900D01*
X190421630Y-68279656D01*
X190421625Y-68279658D01*
X190238096Y-68355679D01*
X190072923Y-68466044D01*
X190072916Y-68466049D01*
X189932449Y-68606516D01*
X189932444Y-68606523D01*
X189820642Y-68773846D01*
X189766165Y-68819374D01*
X189695722Y-68828222D01*
X189649633Y-68808323D01*
X189648773Y-68809814D01*
X189509482Y-68729394D01*
X189509480Y-68729393D01*
X189509478Y-68729392D01*
X189362093Y-68689900D01*
X189209507Y-68689900D01*
X189062122Y-68729392D01*
X189062117Y-68729394D01*
X188929982Y-68805682D01*
X188929972Y-68805690D01*
X188822090Y-68913572D01*
X188822082Y-68913582D01*
X188745794Y-69045717D01*
X188745792Y-69045722D01*
X188706300Y-69193107D01*
X187870991Y-69193107D01*
X187861250Y-69169589D01*
X187780430Y-69048634D01*
X187780425Y-69048628D01*
X187677571Y-68945774D01*
X187677565Y-68945769D01*
X187637430Y-68918951D01*
X187556611Y-68864950D01*
X187422212Y-68809280D01*
X187404124Y-68805682D01*
X187279538Y-68780900D01*
X187279536Y-68780900D01*
X187134064Y-68780900D01*
X187134061Y-68780900D01*
X186991387Y-68809280D01*
X186991382Y-68809282D01*
X186856989Y-68864950D01*
X186746302Y-68938909D01*
X186678549Y-68960124D01*
X186610082Y-68941341D01*
X186606298Y-68938909D01*
X186578428Y-68920287D01*
X186495611Y-68864950D01*
X186361212Y-68809280D01*
X186343124Y-68805682D01*
X186218538Y-68780900D01*
X186218536Y-68780900D01*
X186073064Y-68780900D01*
X186073061Y-68780900D01*
X185930387Y-68809280D01*
X185930382Y-68809282D01*
X185795989Y-68864950D01*
X185675034Y-68945769D01*
X185675028Y-68945774D01*
X185572174Y-69048628D01*
X185572169Y-69048634D01*
X185491350Y-69169589D01*
X185435682Y-69303982D01*
X185435680Y-69303987D01*
X185407300Y-69446661D01*
X184058245Y-69446661D01*
X184085300Y-69345693D01*
X184085300Y-69193107D01*
X184045808Y-69045722D01*
X183993562Y-68955230D01*
X183969517Y-68913582D01*
X183969509Y-68913572D01*
X183861627Y-68805690D01*
X183861617Y-68805682D01*
X183729482Y-68729394D01*
X183729480Y-68729393D01*
X183729478Y-68729392D01*
X183582093Y-68689900D01*
X183429507Y-68689900D01*
X183282122Y-68729392D01*
X183282117Y-68729394D01*
X183142827Y-68809814D01*
X183141744Y-68807939D01*
X183086189Y-68829409D01*
X183016642Y-68815134D01*
X182970957Y-68773846D01*
X182969521Y-68771698D01*
X182969521Y-68771696D01*
X182859153Y-68606519D01*
X182718681Y-68466047D01*
X182553504Y-68355679D01*
X182369969Y-68279656D01*
X182175131Y-68240900D01*
X182175129Y-68240900D01*
X181976471Y-68240900D01*
X181976468Y-68240900D01*
X181781630Y-68279656D01*
X181781625Y-68279658D01*
X181598096Y-68355679D01*
X181432923Y-68466044D01*
X181432916Y-68466049D01*
X181292449Y-68606516D01*
X181292444Y-68606523D01*
X181182079Y-68771696D01*
X181106058Y-68955225D01*
X181106056Y-68955230D01*
X181067300Y-69150068D01*
X181067300Y-70448731D01*
X181088559Y-70555606D01*
X181106056Y-70643569D01*
X181182079Y-70827104D01*
X181292447Y-70992281D01*
X181432919Y-71132753D01*
X181468146Y-71156291D01*
X181471419Y-71158478D01*
X181516947Y-71212955D01*
X181525795Y-71283398D01*
X181495154Y-71347442D01*
X181434752Y-71384753D01*
X181426001Y-71386822D01*
X181380795Y-71395814D01*
X181238288Y-71454843D01*
X181223668Y-71460900D01*
X181215462Y-71464299D01*
X181066669Y-71563719D01*
X181066662Y-71563724D01*
X180940124Y-71690262D01*
X180940119Y-71690269D01*
X180840699Y-71839062D01*
X180772214Y-72004396D01*
X180737300Y-72179918D01*
X168864327Y-72179918D01*
X168804745Y-72009642D01*
X168804744Y-72009640D01*
X168804739Y-72009625D01*
X168648379Y-71684942D01*
X168648376Y-71684938D01*
X168648376Y-71684936D01*
X168456656Y-71379815D01*
X168456652Y-71379808D01*
X168231960Y-71098054D01*
X167977145Y-70843239D01*
X167695391Y-70618547D01*
X167695384Y-70618543D01*
X167390263Y-70426823D01*
X167390260Y-70426822D01*
X167377652Y-70420750D01*
X167065575Y-70270461D01*
X167065571Y-70270459D01*
X167065557Y-70270454D01*
X166725432Y-70151439D01*
X166374093Y-70071248D01*
X166374096Y-70071248D01*
X166015988Y-70030900D01*
X166015986Y-70030900D01*
X165655614Y-70030900D01*
X165655612Y-70030900D01*
X165297505Y-70071248D01*
X164946167Y-70151439D01*
X164606042Y-70270454D01*
X164606022Y-70270462D01*
X164281339Y-70426822D01*
X164281336Y-70426823D01*
X163976215Y-70618543D01*
X163976208Y-70618547D01*
X163694454Y-70843239D01*
X163439639Y-71098054D01*
X163214947Y-71379808D01*
X163214943Y-71379815D01*
X163023223Y-71684936D01*
X163023222Y-71684939D01*
X162866862Y-72009622D01*
X162866854Y-72009642D01*
X162747839Y-72349767D01*
X162667648Y-72701105D01*
X162627300Y-73059212D01*
X151566057Y-73059212D01*
X151830258Y-72931979D01*
X152135393Y-72740251D01*
X152417142Y-72515563D01*
X152671963Y-72260742D01*
X152896651Y-71978993D01*
X153078072Y-71690262D01*
X153088376Y-71673863D01*
X153088376Y-71673862D01*
X153088379Y-71673858D01*
X153244739Y-71349175D01*
X153363762Y-71009026D01*
X153443952Y-70657691D01*
X153484300Y-70299586D01*
X153484300Y-69939214D01*
X153443952Y-69581109D01*
X153363762Y-69229774D01*
X153350932Y-69193109D01*
X153244745Y-68889642D01*
X153244744Y-68889640D01*
X153244739Y-68889625D01*
X153088379Y-68564942D01*
X153088376Y-68564938D01*
X153088376Y-68564936D01*
X152896656Y-68259815D01*
X152896652Y-68259808D01*
X152671960Y-67978054D01*
X152417145Y-67723239D01*
X152135391Y-67498547D01*
X152135384Y-67498543D01*
X151830263Y-67306823D01*
X151830260Y-67306822D01*
X151505577Y-67150462D01*
X151505557Y-67150454D01*
X151165432Y-67031439D01*
X150814093Y-66951248D01*
X150814096Y-66951248D01*
X150455988Y-66910900D01*
X150455986Y-66910900D01*
X150095614Y-66910900D01*
X150095612Y-66910900D01*
X149737505Y-66951248D01*
X149386167Y-67031439D01*
X149046042Y-67150454D01*
X149046022Y-67150462D01*
X148721339Y-67306822D01*
X148721336Y-67306823D01*
X148416215Y-67498543D01*
X148416208Y-67498547D01*
X148134454Y-67723239D01*
X147879639Y-67978054D01*
X147654947Y-68259808D01*
X147654943Y-68259815D01*
X147463223Y-68564936D01*
X147463222Y-68564939D01*
X147306862Y-68889622D01*
X147306854Y-68889642D01*
X147187839Y-69229767D01*
X147107648Y-69581105D01*
X147067300Y-69939212D01*
X144002806Y-69939212D01*
X144035849Y-69837516D01*
X144069300Y-69626316D01*
X144069300Y-69412484D01*
X144035849Y-69201284D01*
X143969772Y-68997917D01*
X143872694Y-68807391D01*
X143747006Y-68634396D01*
X143747003Y-68634393D01*
X143747001Y-68634390D01*
X143595809Y-68483198D01*
X143595806Y-68483196D01*
X143595804Y-68483194D01*
X143422809Y-68357506D01*
X143232283Y-68260428D01*
X143232280Y-68260427D01*
X143232278Y-68260426D01*
X143028920Y-68194352D01*
X143028923Y-68194352D01*
X142989601Y-68188124D01*
X142817716Y-68160900D01*
X142603884Y-68160900D01*
X142392684Y-68194351D01*
X142392678Y-68194352D01*
X142189321Y-68260426D01*
X142189315Y-68260429D01*
X141998787Y-68357508D01*
X141825795Y-68483194D01*
X141722818Y-68586171D01*
X141660506Y-68620196D01*
X141589690Y-68615130D01*
X141532854Y-68572584D01*
X141515671Y-68541115D01*
X141471689Y-68423196D01*
X141471686Y-68423192D01*
X141471686Y-68423191D01*
X141384061Y-68306138D01*
X141267007Y-68218512D01*
X141267002Y-68218510D01*
X141130004Y-68167411D01*
X141129996Y-68167409D01*
X141069449Y-68160900D01*
X141069438Y-68160900D01*
X139272162Y-68160900D01*
X139272150Y-68160900D01*
X139211603Y-68167409D01*
X139211595Y-68167411D01*
X139074597Y-68218510D01*
X139074592Y-68218512D01*
X138957538Y-68306138D01*
X138869912Y-68423192D01*
X138869910Y-68423197D01*
X138818811Y-68560195D01*
X138818809Y-68560203D01*
X138812300Y-68620750D01*
X135757068Y-68620750D01*
X135772789Y-68578601D01*
X135774258Y-68564942D01*
X135779299Y-68518049D01*
X135779300Y-68518032D01*
X135779300Y-66720767D01*
X135779299Y-66720750D01*
X135772790Y-66660203D01*
X135772788Y-66660195D01*
X135721689Y-66523197D01*
X135721687Y-66523192D01*
X135634061Y-66406138D01*
X135517007Y-66318512D01*
X135517002Y-66318510D01*
X135380004Y-66267411D01*
X135379996Y-66267409D01*
X135319449Y-66260900D01*
X135319438Y-66260900D01*
X133522162Y-66260900D01*
X133522150Y-66260900D01*
X133461603Y-66267409D01*
X133461595Y-66267411D01*
X133324597Y-66318510D01*
X133324592Y-66318512D01*
X133207538Y-66406138D01*
X133119912Y-66523192D01*
X133119910Y-66523197D01*
X133075931Y-66641108D01*
X133033384Y-66697944D01*
X132966864Y-66722754D01*
X132897490Y-66707662D01*
X132868781Y-66686170D01*
X132765809Y-66583198D01*
X132765806Y-66583196D01*
X132765804Y-66583194D01*
X132592809Y-66457506D01*
X132402283Y-66360428D01*
X132402280Y-66360427D01*
X132402278Y-66360426D01*
X132198920Y-66294352D01*
X132198923Y-66294352D01*
X132159601Y-66288124D01*
X131987716Y-66260900D01*
X131773884Y-66260900D01*
X131562684Y-66294351D01*
X131562678Y-66294352D01*
X131359321Y-66360426D01*
X131359315Y-66360429D01*
X131168787Y-66457508D01*
X130995793Y-66583196D01*
X130995790Y-66583198D01*
X130844598Y-66734390D01*
X130844596Y-66734393D01*
X130718908Y-66907387D01*
X130621829Y-67097915D01*
X130621826Y-67097921D01*
X130555752Y-67301278D01*
X130555751Y-67301283D01*
X130555751Y-67301284D01*
X130522300Y-67512484D01*
X126246700Y-67512484D01*
X126246700Y-65220068D01*
X181067300Y-65220068D01*
X181067300Y-65220071D01*
X181067300Y-66018729D01*
X181106056Y-66213569D01*
X181182079Y-66397104D01*
X181292447Y-66562281D01*
X181432919Y-66702753D01*
X181598096Y-66813121D01*
X181781631Y-66889144D01*
X181976471Y-66927900D01*
X181976472Y-66927900D01*
X182175128Y-66927900D01*
X182175129Y-66927900D01*
X182369969Y-66889144D01*
X182553504Y-66813121D01*
X182718681Y-66702753D01*
X182859153Y-66562281D01*
X182969521Y-66397104D01*
X183045544Y-66213569D01*
X183084300Y-66018729D01*
X183084300Y-65220071D01*
X183084299Y-65220068D01*
X189707300Y-65220068D01*
X189707300Y-65220071D01*
X189707300Y-66018729D01*
X189746056Y-66213569D01*
X189822079Y-66397104D01*
X189932447Y-66562281D01*
X190072919Y-66702753D01*
X190238096Y-66813121D01*
X190421631Y-66889144D01*
X190616471Y-66927900D01*
X190616472Y-66927900D01*
X190815128Y-66927900D01*
X190815129Y-66927900D01*
X191009969Y-66889144D01*
X191193504Y-66813121D01*
X191358681Y-66702753D01*
X191499153Y-66562281D01*
X191609521Y-66397104D01*
X191685544Y-66213569D01*
X191724300Y-66018729D01*
X191724300Y-65220071D01*
X191724299Y-65220068D01*
X192237300Y-65220068D01*
X192237300Y-65220071D01*
X192237300Y-66018729D01*
X192276056Y-66213569D01*
X192352079Y-66397104D01*
X192462447Y-66562281D01*
X192602919Y-66702753D01*
X192768096Y-66813121D01*
X192951631Y-66889144D01*
X193146471Y-66927900D01*
X193146472Y-66927900D01*
X193345128Y-66927900D01*
X193345129Y-66927900D01*
X193539969Y-66889144D01*
X193723504Y-66813121D01*
X193888681Y-66702753D01*
X194029153Y-66562281D01*
X194139521Y-66397104D01*
X194215544Y-66213569D01*
X194254300Y-66018729D01*
X194254300Y-65220071D01*
X194254299Y-65220068D01*
X200877300Y-65220068D01*
X200877300Y-65220071D01*
X200877300Y-66018729D01*
X200916056Y-66213569D01*
X200992079Y-66397104D01*
X201102447Y-66562281D01*
X201242919Y-66702753D01*
X201408096Y-66813121D01*
X201591631Y-66889144D01*
X201786471Y-66927900D01*
X201786472Y-66927900D01*
X201985128Y-66927900D01*
X201985129Y-66927900D01*
X202179969Y-66889144D01*
X202363504Y-66813121D01*
X202528681Y-66702753D01*
X202669153Y-66562281D01*
X202779521Y-66397104D01*
X202855544Y-66213569D01*
X202894300Y-66018729D01*
X202894300Y-65220071D01*
X202855544Y-65025231D01*
X202779521Y-64841696D01*
X202669153Y-64676519D01*
X202528681Y-64536047D01*
X202363504Y-64425679D01*
X202179969Y-64349656D01*
X201985131Y-64310900D01*
X201985129Y-64310900D01*
X201786471Y-64310900D01*
X201786468Y-64310900D01*
X201591630Y-64349656D01*
X201591625Y-64349658D01*
X201408096Y-64425679D01*
X201242923Y-64536044D01*
X201242916Y-64536049D01*
X201102449Y-64676516D01*
X201102444Y-64676523D01*
X200992079Y-64841696D01*
X200916058Y-65025225D01*
X200916056Y-65025230D01*
X200877300Y-65220068D01*
X194254299Y-65220068D01*
X194215544Y-65025231D01*
X194139521Y-64841696D01*
X194029153Y-64676519D01*
X193888681Y-64536047D01*
X193723504Y-64425679D01*
X193539969Y-64349656D01*
X193345131Y-64310900D01*
X193345129Y-64310900D01*
X193146471Y-64310900D01*
X193146468Y-64310900D01*
X192951630Y-64349656D01*
X192951625Y-64349658D01*
X192768096Y-64425679D01*
X192602923Y-64536044D01*
X192602916Y-64536049D01*
X192462449Y-64676516D01*
X192462444Y-64676523D01*
X192352079Y-64841696D01*
X192276058Y-65025225D01*
X192276056Y-65025230D01*
X192237300Y-65220068D01*
X191724299Y-65220068D01*
X191685544Y-65025231D01*
X191609521Y-64841696D01*
X191499153Y-64676519D01*
X191358681Y-64536047D01*
X191193504Y-64425679D01*
X191009969Y-64349656D01*
X190815131Y-64310900D01*
X190815129Y-64310900D01*
X190616471Y-64310900D01*
X190616468Y-64310900D01*
X190421630Y-64349656D01*
X190421625Y-64349658D01*
X190238096Y-64425679D01*
X190072923Y-64536044D01*
X190072916Y-64536049D01*
X189932449Y-64676516D01*
X189932444Y-64676523D01*
X189822079Y-64841696D01*
X189746058Y-65025225D01*
X189746056Y-65025230D01*
X189707300Y-65220068D01*
X183084299Y-65220068D01*
X183045544Y-65025231D01*
X182969521Y-64841696D01*
X182859153Y-64676519D01*
X182718681Y-64536047D01*
X182553504Y-64425679D01*
X182369969Y-64349656D01*
X182175131Y-64310900D01*
X182175129Y-64310900D01*
X181976471Y-64310900D01*
X181976468Y-64310900D01*
X181781630Y-64349656D01*
X181781625Y-64349658D01*
X181598096Y-64425679D01*
X181432923Y-64536044D01*
X181432916Y-64536049D01*
X181292449Y-64676516D01*
X181292444Y-64676523D01*
X181182079Y-64841696D01*
X181106058Y-65025225D01*
X181106056Y-65025230D01*
X181067300Y-65220068D01*
X126246700Y-65220068D01*
X126246700Y-62543700D01*
X126266702Y-62475579D01*
X126320358Y-62429086D01*
X126372700Y-62417700D01*
X140574949Y-62417700D01*
X140597395Y-62419907D01*
G37*
%TD.AperFunction*%
%TD*%
M02*
