%TF.GenerationSoftware,KiCad,Pcbnew,9.0.0*%
%TF.CreationDate,2025-09-25T20:11:43-07:00*%
%TF.ProjectId,antenna_top_cap_v2b,616e7465-6e6e-4615-9f74-6f705f636170,rev?*%
%TF.SameCoordinates,Original*%
%TF.FileFunction,Profile,NP*%
%FSLAX46Y46*%
G04 Gerber Fmt 4.6, Leading zero omitted, Abs format (unit mm)*
G04 Created by KiCad (PCBNEW 9.0.0) date 2025-09-25 20:11:43*
%MOMM*%
%LPD*%
G01*
G04 APERTURE LIST*
%TA.AperFunction,Profile*%
%ADD10C,0.100000*%
%TD*%
%TA.AperFunction,Profile*%
%ADD11C,0.050000*%
%TD*%
%TA.AperFunction,Profile*%
%ADD12C,0.150000*%
%TD*%
G04 APERTURE END LIST*
D10*
X126046200Y-62217200D02*
X140645800Y-62217200D01*
D11*
X126046200Y-162217200D02*
X126046200Y-151717200D01*
X205046200Y-62217200D02*
X205046200Y-72717200D01*
D10*
X205046200Y-162217200D02*
X126046200Y-162217200D01*
D11*
X126046200Y-72717200D02*
X126046200Y-62217200D01*
X215546200Y-151717200D02*
X205046200Y-151717200D01*
X205046200Y-72717200D02*
X215546200Y-72717200D01*
X126046200Y-151717200D02*
X115546200Y-151717200D01*
D10*
X205046200Y-62217200D02*
X151845800Y-62217200D01*
X215546200Y-72717200D02*
X215546200Y-151717200D01*
D11*
X205046200Y-151717200D02*
X205046200Y-162217200D01*
D10*
X115546200Y-72717200D02*
X115546200Y-151717200D01*
X140638300Y-62219400D02*
X151845800Y-62217200D01*
D11*
X115546200Y-72717200D02*
X126046200Y-72717200D01*
%TO.C,J6*%
X140305400Y-142297000D02*
X144129600Y-142297000D01*
X140319600Y-129797000D02*
X140305400Y-142297000D01*
X144129600Y-129801800D02*
X140319600Y-129797000D01*
X144129600Y-142297000D02*
X144129600Y-129801800D01*
X146379600Y-142299400D02*
X150203800Y-142299400D01*
X146393800Y-129799400D02*
X146379600Y-142299400D01*
X150203800Y-129804200D02*
X146393800Y-129799400D01*
X150203800Y-142299400D02*
X150203800Y-129804200D01*
X152743800Y-129799400D02*
X155283800Y-129799400D01*
X152743800Y-142299400D02*
X152743800Y-129799400D01*
X155283800Y-129799400D02*
X155283800Y-142299400D01*
X155283800Y-142299400D02*
X152743800Y-142299400D01*
X176205800Y-129799400D02*
X176205800Y-142299400D01*
X176205800Y-142299400D02*
X178745800Y-142299400D01*
X178745800Y-129799400D02*
X176205800Y-129799400D01*
X178745800Y-142299400D02*
X178745800Y-129799400D01*
X181285800Y-129799400D02*
X181285800Y-142299400D01*
X181285800Y-142299400D02*
X185095800Y-142299400D01*
X185095800Y-129799400D02*
X181285800Y-129799400D01*
X185095800Y-142299400D02*
X185095800Y-129799400D01*
X187311600Y-129799400D02*
X187311600Y-142299400D01*
X187311600Y-142299400D02*
X191121600Y-142299400D01*
X191121600Y-129799400D02*
X187311600Y-129799400D01*
X191121600Y-142299400D02*
X191121600Y-129799400D01*
D12*
X154535800Y-144299400D02*
G75*
G02*
X153035800Y-144299400I-750000J0D01*
G01*
X153035800Y-144299400D02*
G75*
G02*
X154535800Y-144299400I750000J0D01*
G01*
X154779600Y-128049400D02*
G75*
G02*
X153279600Y-128049400I-750000J0D01*
G01*
X153279600Y-128049400D02*
G75*
G02*
X154779600Y-128049400I750000J0D01*
G01*
X178111600Y-144549400D02*
G75*
G02*
X176611600Y-144549400I-750000J0D01*
G01*
X176611600Y-144549400D02*
G75*
G02*
X178111600Y-144549400I750000J0D01*
G01*
X178261600Y-128049400D02*
G75*
G02*
X176761600Y-128049400I-750000J0D01*
G01*
X176761600Y-128049400D02*
G75*
G02*
X178261600Y-128049400I750000J0D01*
G01*
%TD*%
M02*
